<svg xmlns="http://www.w3.org/2000/svg" width="203.586" height="52" viewBox="0 0 203.586 52"><defs><style>.a,.b{fill:#004a93;}.a{fill-rule:evenodd;}</style></defs><g transform="translate(-271 -661)"><path class="a" d="M122.565,181.249h-7.383l3.922-12.7Zm-10.844,12.837,2.307-7.739h9.46l2.307,7.739h7.845l-8.306-29.371c-.461-1.929-1.384-2.549-3.461-2.549H110.337v2.641h.923c1.384,0,2.076.436,2.076,1.493a5.435,5.435,0,0,1-.692,2.687l-8.306,25.1" transform="translate(166.662 507.792)"/><path class="b" d="M200.824,194.086V164.508c0-1.539-.923-2.342-2.538-2.342h-7.152v2.641h.462c1.384,0,2.076.574,2.076,1.814v27.465" transform="translate(109.399 507.792)"/><path class="b" d="M238.8,194.086V164.508c0-1.539-.923-2.342-2.538-2.342h-7.152v2.641h.461c1.384,0,2.077.574,2.077,1.814v27.465" transform="translate(84.825 507.792)"/><path class="a" d="M277.448,163.976c0-2.123-1.615-3.37-4.153-3.37-2.769,0-4.153,1.246-4.153,3.37,0,2.17,1.384,3.439,4.153,3.439,2.538,0,4.153-1.27,4.153-3.439m-.231,29.244V171.57a2.176,2.176,0,0,0-2.307-2.377h-7.152V171.8h.461c1.384,0,1.846.577,1.846,1.893V193.22" transform="translate(59.474 508.751)"/><path class="a" d="M320.239,197.577v4.8a6.605,6.605,0,0,1-4.384,2.17c-1.384,0-2.076-.669-2.076-2.47,0-1.985.461-2.747,2.076-3.37a18.428,18.428,0,0,1,4.384-1.131m-10.152-5.747.692-.277a20.46,20.46,0,0,1,4.384-1.269,20.113,20.113,0,0,1,2.077-.185c2.307,0,3,.762,3,2.885v.6c-3.23.531-4.153.716-6,1.108a18.554,18.554,0,0,0-2.769.923c-3,1.2-4.384,3.508-4.384,7.132,0,4.547,1.846,6.717,6,6.717a8.359,8.359,0,0,0,4.384-1.108,9.27,9.27,0,0,0,3-2.077v.739c0,1.5.692,2.216,2.076,2.216h6.922v-2.47h-.231q-2.076,0-2.077-1.87V193.1c0-6.14-2.077-8.217-8.075-8.217a24.39,24.39,0,0,0-5.768.669,17.2,17.2,0,0,0-4.845,1.846" transform="translate(33.733 492.71)"/><path class="a" d="M386.391,209.322v-16.3c1.615-1.5,2.769-2.077,4.384-2.077s2.077.692,2.077,3.139v15.234H400V192.935c0-3.37-.461-4.824-1.384-6.094A5.74,5.74,0,0,0,394,185.018c-2.769,0-4.845,1.016-8.075,3.808v-1.293c0-1.5-.692-2.239-2.076-2.239h-6.922V187.9h.231c1.384,0,2.076.577,2.076,1.893v19.527" transform="translate(-12.055 492.621)"/><path class="b" d="M10250.4-5095.683h-10.724l10.261-14.451v-4.923h-15.395c-1.865,0-2.561.735-2.561,2.506v4.347h2.561v-.481c0-1.312.7-1.84,2.1-1.84h5.6l-10.489,14.452v4.969h18.652" transform="translate(-9839.941 5793.014)"/><path class="a" d="M10349.066-5125.437v-27.1c0-2.188-.933-2.9-3.031-2.9h-6.3v2.991h.694c1.169,0,1.634.438,1.634,1.771v25.239Zm3.726,0h6.767v-20.453c0-2.072-.931-2.9-3.028-2.9h-3.738Zm-14.451,0v-23.353h-3.734c-2.1,0-3.033.828-3.033,2.9v20.453Zm29.146-13.619c0,12.679-9.329,21.927-21.918,21.927s-21.923-9.249-21.923-21.927,9.33-21.929,21.923-21.929,21.918,9.253,21.918,21.929m4.429,0c0-14.842-11.192-25.977-26.347-25.977-14.925,0-26.354,11.135-26.354,25.977,0,14.887,11.43,26.023,26.354,26.023,15.154,0,26.347-11.136,26.347-26.023" transform="translate(-9897.33 5826.033)"/></g></svg>