<svg xmlns="http://www.w3.org/2000/svg" viewBox="0 0 98.668 102.031"><defs><style>.a{fill:#ffc380;}.b{fill:#ffcf99;}.c{fill:#29ccb1;}.d{fill:#73c3ff;}.e{fill:#44a4ec;}</style></defs><path class="a" d="M228.152,113.947h-25.9a2.995,2.995,0,0,1-1.523-5.573c11.286-6.669,17.148-14.448,17.921-23.782a6.437,6.437,0,0,1,6.43-5.784A12.658,12.658,0,0,1,237.536,91.46h0v1.006c0,8.17-2.42,13.38-6.885,20.135A3,3,0,0,1,228.152,113.947Z" transform="translate(-161.228 -63.103)"/><path class="b" d="M209.952,234.467a9.394,9.394,0,0,0-9.384-9.384H152.3a2.993,2.993,0,0,0-1.524.417c-3.388,2-6.809,3.652-9.557,4.978-.959.462-1.864.9-2.688,1.31a3,3,0,0,0-1.655,2.679V272.8a3,3,0,0,0,1.655,2.679c12.1,6.05,22.16,6.781,33.89,6.781,1.816,0,3.674-.017,5.584-.035,2.113-.02,4.3-.041,6.587-.041h9.468a9.381,9.381,0,0,0,8.079-14.152,9.376,9.376,0,0,0,3.194-12.778,9.374,9.374,0,0,0,2.043-14.332A9.319,9.319,0,0,0,209.952,234.467Z" transform="translate(-111.284 -180.228)"/><g transform="translate(38.333 0)"><path class="c" d="M434.6,117.051H428.21a2.995,2.995,0,0,1,0-5.99H434.6a2.995,2.995,0,1,1,0,5.99Z" transform="translate(-380.493 -88.929)"/><path class="c" d="M210.18,117.051h-6.389a2.995,2.995,0,1,1,0-5.99h6.389a2.995,2.995,0,0,1,0,5.99Z" transform="translate(-200.796 -88.929)"/><path class="c" d="M271.108,11.524a2.993,2.993,0,0,1-2.6-1.5l-3.194-5.533A2.995,2.995,0,1,1,270.5,1.5L273.7,7.032a3,3,0,0,1-2.591,4.493Z" transform="translate(-252.137 -0.001)"/><path class="c" d="M380.115,11.524a3,3,0,0,1-2.591-4.493L380.719,1.5a2.995,2.995,0,0,1,5.187,2.995l-3.194,5.533A2.993,2.993,0,0,1,380.115,11.524Z" transform="translate(-341.985 0)"/></g><path class="d" d="M78.547,420.627V436.4h-5.99V420.627a2.995,2.995,0,0,1,5.99,0Z" transform="translate(-59.779 -334.406)"/><g transform="translate(38.333 0)"><path class="c" d="M434.6,117.051H428.21a2.995,2.995,0,0,1,0-5.99H434.6a2.995,2.995,0,1,1,0,5.99Z" transform="translate(-380.493 -88.929)"/><path class="c" d="M210.18,117.051h-6.389a2.995,2.995,0,1,1,0-5.99h6.389a2.995,2.995,0,0,1,0,5.99Z" transform="translate(-200.796 -88.929)"/><path class="c" d="M271.108,11.524a2.993,2.993,0,0,1-2.6-1.5l-3.194-5.533A2.995,2.995,0,1,1,270.5,1.5L273.7,7.032a3,3,0,0,1-2.591,4.493Z" transform="translate(-252.137 -0.001)"/><path class="c" d="M380.115,11.524a3,3,0,0,1-2.591-4.493L380.719,1.5a2.995,2.995,0,0,1,5.187,2.995l-3.194,5.533A2.993,2.993,0,0,1,380.115,11.524Z" transform="translate(-341.985 0)"/></g><g transform="translate(12.778 83.226)"><path class="d" d="M78.547,420.627V436.4h-5.99V420.627a2.995,2.995,0,0,1,5.99,0Z" transform="translate(-72.557 -417.632)"/></g><path class="e" d="M36.988,225.083H11.433a3,3,0,0,0-2.995,2.995v51.111a3.052,3.052,0,0,0,2.995,3.033H30.6a9.492,9.492,0,0,0,8.4-5.235,9.3,9.3,0,0,0,.988-4.187V228.078A3,3,0,0,0,36.988,225.083Z" transform="translate(-8.438 -180.228)"/><path class="d" d="M78.547,419.625V435.6h-5.99V419.625a2.995,2.995,0,1,1,5.99,0Z" transform="translate(-59.779 -333.604)"/></svg>