<svg id="solera" xmlns="http://www.w3.org/2000/svg" viewBox="0 0 116.732 56.027">
  <defs>
    <style>
      .cls-1 {
        fill: #fff
      }
    </style>
  </defs>
  <path id="Path_94" data-name="Path 94" class="cls-1" d="M0,33.025c1.59-1.446,2.1-1.3,2.891.651a7.709,7.709,0,0,0,7.662,5.168,7.785,7.785,0,0,0,6.83-6.035,7.608,7.608,0,0,0-4.3-8.493C10.7,23.159,8.24,22.183,5.927,20.955a8.74,8.74,0,0,1-4.373-8.312A9.1,9.1,0,0,1,8.1,5.017a8.637,8.637,0,0,1,9.143,3.216,2.709,2.709,0,0,1,.687,1.409,1.723,1.723,0,0,1-.614,1.3,1.858,1.858,0,0,1-1.409-.217c-.325-.181-.506-.651-.759-.976-1.7-1.879-3.686-2.819-6.252-2.132a6.076,6.076,0,0,0-4.554,5.24,5.816,5.816,0,0,0,3.144,5.855c2.313,1.229,4.807,2.2,7.156,3.361,3.975,1.988,6,5.963,5.529,10.625a10.187,10.187,0,0,1-7.3,8.312A10.061,10.061,0,0,1,.8,35.3C.542,34.8.253,34.254,0,33.748Z" transform="translate(0 -3.029)"/>
  <path id="Path_95" data-name="Path 95" class="cls-1" d="M286.678,68.976c-.651.325-1.735,1.048-1.843.94a12.849,12.849,0,0,1-1.409-2.53c-.325.217-.8.542-1.265.867a9.822,9.822,0,0,1-11.023.4A9.56,9.56,0,0,1,266.223,58.6a9.673,9.673,0,0,1,7.156-8.421,10.021,10.021,0,0,1,12.9,8.059,9.828,9.828,0,0,0,.4,1.373Zm-17.925-9.324a7.557,7.557,0,1,0,7.77-7.373A7.722,7.722,0,0,0,268.753,59.652Z" transform="translate(-169.946 -31.752)"/>
  <path id="Path_96" data-name="Path 96" class="cls-1" d="M107.069,0c1.229.253,2.421.506,3.65.8a22.538,22.538,0,0,1,10.372,5.566c.687.651,1.446,1.482.506,2.241a2.451,2.451,0,0,1-2.241-.325C110.972.976,100.166.9,91.818,8.2c-.759.687-1.626,1.409-2.458.434-.867-.976,0-1.771.759-2.421A21.912,21.912,0,0,1,102.84.4a6.56,6.56,0,0,0,1.373-.4Z" transform="translate(-56.834)"/>
  <path id="Path_97" data-name="Path 97" class="cls-1" d="M168.754,61.314a7.329,7.329,0,0,0,10.553,5.421,8.652,8.652,0,0,0,1.229-.759c.867-.651,1.843-1.7,2.747-.4.831,1.229-.47,1.915-1.3,2.566a10.19,10.19,0,0,1-15.649-11.529,10.165,10.165,0,0,1,19.732,2.458c.072,1.7-.614,2.241-2.2,2.241-4.337-.036-8.674,0-13.01,0Zm0-2.819h14.42a7.157,7.157,0,0,0-6.975-6.144A7.3,7.3,0,0,0,168.754,58.495Z" transform="translate(-105.87 -31.787)"/>
  <path id="Path_98" data-name="Path 98" class="cls-1" d="M75.728,70.074A10.137,10.137,0,1,1,85.883,60.063,10.134,10.134,0,0,1,75.728,70.074Zm7.517-10.083A7.6,7.6,0,0,0,75.8,52.329a7.627,7.627,0,1,0,7.445,7.662Z" transform="translate(-41.828 -31.802)"/>
  <path id="Path_99" data-name="Path 99" class="cls-1" d="M131.181,37.812v-10.3c0-1.012-.217-2.277,1.3-2.313,1.482-.036,1.373,1.229,1.373,2.241,0,6.794.036,13.589,0,20.383,0,1.626.325,3,1.988,3.686,1.59.651,2.71-.072,3.795-1.229.361-.361,1.229-.253,1.879-.361-.036.759.217,1.7-.108,2.241a5.543,5.543,0,0,1-6.108,2.024,5.774,5.774,0,0,1-4.084-5.349C131.145,45.184,131.181,41.5,131.181,37.812Z" transform="translate(-83.765 -16.091)"/>
  <path id="Path_100" data-name="Path 100" class="cls-1" d="M234.011,66.418V76.9c0,1.048-.108,2.168-1.373,1.988-.506-.072-1.265-1.265-1.265-1.952-.108-7.047-.072-14.095-.036-21.106a5.907,5.907,0,0,1,3.831-5.782,5.847,5.847,0,0,1,6.252,1.626c.651.759,1.3,1.626.289,2.494-.94.8-1.59.072-2.241-.651a2.773,2.773,0,0,0-3.361-.976,3.218,3.218,0,0,0-2.1,3.253Q234.011,61.106,234.011,66.418Z" transform="translate(-147.708 -31.76)"/>
  <path id="Path_101" data-name="Path 101" class="cls-1" d="M205.865,139.274a21.934,21.934,0,0,1-15.721-6.035c-.723-.651-1.59-1.373-.614-2.385.976-1.048,1.7-.145,2.421.506,8.24,7.3,19.154,7.264,27.466-.072.759-.651,1.482-1.409,2.421-.361.867,1.012,0,1.662-.651,2.277A21.66,21.66,0,0,1,205.865,139.274Z" transform="translate(-120.756 -83.257)"/>
</svg>
