<svg xmlns="http://www.w3.org/2000/svg" viewBox="0 0 108.068 20"><defs><style>.a{fill:#e87200;}.b{fill:#bcbcbc;}</style></defs><g transform="translate(-0.014)"><g transform="translate(0.014)"><path class="a" d="M5.04,7.875,2.72,6.881A2.121,2.121,0,0,1,1.666,4.109a2.068,2.068,0,0,1,3.7-.211.527.527,0,0,0,.9-.542A3.191,3.191,0,0,0,4.8,2.031,3.164,3.164,0,0,0,2.3,7.844l2.319.994a2.589,2.589,0,0,1,1.566,2.41,2.618,2.618,0,0,1-5.151.663A.492.492,0,0,0,.4,11.549a.492.492,0,0,0-.361.633,3.675,3.675,0,0,0,7.229-.934A3.731,3.731,0,0,0,5.04,7.875" transform="translate(-0.014 -1.248)"/><path class="a" d="M31.175,27.225A2.62,2.62,0,1,1,33.8,24.6a2.622,2.622,0,0,1-2.62,2.62m0-6.325a3.675,3.675,0,1,0,3.675,3.675A3.689,3.689,0,0,0,31.175,20.9" transform="translate(-19.221 -14.605)"/><path class="a" d="M59.2,19.235a.529.529,0,0,0-.723.181,1.051,1.051,0,0,1-.9.512,1.067,1.067,0,0,1-1.054-1.054V11.012a.512.512,0,0,0-1.024,0V18.9a2.115,2.115,0,0,0,2.108,2.108,2.065,2.065,0,0,0,1.807-1.054.53.53,0,0,0-.211-.723" transform="translate(-38.787 -7.337)"/><path class="a" d="M102,22.677a.529.529,0,0,1-.723-.181,1.05,1.05,0,0,0-.9-.512,1.067,1.067,0,0,0-1.054,1.054V30.93a.512.512,0,0,1-1.024,0V23.008a2.115,2.115,0,0,1,2.108-2.108,2.065,2.065,0,0,1,1.807,1.054.6.6,0,0,1-.211.723" transform="translate(-68.696 -14.605)"/><path class="a" d="M49.2,2.41A8.051,8.051,0,0,0,43.416,0a8.174,8.174,0,0,0-5.783,2.41.511.511,0,0,0,.723.723,7.054,7.054,0,0,1,10.06,0,.492.492,0,0,0,.723,0,.454.454,0,0,0,.06-.723" transform="translate(-26.191)"/><path class="a" d="M91.9,56.256a8.051,8.051,0,0,1-5.783,2.41,8.174,8.174,0,0,1-5.783-2.41.511.511,0,1,1,.723-.723,7.054,7.054,0,0,0,10.06,0,.492.492,0,0,1,.723,0,.454.454,0,0,1,.06.723" transform="translate(-56.03 -38.696)"/><path class="a" d="M73.975,21.954a2.591,2.591,0,0,1,2.56,2.108H71.384a2.648,2.648,0,0,1,2.59-2.108m0-1.054a3.675,3.675,0,0,0,0,7.349,3.588,3.588,0,0,0,2.59-1.084.511.511,0,0,0-.723-.723,2.636,2.636,0,0,1-4.428-1.355h5.723a.508.508,0,0,0,.512-.512A3.689,3.689,0,0,0,73.975,20.9" transform="translate(-49.129 -14.605)"/><path class="a" d="M116.675,27.225a2.62,2.62,0,1,1,2.62-2.62,2.622,2.622,0,0,1-2.62,2.62m0-6.325a3.675,3.675,0,0,0,0,7.349,3.615,3.615,0,0,0,2.62-1.114v.572a.512.512,0,0,0,1.024,0V24.575a3.644,3.644,0,0,0-3.645-3.675" transform="translate(-78.968 -14.605)"/></g><g transform="translate(56.244 3.825)"><path d="M273.478,28.548c-1.416,0-2.078-.572-2.078-1.807,0-1.777,1.265-2.741,3.494-2.741.361,0,.843,0,1.175.03h.181l.03-.151a2.78,2.78,0,0,0,.09-.542c0-.512-.422-.753-1.325-.753a7.811,7.811,0,0,0-2.349.392l.331-1.325h.06c.241,0,.663-.03,1.3-.09.452-.03.874-.06,1.2-.06,1.687,0,2.44.422,2.44,1.416a6.5,6.5,0,0,1-.151,1.2l-.211,1.114a19.914,19.914,0,0,0-.362,2.831v.3H275.8v-.09c0-.12.06-.572.121-.964A2.626,2.626,0,0,1,273.478,28.548Zm2.44-3.614a5.813,5.813,0,0,0-.693-.03,2.441,2.441,0,0,0-1.536.361,1.6,1.6,0,0,0-.6,1.265.874.874,0,0,0,.994.934,1.547,1.547,0,0,0,1.114-.452,3.328,3.328,0,0,0,.813-1.988v-.09Z" transform="translate(-245.888 -18.849)"/><path d="M299.157,24.355c-1.115,0-1.657-.422-1.657-1.265a8.519,8.519,0,0,1,.271-1.506l.181-.994.181-1.054.181-.994.03-.181H297.5l.151-.934h.813l.03-.12.09-.572.121-.693.03-.12,1.807-.422-.03.151-.181.9c-.06.361-.12.6-.151.723l-.03.151h.964l.964-.03h.12l-.271.964c-.331,0-.422-.03-.964-.03h-.934l-.03.12c-.03.211-.121.693-.241,1.506-.121.6-.151.873-.271,1.717a3.856,3.856,0,0,0-.09.843c0,.452.241.693.753.693a3.418,3.418,0,0,0,.964-.151l-.181.994A5.78,5.78,0,0,1,299.157,24.355Z" transform="translate(-264.127 -14.657)"/><path d="M315.561,28.548c-1.958,0-2.861-.783-2.861-2.5a6.2,6.2,0,0,1,.572-2.53,3.57,3.57,0,0,1,3.614-2.018c1.626,0,2.47.633,2.47,1.867a8.646,8.646,0,0,1-.241,1.566H314.6a4.176,4.176,0,0,0-.09.994c0,.994.633,1.536,1.717,1.536a5.594,5.594,0,0,0,2.379-.542l-.241,1.3A12.094,12.094,0,0,1,315.561,28.548Zm-.632-4.578h2.711l.03-.151a1.468,1.468,0,0,0,.03-.361c0-.572-.392-.873-1.145-.873A1.639,1.639,0,0,0,314.808,24,.181.181,0,0,1,314.929,23.97Z" transform="translate(-274.748 -18.849)"/><path d="M333.821,28.666c.392-.452.964-1.024,1.626-1.777.572-.6.964-1.054,1.235-1.325l.121-.151-.09-.12-.753-1.386-.994-1.687-.09-.12h2.018c.03.06.03.12.06.12.06.12.211.422.452.873s.362.753.452.873a.275.275,0,0,0,.09.151c.06-.06.09-.12.12-.12.151-.151.452-.482.874-.964.331-.392.572-.633.693-.783l.121-.12h1.506l-.12.12c-.361.392-.783.843-1.3,1.386-.633.663-1.024,1.114-1.235,1.325l-.121.12.06.12.874,1.536c.542.994.9,1.627,1.084,1.958a.52.52,0,0,0,.09.12H338.55l-.06-.12-.542-1.114-.572-1.084-.06-.12-.121.12c-1.024,1.114-1.446,1.627-1.928,2.2l-.12.12H333.7Z" transform="translate(-289.423 -19.269)"/><path d="M186.76,23.3l1.175-2.018c.572-.964,1.145-1.958,2.56-4.518.512-.934.9-1.627,1.145-2.139l.06-.12h2.108v.12c.09.482.211,1.2.392,2.108q.271,1.491.452,2.259l.512,2.289.482,2.078.03.12h-2.169v-.12c-.03-.3-.12-.753-.211-1.386-.09-.6-.151-1.024-.211-1.3v-.12h-3.313l-.06.12c-.09.151-.331.633-.723,1.386-.361.693-.572,1.114-.663,1.325a.228.228,0,0,1-.06.12H186.7ZM190.4,19.47h2.44l-.03-.12c-.06-.422-.151-.964-.271-1.6-.181-.9-.271-1.446-.331-1.657l-.03-.181-.12.211q-.316.542-.9,1.627c-.392.753-.693,1.3-.874,1.627l-.06.09Z" transform="translate(-186.7 -13.958)"/><path d="M222.559,29.037c-1.536,0-2.259-.452-2.259-1.386a3.18,3.18,0,0,1,.06-.753c.09-.482.151-.934.241-1.386.331-1.777.392-2.229.512-3.193V22.2h1.777v.151c-.03.241-.12.873-.3,1.807l-.361,1.867a6.393,6.393,0,0,0-.12,1.145c0,.542.392.813,1.114.813a1.5,1.5,0,0,0,1.145-.422,1.451,1.451,0,0,0,.361-.512,9.572,9.572,0,0,0,.633-2.741l.3-1.988.03-.12h1.747c0,.06,0,.12-.03.12-.06.241-.151.753-.3,1.536l-.3,1.687c-.06.331-.151.873-.241,1.687a11.5,11.5,0,0,0-.151,1.687h-1.627a4.163,4.163,0,0,1,.09-.753,1.7,1.7,0,0,0,.03-.211A2.519,2.519,0,0,1,222.559,29.037Z" transform="translate(-210.18 -19.339)"/><path d="M249.049,22.4a2.053,2.053,0,0,1-2.349-2.349,5.791,5.791,0,0,1,.633-2.62,3.523,3.523,0,0,1,3.373-2.048,4.327,4.327,0,0,1,1.476.241l.03-.151c.06-.271.121-.693.211-1.3.12-.633.151-1.054.211-1.355V12.7h1.777v.12c-.12.542-.271,1.325-.482,2.38-.361,2.018-.542,3.042-.723,4.127a22.182,22.182,0,0,0-.331,2.8v.12h-1.6a8.285,8.285,0,0,1,.12-1.024A2.383,2.383,0,0,1,249.049,22.4Zm1.777-5.964a1.83,1.83,0,0,0-1.265.422,4.327,4.327,0,0,0-1.024,2.982c0,1.024.361,1.476,1.145,1.476a1.671,1.671,0,0,0,1.506-1.084,3.443,3.443,0,0,0,.271-.934c.12-.6.331-1.657.482-2.53l.03-.12A2.812,2.812,0,0,0,250.826,16.435Z" transform="translate(-228.628 -12.7)"/></g><g transform="translate(48.534 0.03)"><rect class="b" width="0.482" height="19.97"/></g></g></svg>