<svg xmlns="http://www.w3.org/2000/svg" xmlns:xlink="http://www.w3.org/1999/xlink" viewBox="0 0 328 193"><defs><style>.a{fill:#ededed;stroke:#cccece;}.b{clip-path:url(#a);}.c{fill:#88d9e2;}.an,.ca,.d{fill:#fff;}.ab,.ac,.ad,.ae,.af,.ag,.ah,.ai,.aj,.av,.ba,.bb,.bg,.bk,.bu,.cb,.e,.h,.i,.j,.k,.l,.m,.p,.q,.r,.s,.u,.v,.w,.x,.y,.z{fill:none;stroke-miterlimit:10;}.ab,.ac,.ad,.e,.h,.i,.j,.k,.p,.q{stroke:#a4e3ff;}.e{stroke-width:6.813px;}.ao,.e,.p,.q,.s,.u{opacity:0.68;}.f{fill:#00a8b7;}.g{fill:#006881;}.h,.i,.j,.k,.l,.m{stroke-width:4.679px;}.ac,.i{opacity:0.53;}.j{opacity:0.31;}.ad,.ag,.k,.m{opacity:0.39;}.ae,.af,.ag,.l,.m,.r,.s{stroke:#cff3ff;}.n{fill:#98ba2d;}.o{fill:#36b2d8;}.p,.r,.s{stroke-width:6.238px;}.q{stroke-width:9.131px;}.r{opacity:0.89;}.t{fill:#22557f;}.aj,.u,.v,.w,.x{stroke:#95e4e8;}.u,.v{stroke-width:5.489px;}.v,.w,.x{opacity:0.34;}.w{stroke-width:6.029px;}.x{stroke-width:6.531px;}.y{stroke:#fff;}.y,.z{stroke-width:6.947px;}.z{stroke:#a4eeff;}.aa{fill:#2e9bc6;}.ab,.ac,.ad,.ae,.af,.ag,.aj{stroke-width:6.272px;}.ae{opacity:0.14;}.ah{stroke:#46c4d1;}.ah,.ai{stroke-width:7.938px;}.ai{stroke:#3a84ad;}.ak{fill:#36b6dd;}.al{fill:#2e6193;}.am{fill:#ccb5a3;}.an{opacity:0.2;}.ap{fill:#a4e3ff;}.aq{fill:#cff3ff;}.ar{fill:#38c7e8;}.as{fill:#57dfff;}.at{fill:#00cfff;}.au{fill:#2469ce;opacity:0.5;}.av{stroke:#38300e;stroke-width:3.519px;}.aw{fill:url(#b);}.ax{fill:#2e8c45;}.ay{fill:#2c6026;}.az{fill:url(#c);}.ba,.bb,.bk{stroke:#562723;}.ba,.cb{stroke-linecap:round;}.ba{stroke-width:17.728px;}.bb{stroke-width:9.455px;}.bc{fill:#49843d;}.bd{fill:#77a33e;}.be{fill:url(#d);}.bf{fill:#33312a;}.bg{stroke:#4b4332;stroke-width:6.696px;}.bh{fill:url(#e);}.bi{fill:url(#f);}.bj{fill:#2a593b;}.bk{stroke-width:0.919px;}.bl{fill:#9b9778;}.bm{fill:#b7b191;}.bn{opacity:0.7;}.bo{fill:#565441;}.bp{fill:#111;}.bq{fill:#3d4039;}.br{fill:#d6e3dd;}.bs{fill:#2a2b2a;}.bt{fill:#e59c0a;}.bu{stroke:#111;}.bv{fill:#ea8313;}.bw{fill:#eebb2d;}.bx{fill:#f49211;}.by{fill:#e27e05;}.bz{fill:#f7d877;}.ca{opacity:0.57;}.cb{stroke:#e59c0a;stroke-width:0.5px;}.cc{fill:#434443;}.cd,.ce,.cf{opacity:0.51;}.cd{clip-path:url(#g);}.ce{clip-path:url(#h);}.cf{clip-path:url(#i);}</style><clipPath id="a"><path class="a" d="M4-2H324c2.209,0,4,1.342,4,3V188c0,1.655-1.791,3-4,3H4c-2.209,0-4-1.342-4-3V1C0-.658,1.791-2,4-2Z" transform="translate(94 182)"/></clipPath><linearGradient id="b" x1="0.5" y1="-2.109" x2="0.5" y2="1.355" gradientUnits="objectBoundingBox"><stop offset="0" stop-color="#7fa637"/><stop offset="1" stop-color="#5f891b"/></linearGradient><linearGradient id="c" x1="0.778" y1="0.052" x2="0.262" y2="1.084" gradientUnits="objectBoundingBox"><stop offset="0.092" stop-color="#49843d"/><stop offset="0.196" stop-color="#447e3d"/><stop offset="0.701" stop-color="#31633b"/><stop offset="1" stop-color="#2a593b"/></linearGradient><linearGradient id="d" x1="0.709" y1="-0.022" x2="0.285" y2="1.05" xlink:href="#c"/><linearGradient id="e" x1="0.705" y1="0.014" x2="0.275" y2="1.035" xlink:href="#c"/><linearGradient id="f" x1="0.705" y1="0.014" x2="0.274" y2="1.035" xlink:href="#c"/><clipPath id="g"><path d="M189.339,71.639c-9.33,5.759-98.946.23-98.946.23a9.713,9.713,0,0,0-2.764-.806,35.043,35.043,0,0,0-8.524,0l-6.1.576s4.377-28.451,22-28.566c0,0,47.342-1.613,66.693.691h.115a27.6,27.6,0,0,1,6.22,1.267h0c.23.23,2.419,2.534,5.3,5.759C178.972,57.01,187.266,66.686,189.339,71.639Z" transform="translate(-73 -42.524)"/></clipPath><clipPath id="h"><path d="M49.015,78.265S57.539,51.2,62.722,47.856c0,0,16.126-1.5,18.084,1.152,0,0-11.288,18.43-10.828,23.268,0,0-21.079,5.99-21.079,6.335" transform="translate(-48.9 -47.434)"/></clipPath><clipPath id="i"><path d="M28.7,83s13.938-4.723,16.011-3.34c0,0,8.524-25.341,15.32-31.561,0,0-9.791,1.037-24.65,16.241C31.925,67.912,29.276,81.619,28.7,83Z" transform="translate(-28.7 -48.1)"/></clipPath></defs><g class="b" transform="translate(-94 -180)"><g transform="translate(94 65.926)"><g transform="translate(0 0)"><rect class="c" width="328" height="245.895"/><path class="d" d="M657.728,115.62v.363a4.611,4.611,0,0,0,4.592,4.574h20.956v15.212H620.628a4.611,4.611,0,0,1-4.592-4.574v-6.063a4.611,4.611,0,0,1,4.592-4.574h9.658a4.611,4.611,0,0,0,4.592-4.574v-.363a4.611,4.611,0,0,0-4.592-4.574H588.01a4.156,4.156,0,0,1-4.373-3.848,4.156,4.156,0,0,0-4.373-3.848H563.592A4.6,4.6,0,0,1,559,98.774a4.611,4.611,0,0,1,4.592-4.574H683.276v16.846H662.32A4.611,4.611,0,0,0,657.728,115.62Z" transform="translate(-355.276 -60)"/><g transform="translate(247.567 67.419)"><line class="e" x2="9.111" transform="translate(36.189 39.609)"/><line class="e" x2="9.111" transform="translate(36.189 16.773)"/><rect class="f" width="36.955" height="112.038" transform="translate(8.346)"/><rect class="g" width="16.291" height="112.038"/><line class="h" x2="6.013" transform="translate(39.287 58.887)"/><line class="h" x2="4.556" transform="translate(30.54 22.146)"/><line class="h" x2="4.483" transform="translate(18.878 58.887)"/><line class="i" x2="7.289" transform="translate(5.503 22.146)"/><line class="j" x2="4.118" transform="translate(0 22.146)"/><line class="h" x2="6.013" transform="translate(39.287 26.938)"/><line class="h" x2="7.107" transform="translate(32.18 100.638)"/><line class="h" x2="8.747" transform="translate(18.878 63.679)"/><line class="h" x2="8.929" transform="translate(36.372 68.218)"/><line class="h" x2="5.868" transform="translate(16.254 31.477)"/><line class="h" x2="4.665" transform="translate(0 31.477)"/><line class="h" x2="4.082" transform="translate(38.048 73.01)"/><line class="h" x2="5.795" transform="translate(18.988 36.269)"/><line class="h" x2="6.123" transform="translate(4.118 73.01)"/><line class="h" x2="11.589" transform="translate(30.54 40.771)"/><line class="k" x2="9.184" transform="translate(12.646 40.771)"/><line class="h" x2="3.207" transform="translate(9.439 86.878)"/><line class="h" x2="2.369" transform="translate(7.07 77.512)"/><line class="h" x2="8.929" transform="translate(36.372 45.563)"/><line class="h" x2="2.879" transform="translate(28.973 73.01)"/><line class="h" x2="1.604" transform="translate(31.889 8.641)"/><line class="h" x2="10.095" transform="translate(17.275 73.01)"/><line class="h" x2="4.191" transform="translate(11.844 77.512)"/><line class="h" x2="6.669" transform="translate(5.467 82.304)"/><line class="h" x2="2.405" transform="translate(3.061 45.563)"/><line class="i" x2="3.025" transform="translate(2.15 8.641)"/><line class="h" x2="4.592" transform="translate(40.708 13.142)"/><line class="h" x2="10.168" transform="translate(30.54 50.101)"/><line class="h" x2="1.567" transform="translate(28.973 13.142)"/><line class="k" x2="6.086" transform="translate(10.241 50.101)"/><line class="i" x2="2.15" transform="translate(0 13.142)"/><line class="h" x2="6.013" transform="translate(39.287 17.935)"/><line class="h" x2="5.795" transform="translate(33.492 91.634)"/><line class="h" x2="5.868" transform="translate(27.625 54.893)"/><line class="k" x2="8.856" transform="translate(7.471 54.893)"/><line class="i" x2="4.483" transform="translate(6.779 17.935)"/><line class="h" x2="3.207" transform="translate(3.572 54.893)"/><line class="h" x2="3.572" transform="translate(2.15 100.965)"/><line class="l" x2="4.556" transform="translate(33.784 22.146)"/><line class="l" x2="4.483" transform="translate(22.122 58.887)"/><line class="l" x2="7.289" transform="translate(16.4 22.146)"/><line class="l" x2="7.143" transform="translate(35.388 100.638)"/><line class="i" x2="7.362" transform="translate(8.965 26.938)"/><line class="l" x2="5.831" transform="translate(27.953 31.477)"/><line class="m" x2="4.884" transform="translate(11.553 31.477)"/><line class="l" x2="11.954" transform="translate(33.347 36.269)"/><line class="m" x2="6.123" transform="translate(7.362 73.01)"/><line class="l" x2="8.783" transform="translate(16.254 40.771)"/><line class="l" x2="3.207" transform="translate(12.683 86.878)"/><line class="m" x2="2.405" transform="translate(10.277 77.512)"/><line class="l" x2="2.916" transform="translate(32.18 73.01)"/><line class="l" x2="1.604" transform="translate(35.132 8.641)"/><line class="l" x2="5.467" transform="translate(19.571 82.304)"/><line class="l" x2="4.191" transform="translate(15.088 77.512)"/><line class="l" x2="6.706" transform="translate(8.674 82.304)"/><line class="l" x2="2.405" transform="translate(6.268 45.563)"/><line class="l" x2="10.168" transform="translate(33.784 50.101)"/><line class="l" x2="8.783" transform="translate(23.397 13.142)"/><line class="l" x2="3.827" transform="translate(19.571 86.842)"/><line class="m" x2="7.471" transform="translate(6.013 13.142)"/><line class="l" x2="5.795" transform="translate(36.736 91.634)"/><line class="l" x2="5.868" transform="translate(30.868 54.893)"/><line class="l" x2="12.245" transform="translate(18.623 17.935)"/><line class="l" x2="3.936" transform="translate(15.635 54.893)"/><line class="m" x2="3.244" transform="translate(12.391 17.935)"/><line class="l" x2="3.572" transform="translate(5.394 100.965)"/><path class="n" d="M783.036,494.3Z" transform="translate(-745.207 -382.262)"/></g><path class="d" d="M94.732,146.383v.581a4.743,4.743,0,0,1-4.738,4.72h-46.1a4.743,4.743,0,0,0-4.738,4.72v2a4.743,4.743,0,0,1-4.738,4.72H.2V142.135c.62-.254-.692-.436.073-.436H90.031A4.681,4.681,0,0,1,94.732,146.383Z" transform="translate(-0.013 -90.255)"/><g transform="translate(27.916 28.899)"><g transform="translate(102.081)"><rect class="o" width="51.095" height="129.21" transform="translate(52.808 64.442)"/><line class="p" x2="9.257" transform="translate(64.434 76.422)"/><line class="q" x2="11.662" transform="translate(48.471 142.353)"/><line class="p" x2="23.543" transform="translate(73.764 132.333)"/><line class="p" x2="20.956" transform="translate(52.808 82.812)"/><line class="p" x2="15.234" transform="translate(65.964 88.875)"/><line class="q" x2="13.156" transform="translate(48.471 154.842)"/><line class="q" x2="11.662" transform="translate(48.471 111.747)"/><line class="p" x2="24.746" transform="translate(52.808 101.364)"/><line class="p" x2="11.589" transform="translate(61.409 157.311)"/><line class="p" x2="8.601" transform="translate(58.858 107.79)"/><line class="p" x2="17.238" transform="translate(83.057 163.373)"/><line class="p" x2="13.74" transform="translate(84.77 113.853)"/><line class="p" x2="11.152" transform="translate(89.143 169.799)"/><line class="p" x1="9.33" transform="translate(67.459 120.279)"/><line class="p" x2="13.849" transform="translate(62.94 169.799)"/><line class="r" x2="7.58" transform="translate(78.428 76.422)"/><line class="s" x2="16.436" transform="translate(61.992 125.943)"/><line class="s" x2="13.849" transform="translate(86.774 138.395)"/><line class="s" x2="10.46" transform="translate(84.733 88.875)"/><line class="s" x2="17.931" transform="translate(61.992 138.395)"/><line class="r" x2="15.598" transform="translate(69.937 95.301)"/><line class="s" x1="10.532" transform="translate(86.774 101.364)"/><line class="r" x2="6.852" transform="translate(75.367 157.311)"/><line class="s" x2="33.857" transform="translate(43.952 113.853)"/><line class="r" x2="15.926" transform="translate(86.009 120.279)"/><line class="s" x2="9.111" transform="translate(76.898 169.799)"/><path class="t" d="M473.521,261V388.794H427.2V261Z" transform="translate(-401.507 -195.142)"/><line class="u" x2="31.78" transform="translate(72.124 69.96)"/><line class="v" x2="14.396" transform="translate(52.808 69.96)"/><line class="w" x2="3.426" transform="translate(68.552 76.422)"/><line class="w" x2="3.426" transform="translate(66.839 95.301)"/><line class="x" x2="8.054" transform="translate(52.808 79.581)"/><line class="y" x2="31.78" transform="translate(72.124 64.442)"/><line class="z" x2="19.316" transform="translate(52.808 64.442)"/><rect class="aa" width="49.346" height="190.167" transform="translate(11.152)"/><rect class="t" width="21.867" height="190.167"/><line class="ab" x2="6.924" transform="translate(52.662 168.202)"/><line class="ab" x2="2.478" transform="translate(47.013 11.981)"/><line class="ab" x2="6.086" transform="translate(40.927 118.972)"/><line class="ab" x2="4.738" transform="translate(26.969 11.981)"/><line class="ab" x2="5.977" transform="translate(25.292 168.202)"/><line class="ac" x2="9.767" transform="translate(7.362 118.972)"/><line class="ac" x2="10.022" transform="translate(0.036 11.981)"/><line class="ab" x2="5.503" transform="translate(0 118.972)"/><line class="ab" x2="7.836" transform="translate(52.662 125.398)"/><line class="ab" x2="6.05" transform="translate(37.028 18.407)"/><line class="ab" x2="11.735" transform="translate(25.292 174.628)"/><line class="ac" x1="6.013" transform="translate(15.853 18.407)"/><line class="ac" x2="4.337" transform="translate(0 18.407)"/><line class="ab" x2="10.86" transform="translate(48.726 180.691)"/><line class="ab" x2="3.608" transform="translate(40.927 24.47)"/><line class="ab" x2="7.836" transform="translate(21.794 131.461)"/><line class="ab" x2="11.079" transform="translate(22.012 24.47)"/><line class="ac" x2="4.92" transform="translate(6.232 24.47)"/><line class="ab" x2="3.134" transform="translate(56.452 30.896)"/><line class="ab" x2="5.467" transform="translate(50.986 187.117)"/><line class="ab" x2="4.628" transform="translate(34.039 30.896)"/><line class="ab" x2="7.799" transform="translate(25.438 137.851)"/><line class="ab" x2="7.362" transform="translate(21.867 30.896)"/><line class="ab" x2="8.236" transform="translate(5.503 187.117)"/><line class="ac" x2="5.503" transform="translate(0 30.896)"/><line class="ab" x2="3.134" transform="translate(56.452 94.394)"/><line class="ab" x2="15.525" transform="translate(40.927 143.914)"/><line class="ab" x2="7.836" transform="translate(33.092 94.394)"/><line class="ab" x2="3.863" transform="translate(29.228 94.394)"/><line class="ad" x2="12.282" transform="translate(16.947 143.914)"/><line class="ae" x2="3.207" transform="translate(9.439 193.18)"/><line class="ac" x2="4.337" transform="translate(0 36.959)"/><line class="ab" x2="10.86" transform="translate(48.726 150.34)"/><line class="ab" x2="3.863" transform="translate(38.813 187.117)"/><line class="ab" x2="2.114" transform="translate(42.749 100.82)"/><line class="ab" x2="13.521" transform="translate(23.142 187.117)"/><line class="ae" x2="8.965" transform="translate(7.289 199.57)"/><line class="ab" x2="3.207" transform="translate(4.082 150.34)"/><line class="ac" x2="4.045" transform="translate(2.879 43.348)"/><line class="ab" x2="5.029" transform="translate(54.557 106.883)"/><line class="ab" x2="13.63" transform="translate(40.927 156.403)"/><line class="ab" x2="2.15" transform="translate(38.777 106.883)"/><line class="ad" x2="8.127" transform="translate(13.74 156.403)"/><line class="ac" x2="2.879" transform="translate(0 106.883)"/><line class="ab" x2="6.924" transform="translate(52.662 113.309)"/><line class="ab" x2="7.836" transform="translate(37.028 162.829)"/><line class="ad" x2="11.844" transform="translate(10.022 162.829)"/><line class="ae" x2="4.3" transform="translate(4.774 162.829)"/><line class="af" x2="3.462" transform="translate(53.537 11.981)"/><line class="af" x2="6.086" transform="translate(45.3 118.972)"/><line class="af" x2="9.694" transform="translate(35.606 11.981)"/><line class="af" x2="5.977" transform="translate(29.629 168.202)"/><line class="af" x2="9.767" transform="translate(21.94 118.972)"/><line class="ae" x2="6.815" transform="translate(13.047 11.981)"/><line class="ae" x2="5.503" transform="translate(4.337 118.972)"/><line class="af" x2="6.05" transform="translate(45.884 18.407)"/><line class="af" x2="11.735" transform="translate(29.629 174.628)"/><line class="af" x2="7.69" transform="translate(21.94 18.407)"/><line class="ac" x2="9.876" transform="translate(11.99 125.398)"/><line class="ae" x2="4.701" transform="translate(7.289 18.407)"/><line class="af" x2="7.799" transform="translate(47.086 24.47)"/><line class="af" x2="7.872" transform="translate(37.428 131.461)"/><line class="af" x2="15.416" transform="translate(22.012 24.47)"/><line class="ag" x2="6.524" transform="translate(15.489 131.461)"/><line class="ae" x2="4.92" transform="translate(13.995 24.47)"/><line class="ae" x2="6.232" transform="translate(4.337 131.461)"/><line class="af" x2="13.958" transform="translate(41.364 30.896)"/><line class="ab" x1="2.442" transform="translate(31.962 37.866)"/><line class="ab" x1="4.774" transform="translate(49.71 37.866)"/><line class="ab" x1="6.086" transform="translate(38.34 44.292)"/><line class="ab" x1="3.608" transform="translate(36.882 50.355)"/><line class="ab" x1="11.917" transform="translate(48.362 50.355)"/><line class="ab" x1="4.665" transform="translate(42.749 56.781)"/><line class="ab" x1="8.2" transform="translate(52.225 56.781)"/><line class="af" x1="3.499" transform="translate(24.418 37.866)"/><line class="af" x1="9.658" transform="translate(36.153 37.866)"/><line class="af" x1="6.086" transform="translate(29.484 44.292)"/><line class="af" x1="8.564" transform="translate(51.788 44.292)"/><line class="af" x1="7.763" transform="translate(26.568 50.355)"/><line class="af" x1="16.254" transform="translate(44.025 50.355)"/><line class="af" x1="13.958" transform="translate(26.131 56.781)"/><line class="af" x2="15.635" transform="translate(44.681 137.851)"/><line class="ae" x2="8.236" transform="translate(9.84 187.117)"/><line class="ag" x2="5.467" transform="translate(16.364 30.896)"/><line class="af" x2="3.863" transform="translate(44.134 94.394)"/><line class="af" x2="11.772" transform="translate(21.794 143.914)"/><line class="ag" x2="3.244" transform="translate(13.776 193.18)"/><line class="ae" x2="9.439" transform="translate(7.362 36.959)"/><line class="ac" x2="6.013" transform="translate(0 56.781)"/><line class="ac" x1="4.337" transform="translate(17.53 56.781)"/><line class="ac" x1="4.956" transform="translate(10.715 62.844)"/><line class="ac" x1="5.503" transform="translate(16.364 69.27)"/><line class="ac" x1="4.337" transform="translate(17.53 75.333)"/><line class="ac" x1="4.082" transform="translate(14.942 81.759)"/><line class="ae" x1="6.815" transform="translate(2.004 50.355)"/><line class="ae" x1="4.701" transform="translate(9.876 56.781)"/><line class="ae" x1="4.956" transform="translate(2.952 62.844)"/><line class="ag" x1="5.503" transform="translate(0.036 69.27)"/><line class="ae" x1="9.403" transform="translate(5.102 75.333)"/><line class="af" x2="2.114" transform="translate(47.086 100.82)"/><line class="af" x2="7.362" transform="translate(26.204 199.57)"/><line class="ad" x2="8.965" transform="translate(11.626 199.57)"/><line class="ae" x2="3.207" transform="translate(8.419 150.34)"/><line class="af" x2="13.594" transform="translate(45.3 156.403)"/><line class="af" x2="11.808" transform="translate(31.342 106.883)"/><line class="ag" x2="10.059" transform="translate(8.018 106.883)"/><line class="af" x2="7.836" transform="translate(41.364 162.829)"/><line class="af" x2="15.161" transform="translate(26.204 113.309)"/><line class="ab" x2="6.086" transform="translate(40.927 87.713)"/><line class="ab" x2="3.134" transform="translate(56.452 63.135)"/><line class="ab" x2="7.836" transform="translate(33.092 63.135)"/><line class="ab" x2="3.863" transform="translate(29.228 63.135)"/><line class="ab" x2="2.114" transform="translate(42.749 69.561)"/><line class="ab" x2="5.029" transform="translate(54.557 75.624)"/><line class="ab" x2="2.15" transform="translate(38.777 75.624)"/><line class="ab" x2="6.924" transform="translate(52.662 82.05)"/><line class="af" x2="6.086" transform="translate(45.3 87.713)"/><line class="af" x2="9.767" transform="translate(21.94 87.713)"/><line class="af" x2="3.863" transform="translate(44.134 63.135)"/><line class="af" x2="2.114" transform="translate(47.086 69.561)"/><line class="af" x2="11.808" transform="translate(31.342 75.624)"/><line class="af" x2="15.161" transform="translate(26.204 82.05)"/><line class="ag" x2="4.373" transform="translate(16.582 113.309)"/><line class="ah" x2="38.631" transform="translate(21.867)"/><line class="ai" x2="21.867"/><line class="aj" x2="38.704" transform="translate(21.794 5.555)"/><path class="n" d="M495.736,603.4Z" transform="translate(-445.042 -413.233)"/></g><g transform="translate(0 56.128)"><rect class="ak" width="64.507" height="4.102" transform="translate(2.369 12.307)"/><rect class="ak" width="64.507" height="4.102" transform="translate(2.369 4.102)"/><rect class="ak" width="64.507" height="4.102" transform="translate(2.515 20.476)"/><rect class="ak" width="64.507" height="4.102" transform="translate(2.515 28.681)"/><rect class="ak" width="64.507" height="4.102" transform="translate(2.369 45.127)"/><rect class="ak" width="64.507" height="4.102" transform="translate(2.369 36.922)"/><rect class="ak" width="64.507" height="4.102" transform="translate(2.187 53.332)"/><rect class="ak" width="64.507" height="4.102" transform="translate(2.187 61.537)"/><rect class="al" width="64.507" height="4.102" transform="translate(2.369 42.15)"/><rect class="al" width="64.507" height="4.102" transform="translate(2.369 33.945)"/><rect class="al" width="64.507" height="4.102" transform="translate(2.187 50.355)"/><rect class="al" width="64.507" height="4.102" transform="translate(2.187 58.56)"/><rect class="al" width="64.507" height="4.102" transform="translate(2.369 9.33)"/><rect class="al" width="64.507" height="4.102" transform="translate(2.369 1.125)"/><rect class="al" width="64.507" height="4.102" transform="translate(2.515 17.535)"/><rect class="al" width="64.507" height="4.102" transform="translate(2.515 25.74)"/><rect class="al" width="18.732" height="4.102" transform="translate(1.786 12.344)"/><rect class="al" width="18.732" height="4.102" transform="translate(1.786 4.175)"/><rect class="al" width="18.732" height="4.102" transform="translate(1.822 20.549)"/><rect class="al" width="18.732" height="4.102" transform="translate(1.822 28.754)"/><rect class="al" width="18.732" height="4.102" transform="translate(1.786 45.2)"/><rect class="al" width="18.732" height="4.102" transform="translate(1.786 36.995)"/><rect class="al" width="18.732" height="4.102" transform="translate(1.713 53.405)"/><rect class="al" width="18.732" height="4.102" transform="translate(1.713 61.574)"/><rect class="d" width="68.625" height="4.102" transform="translate(0.146 41.061)"/><rect class="d" width="68.625" height="4.102" transform="translate(0.146 49.266)"/><rect class="d" width="68.625" height="4.102" transform="translate(0.146 32.856)"/><rect class="d" width="68.625" height="4.102" transform="translate(0 57.471)"/><rect class="d" width="68.625" height="4.102" transform="translate(0 65.676)"/><rect class="d" width="68.625" height="4.102" transform="translate(0.146 8.241)"/><rect class="d" width="68.625" height="4.102" transform="translate(0.146 16.446)"/><rect class="d" width="68.625" height="4.102" transform="translate(0.146)"/><rect class="d" width="68.625" height="4.102" transform="translate(0.292 24.615)"/><rect class="am" width="21.612" height="4.102" transform="translate(0.109 41.061)"/><rect class="am" width="21.612" height="4.102" transform="translate(0.109 49.266)"/><rect class="am" width="21.612" height="4.102" transform="translate(0.109 32.856)"/><rect class="am" width="21.612" height="4.102" transform="translate(0.036 57.471)"/><rect class="am" width="21.612" height="4.102" transform="translate(0.036 65.676)"/><rect class="am" width="21.612" height="4.102" transform="translate(0.109 8.241)"/><rect class="am" width="21.612" height="4.102" transform="translate(0.109 16.446)"/><rect class="am" width="21.612" height="4.102" transform="translate(0.109)"/><rect class="am" width="21.612" height="4.102" transform="translate(0.146 24.615)"/><path class="an" d="M158.319,248.6H147.932l-2.332,3.013h10.35Z" transform="translate(-120.453 -243.372)"/><path class="an" d="M194.272,248.6h-5.54l-2.332,3.013h5.5Z" transform="translate(-146.384 -243.372)"/><path class="an" d="M182.07,271H165.232l-2.332,3.013h16.837Z" transform="translate(-131.448 -257.64)"/><path class="an" d="M238.172,271h-5.54l-2.332,3.013h5.54Z" transform="translate(-174.285 -257.64)"/><path class="an" d="M148.719,293.6h-10.35L136,296.577h10.387Z" transform="translate(-114.352 -272.035)"/><path class="an" d="M154.77,316H137.932l-2.332,3.013h16.837Z" transform="translate(-114.098 -286.302)"/><path class="an" d="M228.672,316h-5.54l-2.332,3.013h5.5Z" transform="translate(-168.247 -286.302)"/><path class="an" d="M163.919,338.6H153.532l-2.332,3.013h10.35Z" transform="translate(-124.012 -300.697)"/><path class="an" d="M187.67,361.1H170.832l-2.332,2.977h16.837Z" transform="translate(-135.008 -315.029)"/><path class="an" d="M243.772,361.1h-5.54l-2.332,2.977h5.54Z" transform="translate(-177.844 -315.029)"/><path class="an" d="M154.319,383.6h-10.35l-2.369,3.013h10.387Z" transform="translate(-117.911 -329.36)"/><path class="an" d="M221.372,383.6h-5.54l-2.332,3.013h5.54Z" transform="translate(-163.608 -329.36)"/><path class="an" d="M160.37,406H143.532l-2.332,3.013h16.837Z" transform="translate(-117.657 -343.628)"/><path class="an" d="M234.272,406h-5.54l-2.332,3.013h5.5Z" transform="translate(-171.806 -343.628)"/></g><g transform="translate(0 121.695)"><rect class="ak" width="64.507" height="4.102" transform="translate(2.369 12.307)"/><rect class="ak" width="64.507" height="4.102" transform="translate(2.369 4.102)"/><rect class="ak" width="64.507" height="4.102" transform="translate(2.515 20.512)"/><rect class="ak" width="64.507" height="4.102" transform="translate(2.515 28.717)"/><rect class="ak" width="64.507" height="4.102" transform="translate(2.369 45.127)"/><rect class="ak" width="64.507" height="4.102" transform="translate(2.369 36.959)"/><rect class="ak" width="64.507" height="4.102" transform="translate(2.187 53.332)"/><rect class="ak" width="64.507" height="4.102" transform="translate(2.187 61.537)"/><rect class="al" width="64.507" height="4.102" transform="translate(2.369 42.187)"/><rect class="al" width="64.507" height="4.102" transform="translate(2.369 33.982)"/><rect class="al" width="64.507" height="4.102" transform="translate(2.187 50.392)"/><rect class="al" width="64.507" height="4.102" transform="translate(2.187 58.56)"/><rect class="al" width="64.507" height="4.102" transform="translate(2.369 9.33)"/><rect class="al" width="64.507" height="4.102" transform="translate(2.369 1.162)"/><rect class="al" width="64.507" height="4.102" transform="translate(2.515 17.535)"/><rect class="al" width="64.507" height="4.102" transform="translate(2.515 25.74)"/><rect class="al" width="18.732" height="4.102" transform="translate(1.786 12.38)"/><rect class="al" width="18.732" height="4.102" transform="translate(1.786 4.175)"/><rect class="al" width="18.732" height="4.102" transform="translate(1.822 20.585)"/><rect class="al" width="18.732" height="4.102" transform="translate(1.822 28.754)"/><rect class="al" width="18.732" height="4.102" transform="translate(1.786 45.2)"/><rect class="al" width="18.732" height="4.102" transform="translate(1.786 36.995)"/><rect class="al" width="18.732" height="4.102" transform="translate(1.713 53.405)"/><rect class="al" width="18.732" height="4.102" transform="translate(1.713 61.61)"/><rect class="d" width="68.625" height="4.102" transform="translate(0.146 41.098)"/><rect class="d" width="68.625" height="4.102" transform="translate(0.146 49.266)"/><rect class="d" width="68.625" height="4.102" transform="translate(0.146 32.893)"/><rect class="d" width="68.625" height="4.102" transform="translate(0 57.471)"/><rect class="d" width="68.625" height="4.102" transform="translate(0 65.676)"/><rect class="d" width="68.625" height="4.102" transform="translate(0.146 8.241)"/><rect class="d" width="68.625" height="4.102" transform="translate(0.146 16.446)"/><rect class="d" width="68.625" height="4.102" transform="translate(0.146)"/><rect class="d" width="68.625" height="4.102" transform="translate(0.292 24.651)"/><rect class="am" width="21.612" height="4.102" transform="translate(0.109 41.098)"/><rect class="am" width="21.612" height="4.102" transform="translate(0.109 49.266)"/><rect class="am" width="21.612" height="4.102" transform="translate(0.109 32.893)"/><rect class="am" width="21.612" height="4.102" transform="translate(0.036 57.471)"/><rect class="am" width="21.612" height="4.102" transform="translate(0.036 65.676)"/><rect class="am" width="21.612" height="4.102" transform="translate(0.109 8.241)"/><rect class="am" width="21.612" height="4.102" transform="translate(0.109 16.446)"/><rect class="am" width="21.612" height="4.102" transform="translate(0.109)"/><rect class="am" width="21.612" height="4.102" transform="translate(0.146 24.651)"/><path class="an" d="M158.319,429.2H147.932l-2.332,3.013h10.35Z" transform="translate(-120.453 -423.972)"/><path class="an" d="M194.272,429.2h-5.54l-2.332,3.013h5.5Z" transform="translate(-146.384 -423.972)"/><path class="an" d="M182.07,451.7H165.232l-2.332,2.977h16.837Z" transform="translate(-131.448 -438.303)"/><path class="an" d="M238.172,451.7h-5.54l-2.332,2.977h5.54Z" transform="translate(-174.285 -438.303)"/><path class="an" d="M148.719,474.2h-10.35L136,477.213h10.387Z" transform="translate(-114.352 -452.635)"/><path class="an" d="M154.77,496.6H137.932l-2.332,3.013h16.837Z" transform="translate(-114.098 -466.902)"/><path class="an" d="M228.672,496.6h-5.54l-2.332,3.013h5.5Z" transform="translate(-168.247 -466.902)"/><path class="an" d="M163.919,519.3H153.532l-2.332,3.013h10.35Z" transform="translate(-124.012 -481.361)"/><path class="an" d="M187.67,541.7H170.832l-2.332,3.013h16.837Z" transform="translate(-135.008 -495.629)"/><path class="an" d="M243.772,541.7h-5.54l-2.332,3.013h5.54Z" transform="translate(-177.844 -495.629)"/><path class="an" d="M154.319,564.3h-10.35l-2.369,2.977h10.387Z" transform="translate(-117.911 -510.024)"/><path class="an" d="M221.372,564.3h-5.54l-2.332,2.977h5.54Z" transform="translate(-163.608 -510.024)"/><path class="an" d="M160.37,586.7H143.532l-2.332,3.013h16.837Z" transform="translate(-117.657 -524.291)"/><path class="an" d="M234.272,586.7h-5.54l-2.332,3.013h5.5Z" transform="translate(-171.806 -524.291)"/></g><g transform="translate(194.322 94.103)"><g class="ao" transform="translate(63.231 57.036)"><rect class="ap" width="15.452" height="1.67"/></g><g class="ao" transform="translate(64.871 59.722)"><rect class="ap" width="4.993" height="1.67"/></g><g class="ao" transform="translate(51.241 59.722)"><rect class="ap" width="8.71" height="1.67"/></g><g class="ao" transform="translate(53.282 11.618)"><rect class="ap" width="12.573" height="1.67"/></g><g class="ao" transform="translate(53.282 14.449)"><rect class="ap" width="8.127" height="1.67"/></g><g class="ao" transform="translate(70.411 14.449)"><rect class="ap" width="9.366" height="1.67"/></g><g class="ao" transform="translate(56.525 57.036)"><rect class="aq" width="12.719" height="1.67"/></g><path class="t" d="M677.514,354.231V351H609.8v3.231h1.13v6.716H609.8v2.069h1.13v7.043H609.8v2.033h1.13v7.079H609.8v2.033h1.13v6.753H609.8v2.069h1.13v7.043H609.8v2.069h1.13v7.043H609.8v2.033h1.13v7.08H609.8v2.033h1.13v6.934H609.8V426.3h1.13v9.04h65.454V426.3h1.13v-2.033h-1.13V417.33h1.13V415.3h-1.13v-7.08h1.13v-2.033h-1.13v-7.043h1.13v-2.069h-1.13v-7.043h1.13v-2.069h-1.13v-6.753h1.13v-2.033h-1.13v-7.079h1.13V370.06h-1.13v-7.043h1.13v-2.069h-1.13v-6.716Z" transform="translate(-609.8 -346.571)"/><g class="ao" transform="translate(58.165 59.722)"><rect class="aq" width="4.993" height="1.67"/></g><g class="ao" transform="translate(63.705 14.449)"><rect class="aq" width="6.633" height="1.67"/></g><g transform="translate(7.18)"><path class="am" d="M696.084,346.8H630.63v7.08H629.5v2.033h1.13v7.043H629.5v2.033h1.13v7.079H629.5V374.1h1.13v6.789H629.5v2.033h1.13V390H629.5v2.033h1.13v7.043H629.5v2.033h1.13v7.08H629.5v2.033h1.13v6.934H629.5v2.033h1.13v9.04h65.454v-9.04h1.13V417.16h-1.13v-6.934h1.13v-2.033h-1.13v-7.08h1.13v-2.033h-1.13v-7.043h1.13V390h-1.13v-7.08h1.13v-2.033h-1.13V374.1h1.13v-2.033h-1.13v-7.079h1.13v-2.033h-1.13v-7.043h1.13V353.88h-1.13Z" transform="translate(-629.5 -343.896)"/><rect class="am" width="67.714" height="3.231"/></g><rect class="d" width="58.676" height="81.433" transform="translate(21.94 3.122)"/><rect class="ak" width="4.045" height="7.08" transform="translate(26.021 3.122)"/><rect class="ar" width="4.045" height="7.08" transform="translate(33.748 3.122)"/><rect class="ak" width="4.045" height="7.08" transform="translate(41.51 3.122)"/><rect class="ak" width="4.045" height="7.08" transform="translate(49.236 3.122)"/><rect class="ak" width="4.045" height="7.08" transform="translate(56.999 3.122)"/><rect class="as" width="4.045" height="7.08" transform="translate(64.725 3.122)"/><rect class="ak" width="4.045" height="7.08" transform="translate(72.488 3.122)"/><rect class="ak" width="4.045" height="7.08" transform="translate(72.488 12.235)"/><rect class="ar" width="4.045" height="7.08" transform="translate(64.725 12.235)"/><rect class="ak" width="4.045" height="7.08" transform="translate(56.999 12.235)"/><rect class="at" width="4.045" height="7.08" transform="translate(49.236 12.235)"/><rect class="ak" width="4.045" height="7.08" transform="translate(41.51 12.235)"/><rect class="as" width="4.045" height="7.08" transform="translate(33.748 12.235)"/><rect class="ak" width="4.045" height="7.08" transform="translate(26.021 12.235)"/><rect class="ak" width="4.045" height="7.08" transform="translate(26.021 21.311)"/><rect class="ak" width="4.045" height="7.08" transform="translate(33.748 21.311)"/><rect class="ar" width="4.045" height="7.08" transform="translate(41.51 21.311)"/><rect class="ak" width="4.045" height="7.08" transform="translate(49.236 21.311)"/><rect class="ak" width="4.045" height="7.08" transform="translate(56.999 21.311)"/><rect class="ak" width="4.045" height="7.08" transform="translate(64.725 21.311)"/><rect class="ak" width="4.045" height="7.08" transform="translate(72.488 21.311)"/><rect class="ak" width="4.045" height="7.08" transform="translate(72.488 30.424)"/><rect class="ar" width="4.045" height="7.08" transform="translate(64.725 30.424)"/><rect class="ar" width="4.045" height="7.08" transform="translate(56.999 30.424)"/><rect class="ak" width="4.045" height="7.08" transform="translate(49.236 30.424)"/><rect class="ak" width="4.045" height="7.08" transform="translate(41.51 30.424)"/><rect class="ak" width="4.045" height="7.08" transform="translate(33.748 30.424)"/><rect class="as" width="4.045" height="7.08" transform="translate(26.021 30.424)"/><rect class="ak" width="4.045" height="7.08" transform="translate(26.021 39.246)"/><rect class="ar" width="4.045" height="7.08" transform="translate(33.748 39.246)"/><rect class="ak" width="4.045" height="7.08" transform="translate(41.51 39.246)"/><rect class="ak" width="4.045" height="7.08" transform="translate(49.236 39.246)"/><rect class="ak" width="4.045" height="7.08" transform="translate(56.999 39.246)"/><rect class="as" width="4.045" height="7.08" transform="translate(64.725 39.246)"/><rect class="ak" width="4.045" height="7.08" transform="translate(72.488 39.246)"/><rect class="ak" width="4.045" height="7.08" transform="translate(72.488 48.359)"/><rect class="ar" width="4.045" height="7.08" transform="translate(64.725 48.359)"/><rect class="ak" width="4.045" height="7.08" transform="translate(56.999 48.359)"/><rect class="at" width="4.045" height="7.08" transform="translate(49.236 48.359)"/><rect class="ak" width="4.045" height="7.08" transform="translate(41.51 48.359)"/><rect class="as" width="4.045" height="7.08" transform="translate(33.748 48.359)"/><rect class="ak" width="4.045" height="7.08" transform="translate(26.021 48.359)"/><rect class="ak" width="4.045" height="7.08" transform="translate(26.021 57.435)"/><rect class="ak" width="4.045" height="7.08" transform="translate(33.748 57.435)"/><rect class="ar" width="4.045" height="7.08" transform="translate(41.51 57.435)"/><rect class="ak" width="4.045" height="7.08" transform="translate(49.236 57.435)"/><rect class="ak" width="4.045" height="7.08" transform="translate(56.999 57.435)"/><rect class="ak" width="4.045" height="7.08" transform="translate(64.725 57.435)"/><rect class="ak" width="4.045" height="7.08" transform="translate(72.488 57.435)"/><rect class="d" width="60.935" height="2.033" transform="translate(20.81 10.202)"/><rect class="d" width="60.935" height="2.033" transform="translate(20.81 28.391)"/><rect class="d" width="60.935" height="3.231" transform="translate(20.81)"/><rect class="d" width="60.935" height="2.033" transform="translate(20.81 19.278)"/><rect class="d" width="60.935" height="2.033" transform="translate(20.81 46.325)"/><rect class="d" width="60.935" height="2.033" transform="translate(20.81 37.213)"/><rect class="d" width="60.935" height="2.033" transform="translate(20.81 55.402)"/><rect class="au" width="58.676" height="2.033" transform="translate(21.94 3.122)"/><rect class="au" width="58.676" height="2.033" transform="translate(21.94 12.307)"/><rect class="au" width="58.676" height="2.033" transform="translate(21.94 21.311)"/><rect class="au" width="58.676" height="2.033" transform="translate(21.94 30.496)"/><rect class="au" width="58.676" height="2.033" transform="translate(21.94 39.246)"/><rect class="au" width="58.676" height="2.033" transform="translate(21.94 48.431)"/><rect class="au" width="58.676" height="2.033" transform="translate(21.94 57.435)"/><path class="av" d="M789.4,467.3" transform="translate(-723.946 -420.648)"/></g><g transform="translate(118.7 110.513)"><g class="ao" transform="translate(47.159 57.035)"><rect class="ap" width="15.452" height="1.67"/></g><g class="ao" transform="translate(48.799 59.686)"><rect class="ap" width="4.993" height="1.67"/></g><g class="ao" transform="translate(35.169 59.686)"><rect class="ap" width="8.71" height="1.67"/></g><g class="ao" transform="translate(37.21 11.618)"><rect class="ap" width="12.573" height="1.67"/></g><g class="ao" transform="translate(37.21 14.413)"><rect class="ap" width="8.127" height="1.67"/></g><g class="ao" transform="translate(54.339 14.413)"><rect class="ap" width="9.366" height="1.67"/></g><g class="ao" transform="translate(40.417 57.035)"><rect class="aq" width="12.719" height="1.67"/></g><path class="t" d="M453.942,399.395V396.2H402.3v3.195h1.13v6.753H402.3v2.033h1.13v7.043H402.3v2.033h1.13v7.08H402.3v2.033h1.13v6.789H402.3v2.033h1.13v7.079H402.3V444.3h1.13v7.043H402.3v2.033h1.13v7.08H402.3v2.033h1.13v6.934H402.3v2.033h1.13v9.04h49.382v-9.04h1.13v-2.033h-1.13v-6.934h1.13V460.46h-1.13v-7.08h1.13v-2.033h-1.13V444.3h1.13v-2.033h-1.13v-7.079h1.13v-2.033h-1.13V426.37h1.13v-2.033h-1.13v-7.08h1.13v-2.033h-1.13v-7.043h1.13v-2.033h-1.13v-6.753Z" transform="translate(-402.3 -391.771)"/><g class="ao" transform="translate(42.093 59.686)"><rect class="aq" width="4.993" height="1.67"/></g><g class="ao" transform="translate(47.633 14.413)"><rect class="aq" width="6.633" height="1.67"/></g><g transform="translate(7.18)"><path class="am" d="M472.512,391.9H423.13v7.079H422v2.069h1.13v7.007H422v2.069h1.13V417.2H422v2.033h1.13v6.753H422v2.033h1.13v7.08H422v2.069h1.13v7.043H422v2.033h1.13v7.079H422v2.033h1.13v6.9H422v2.069h1.13v9.04h49.382v-9.04h1.13v-2.069h-1.13v-6.9h1.13v-2.033h-1.13v-7.079h1.13v-2.033h-1.13v-7.043h1.13V435.1h-1.13v-7.08h1.13v-2.033h-1.13v-6.753h1.13V417.2h-1.13v-7.079h1.13v-2.069h-1.13v-7.007h1.13v-2.069h-1.13Z" transform="translate(-422 -389.032)"/><rect class="am" width="51.642" height="3.231"/></g><rect class="d" width="42.604" height="81.433" transform="translate(21.903 3.122)"/><rect class="ak" width="4.045" height="7.08" transform="translate(25.438 3.122)"/><rect class="ak" width="4.045" height="7.08" transform="translate(33.164 3.122)"/><rect class="ak" width="4.045" height="7.08" transform="translate(40.927 3.122)"/><rect class="as" width="4.045" height="7.08" transform="translate(48.653 3.122)"/><rect class="ak" width="4.045" height="7.08" transform="translate(56.38 3.122)"/><rect class="ak" width="4.045" height="7.08" transform="translate(56.38 12.235)"/><rect class="ar" width="4.045" height="7.08" transform="translate(48.653 12.235)"/><rect class="ak" width="4.045" height="7.08" transform="translate(40.927 12.235)"/><rect class="at" width="4.045" height="7.08" transform="translate(33.164 12.235)"/><rect class="ak" width="4.045" height="7.08" transform="translate(25.438 12.235)"/><rect class="ar" width="4.045" height="7.08" transform="translate(25.438 21.311)"/><rect class="ak" width="4.045" height="7.08" transform="translate(33.164 21.311)"/><rect class="ak" width="4.045" height="7.08" transform="translate(40.927 21.311)"/><rect class="ak" width="4.045" height="7.08" transform="translate(48.653 21.311)"/><rect class="ak" width="4.045" height="7.08" transform="translate(56.38 21.311)"/><rect class="ak" width="4.045" height="7.08" transform="translate(56.38 30.424)"/><rect class="ar" width="4.045" height="7.08" transform="translate(48.653 30.424)"/><rect class="ar" width="4.045" height="7.08" transform="translate(40.927 30.424)"/><rect class="ak" width="4.045" height="7.08" transform="translate(33.164 30.424)"/><rect class="ak" width="4.045" height="7.08" transform="translate(25.438 30.424)"/><rect class="ak" width="4.045" height="7.08" transform="translate(25.438 39.21)"/><rect class="ak" width="4.045" height="7.08" transform="translate(33.164 39.21)"/><rect class="ak" width="4.045" height="7.08" transform="translate(40.927 39.21)"/><rect class="as" width="4.045" height="7.08" transform="translate(48.653 39.21)"/><rect class="ak" width="4.045" height="7.08" transform="translate(56.38 39.21)"/><rect class="ak" width="4.045" height="7.08" transform="translate(56.38 48.322)"/><rect class="ar" width="4.045" height="7.08" transform="translate(48.653 48.322)"/><rect class="ak" width="4.045" height="7.08" transform="translate(40.927 48.322)"/><rect class="at" width="4.045" height="7.08" transform="translate(33.164 48.322)"/><rect class="ak" width="4.045" height="7.08" transform="translate(25.438 48.322)"/><rect class="ar" width="4.045" height="7.08" transform="translate(25.438 57.435)"/><rect class="ak" width="4.045" height="7.08" transform="translate(33.164 57.435)"/><rect class="ak" width="4.045" height="7.08" transform="translate(40.927 57.435)"/><rect class="ak" width="4.045" height="7.08" transform="translate(48.653 57.435)"/><rect class="ak" width="4.045" height="7.08" transform="translate(56.38 57.435)"/><rect class="d" width="44.863" height="2.033" transform="translate(20.773 10.202)"/><rect class="d" width="44.863" height="2.033" transform="translate(20.773 28.391)"/><rect class="d" width="44.863" height="2.033" transform="translate(20.773 19.278)"/><rect class="d" width="44.863" height="2.033" transform="translate(20.773 46.325)"/><rect class="d" width="44.863" height="2.033" transform="translate(20.773 37.213)"/><rect class="d" width="44.863" height="2.033" transform="translate(20.773 55.402)"/><rect class="au" width="42.604" height="2.033" transform="translate(21.903 3.122)"/><path class="au" d="M482.554,419.933H462.4V417.9h42.64v2.033H482.554" transform="translate(-440.497 -405.593)"/><rect class="au" width="42.604" height="2.033" transform="translate(21.903 21.311)"/><rect class="au" width="42.604" height="2.033" transform="translate(21.903 30.496)"/><rect class="au" width="42.604" height="2.033" transform="translate(21.903 39.246)"/><rect class="au" width="42.604" height="2.033" transform="translate(21.903 48.431)"/><rect class="au" width="42.604" height="2.033" transform="translate(21.903 57.435)"/><path class="av" d="M537.7,512.5" transform="translate(-488.354 -465.848)"/><rect class="d" width="44.863" height="3.231" transform="translate(20.773)"/></g></g><g transform="translate(227.45 186.936)"><rect class="ap" width="11.662" height="1.924"/></g><g transform="translate(219.687 186.936)"><rect class="aq" width="8.528" height="1.924"/></g><rect class="d" width="70.447" height="2.36" transform="translate(167.499 186.899)"/><g transform="translate(0 184.213)"><rect class="aw" width="328" height="36.015"/></g><rect class="ax" width="328" height="6.317" transform="translate(0 179.82)"/><g transform="translate(9.986 167.621)"><path class="ax" d="M55.572,471.793a9.719,9.719,0,0,1-.328,2.541H27.4V473.9a7.265,7.265,0,0,1,.547-2.832,7.978,7.978,0,0,1,7.435-5.083,8.838,8.838,0,0,1,1.713.182,10.187,10.187,0,0,1,7.216-4.393c.4-.036.8-.073,1.166-.073A10.106,10.106,0,0,1,55.572,471.793Z" transform="translate(-27.4 -461.7)"/></g><g transform="translate(80.141 167.621)"><path class="ax" d="M248.072,471.793a9.718,9.718,0,0,1-.328,2.541H219.9V473.9a7.265,7.265,0,0,1,.547-2.832,7.978,7.978,0,0,1,7.435-5.083,8.838,8.838,0,0,1,1.713.182,10.187,10.187,0,0,1,7.216-4.393c.4-.036.8-.073,1.166-.073A10.106,10.106,0,0,1,248.072,471.793Z" transform="translate(-219.9 -461.7)"/></g><g transform="translate(34.804 172.232)"><path class="ax" d="M95.5,480.79a6.294,6.294,0,0,0,.219,1.634h17.639v-.254a5.015,5.015,0,0,0-5.029-5.046,5.586,5.586,0,0,0-1.093.109,6.47,6.47,0,0,0-4.556-2.8,5.406,5.406,0,0,0-.765-.036A6.435,6.435,0,0,0,95.5,480.79Z" transform="translate(-95.5 -474.4)"/></g><rect class="ay" width="328" height="4.647" transform="translate(0 215.58)"/><ellipse class="ay" cx="17.676" cy="2.65" rx="17.676" ry="2.65" transform="translate(99.493 197.028)"/><path class="az" d="M300.792,287.7a41.719,41.719,0,0,0-9.512-25.232C288.474,246.672,276.046,234.8,261.1,234.8c-16.983,0-30.759,15.393-30.759,34.381a37.326,37.326,0,0,0,.875,8.132,32.255,32.255,0,0,0-8.82,22.509c0,16.918,12.282,30.678,27.443,30.678a24.6,24.6,0,0,0,9.913-2.069,33.2,33.2,0,0,0,5.722.508,31.672,31.672,0,0,0,13.448-2.977c.364.036.729.036,1.093.036,12.938,0,23.4-11.727,23.4-26.176A28.284,28.284,0,0,0,300.792,287.7Z" transform="translate(-141.348 -149.555)"/><line class="ba" y2="55.148" transform="translate(121.579 142.099)"/><line class="bb" y1="16.737" x2="9.804" transform="translate(121.506 159.707)"/><path class="bc" d="M308.883,292.983a18.074,18.074,0,0,0,1.2-6.5,16.857,16.857,0,0,0-6.706-13.76c-.838-13.36-10.788-23.925-22.96-23.925-11.844,0-21.612,10.02-22.887,22.909A26.546,26.546,0,0,0,247,293.31c0,14.2,10.314,25.74,23.033,25.74a21.913,21.913,0,0,0,16.655-7.987c1.567,7.3,7.435,12.707,14.432,12.707,8.2,0,14.869-7.443,14.869-16.592A16.981,16.981,0,0,0,308.883,292.983Z" transform="translate(-156.982 -158.473)"/><path class="bd" d="M345.962,262.69a19.087,19.087,0,0,0-14.468-12.961c-2.478-.472-3.535,3.3-1.057,3.776a15.152,15.152,0,0,1,11.735,10.238C342.974,266.138,346.728,265.122,345.962,262.69Z" transform="translate(-209.113 -159.038)"/><path class="bd" d="M377.208,306.619c-.146-.654-.255-1.307-.4-1.961a1.993,1.993,0,0,0-2.405-1.38,2.015,2.015,0,0,0-1.385,2.4c.146.653.255,1.307.4,1.96a1.962,1.962,0,0,0,3.79-1.017Z" transform="translate(-237.043 -193.128)"/><path class="ay" d="M153.112,572.869c0,1.38-8.6,2.469-19.206,2.469s-19.206-1.125-19.206-2.469c0-1.38,8.6-2.469,19.206-2.469S153.112,571.526,153.112,572.869Z" transform="translate(-72.898 -363.315)"/><path class="be" d="M145.453,349.054c0-19.5-14.14-34.054-31.6-34.054-9.913,0-18.732,3.848-24.527,11.8C75.188,327.888,64,341.031,64,357.114c0,15.5,10.423,28.318,23.871,30.133a26.439,26.439,0,0,0,13.812,3.921,27.082,27.082,0,0,0,18.514-7.515C134.593,380.386,145.453,366.154,145.453,349.054Z" transform="translate(-40.676 -200.639)"/><line class="ba" y2="55.148" transform="translate(68.588 152.119)"/><line class="bb" x1="11.699" y1="20.295" transform="translate(55.906 167.875)"/><path class="bc" d="M155.9,360.041c4.118-15.793-3.025-30.024-17.129-33.691-10.241-2.65-21.757.29-28.39,8.931-9.366,1.416-17.748,8.967-20.518,19.641-3.608,13.832,2.843,24.688,15.2,27.882,6.341,1.634,16.473-.254,19.607-3.63C136.147,384.619,151.891,375.434,155.9,360.041Z" transform="translate(-56.48 -207.268)"/><path class="bd" d="M214.853,337.577a14.828,14.828,0,0,0-10.132-7.66c-2.478-.508-3.5,3.231-1.057,3.776a11.067,11.067,0,0,1,7.763,5.881C212.63,341.789,216.019,339.792,214.853,337.577Z" transform="translate(-128.553 -210.11)"/><path class="bd" d="M244.392,372.5a1.955,1.955,0,1,0-2.77,2.759l.109.218h0v.036a.459.459,0,0,1,.036.218h0c0,.073,0,.182-.036.218a.393.393,0,0,1,.036-.182h0a1.958,1.958,0,0,0,3.79.98A4.786,4.786,0,0,0,244.392,372.5Z" transform="translate(-153.208 -236.897)"/><g transform="translate(217.5 210.026)"><line class="bf" x1="2.952"/></g><path class="bc" d="M233.755,464.385a6.2,6.2,0,0,0-4.155.726,6.965,6.965,0,0,0,3.535,2.541,6.2,6.2,0,0,0,4.155-.726A6.964,6.964,0,0,0,233.755,464.385Z" transform="translate(-145.924 -295.711)"/><path class="bc" d="M224.9,466.232a7.08,7.08,0,0,0-3.353-2.832,8.593,8.593,0,0,0,.875,4.611,7.08,7.08,0,0,0,3.353,2.832A8.558,8.558,0,0,0,224.9,466.232Z" transform="translate(-140.783 -295.162)"/><path class="bc" d="M419.455,375.208a6.34,6.34,0,0,1-4.155-.835,6.792,6.792,0,0,1,3.608-2.432,6.34,6.34,0,0,1,4.155.835A7.21,7.21,0,0,1,419.455,375.208Z" transform="translate(-263.946 -236.849)"/><path class="bc" d="M418.486,362.774a6.7,6.7,0,0,1-3.426,2.723,8.467,8.467,0,0,1,.948-4.574,6.7,6.7,0,0,1,3.426-2.723A8.1,8.1,0,0,1,418.486,362.774Z" transform="translate(-263.78 -228.155)"/><g transform="translate(191.333 157.928)"><path class="bg" d="M598.4,548.9l9.512,16.991L618.044,548.9" transform="translate(-571.65 -507.548)"/><ellipse class="bh" cx="19.68" cy="19.605" rx="19.68" ry="19.605" transform="translate(26.714 8.858)"/><path class="bc" d="M601,473.709c0,9.512,7.726,14.558,17.275,14.558s17.275-5.046,17.275-14.558a17.275,17.275,0,0,0-34.549,0Z" transform="translate(-573.302 -448.694)"/><ellipse class="bi" cx="24.126" cy="24.034" rx="24.126" ry="24.034" transform="translate(3.426)"/><path class="bc" d="M556.7,456.52c0,11.835,9.621,18.116,21.5,18.116s21.5-6.281,21.5-18.116a21.5,21.5,0,0,0-43,0Z" transform="translate(-545.147 -435.064)"/><path class="bc" d="M678.15,500.692a13.052,13.052,0,0,0-1.749,7.878,11.492,11.492,0,0,0,8.273-12.671A13.166,13.166,0,0,0,678.15,500.692Z" transform="translate(-621.188 -473.79)"/><path class="bc" d="M679.052,521.683a13.146,13.146,0,0,0-6.852,4.284,13.442,13.442,0,0,0,7.981,1.307,13.146,13.146,0,0,0,6.852-4.284A13.356,13.356,0,0,0,679.052,521.683Z" transform="translate(-618.554 -490.097)"/><path class="bj" d="M533.6,520.5a14.4,14.4,0,0,1,5.321,6.934A12.491,12.491,0,0,1,525,518.757,14.436,14.436,0,0,1,533.6,520.5Z" transform="translate(-525 -488.297)"/><path class="bj" d="M593.752,556.889a14.4,14.4,0,0,1,8.71,1.089,12.463,12.463,0,0,1-15.963,3.812A14.268,14.268,0,0,1,593.752,556.889Z" transform="translate(-564.087 -512.452)"/><path class="bd" d="M615.368,448.706a24.469,24.469,0,0,0-8.164-5.482c-2.843-1.162-6.524-2.215-9.548-1.125-2.369.835-1.348,4.611,1.057,3.776,2.332-.835,5.321.218,7.508,1.162a20.182,20.182,0,0,1,6.414,4.466C614.347,453.244,617.117,450.485,615.368,448.706Z" transform="translate(-570.322 -439.23)"/><path class="bd" d="M660.009,471.174a4.072,4.072,0,0,0-3.863-.944,1.984,1.984,0,0,0-1.385,2.4,2.024,2.024,0,0,0,2.405,1.38c.036,0,.073,0,.073-.036h0c.036,0,.036.036.073.036l-.036-.036a1.968,1.968,0,0,0,2.66-.073A1.843,1.843,0,0,0,660.009,471.174Z" transform="translate(-607.42 -457.341)"/></g><line class="bk" x1="4.373" y1="4.901" transform="translate(115.565 164.572)"/><path class="bc" d="M89.436,406.434a8.113,8.113,0,0,1,2,4.139,6.357,6.357,0,0,1-3.936-1.634,8.113,8.113,0,0,1-2-4.139A6.426,6.426,0,0,1,89.436,406.434Z" transform="translate(-54.34 -257.836)"/><path class="bc" d="M86.69,418.062a6.368,6.368,0,0,1,4.045,1.271,6.59,6.59,0,0,1-3.79,2,6.368,6.368,0,0,1-4.045-1.271A6.66,6.66,0,0,1,86.69,418.062Z" transform="translate(-52.688 -266.27)"/><path class="bc" d="M265.336,295.634a8.113,8.113,0,0,1,2,4.139,6.357,6.357,0,0,1-3.936-1.634,8.113,8.113,0,0,1-2-4.139A6.357,6.357,0,0,1,265.336,295.634Z" transform="translate(-166.134 -187.263)"/><path class="bc" d="M262.59,307.362a6.369,6.369,0,0,1,4.045,1.271,6.59,6.59,0,0,1-3.79,2,6.368,6.368,0,0,1-4.045-1.271A6.589,6.589,0,0,1,262.59,307.362Z" transform="translate(-164.482 -195.76)"/><g transform="translate(0 220.227)"><rect class="bl" width="328" height="118.528"/><g transform="translate(145.541 46.774)"><path class="bm" d="M647.094,649.1h-5.94a1.852,1.852,0,0,1,0-3.7h5.94a1.852,1.852,0,0,1,0,3.7Z" transform="translate(-639.35 -645.4)"/></g><g transform="translate(234.83 74.003)"><path class="bm" d="M647.094,649.1h-5.94a1.852,1.852,0,0,1,0-3.7h5.94a1.852,1.852,0,0,1,0,3.7Z" transform="translate(-639.35 -645.4)"/></g><g transform="translate(163.69 46.774)"><path class="bm" d="M718.105,649.1H690.954a1.852,1.852,0,0,1,0-3.7h27.151c2.369,0,2.369,3.7,0,3.7Z" transform="translate(-689.15 -645.4)"/></g><g transform="translate(252.979 74.003)"><path class="bm" d="M718.105,649.1H690.954a1.852,1.852,0,0,1,0-3.7h27.151c2.369,0,2.369,3.7,0,3.7Z" transform="translate(-689.15 -645.4)"/></g><g transform="translate(57.564 82.18)"><path class="bm" d="M165.694,653.6h-5.94a1.852,1.852,0,0,1,0-3.7h5.94a1.852,1.852,0,0,1,0,3.7Z" transform="translate(-157.95 -649.9)"/></g><g transform="translate(75.677 82.18)"><path class="bm" d="M236.605,653.6H209.454a1.852,1.852,0,0,1,0-3.7h27.151a1.852,1.852,0,0,1,0,3.7Z" transform="translate(-207.65 -649.9)"/></g><g transform="translate(176.227 13.37)"><path class="bm" d="M731.294,631.5h-5.941a1.852,1.852,0,0,1,0-3.7h5.941c2.369,0,2.369,3.7,0,3.7Z" transform="translate(-723.55 -627.8)"/></g><g transform="translate(265.516 40.599)"><path class="bm" d="M731.294,631.5h-5.941a1.852,1.852,0,0,1,0-3.7h5.941c2.369,0,2.369,3.7,0,3.7Z" transform="translate(-723.55 -627.8)"/></g></g><g transform="translate(56.206 224.875)"><g class="bn"><path class="bo" d="M156,623.1H191.28c2.369,0,2.405-3.7,0-3.7H156c-2.369.036-2.369,3.7,0,3.7Z" transform="translate(-154.225 -619.4)"/></g></g><g transform="translate(257.772 191.437)"><path class="bj" d="M762.295,546.941a18.817,18.817,0,0,1-.656,4.974h-54.3c0-.254-.036-.544-.036-.835a15.43,15.43,0,0,1,15.525-15.466,14.6,14.6,0,0,1,3.353.363,19.577,19.577,0,0,1,14.068-8.532c.765-.073,1.531-.145,2.3-.145A19.677,19.677,0,0,1,762.295,546.941Z" transform="translate(-707.3 -527.3)"/><path class="bc" d="M771.683,537.675a18.792,18.792,0,0,1-17.165,10.71,19.406,19.406,0,0,1-9.366-2.4,19.547,19.547,0,0,1-18.951-.109,15.523,15.523,0,0,1,14.5-9.911,14.6,14.6,0,0,1,3.353.363,19.576,19.576,0,0,1,14.068-8.532A17.048,17.048,0,0,1,771.683,537.675Z" transform="translate(-719.312 -527.618)"/></g><g transform="translate(287.437 167.621)"><path class="ax" d="M788.7,471.793a9.718,9.718,0,0,0,.328,2.541h27.844V473.9a7.265,7.265,0,0,0-.547-2.832,7.978,7.978,0,0,0-7.435-5.083,8.839,8.839,0,0,0-1.713.182,10.187,10.187,0,0,0-7.216-4.393c-.4-.036-.8-.073-1.166-.073A10.106,10.106,0,0,0,788.7,471.793Z" transform="translate(-788.7 -461.7)"/></g><g transform="translate(272.932 172.232)"><path class="ax" d="M766.758,480.79a6.3,6.3,0,0,1-.219,1.634H748.9v-.254a5.016,5.016,0,0,1,5.029-5.046,5.586,5.586,0,0,1,1.093.109,6.47,6.47,0,0,1,4.556-2.8,5.406,5.406,0,0,1,.765-.036A6.411,6.411,0,0,1,766.758,480.79Z" transform="translate(-748.9 -474.4)"/></g><g transform="translate(88.56 139.049)"><path class="bd" d="M243,383Z" transform="translate(-243 -383)"/></g><path class="bd" d="M819.01,537.146a11.483,11.483,0,0,0-3.134-2.469,1.963,1.963,0,1,0-2,3.377c.255.145.474.254.729.4a2.012,2.012,0,0,1,.292.218c.036.036.146.109.182.145a10.6,10.6,0,0,1,1.13,1.089,2,2,0,0,0,2.77,0A1.945,1.945,0,0,0,819.01,537.146Z" transform="translate(-516.667 -340.408)"/><path class="bd" d="M800.053,529.081a2.169,2.169,0,0,0-1.385-.581,1.987,1.987,0,0,0-1.968,1.96v.182a1.98,1.98,0,0,0,.583,1.38,2.168,2.168,0,0,0,1.385.581,1.987,1.987,0,0,0,1.968-1.96v-.182A1.916,1.916,0,0,0,800.053,529.081Z" transform="translate(-506.347 -336.627)"/></g><g transform="translate(50.973 145.929)"><path class="bp" d="M118.486,40.722c0,.461-.806.921-1.843.921s-1.843-.461-1.843-.921.806-.922,1.843-.922S118.486,40.261,118.486,40.722Z" transform="translate(17.436 -28.281)"/><g transform="translate(0 0)"><g transform="translate(0 83.926)"><g transform="translate(69.277 0)"><ellipse class="bq" cx="27.875" cy="17.163" rx="27.875" ry="17.163" transform="translate(0 55.745) rotate(-89.175)"/><path class="br" d="M78.382,130.376c-.115,10.367-3.8,18.66-8.178,18.545s-7.833-8.524-7.6-18.776c.115-10.367,3.8-18.66,8.178-18.545C75.042,111.715,78.5,120.124,78.382,130.376Z" transform="translate(-59.77 -101.303)"/><path class="bq" d="M77.241,129.859c-.115,8.178-2.995,14.744-6.45,14.629-3.456,0-6.1-6.681-5.99-14.859S67.8,114.885,71.251,115C74.591,115.115,77.356,121.8,77.241,129.859Z" transform="translate(-59.435 -100.787)"/><path class="br" d="M77.114,136.944l.921-6.45-4.377-1.152c0-.346-.115-.691-.115-1.037l4.147-3.686-1.613-5.3-3.456,6.1a2.508,2.508,0,0,0-.806-1.037l.461-11.288-3.8.346.806,10.712c-.23.115-.346.346-.576.576L65.71,118.4l-1.267,4.607,2.995,4.262a7.341,7.341,0,0,0-.23.806l-4.377-1.728-.23,4.492,4.377.691c0,.346.115.576.115.921L62.83,134.41l1.037,4.032,3.8-3.8a4.756,4.756,0,0,0,.806,1.267L64.9,142.7l2.419,3.686,3.34-9.676.691-.346,1.037,10.252,3.34-4.377-3.11-7.833a6.494,6.494,0,0,0,.461-1.382Z" transform="translate(-59.769 -101.075)"/></g><g transform="translate(96.963 4.327)"><ellipse class="bq" cx="19.582" cy="16.932" rx="19.582" ry="16.932" transform="translate(0 39.16) rotate(-89.174)"/><path class="br" d="M103.227,125.959c-.115,8.178-3.8,14.629-8.293,14.629-4.377-.115-7.948-6.681-7.833-14.859S90.9,111.1,95.394,111.1C99.771,111.215,103.342,117.9,103.227,125.959Z" transform="translate(-83.734 -105.706)"/></g><g transform="translate(0 1.888)"><path class="bq" d="M37.9,128.489c-.23,12.095-7.142,19.927-19.236,19.7C6.566,148.071-.115,137.935,0,125.84c.23-12.095,7.372-21.655,19.467-21.54C31.561,104.531,38.127,116.395,37.9,128.489Z" transform="translate(0.001 -104.299)"/><path class="br" d="M26.4,128.024c-.115,8.869-4.492,14.514-11.979,14.4S2.671,134.935,2.9,126.181,7.509,110.285,15,110.4,26.515,119.154,26.4,128.024Z" transform="translate(0.441 -103.373)"/><path class="bq" d="M24.206,127.253c-.115,7.026-3.571,11.519-9.676,11.519-6.1-.115-9.445-5.99-9.33-13.016S8.886,113.2,14.991,113.2C21.1,113.43,24.321,120.342,24.206,127.253Z" transform="translate(0.791 -102.947)"/><path class="br" d="M19.91,125.179c-.115,4.492-2.88,8.063-6.22,7.948-3.34,0-5.99-3.686-5.99-8.178.115-4.492,2.88-8.063,6.22-7.948S19.91,120.686,19.91,125.179Z" transform="translate(1.171 -102.371)"/><g transform="translate(11.502 19.22)"><path class="bq" d="M12.761,122.039a.882.882,0,0,1-1.037.922.882.882,0,0,1-.921-1.037c.115-.576.461-1.037,1.037-.922A1.224,1.224,0,0,1,12.761,122.039Z" transform="translate(-9.863 -120.985)"/><path class="bq" d="M16.161,122.539a.882.882,0,0,1-1.037.921.981.981,0,1,1,.115-1.958A1.108,1.108,0,0,1,16.161,122.539Z" transform="translate(-9.347 -120.909)"/><path class="bq" d="M15.761,126.539a.882.882,0,0,1-1.037.922.981.981,0,0,1,.115-1.958A1.224,1.224,0,0,1,15.761,126.539Z" transform="translate(-9.407 -120.301)"/><path class="bq" d="M11.961,126.239a.882.882,0,0,1-1.037.922.981.981,0,0,1,.115-1.958A1.015,1.015,0,0,1,11.961,126.239Z" transform="translate(-9.985 -120.347)"/></g><g transform="translate(4.148 8.64)"><g transform="translate(9.1)"><path class="br" d="M15.419,118.711l-2.3-.115L13,111.8l2.88.115Z" transform="translate(-11.272 -111.8)"/><path class="br" d="M14.149,129.83l-2.3-.23-.346,7.142,3.225.23Z" transform="translate(-11.5 -109.097)"/></g><g transform="translate(4.723 0.806)"><path class="br" d="M17.273,128.6,15.2,129.982l2.073,6.22,2.649-1.5Z" transform="translate(-6.561 -110.055)"/><path class="br" d="M12.423,119.3l-2.073,1.382L7.7,114.343l2.88-1.843Z" transform="translate(-7.7 -112.5)"/></g><g transform="translate(0 9.33)"><path class="br" d="M9.59,121.167l-.576,2.88L3.6,123.356l.461-3.456Z" transform="translate(-3.6 -119.9)"/><path class="br" d="M18.261,124.3l-.461,2.764,5.644,1.382.691-3.916Z" transform="translate(-1.443 -119.232)"/></g><g transform="translate(2.073 2.764)"><path class="br" d="M16.2,119.038l1.382,2.3,4.492-4.492L20.232,114.2Z" transform="translate(-3.76 -114.2)"/><path class="br" d="M10.238,127.4l1.613,1.958L7.7,134.311l-2.3-2.88Z" transform="translate(-5.4 -112.195)"/></g></g></g><g transform="translate(181.626 5.097)"><ellipse class="bq" cx="23.383" cy="19.121" rx="23.383" ry="19.121" transform="translate(0 46.761) rotate(-89.175)"/><path class="br" d="M185.108,130.643c-.115,10.943-6.22,19.7-13.592,19.582s-13.131-9.1-13.016-20.043,6.22-19.7,13.592-19.582S185.224,119.7,185.108,130.643Z" transform="translate(-157.553 -106.552)"/><path class="bq" d="M179.278,128.853c-.115,7.718-4.032,13.938-8.869,13.822s-8.524-6.335-8.409-14.053,4.032-13.938,8.869-13.822C175.592,114.8,179.394,121.136,179.278,128.853Z" transform="translate(-157.022 -105.914)"/></g></g><path class="bs" d="M88.5,135.206s73.259,3.686,87.081,2.649,12.21-12.555,12.21-12.555l-98.715,1.613S88.5,133.133,88.5,135.206Z" transform="translate(13.442 -15.296)"/><path class="bt" d="M223.162,140.218s-3.686.691-3.916-2.88l-35.938.806-1.958,2.419-27.415.576-2.073-2.649-45.844.922-.461,1.037a6.082,6.082,0,0,1-5.068,3.8c-.806.115-1.728.115-2.649.23a6.622,6.622,0,0,1-6.911-5.3c-1.5-7.948-5.068-23.153-11.4-28.221a7.334,7.334,0,0,0-4.147-1.728s-16.126,2.189-5.875,37.551l-34.326-.806s-12.9-4.723-14.514-7.142-6.22-38.127-14.168-25.226a12.232,12.232,0,0,0-1.037,5.3L3.5,121.1A53.033,53.033,0,0,1,7.3,103.7c.23-.461.346-.806.576-1.267a33,33,0,0,1,10.6-13.592S43.7,49.335,65.125,45.88c0,0,64.39-11.288,113.344-.461,0,0,18.084,18.891,21.31,26.493.806,1.958,4.838,3.571,7.833,5.068,1.728.806,3.11,1.613,3.34,2.189,0,0,3.456,11.058,3.11,16.241a2.537,2.537,0,0,0,.115.922,3.34,3.34,0,0,0,1.037,1.728C218.785,100.939,226.732,111.076,223.162,140.218Z" transform="translate(0.533 -28.141)"/><g transform="translate(4.148)"><path class="bu" d="M165.219,123.5l-33.519.691,2.764,4.377,27.53-.576Z" transform="translate(15.855 -15.57)"/><path class="bv" d="M98.235,43.5a41.678,41.678,0,0,0-11.173,2.649c1.5-2.995-16.472-2.073-22.461-1.613,17.739-2.419,62.316-7.6,98.255-.346C163.085,44.536,117.471,41.311,98.235,43.5Z" transform="translate(5.664 -28.179)"/><path class="bu" d="M23.5,78" transform="translate(-0.578 -22.48)"/><path class="bw" d="M83.7,85.269c6.1,24.535,3.686,29.488,62.2,29.142,0,0,39.74-.346,46.881-1.267,2.764-.346,2.764-10.252-.346-22.346,0,0-7.487,14.974-28.682,16.817S82.55,80.546,83.7,85.269Z" transform="translate(8.563 -21.455)"/><path class="bx" d="M94.6,73.5s88.924,4.723,95.49,1.267c0,0,1.843,31.446-6.335,32.483-14.744,1.728-57.478,5.068-74.987-2.073C101.166,101.951,95.752,74.882,94.6,73.5Z" transform="translate(10.22 -23.163)"/><path class="bw" d="M117.7,80.8s.461,17.278,8.063,17.624l37.09.346s7.142,1.958,5.529-17.048Z" transform="translate(13.728 -22.055)"/><g transform="translate(133.387 59.667)"><g transform="translate(48.494)"><path class="bw" d="M161.73,82.867a4.724,4.724,0,0,0-.115-1.267H161.5C161.615,82.061,161.615,82.406,161.73,82.867Z" transform="translate(-161.5 -81.6)"/></g><g transform="translate(17.163 9.791)"><path class="by" d="M161.369,94.477,134.3,97.011l25.917.23s4.262,1.152,5.414-7.142C164.479,95.053,161.369,94.477,161.369,94.477Z" transform="translate(-134.3 -90.1)"/></g><g transform="translate(0 10.482)"><path class="bw" d="M119.4,90.7a18.056,18.056,0,0,0,1.613,3.34A18.056,18.056,0,0,1,119.4,90.7Z" transform="translate(-119.4 -90.7)"/></g></g><path class="br" d="M152.922,96.292l-21.079-.346A1.894,1.894,0,0,1,130,94.1l.115-9.561a1.894,1.894,0,0,1,1.843-1.843l21.079.346a1.894,1.894,0,0,1,1.843,1.843l-.115,9.561A1.7,1.7,0,0,1,152.922,96.292Z" transform="translate(15.596 -21.766)"/><path class="br" d="M188.126,91.436c-.691.806-6.8,2.189-10.136,2.995a1.834,1.834,0,0,1-2.189-1.958c.115-1.613.23-3.686.576-5.875.576-5.414,1.5-11.519,1.5-11.519-.23-1.267,3.686-2.764,3.686-2.764l.115-.115c1.728.806,3.11,1.5,3.34,2.189a84.786,84.786,0,0,1,2.534,10.367h0a28.762,28.762,0,0,1,.576,5.875A.974.974,0,0,0,188.126,91.436Z" transform="translate(22.551 -23.361)"/><path class="bw" d="M77.635,81.969S65.886,108.808,65.31,112.148s-1.152,22.807-1.152,22.807l-43.2-.23C19.35,132.306,14.743,96.6,6.795,109.5a12.232,12.232,0,0,0-1.037,5.3L3.8,116.986A53.033,53.033,0,0,1,7.6,99.593a2.428,2.428,0,0,1,.576-1.267s3.686-8.754,18.084-12.786a47.607,47.607,0,0,1,5.068-1.152S43.655,79.781,56.44,75.4h.115c11.979-4.032,24.189-7.833,27.3-7.6C83.509,67.8,76.944,77.247,77.635,81.969Z" transform="translate(-3.57 -24.03)"/><path class="bw" d="M77.635,81.969S65.886,108.808,65.31,112.148s-1.152,22.807-1.152,22.807l-43.2-.23C19.35,132.306,14.743,96.6,6.795,109.5a12.232,12.232,0,0,0-1.037,5.3L3.8,116.986A53.033,53.033,0,0,1,7.6,99.593a2.428,2.428,0,0,1,.576-1.267s3.686-8.754,18.084-12.786a47.607,47.607,0,0,1,5.068-1.152S43.655,79.781,56.44,75.4h.115c11.979-4.032,24.189-7.833,27.3-7.6C83.509,67.8,76.944,77.247,77.635,81.969Z" transform="translate(-3.57 -24.03)"/><g transform="translate(0 43.768)"><g transform="translate(1.958 46.654)"><path class="bz" d="M5.3,108.761l.115-.115V108.3C5.3,108.415,5.3,108.53,5.3,108.761Z" transform="translate(-5.3 -108.3)"/></g><path class="bz" d="M83.54,67.8c-3.456.346-7.372,1.613-12.095,2.88,0,0-6.566,1.958-15.2,4.607h-.115c-9.676,3.11-22,7.142-30.179,10.136-3.8,1.382-7.487,2.419-8.754,3.225,0,0-7.142,6.45-9.33,9.561a3.571,3.571,0,0,0-.576,1.267A55.888,55.888,0,0,0,3.6,115.258c2.419-28.8,75.217-45.038,78.327-44.693C82.042,70.68,84.692,67.685,83.54,67.8Z" transform="translate(-3.6 -67.797)"/></g><path class="bz" d="M12.419,106.982s2.073-5.875,23.844-8.639c6.566-.806,25.687-6.1,26.493,2.419.115,1.152,1.613,4.492,2.419,3.8,0,0,8.639-15.09-.691-14.859C64.484,89.7,3.434,88.206,12.419,106.982Z" transform="translate(-2.398 -20.707)"/><path class="bw" d="M111.758,74.5s-4.607,8.409,16.011,7.833l41.467.346s7.372.346,8.869-6.911Z" transform="translate(12.759 -23.011)"/><rect class="bw" width="21.194" height="3.225" transform="translate(131.684 15.284) rotate(0.825)"/><path class="bp" d="M115.9,41.779l1.037.346,7.833-11.979-1.037-.346Z" transform="translate(13.455 -29.8)"/><path class="br" d="M146.476,75.408c-.461,1.728-3.11,2.649-5.99,1.958s-4.838-2.649-4.377-4.377,3.11-2.649,5.99-1.958C144.863,71.722,146.936,73.68,146.476,75.408Z" transform="translate(16.514 -23.573)"/><path class="bq" d="M205.729,126.161l-35.938.806-1.958,2.419-27.415.576-2.073-2.649-45.844.922s.922-7.142,15.435-7.257c21.886,0,87.657-.576,87.657-.576S208.839,119.826,205.729,126.161Z" transform="translate(9.901 -16.042)"/><path class="br" d="M128.5,120.746l5.99,9.33,27.99-.576,6.1-9.1C168.7,120.4,141.055,120.63,128.5,120.746Z" transform="translate(15.369 -16.04)"/><path class="bs" d="M61.667,137.873s-3.916-24.3,12.44-33.174c0,0-5.529-9.791-12.21-2.765C61.9,101.935,50.148,106.312,61.667,137.873Z" transform="translate(4.45 -19.23)"/><path class="br" d="M103.036,93.088,89.444,91.245a3.464,3.464,0,0,1-2.764-1.728c-.806-1.152-1.958-2.765-3.225-4.607-1.613-2.419-3.34-5.068-4.607-7.372a3.058,3.058,0,0,1,2.534-4.492L95.2,72.7a3.545,3.545,0,0,1,3.225,2.073l4.838,11.519,1.843,4.262A1.912,1.912,0,0,1,103.036,93.088Z" transform="translate(7.774 -23.285)"/><path class="ca" d="M102.382,91.676,88.79,89.833A3.464,3.464,0,0,1,86.025,88.1c-.806-1.152-1.958-2.764-3.225-4.607L86.716,82a62.387,62.387,0,0,0,15.9,2.764l1.843,4.262A1.963,1.963,0,0,1,102.382,91.676Z" transform="translate(8.428 -21.872)"/><path class="cb" d="M44.026,76.8a38.767,38.767,0,0,0-5.414,22.692v.806c1.152,13.707,1.037,33.059,1.037,33.059" transform="translate(1.703 -22.662)"/></g><g transform="translate(7.949 12.484)"><path class="cc" d="M199.378,71.925c-9.33,5.759-98.946.23-98.946.23-2.534-1.267-6.911-1.267-11.4-.806a124.315,124.315,0,0,0-13.822,2.3c-17.739,4.262-54.6,17.508-57.594,19.467C15.539,94.5,6.9,104.408,6.9,104.408v-.691A33.824,33.824,0,0,1,18.073,88.742S43.3,49.233,64.724,45.778c0,0,3.11-.576,8.524-1.267h.115C91.1,42.092,133.145,37.6,169.544,43.7a16.309,16.309,0,0,1,2.3.461h.115c2.073.346,4.147.806,6.22,1.267h0C178.644,46.008,196.152,64.438,199.378,71.925Z" transform="translate(-6.9 -40.638)"/><path class="br" d="M189.339,71.639c-9.33,5.759-98.946.23-98.946.23a9.713,9.713,0,0,0-2.764-.806,35.043,35.043,0,0,0-8.524,0l-6.1.576s4.377-28.451,22-28.566c0,0,47.342-1.613,66.693.691h.115a27.6,27.6,0,0,1,6.22,1.267h0c.23.23,2.419,2.534,5.3,5.759C178.972,57.01,187.266,66.686,189.339,71.639Z" transform="translate(3.139 -40.352)"/><path class="br" d="M49.015,78.265S57.539,51.2,62.722,47.856c0,0,16.126-1.5,18.084,1.152,0,0-11.288,18.43-10.828,23.268,0,0-21.079,5.99-21.079,6.335" transform="translate(-0.521 -39.606)"/><path class="br" d="M28.7,83s13.938-4.723,16.011-3.34c0,0,8.524-25.341,15.32-31.561,0,0-9.791,1.037-24.65,16.241C31.925,67.912,29.276,81.619,28.7,83Z" transform="translate(-3.589 -39.505)"/><path class="br" d="M31.287,67.123c.23-.461,1.267-2.073.691.461L28.523,80.6s-3.8,1.037-4.723-1.613C23.8,78.987,29.79,69.657,31.287,67.123Z" transform="translate(-4.333 -36.757)"/><path class="bs" d="M31.646,75.406s-3.34-.806-4.147,3.456c0,0-1.382,4.377-3.571,2.649-1.728-1.382.115-8.178.115-8.178S12.41,69.3,11.6,77.364c-.346,3.456,2.3,5.875,11.749,6.335,0,0,5.414.23,6.45-.23C29.8,83.7,31.416,77.019,31.646,75.406Z" transform="translate(-6.19 -35.826)"/><g transform="translate(76.139 2.172)"><g class="cd"><rect class="d" width="24.535" height="142.717" transform="matrix(0.77, 0.638, -0.638, 0.77, 88.332, -48.976)"/><rect class="d" width="12.325" height="142.717" transform="matrix(0.77, 0.638, -0.638, 0.77, 115.156, -28.199)"/></g></g><path class="bt" d="M173.343,50.882a10.652,10.652,0,0,1-1.152-.576c-8.985-5.99-53.447-2.764-71.186-3.8C78.2,45.123,87.99,70.694,87.99,70.694L72.9,72.077s4.838-30.179,22-28.912c0,0,44.923-3.225,66.693.691h.115a27.6,27.6,0,0,1,6.22,1.267h0C168.275,45.353,170.463,47.657,173.343,50.882Z" transform="translate(3.123 -40.444)"/><path class="cc" d="M111.106,46.218s-14.4.576-15.435,8.639c-.461,3.571-3.456,12.095,7.487,12.555,0,0,30.294,3.34,31.792,5.875,0,0-45.153.346-48.724-2.3-2.764-2.073-5.875-22.922,6.911-24.88A49.335,49.335,0,0,1,111.106,46.218Z" transform="translate(4.772 -39.926)"/><path class="bq" d="M171.406,50.581c-2.88-3.225-5.068-5.529-5.3-5.759h0a22.675,22.675,0,0,0-4.147-.921c.922,1.037,2.3,2.534,3.916,4.262,5.644,6.22,13.938,15.9,16.011,20.849-9.33,5.759-98.6,1.382-96.181,1.728,1.037.23,1.613,1.267,2.764.806,0,0,89.616,5.644,98.946-.23C185.343,66.477,177.05,56.8,171.406,50.581Z" transform="translate(5.061 -40.143)"/><g transform="translate(48.379 7.828)"><g class="ce" transform="translate(0)"><rect class="d" width="8.178" height="47.342" transform="matrix(0.447, 0.895, -0.895, 0.447, 31.794, -5.312)"/><rect class="d" width="4.032" height="47.342" transform="matrix(0.447, 0.895, -0.895, 0.447, 37.114, 4.561)"/></g></g><g transform="translate(25.111 8.595)"><g class="cf"><rect class="d" width="8.178" height="47.342" transform="translate(32.639 1.184) rotate(67.089)"/><rect class="d" width="4.032" height="47.342" transform="translate(37.379 11.412) rotate(67.089)"/></g></g></g></g></g></g></g></svg>