<svg xmlns="http://www.w3.org/2000/svg" xmlns:xlink="http://www.w3.org/1999/xlink" viewBox="0 0 328 193"><defs><style>.a{fill:#ededed;stroke:#cccece;}.b{clip-path:url(#a);}.c{fill:#88d9e2;}.an,.by,.ch,.ci,.d{fill:#fff;}.ab,.ac,.ad,.ae,.af,.ag,.ah,.ai,.aj,.av,.ba,.bb,.bg,.bk,.ca,.ce,.cj,.cm,.e,.h,.i,.j,.k,.l,.m,.p,.q,.r,.s,.u,.v,.w,.x,.y,.z{fill:none;}.ab,.ac,.ad,.e,.h,.i,.j,.k,.p,.q{stroke:#a4e3ff;}.ab,.ac,.ad,.ae,.af,.ag,.ah,.ai,.aj,.av,.ba,.bb,.bg,.bk,.ca,.ce,.cj,.e,.h,.i,.j,.k,.l,.m,.p,.q,.r,.s,.u,.v,.w,.x,.y,.z{stroke-miterlimit:10;}.e{stroke-width:6.813px;}.ao,.e,.p,.q,.s,.u{opacity:0.68;}.f{fill:#00a8b7;}.g{fill:#006881;}.h,.i,.j,.k,.l,.m{stroke-width:4.679px;}.ac,.i{opacity:0.53;}.j{opacity:0.31;}.ad,.ag,.k,.m{opacity:0.39;}.ae,.af,.ag,.l,.m,.r,.s{stroke:#cff3ff;}.n{fill:#98ba2d;}.o{fill:#36b2d8;}.p,.r,.s{stroke-width:6.238px;}.q{stroke-width:9.131px;}.r{opacity:0.89;}.t{fill:#22557f;}.aj,.u,.v,.w,.x{stroke:#95e4e8;}.u,.v{stroke-width:5.489px;}.v,.w,.x{opacity:0.34;}.w{stroke-width:6.029px;}.x{stroke-width:6.531px;}.ck,.y{stroke:#fff;}.y,.z{stroke-width:6.947px;}.z{stroke:#a4eeff;}.aa{fill:#2e9bc6;}.ab,.ac,.ad,.ae,.af,.ag,.aj{stroke-width:6.272px;}.ae{opacity:0.14;}.ah{stroke:#46c4d1;}.ah,.ai{stroke-width:7.938px;}.ai{stroke:#3a84ad;}.ak{fill:#36b6dd;}.al{fill:#2e6193;}.am{fill:#ccb5a3;}.an{opacity:0.2;}.ap{fill:#a4e3ff;}.aq{fill:#cff3ff;}.ar{fill:#38c7e8;}.as{fill:#57dfff;}.at{fill:#00cfff;}.au{fill:#2469ce;opacity:0.5;}.av{stroke:#38300e;stroke-width:3.519px;}.aw{fill:url(#b);}.ax{fill:#2e8c45;}.ay{fill:#2c6026;}.az{fill:url(#c);}.ba,.bb,.bk{stroke:#562723;}.ba,.cj{stroke-linecap:round;}.ba{stroke-width:17.728px;}.bb{stroke-width:9.455px;}.bc{fill:#49843d;}.bd{fill:#77a33e;}.be{fill:url(#d);}.bf{fill:#33312a;}.bg{stroke:#4b4332;stroke-width:6.696px;}.bh{fill:url(#e);}.bi{fill:url(#f);}.bj{fill:#2a593b;}.bk{stroke-width:0.919px;}.bl{fill:#9b9778;}.bm{fill:#b7b191;}.bn{opacity:0.7;}.bo{fill:#565441;}.bp{fill:#3d4039;}.bq{fill:#d6e3dd;}.br{fill:#eebb2d;}.bs{fill:#e59c0a;}.bt{fill:#111;}.bu{fill:#434443;}.bv,.by{opacity:0.47;}.bv{clip-path:url(#g);}.bw{opacity:0.44;clip-path:url(#h);}.bx{clip-path:url(#i);}.bz{clip-path:url(#j);}.ca,.cj{stroke:#e59c0a;}.cb{fill:#ef9c07;}.cc{fill:#f7d877;}.cd{clip-path:url(#k);}.ce{stroke:#4b4c4b;}.cf{fill:#bfc4c1;}.cg{fill:#2a2b2a;}.ch{opacity:0.62;}.ci{opacity:0.57;}.cj{stroke-width:0.5px;}.ck{fill:#f27e20;stroke-width:2px;}.cl{stroke:none;}</style><clipPath id="a"><path class="a" d="M4-2H324c2.209,0,4,1.342,4,3V188c0,1.655-1.791,3-4,3H4c-2.209,0-4-1.342-4-3V1C0-.658,1.791-2,4-2Z" transform="translate(94 182)"/></clipPath><linearGradient id="b" x1="0.5" y1="-2.109" x2="0.5" y2="1.355" gradientUnits="objectBoundingBox"><stop offset="0" stop-color="#7fa637"/><stop offset="1" stop-color="#5f891b"/></linearGradient><linearGradient id="c" x1="0.778" y1="0.052" x2="0.262" y2="1.084" gradientUnits="objectBoundingBox"><stop offset="0.092" stop-color="#49843d"/><stop offset="0.196" stop-color="#447e3d"/><stop offset="0.701" stop-color="#31633b"/><stop offset="1" stop-color="#2a593b"/></linearGradient><linearGradient id="d" x1="0.709" y1="-0.022" x2="0.285" y2="1.05" xlink:href="#c"/><linearGradient id="e" x1="0.705" y1="0.014" x2="0.275" y2="1.035" xlink:href="#c"/><linearGradient id="f" x1="0.705" y1="0.014" x2="0.274" y2="1.035" xlink:href="#c"/><clipPath id="g"><path d="M40.483,35.276a2.028,2.028,0,0,1-1.427-3.5c7.354-7,16.793-14.87,22.939-17.166A282.4,282.4,0,0,1,111.166,9.8c13.281,0,24.366,1.312,32.927,3.936a1.875,1.875,0,0,1,1.427,1.859,91.624,91.624,0,0,1-1.207,17.822,2.009,2.009,0,0,1-1.976,1.531c-5.817,0-25.025-.109-45.988-.109C67.373,34.948,50.471,35.166,40.483,35.276Z" transform="translate(-38.426 -9.8)"/></clipPath><clipPath id="h"><path d="M144.532,21.933s-1.646-9.731,2.085-10.715c0,0,2.963-.547,3.4.109a79.036,79.036,0,0,1,12.073,27.116s-7.9,4.92-11.3,2.3C147.276,38.115,144.532,21.933,144.532,21.933Z" transform="translate(-144.17 -11.005)"/></clipPath><clipPath id="i"><path d="M.818.04A34.775,34.775,0,0,1,16.479,22.117s-6.037,2.3-6.694,1.758S4.649,7.474.378,1.353C.378,1.463-.717-.286.818.04Z" transform="translate(0 0)"/></clipPath><clipPath id="j"><path d="M.818.04A34.786,34.786,0,0,1,16.484,22.117s-6.037,2.3-6.695,1.757S4.651,7.473.378,1.353C.378,1.463-.717-.286.818.04Z" transform="translate(0 0)"/></clipPath><clipPath id="k"><path d="M124.423,107.995c-32.927.875-90.879,1.859-115.684-.875l-.22-.547a5.009,5.009,0,0,1,.329-3.717c.878-1.859,1.646-4.374,2.3-4.811l.11-.109c.659-.109,2.085-23.945,13.72-26.569,0,0,22.829-9.075,25.9-7.654s31.5.219,31.5.219,26.89,3.717,33.147,14.323c0,0,6.915,13.23,7.354,20.227Z" transform="translate(-8.304 -63.562)"/></clipPath></defs><g class="b" transform="translate(-94 -180)"><g transform="translate(94 65.926)"><g transform="translate(0 0)"><rect class="c" width="328" height="245.895"/><path class="d" d="M657.728,115.62v.363a4.611,4.611,0,0,0,4.592,4.574h20.956v15.212H620.628a4.611,4.611,0,0,1-4.592-4.574v-6.063a4.611,4.611,0,0,1,4.592-4.574h9.658a4.611,4.611,0,0,0,4.592-4.574v-.363a4.611,4.611,0,0,0-4.592-4.574H588.01a4.156,4.156,0,0,1-4.373-3.848,4.156,4.156,0,0,0-4.373-3.848H563.592A4.6,4.6,0,0,1,559,98.774a4.611,4.611,0,0,1,4.592-4.574H683.275v16.846H662.32A4.611,4.611,0,0,0,657.728,115.62Z" transform="translate(-355.276 -60)"/><g transform="translate(247.567 67.419)"><line class="e" x2="9.111" transform="translate(36.189 39.609)"/><line class="e" x2="9.111" transform="translate(36.189 16.773)"/><rect class="f" width="36.955" height="112.038" transform="translate(8.346)"/><rect class="g" width="16.291" height="112.038"/><line class="h" x2="6.013" transform="translate(39.287 58.887)"/><line class="h" x2="4.556" transform="translate(30.54 22.146)"/><line class="h" x2="4.483" transform="translate(18.878 58.887)"/><line class="i" x2="7.289" transform="translate(5.503 22.146)"/><line class="j" x2="4.118" transform="translate(0 22.146)"/><line class="h" x2="6.013" transform="translate(39.287 26.938)"/><line class="h" x2="7.107" transform="translate(32.18 100.638)"/><line class="h" x2="8.747" transform="translate(18.878 63.679)"/><line class="h" x2="8.929" transform="translate(36.372 68.218)"/><line class="h" x2="5.868" transform="translate(16.254 31.477)"/><line class="h" x2="4.665" transform="translate(0 31.477)"/><line class="h" x2="4.082" transform="translate(38.048 73.01)"/><line class="h" x2="5.795" transform="translate(18.988 36.269)"/><line class="h" x2="6.123" transform="translate(4.118 73.01)"/><line class="h" x2="11.589" transform="translate(30.54 40.771)"/><line class="k" x2="9.184" transform="translate(12.646 40.771)"/><line class="h" x2="3.207" transform="translate(9.439 86.878)"/><line class="h" x2="2.369" transform="translate(7.07 77.512)"/><line class="h" x2="8.929" transform="translate(36.372 45.563)"/><line class="h" x2="2.879" transform="translate(28.973 73.01)"/><line class="h" x2="1.604" transform="translate(31.889 8.641)"/><line class="h" x2="10.095" transform="translate(17.275 73.01)"/><line class="h" x2="4.191" transform="translate(11.844 77.512)"/><line class="h" x2="6.669" transform="translate(5.467 82.304)"/><line class="h" x2="2.405" transform="translate(3.061 45.563)"/><line class="i" x2="3.025" transform="translate(2.15 8.641)"/><line class="h" x2="4.592" transform="translate(40.708 13.142)"/><line class="h" x2="10.168" transform="translate(30.54 50.101)"/><line class="h" x2="1.567" transform="translate(28.973 13.142)"/><line class="k" x2="6.086" transform="translate(10.241 50.101)"/><line class="i" x2="2.15" transform="translate(0 13.142)"/><line class="h" x2="6.013" transform="translate(39.287 17.935)"/><line class="h" x2="5.795" transform="translate(33.492 91.634)"/><line class="h" x2="5.868" transform="translate(27.625 54.893)"/><line class="k" x2="8.856" transform="translate(7.471 54.893)"/><line class="i" x2="4.483" transform="translate(6.779 17.935)"/><line class="h" x2="3.207" transform="translate(3.572 54.893)"/><line class="h" x2="3.572" transform="translate(2.15 100.965)"/><line class="l" x2="4.556" transform="translate(33.784 22.146)"/><line class="l" x2="4.483" transform="translate(22.122 58.887)"/><line class="l" x2="7.289" transform="translate(16.4 22.146)"/><line class="l" x2="7.143" transform="translate(35.388 100.638)"/><line class="i" x2="7.362" transform="translate(8.965 26.938)"/><line class="l" x2="5.831" transform="translate(27.953 31.477)"/><line class="m" x2="4.884" transform="translate(11.553 31.477)"/><line class="l" x2="11.954" transform="translate(33.347 36.269)"/><line class="m" x2="6.123" transform="translate(7.362 73.01)"/><line class="l" x2="8.783" transform="translate(16.254 40.771)"/><line class="l" x2="3.207" transform="translate(12.683 86.878)"/><line class="m" x2="2.405" transform="translate(10.277 77.512)"/><line class="l" x2="2.916" transform="translate(32.18 73.01)"/><line class="l" x2="1.604" transform="translate(35.132 8.641)"/><line class="l" x2="5.467" transform="translate(19.571 82.304)"/><line class="l" x2="4.191" transform="translate(15.088 77.512)"/><line class="l" x2="6.706" transform="translate(8.674 82.304)"/><line class="l" x2="2.405" transform="translate(6.268 45.563)"/><line class="l" x2="10.168" transform="translate(33.784 50.101)"/><line class="l" x2="8.783" transform="translate(23.397 13.142)"/><line class="l" x2="3.827" transform="translate(19.571 86.842)"/><line class="m" x2="7.471" transform="translate(6.013 13.142)"/><line class="l" x2="5.795" transform="translate(36.736 91.634)"/><line class="l" x2="5.868" transform="translate(30.868 54.893)"/><line class="l" x2="12.245" transform="translate(18.623 17.935)"/><line class="l" x2="3.936" transform="translate(15.635 54.893)"/><line class="m" x2="3.244" transform="translate(12.391 17.935)"/><line class="l" x2="3.572" transform="translate(5.394 100.965)"/><path class="n" d="M783.036,494.3Z" transform="translate(-745.207 -382.262)"/></g><path class="d" d="M94.732,146.383v.581a4.743,4.743,0,0,1-4.738,4.72h-46.1a4.743,4.743,0,0,0-4.738,4.72v2a4.743,4.743,0,0,1-4.738,4.72H.2V142.135c.62-.254-.692-.436.073-.436H90.031A4.68,4.68,0,0,1,94.732,146.383Z" transform="translate(-0.013 -90.255)"/><g transform="translate(27.916 28.899)"><g transform="translate(102.081)"><rect class="o" width="51.095" height="129.21" transform="translate(52.808 64.442)"/><line class="p" x2="9.257" transform="translate(64.434 76.422)"/><line class="q" x2="11.662" transform="translate(48.471 142.353)"/><line class="p" x2="23.543" transform="translate(73.764 132.333)"/><line class="p" x2="20.956" transform="translate(52.808 82.812)"/><line class="p" x2="15.234" transform="translate(65.964 88.875)"/><line class="q" x2="13.156" transform="translate(48.471 154.842)"/><line class="q" x2="11.662" transform="translate(48.471 111.747)"/><line class="p" x2="24.746" transform="translate(52.808 101.364)"/><line class="p" x2="11.589" transform="translate(61.409 157.311)"/><line class="p" x2="8.601" transform="translate(58.858 107.79)"/><line class="p" x2="17.238" transform="translate(83.057 163.373)"/><line class="p" x2="13.74" transform="translate(84.77 113.853)"/><line class="p" x2="11.152" transform="translate(89.143 169.799)"/><line class="p" x1="9.33" transform="translate(67.459 120.279)"/><line class="p" x2="13.849" transform="translate(62.94 169.799)"/><line class="r" x2="7.58" transform="translate(78.428 76.422)"/><line class="s" x2="16.436" transform="translate(61.992 125.943)"/><line class="s" x2="13.849" transform="translate(86.774 138.395)"/><line class="s" x2="10.46" transform="translate(84.733 88.875)"/><line class="s" x2="17.931" transform="translate(61.992 138.395)"/><line class="r" x2="15.598" transform="translate(69.937 95.301)"/><line class="s" x1="10.532" transform="translate(86.774 101.364)"/><line class="r" x2="6.852" transform="translate(75.367 157.311)"/><line class="s" x2="33.857" transform="translate(43.952 113.853)"/><line class="r" x2="15.926" transform="translate(86.009 120.279)"/><line class="s" x2="9.111" transform="translate(76.898 169.799)"/><path class="t" d="M473.521,261V388.794H427.2V261Z" transform="translate(-401.507 -195.142)"/><line class="u" x2="31.78" transform="translate(72.124 69.96)"/><line class="v" x2="14.396" transform="translate(52.808 69.96)"/><line class="w" x2="3.426" transform="translate(68.552 76.422)"/><line class="w" x2="3.426" transform="translate(66.839 95.301)"/><line class="x" x2="8.054" transform="translate(52.808 79.581)"/><line class="y" x2="31.78" transform="translate(72.124 64.442)"/><line class="z" x2="19.316" transform="translate(52.808 64.442)"/><rect class="aa" width="49.346" height="190.167" transform="translate(11.152)"/><rect class="t" width="21.867" height="190.167"/><line class="ab" x2="6.924" transform="translate(52.662 168.202)"/><line class="ab" x2="2.478" transform="translate(47.013 11.981)"/><line class="ab" x2="6.086" transform="translate(40.927 118.972)"/><line class="ab" x2="4.738" transform="translate(26.969 11.981)"/><line class="ab" x2="5.977" transform="translate(25.292 168.202)"/><line class="ac" x2="9.767" transform="translate(7.362 118.972)"/><line class="ac" x2="10.022" transform="translate(0.036 11.981)"/><line class="ab" x2="5.503" transform="translate(0 118.972)"/><line class="ab" x2="7.836" transform="translate(52.662 125.398)"/><line class="ab" x2="6.05" transform="translate(37.028 18.407)"/><line class="ab" x2="11.735" transform="translate(25.292 174.628)"/><line class="ac" x1="6.013" transform="translate(15.853 18.407)"/><line class="ac" x2="4.337" transform="translate(0 18.407)"/><line class="ab" x2="10.86" transform="translate(48.726 180.691)"/><line class="ab" x2="3.608" transform="translate(40.927 24.47)"/><line class="ab" x2="7.836" transform="translate(21.794 131.461)"/><line class="ab" x2="11.079" transform="translate(22.012 24.47)"/><line class="ac" x2="4.92" transform="translate(6.232 24.47)"/><line class="ab" x2="3.134" transform="translate(56.452 30.896)"/><line class="ab" x2="5.467" transform="translate(50.986 187.117)"/><line class="ab" x2="4.628" transform="translate(34.039 30.896)"/><line class="ab" x2="7.799" transform="translate(25.438 137.851)"/><line class="ab" x2="7.362" transform="translate(21.867 30.896)"/><line class="ab" x2="8.236" transform="translate(5.503 187.117)"/><line class="ac" x2="5.503" transform="translate(0 30.896)"/><line class="ab" x2="3.134" transform="translate(56.452 94.394)"/><line class="ab" x2="15.525" transform="translate(40.927 143.914)"/><line class="ab" x2="7.836" transform="translate(33.092 94.394)"/><line class="ab" x2="3.863" transform="translate(29.228 94.394)"/><line class="ad" x2="12.282" transform="translate(16.947 143.914)"/><line class="ae" x2="3.207" transform="translate(9.439 193.18)"/><line class="ac" x2="4.337" transform="translate(0 36.959)"/><line class="ab" x2="10.86" transform="translate(48.726 150.34)"/><line class="ab" x2="3.863" transform="translate(38.813 187.117)"/><line class="ab" x2="2.114" transform="translate(42.749 100.82)"/><line class="ab" x2="13.521" transform="translate(23.142 187.117)"/><line class="ae" x2="8.965" transform="translate(7.289 199.57)"/><line class="ab" x2="3.207" transform="translate(4.082 150.34)"/><line class="ac" x2="4.045" transform="translate(2.879 43.348)"/><line class="ab" x2="5.029" transform="translate(54.557 106.883)"/><line class="ab" x2="13.63" transform="translate(40.927 156.403)"/><line class="ab" x2="2.15" transform="translate(38.777 106.883)"/><line class="ad" x2="8.127" transform="translate(13.74 156.403)"/><line class="ac" x2="2.879" transform="translate(0 106.883)"/><line class="ab" x2="6.924" transform="translate(52.662 113.309)"/><line class="ab" x2="7.836" transform="translate(37.028 162.829)"/><line class="ad" x2="11.844" transform="translate(10.022 162.829)"/><line class="ae" x2="4.3" transform="translate(4.774 162.829)"/><line class="af" x2="3.462" transform="translate(53.537 11.981)"/><line class="af" x2="6.086" transform="translate(45.3 118.972)"/><line class="af" x2="9.694" transform="translate(35.606 11.981)"/><line class="af" x2="5.977" transform="translate(29.629 168.202)"/><line class="af" x2="9.767" transform="translate(21.94 118.972)"/><line class="ae" x2="6.815" transform="translate(13.047 11.981)"/><line class="ae" x2="5.503" transform="translate(4.337 118.972)"/><line class="af" x2="6.05" transform="translate(45.884 18.407)"/><line class="af" x2="11.735" transform="translate(29.629 174.628)"/><line class="af" x2="7.69" transform="translate(21.94 18.407)"/><line class="ac" x2="9.876" transform="translate(11.99 125.398)"/><line class="ae" x2="4.701" transform="translate(7.289 18.407)"/><line class="af" x2="7.799" transform="translate(47.086 24.47)"/><line class="af" x2="7.872" transform="translate(37.428 131.461)"/><line class="af" x2="15.416" transform="translate(22.012 24.47)"/><line class="ag" x2="6.524" transform="translate(15.489 131.461)"/><line class="ae" x2="4.92" transform="translate(13.995 24.47)"/><line class="ae" x2="6.232" transform="translate(4.337 131.461)"/><line class="af" x2="13.958" transform="translate(41.364 30.896)"/><line class="ab" x1="2.442" transform="translate(31.962 37.866)"/><line class="ab" x1="4.774" transform="translate(49.71 37.866)"/><line class="ab" x1="6.086" transform="translate(38.34 44.292)"/><line class="ab" x1="3.608" transform="translate(36.882 50.355)"/><line class="ab" x1="11.917" transform="translate(48.362 50.355)"/><line class="ab" x1="4.665" transform="translate(42.749 56.781)"/><line class="ab" x1="8.2" transform="translate(52.225 56.781)"/><line class="af" x1="3.499" transform="translate(24.418 37.866)"/><line class="af" x1="9.658" transform="translate(36.153 37.866)"/><line class="af" x1="6.086" transform="translate(29.484 44.292)"/><line class="af" x1="8.564" transform="translate(51.788 44.292)"/><line class="af" x1="7.763" transform="translate(26.568 50.355)"/><line class="af" x1="16.254" transform="translate(44.025 50.355)"/><line class="af" x1="13.958" transform="translate(26.131 56.781)"/><line class="af" x2="15.635" transform="translate(44.681 137.851)"/><line class="ae" x2="8.236" transform="translate(9.84 187.117)"/><line class="ag" x2="5.467" transform="translate(16.364 30.896)"/><line class="af" x2="3.863" transform="translate(44.134 94.394)"/><line class="af" x2="11.772" transform="translate(21.794 143.914)"/><line class="ag" x2="3.244" transform="translate(13.776 193.18)"/><line class="ae" x2="9.439" transform="translate(7.362 36.959)"/><line class="ac" x2="6.013" transform="translate(0 56.781)"/><line class="ac" x1="4.337" transform="translate(17.53 56.781)"/><line class="ac" x1="4.956" transform="translate(10.715 62.844)"/><line class="ac" x1="5.503" transform="translate(16.364 69.27)"/><line class="ac" x1="4.337" transform="translate(17.53 75.333)"/><line class="ac" x1="4.082" transform="translate(14.942 81.759)"/><line class="ae" x1="6.815" transform="translate(2.004 50.355)"/><line class="ae" x1="4.701" transform="translate(9.876 56.781)"/><line class="ae" x1="4.956" transform="translate(2.952 62.844)"/><line class="ag" x1="5.503" transform="translate(0.036 69.27)"/><line class="ae" x1="9.403" transform="translate(5.102 75.333)"/><line class="af" x2="2.114" transform="translate(47.086 100.82)"/><line class="af" x2="7.362" transform="translate(26.204 199.57)"/><line class="ad" x2="8.965" transform="translate(11.626 199.57)"/><line class="ae" x2="3.207" transform="translate(8.419 150.34)"/><line class="af" x2="13.594" transform="translate(45.3 156.403)"/><line class="af" x2="11.808" transform="translate(31.342 106.883)"/><line class="ag" x2="10.059" transform="translate(8.018 106.883)"/><line class="af" x2="7.836" transform="translate(41.364 162.829)"/><line class="af" x2="15.161" transform="translate(26.204 113.309)"/><line class="ab" x2="6.086" transform="translate(40.927 87.713)"/><line class="ab" x2="3.134" transform="translate(56.452 63.135)"/><line class="ab" x2="7.836" transform="translate(33.092 63.135)"/><line class="ab" x2="3.863" transform="translate(29.228 63.135)"/><line class="ab" x2="2.114" transform="translate(42.749 69.561)"/><line class="ab" x2="5.029" transform="translate(54.557 75.624)"/><line class="ab" x2="2.15" transform="translate(38.777 75.624)"/><line class="ab" x2="6.924" transform="translate(52.662 82.05)"/><line class="af" x2="6.086" transform="translate(45.3 87.713)"/><line class="af" x2="9.767" transform="translate(21.94 87.713)"/><line class="af" x2="3.863" transform="translate(44.134 63.135)"/><line class="af" x2="2.114" transform="translate(47.086 69.561)"/><line class="af" x2="11.808" transform="translate(31.342 75.624)"/><line class="af" x2="15.161" transform="translate(26.204 82.05)"/><line class="ag" x2="4.373" transform="translate(16.582 113.309)"/><line class="ah" x2="38.631" transform="translate(21.867)"/><line class="ai" x2="21.867"/><line class="aj" x2="38.704" transform="translate(21.794 5.555)"/><path class="n" d="M495.736,603.4Z" transform="translate(-445.042 -413.233)"/></g><g transform="translate(0 56.128)"><rect class="ak" width="64.507" height="4.102" transform="translate(2.369 12.307)"/><rect class="ak" width="64.507" height="4.102" transform="translate(2.369 4.102)"/><rect class="ak" width="64.507" height="4.102" transform="translate(2.515 20.476)"/><rect class="ak" width="64.507" height="4.102" transform="translate(2.515 28.681)"/><rect class="ak" width="64.507" height="4.102" transform="translate(2.369 45.127)"/><rect class="ak" width="64.507" height="4.102" transform="translate(2.369 36.922)"/><rect class="ak" width="64.507" height="4.102" transform="translate(2.187 53.332)"/><rect class="ak" width="64.507" height="4.102" transform="translate(2.187 61.537)"/><rect class="al" width="64.507" height="4.102" transform="translate(2.369 42.15)"/><rect class="al" width="64.507" height="4.102" transform="translate(2.369 33.945)"/><rect class="al" width="64.507" height="4.102" transform="translate(2.187 50.355)"/><rect class="al" width="64.507" height="4.102" transform="translate(2.187 58.56)"/><rect class="al" width="64.507" height="4.102" transform="translate(2.369 9.33)"/><rect class="al" width="64.507" height="4.102" transform="translate(2.369 1.125)"/><rect class="al" width="64.507" height="4.102" transform="translate(2.515 17.535)"/><rect class="al" width="64.507" height="4.102" transform="translate(2.515 25.74)"/><rect class="al" width="18.732" height="4.102" transform="translate(1.786 12.344)"/><rect class="al" width="18.732" height="4.102" transform="translate(1.786 4.175)"/><rect class="al" width="18.732" height="4.102" transform="translate(1.822 20.549)"/><rect class="al" width="18.732" height="4.102" transform="translate(1.822 28.754)"/><rect class="al" width="18.732" height="4.102" transform="translate(1.786 45.2)"/><rect class="al" width="18.732" height="4.102" transform="translate(1.786 36.995)"/><rect class="al" width="18.732" height="4.102" transform="translate(1.713 53.405)"/><rect class="al" width="18.732" height="4.102" transform="translate(1.713 61.574)"/><rect class="d" width="68.625" height="4.102" transform="translate(0.146 41.061)"/><rect class="d" width="68.625" height="4.102" transform="translate(0.146 49.266)"/><rect class="d" width="68.625" height="4.102" transform="translate(0.146 32.856)"/><rect class="d" width="68.625" height="4.102" transform="translate(0 57.471)"/><rect class="d" width="68.625" height="4.102" transform="translate(0 65.676)"/><rect class="d" width="68.625" height="4.102" transform="translate(0.146 8.241)"/><rect class="d" width="68.625" height="4.102" transform="translate(0.146 16.446)"/><rect class="d" width="68.625" height="4.102" transform="translate(0.146)"/><rect class="d" width="68.625" height="4.102" transform="translate(0.292 24.615)"/><rect class="am" width="21.612" height="4.102" transform="translate(0.109 41.061)"/><rect class="am" width="21.612" height="4.102" transform="translate(0.109 49.266)"/><rect class="am" width="21.612" height="4.102" transform="translate(0.109 32.856)"/><rect class="am" width="21.612" height="4.102" transform="translate(0.036 57.471)"/><rect class="am" width="21.612" height="4.102" transform="translate(0.036 65.676)"/><rect class="am" width="21.612" height="4.102" transform="translate(0.109 8.241)"/><rect class="am" width="21.612" height="4.102" transform="translate(0.109 16.446)"/><rect class="am" width="21.612" height="4.102" transform="translate(0.109)"/><rect class="am" width="21.612" height="4.102" transform="translate(0.146 24.615)"/><path class="an" d="M158.319,248.6H147.932l-2.332,3.013h10.35Z" transform="translate(-120.453 -243.372)"/><path class="an" d="M194.272,248.6h-5.54l-2.332,3.013h5.5Z" transform="translate(-146.384 -243.372)"/><path class="an" d="M182.07,271H165.232l-2.332,3.013h16.837Z" transform="translate(-131.448 -257.64)"/><path class="an" d="M238.172,271h-5.54l-2.332,3.013h5.54Z" transform="translate(-174.285 -257.64)"/><path class="an" d="M148.719,293.6h-10.35L136,296.577h10.387Z" transform="translate(-114.352 -272.035)"/><path class="an" d="M154.77,316H137.932l-2.332,3.013h16.837Z" transform="translate(-114.098 -286.302)"/><path class="an" d="M228.672,316h-5.54l-2.332,3.013h5.5Z" transform="translate(-168.247 -286.302)"/><path class="an" d="M163.919,338.6H153.532l-2.332,3.013h10.35Z" transform="translate(-124.012 -300.697)"/><path class="an" d="M187.67,361.1H170.832l-2.332,2.977h16.837Z" transform="translate(-135.008 -315.029)"/><path class="an" d="M243.772,361.1h-5.54l-2.332,2.977h5.54Z" transform="translate(-177.844 -315.029)"/><path class="an" d="M154.319,383.6h-10.35l-2.369,3.013h10.387Z" transform="translate(-117.911 -329.36)"/><path class="an" d="M221.372,383.6h-5.54l-2.332,3.013h5.54Z" transform="translate(-163.608 -329.36)"/><path class="an" d="M160.37,406H143.532l-2.332,3.013h16.837Z" transform="translate(-117.657 -343.628)"/><path class="an" d="M234.272,406h-5.54l-2.332,3.013h5.5Z" transform="translate(-171.806 -343.628)"/></g><g transform="translate(0 121.695)"><rect class="ak" width="64.507" height="4.102" transform="translate(2.369 12.307)"/><rect class="ak" width="64.507" height="4.102" transform="translate(2.369 4.102)"/><rect class="ak" width="64.507" height="4.102" transform="translate(2.515 20.512)"/><rect class="ak" width="64.507" height="4.102" transform="translate(2.515 28.717)"/><rect class="ak" width="64.507" height="4.102" transform="translate(2.369 45.127)"/><rect class="ak" width="64.507" height="4.102" transform="translate(2.369 36.959)"/><rect class="ak" width="64.507" height="4.102" transform="translate(2.187 53.332)"/><rect class="ak" width="64.507" height="4.102" transform="translate(2.187 61.537)"/><rect class="al" width="64.507" height="4.102" transform="translate(2.369 42.187)"/><rect class="al" width="64.507" height="4.102" transform="translate(2.369 33.982)"/><rect class="al" width="64.507" height="4.102" transform="translate(2.187 50.392)"/><rect class="al" width="64.507" height="4.102" transform="translate(2.187 58.56)"/><rect class="al" width="64.507" height="4.102" transform="translate(2.369 9.33)"/><rect class="al" width="64.507" height="4.102" transform="translate(2.369 1.162)"/><rect class="al" width="64.507" height="4.102" transform="translate(2.515 17.535)"/><rect class="al" width="64.507" height="4.102" transform="translate(2.515 25.74)"/><rect class="al" width="18.732" height="4.102" transform="translate(1.786 12.38)"/><rect class="al" width="18.732" height="4.102" transform="translate(1.786 4.175)"/><rect class="al" width="18.732" height="4.102" transform="translate(1.822 20.585)"/><rect class="al" width="18.732" height="4.102" transform="translate(1.822 28.754)"/><rect class="al" width="18.732" height="4.102" transform="translate(1.786 45.2)"/><rect class="al" width="18.732" height="4.102" transform="translate(1.786 36.995)"/><rect class="al" width="18.732" height="4.102" transform="translate(1.713 53.405)"/><rect class="al" width="18.732" height="4.102" transform="translate(1.713 61.61)"/><rect class="d" width="68.625" height="4.102" transform="translate(0.146 41.098)"/><rect class="d" width="68.625" height="4.102" transform="translate(0.146 49.266)"/><rect class="d" width="68.625" height="4.102" transform="translate(0.146 32.893)"/><rect class="d" width="68.625" height="4.102" transform="translate(0 57.471)"/><rect class="d" width="68.625" height="4.102" transform="translate(0 65.676)"/><rect class="d" width="68.625" height="4.102" transform="translate(0.146 8.241)"/><rect class="d" width="68.625" height="4.102" transform="translate(0.146 16.446)"/><rect class="d" width="68.625" height="4.102" transform="translate(0.146)"/><rect class="d" width="68.625" height="4.102" transform="translate(0.292 24.651)"/><rect class="am" width="21.612" height="4.102" transform="translate(0.109 41.098)"/><rect class="am" width="21.612" height="4.102" transform="translate(0.109 49.266)"/><rect class="am" width="21.612" height="4.102" transform="translate(0.109 32.893)"/><rect class="am" width="21.612" height="4.102" transform="translate(0.036 57.471)"/><rect class="am" width="21.612" height="4.102" transform="translate(0.036 65.676)"/><rect class="am" width="21.612" height="4.102" transform="translate(0.109 8.241)"/><rect class="am" width="21.612" height="4.102" transform="translate(0.109 16.446)"/><rect class="am" width="21.612" height="4.102" transform="translate(0.109)"/><rect class="am" width="21.612" height="4.102" transform="translate(0.146 24.651)"/><path class="an" d="M158.319,429.2H147.932l-2.332,3.013h10.35Z" transform="translate(-120.453 -423.972)"/><path class="an" d="M194.272,429.2h-5.54l-2.332,3.013h5.5Z" transform="translate(-146.384 -423.972)"/><path class="an" d="M182.07,451.7H165.232l-2.332,2.977h16.837Z" transform="translate(-131.448 -438.303)"/><path class="an" d="M238.172,451.7h-5.54l-2.332,2.977h5.54Z" transform="translate(-174.285 -438.303)"/><path class="an" d="M148.719,474.2h-10.35L136,477.213h10.387Z" transform="translate(-114.352 -452.635)"/><path class="an" d="M154.77,496.6H137.932l-2.332,3.013h16.837Z" transform="translate(-114.098 -466.902)"/><path class="an" d="M228.672,496.6h-5.54l-2.332,3.013h5.5Z" transform="translate(-168.247 -466.902)"/><path class="an" d="M163.919,519.3H153.532l-2.332,3.013h10.35Z" transform="translate(-124.012 -481.361)"/><path class="an" d="M187.67,541.7H170.832l-2.332,3.013h16.837Z" transform="translate(-135.008 -495.629)"/><path class="an" d="M243.772,541.7h-5.54l-2.332,3.013h5.54Z" transform="translate(-177.844 -495.629)"/><path class="an" d="M154.319,564.3h-10.35l-2.369,2.977h10.387Z" transform="translate(-117.911 -510.024)"/><path class="an" d="M221.372,564.3h-5.54l-2.332,2.977h5.54Z" transform="translate(-163.608 -510.024)"/><path class="an" d="M160.37,586.7H143.532l-2.332,3.013h16.837Z" transform="translate(-117.657 -524.291)"/><path class="an" d="M234.272,586.7h-5.54l-2.332,3.013h5.5Z" transform="translate(-171.806 -524.291)"/></g><g transform="translate(194.322 94.103)"><g class="ao" transform="translate(63.231 57.035)"><rect class="ap" width="15.452" height="1.67"/></g><g class="ao" transform="translate(64.871 59.722)"><rect class="ap" width="4.993" height="1.67"/></g><g class="ao" transform="translate(51.241 59.722)"><rect class="ap" width="8.71" height="1.67"/></g><g class="ao" transform="translate(53.282 11.618)"><rect class="ap" width="12.573" height="1.67"/></g><g class="ao" transform="translate(53.282 14.449)"><rect class="ap" width="8.127" height="1.67"/></g><g class="ao" transform="translate(70.411 14.449)"><rect class="ap" width="9.366" height="1.67"/></g><g class="ao" transform="translate(56.525 57.035)"><rect class="aq" width="12.719" height="1.67"/></g><path class="t" d="M677.514,354.231V351H609.8v3.231h1.13v6.716H609.8v2.069h1.13v7.043H609.8v2.033h1.13v7.08H609.8v2.033h1.13v6.753H609.8v2.069h1.13v7.043H609.8v2.069h1.13v7.043H609.8v2.033h1.13V415.3H609.8v2.033h1.13v6.934H609.8V426.3h1.13v9.04h65.454V426.3h1.13v-2.033h-1.13V417.33h1.13V415.3h-1.13v-7.079h1.13v-2.033h-1.13v-7.043h1.13v-2.069h-1.13v-7.043h1.13v-2.069h-1.13v-6.753h1.13v-2.033h-1.13v-7.08h1.13V370.06h-1.13v-7.043h1.13v-2.069h-1.13v-6.716Z" transform="translate(-609.8 -346.571)"/><g class="ao" transform="translate(58.165 59.722)"><rect class="aq" width="4.993" height="1.67"/></g><g class="ao" transform="translate(63.705 14.449)"><rect class="aq" width="6.633" height="1.67"/></g><g transform="translate(7.18)"><path class="am" d="M696.084,346.8H630.63v7.08H629.5v2.033h1.13v7.043H629.5v2.033h1.13v7.079H629.5V374.1h1.13v6.789H629.5v2.033h1.13V390H629.5v2.033h1.13v7.043H629.5v2.033h1.13v7.08H629.5v2.033h1.13v6.934H629.5v2.033h1.13v9.04h65.454v-9.04h1.13V417.16h-1.13v-6.934h1.13v-2.033h-1.13v-7.08h1.13V399.08h-1.13v-7.043h1.13V390h-1.13v-7.08h1.13v-2.033h-1.13V374.1h1.13v-2.033h-1.13v-7.079h1.13v-2.033h-1.13v-7.043h1.13V353.88h-1.13Z" transform="translate(-629.5 -343.896)"/><rect class="am" width="67.714" height="3.231"/></g><rect class="d" width="58.676" height="81.433" transform="translate(21.94 3.122)"/><rect class="ak" width="4.045" height="7.08" transform="translate(26.021 3.122)"/><rect class="ar" width="4.045" height="7.08" transform="translate(33.748 3.122)"/><rect class="ak" width="4.045" height="7.08" transform="translate(41.51 3.122)"/><rect class="ak" width="4.045" height="7.08" transform="translate(49.236 3.122)"/><rect class="ak" width="4.045" height="7.08" transform="translate(56.999 3.122)"/><rect class="as" width="4.045" height="7.08" transform="translate(64.725 3.122)"/><rect class="ak" width="4.045" height="7.08" transform="translate(72.488 3.122)"/><rect class="ak" width="4.045" height="7.08" transform="translate(72.488 12.235)"/><rect class="ar" width="4.045" height="7.08" transform="translate(64.725 12.235)"/><rect class="ak" width="4.045" height="7.08" transform="translate(56.999 12.235)"/><rect class="at" width="4.045" height="7.08" transform="translate(49.236 12.235)"/><rect class="ak" width="4.045" height="7.08" transform="translate(41.51 12.235)"/><rect class="as" width="4.045" height="7.08" transform="translate(33.748 12.235)"/><rect class="ak" width="4.045" height="7.08" transform="translate(26.021 12.235)"/><rect class="ak" width="4.045" height="7.08" transform="translate(26.021 21.311)"/><rect class="ak" width="4.045" height="7.08" transform="translate(33.748 21.311)"/><rect class="ar" width="4.045" height="7.08" transform="translate(41.51 21.311)"/><rect class="ak" width="4.045" height="7.08" transform="translate(49.236 21.311)"/><rect class="ak" width="4.045" height="7.08" transform="translate(56.999 21.311)"/><rect class="ak" width="4.045" height="7.08" transform="translate(64.725 21.311)"/><rect class="ak" width="4.045" height="7.08" transform="translate(72.488 21.311)"/><rect class="ak" width="4.045" height="7.08" transform="translate(72.488 30.424)"/><rect class="ar" width="4.045" height="7.08" transform="translate(64.725 30.424)"/><rect class="ar" width="4.045" height="7.08" transform="translate(56.999 30.424)"/><rect class="ak" width="4.045" height="7.08" transform="translate(49.236 30.424)"/><rect class="ak" width="4.045" height="7.08" transform="translate(41.51 30.424)"/><rect class="ak" width="4.045" height="7.08" transform="translate(33.748 30.424)"/><rect class="as" width="4.045" height="7.08" transform="translate(26.021 30.424)"/><rect class="ak" width="4.045" height="7.08" transform="translate(26.021 39.246)"/><rect class="ar" width="4.045" height="7.08" transform="translate(33.748 39.246)"/><rect class="ak" width="4.045" height="7.08" transform="translate(41.51 39.246)"/><rect class="ak" width="4.045" height="7.08" transform="translate(49.236 39.246)"/><rect class="ak" width="4.045" height="7.08" transform="translate(56.999 39.246)"/><rect class="as" width="4.045" height="7.08" transform="translate(64.725 39.246)"/><rect class="ak" width="4.045" height="7.08" transform="translate(72.488 39.246)"/><rect class="ak" width="4.045" height="7.08" transform="translate(72.488 48.359)"/><rect class="ar" width="4.045" height="7.08" transform="translate(64.725 48.359)"/><rect class="ak" width="4.045" height="7.08" transform="translate(56.999 48.359)"/><rect class="at" width="4.045" height="7.08" transform="translate(49.236 48.359)"/><rect class="ak" width="4.045" height="7.08" transform="translate(41.51 48.359)"/><rect class="as" width="4.045" height="7.08" transform="translate(33.748 48.359)"/><rect class="ak" width="4.045" height="7.08" transform="translate(26.021 48.359)"/><rect class="ak" width="4.045" height="7.08" transform="translate(26.021 57.435)"/><rect class="ak" width="4.045" height="7.08" transform="translate(33.748 57.435)"/><rect class="ar" width="4.045" height="7.08" transform="translate(41.51 57.435)"/><rect class="ak" width="4.045" height="7.08" transform="translate(49.236 57.435)"/><rect class="ak" width="4.045" height="7.08" transform="translate(56.999 57.435)"/><rect class="ak" width="4.045" height="7.08" transform="translate(64.725 57.435)"/><rect class="ak" width="4.045" height="7.08" transform="translate(72.488 57.435)"/><rect class="d" width="60.935" height="2.033" transform="translate(20.81 10.202)"/><rect class="d" width="60.935" height="2.033" transform="translate(20.81 28.391)"/><rect class="d" width="60.935" height="3.231" transform="translate(20.81)"/><rect class="d" width="60.935" height="2.033" transform="translate(20.81 19.278)"/><rect class="d" width="60.935" height="2.033" transform="translate(20.81 46.325)"/><rect class="d" width="60.935" height="2.033" transform="translate(20.81 37.213)"/><rect class="d" width="60.935" height="2.033" transform="translate(20.81 55.402)"/><rect class="au" width="58.676" height="2.033" transform="translate(21.94 3.122)"/><rect class="au" width="58.676" height="2.033" transform="translate(21.94 12.307)"/><rect class="au" width="58.676" height="2.033" transform="translate(21.94 21.311)"/><rect class="au" width="58.676" height="2.033" transform="translate(21.94 30.496)"/><rect class="au" width="58.676" height="2.033" transform="translate(21.94 39.246)"/><rect class="au" width="58.676" height="2.033" transform="translate(21.94 48.431)"/><rect class="au" width="58.676" height="2.033" transform="translate(21.94 57.435)"/><path class="av" d="M789.4,467.3" transform="translate(-723.946 -420.648)"/></g><g transform="translate(118.7 110.513)"><g class="ao" transform="translate(47.159 57.035)"><rect class="ap" width="15.452" height="1.67"/></g><g class="ao" transform="translate(48.799 59.686)"><rect class="ap" width="4.993" height="1.67"/></g><g class="ao" transform="translate(35.169 59.686)"><rect class="ap" width="8.71" height="1.67"/></g><g class="ao" transform="translate(37.21 11.618)"><rect class="ap" width="12.573" height="1.67"/></g><g class="ao" transform="translate(37.21 14.413)"><rect class="ap" width="8.127" height="1.67"/></g><g class="ao" transform="translate(54.339 14.413)"><rect class="ap" width="9.366" height="1.67"/></g><g class="ao" transform="translate(40.417 57.035)"><rect class="aq" width="12.719" height="1.67"/></g><path class="t" d="M453.942,399.395V396.2H402.3v3.195h1.13v6.753H402.3v2.033h1.13v7.043H402.3v2.033h1.13v7.08H402.3v2.033h1.13v6.789H402.3v2.033h1.13v7.079H402.3V444.3h1.13v7.043H402.3v2.033h1.13v7.08H402.3v2.033h1.13v6.934H402.3v2.033h1.13v9.04h49.382v-9.04h1.13v-2.033h-1.13v-6.934h1.13V460.46h-1.13v-7.08h1.13v-2.033h-1.13V444.3h1.13v-2.033h-1.13v-7.079h1.13v-2.033h-1.13V426.37h1.13v-2.033h-1.13v-7.08h1.13v-2.033h-1.13v-7.043h1.13v-2.033h-1.13v-6.753Z" transform="translate(-402.3 -391.771)"/><g class="ao" transform="translate(42.093 59.686)"><rect class="aq" width="4.993" height="1.67"/></g><g class="ao" transform="translate(47.633 14.413)"><rect class="aq" width="6.633" height="1.67"/></g><g transform="translate(7.18)"><path class="am" d="M472.512,391.9H423.13v7.08H422v2.069h1.13v7.007H422v2.069h1.13V417.2H422v2.033h1.13v6.753H422v2.033h1.13V435.1H422v2.069h1.13v7.043H422v2.033h1.13v7.08H422v2.033h1.13v6.9H422v2.069h1.13v9.04h49.382v-9.04h1.13V462.26h-1.13v-6.9h1.13v-2.033h-1.13v-7.08h1.13v-2.033h-1.13v-7.043h1.13V435.1h-1.13v-7.079h1.13v-2.033h-1.13v-6.753h1.13V417.2h-1.13v-7.079h1.13v-2.069h-1.13v-7.007h1.13V398.98h-1.13Z" transform="translate(-422 -389.032)"/><rect class="am" width="51.642" height="3.231"/></g><rect class="d" width="42.604" height="81.433" transform="translate(21.903 3.122)"/><rect class="ak" width="4.045" height="7.08" transform="translate(25.438 3.122)"/><rect class="ak" width="4.045" height="7.08" transform="translate(33.164 3.122)"/><rect class="ak" width="4.045" height="7.08" transform="translate(40.927 3.122)"/><rect class="as" width="4.045" height="7.08" transform="translate(48.653 3.122)"/><rect class="ak" width="4.045" height="7.08" transform="translate(56.38 3.122)"/><rect class="ak" width="4.045" height="7.08" transform="translate(56.38 12.235)"/><rect class="ar" width="4.045" height="7.08" transform="translate(48.653 12.235)"/><rect class="ak" width="4.045" height="7.08" transform="translate(40.927 12.235)"/><rect class="at" width="4.045" height="7.08" transform="translate(33.164 12.235)"/><rect class="ak" width="4.045" height="7.08" transform="translate(25.438 12.235)"/><rect class="ar" width="4.045" height="7.08" transform="translate(25.438 21.311)"/><rect class="ak" width="4.045" height="7.08" transform="translate(33.164 21.311)"/><rect class="ak" width="4.045" height="7.08" transform="translate(40.927 21.311)"/><rect class="ak" width="4.045" height="7.08" transform="translate(48.653 21.311)"/><rect class="ak" width="4.045" height="7.08" transform="translate(56.38 21.311)"/><rect class="ak" width="4.045" height="7.08" transform="translate(56.38 30.424)"/><rect class="ar" width="4.045" height="7.08" transform="translate(48.653 30.424)"/><rect class="ar" width="4.045" height="7.08" transform="translate(40.927 30.424)"/><rect class="ak" width="4.045" height="7.08" transform="translate(33.164 30.424)"/><rect class="ak" width="4.045" height="7.08" transform="translate(25.438 30.424)"/><rect class="ak" width="4.045" height="7.08" transform="translate(25.438 39.21)"/><rect class="ak" width="4.045" height="7.08" transform="translate(33.164 39.21)"/><rect class="ak" width="4.045" height="7.08" transform="translate(40.927 39.21)"/><rect class="as" width="4.045" height="7.08" transform="translate(48.653 39.21)"/><rect class="ak" width="4.045" height="7.08" transform="translate(56.38 39.21)"/><rect class="ak" width="4.045" height="7.08" transform="translate(56.38 48.322)"/><rect class="ar" width="4.045" height="7.08" transform="translate(48.653 48.322)"/><rect class="ak" width="4.045" height="7.08" transform="translate(40.927 48.322)"/><rect class="at" width="4.045" height="7.08" transform="translate(33.164 48.322)"/><rect class="ak" width="4.045" height="7.08" transform="translate(25.438 48.322)"/><rect class="ar" width="4.045" height="7.08" transform="translate(25.438 57.435)"/><rect class="ak" width="4.045" height="7.08" transform="translate(33.164 57.435)"/><rect class="ak" width="4.045" height="7.08" transform="translate(40.927 57.435)"/><rect class="ak" width="4.045" height="7.08" transform="translate(48.653 57.435)"/><rect class="ak" width="4.045" height="7.08" transform="translate(56.38 57.435)"/><rect class="d" width="44.863" height="2.033" transform="translate(20.773 10.202)"/><rect class="d" width="44.863" height="2.033" transform="translate(20.773 28.391)"/><rect class="d" width="44.863" height="2.033" transform="translate(20.773 19.278)"/><rect class="d" width="44.863" height="2.033" transform="translate(20.773 46.325)"/><rect class="d" width="44.863" height="2.033" transform="translate(20.773 37.213)"/><rect class="d" width="44.863" height="2.033" transform="translate(20.773 55.402)"/><rect class="au" width="42.604" height="2.033" transform="translate(21.903 3.122)"/><path class="au" d="M482.554,419.933H462.4V417.9h42.64v2.033H482.554" transform="translate(-440.497 -405.593)"/><rect class="au" width="42.604" height="2.033" transform="translate(21.903 21.311)"/><rect class="au" width="42.604" height="2.033" transform="translate(21.903 30.496)"/><rect class="au" width="42.604" height="2.033" transform="translate(21.903 39.246)"/><rect class="au" width="42.604" height="2.033" transform="translate(21.903 48.431)"/><rect class="au" width="42.604" height="2.033" transform="translate(21.903 57.435)"/><path class="av" d="M537.7,512.5" transform="translate(-488.354 -465.848)"/><rect class="d" width="44.863" height="3.231" transform="translate(20.773)"/></g></g><g transform="translate(227.45 186.936)"><rect class="ap" width="11.662" height="1.924"/></g><g transform="translate(219.687 186.936)"><rect class="aq" width="8.528" height="1.924"/></g><rect class="d" width="70.447" height="2.36" transform="translate(167.499 186.899)"/><g transform="translate(0 184.213)"><rect class="aw" width="328" height="36.015"/></g><rect class="ax" width="328" height="6.317" transform="translate(0 179.82)"/><g transform="translate(9.986 167.621)"><path class="ax" d="M55.572,471.793a9.719,9.719,0,0,1-.328,2.541H27.4V473.9a7.265,7.265,0,0,1,.547-2.832,7.978,7.978,0,0,1,7.435-5.083,8.838,8.838,0,0,1,1.713.182,10.188,10.188,0,0,1,7.216-4.393c.4-.036.8-.073,1.166-.073A10.106,10.106,0,0,1,55.572,471.793Z" transform="translate(-27.4 -461.7)"/></g><g transform="translate(80.141 167.621)"><path class="ax" d="M248.072,471.793a9.719,9.719,0,0,1-.328,2.541H219.9V473.9a7.265,7.265,0,0,1,.547-2.832,7.978,7.978,0,0,1,7.435-5.083,8.838,8.838,0,0,1,1.713.182,10.188,10.188,0,0,1,7.216-4.393c.4-.036.8-.073,1.166-.073A10.106,10.106,0,0,1,248.072,471.793Z" transform="translate(-219.9 -461.7)"/></g><g transform="translate(34.804 172.232)"><path class="ax" d="M95.5,480.79a6.3,6.3,0,0,0,.219,1.634h17.639v-.254a5.015,5.015,0,0,0-5.029-5.046,5.584,5.584,0,0,0-1.093.109,6.47,6.47,0,0,0-4.556-2.8,5.406,5.406,0,0,0-.765-.036A6.435,6.435,0,0,0,95.5,480.79Z" transform="translate(-95.5 -474.4)"/></g><rect class="ay" width="328" height="4.647" transform="translate(0 215.58)"/><ellipse class="ay" cx="17.676" cy="2.65" rx="17.676" ry="2.65" transform="translate(99.493 197.028)"/><path class="az" d="M300.792,287.7a41.718,41.718,0,0,0-9.512-25.232C288.474,246.672,276.046,234.8,261.1,234.8c-16.983,0-30.759,15.393-30.759,34.381a37.327,37.327,0,0,0,.875,8.132,32.256,32.256,0,0,0-8.82,22.509c0,16.918,12.282,30.678,27.443,30.678a24.6,24.6,0,0,0,9.913-2.069,33.2,33.2,0,0,0,5.722.508,31.672,31.672,0,0,0,13.448-2.977c.364.036.729.036,1.093.036,12.938,0,23.4-11.727,23.4-26.176A28.284,28.284,0,0,0,300.792,287.7Z" transform="translate(-141.348 -149.555)"/><line class="ba" y2="55.148" transform="translate(121.579 142.099)"/><line class="bb" y1="16.737" x2="9.804" transform="translate(121.506 159.707)"/><path class="bc" d="M308.883,292.983a18.074,18.074,0,0,0,1.2-6.5,16.857,16.857,0,0,0-6.706-13.76c-.838-13.36-10.788-23.925-22.96-23.925-11.844,0-21.612,10.02-22.887,22.909A26.546,26.546,0,0,0,247,293.31c0,14.2,10.314,25.74,23.033,25.74a21.913,21.913,0,0,0,16.655-7.987c1.567,7.3,7.435,12.707,14.432,12.707,8.2,0,14.869-7.443,14.869-16.592A16.981,16.981,0,0,0,308.883,292.983Z" transform="translate(-156.982 -158.473)"/><path class="bd" d="M345.962,262.689a19.087,19.087,0,0,0-14.468-12.961c-2.478-.472-3.535,3.3-1.057,3.776a15.152,15.152,0,0,1,11.735,10.238C342.974,266.138,346.728,265.122,345.962,262.689Z" transform="translate(-209.113 -159.038)"/><path class="bd" d="M377.208,306.619c-.146-.654-.255-1.307-.4-1.961a1.993,1.993,0,0,0-2.405-1.38,2.015,2.015,0,0,0-1.385,2.4c.146.654.255,1.307.4,1.961a1.962,1.962,0,0,0,3.79-1.017Z" transform="translate(-237.043 -193.128)"/><path class="ay" d="M153.112,572.869c0,1.38-8.6,2.469-19.206,2.469s-19.206-1.125-19.206-2.469c0-1.379,8.6-2.469,19.206-2.469S153.112,571.526,153.112,572.869Z" transform="translate(-72.898 -363.315)"/><path class="be" d="M145.453,349.054c0-19.5-14.14-34.054-31.6-34.054-9.913,0-18.732,3.848-24.527,11.8C75.188,327.888,64,341.031,64,357.114c0,15.5,10.423,28.318,23.871,30.133a26.44,26.44,0,0,0,13.812,3.921,27.083,27.083,0,0,0,18.514-7.515C134.593,380.386,145.453,366.154,145.453,349.054Z" transform="translate(-40.676 -200.639)"/><line class="ba" y2="55.148" transform="translate(68.588 152.119)"/><line class="bb" x1="11.699" y1="20.295" transform="translate(55.906 167.875)"/><path class="bc" d="M155.9,360.041c4.118-15.793-3.025-30.024-17.129-33.691-10.241-2.65-21.757.29-28.39,8.931-9.366,1.416-17.748,8.967-20.518,19.641-3.608,13.832,2.843,24.688,15.2,27.882,6.341,1.634,16.473-.254,19.607-3.63C136.147,384.619,151.891,375.434,155.9,360.041Z" transform="translate(-56.48 -207.268)"/><path class="bd" d="M214.853,337.577a14.828,14.828,0,0,0-10.132-7.66c-2.478-.508-3.5,3.231-1.057,3.776a11.067,11.067,0,0,1,7.763,5.881C212.63,341.789,216.019,339.792,214.853,337.577Z" transform="translate(-128.553 -210.11)"/><path class="bd" d="M244.392,372.5a1.955,1.955,0,0,0-2.77,2.759l.109.218h0v.036a.459.459,0,0,1,.036.218h0c0,.073,0,.182-.036.218a.393.393,0,0,1,.036-.182h0a1.958,1.958,0,0,0,3.79.98A4.786,4.786,0,0,0,244.392,372.5Z" transform="translate(-153.208 -236.897)"/><g transform="translate(217.5 210.026)"><line class="bf" x1="2.952"/></g><path class="bc" d="M233.755,464.385a6.2,6.2,0,0,0-4.155.726,6.964,6.964,0,0,0,3.535,2.541,6.2,6.2,0,0,0,4.155-.726A6.965,6.965,0,0,0,233.755,464.385Z" transform="translate(-145.924 -295.711)"/><path class="bc" d="M224.9,466.232a7.08,7.08,0,0,0-3.353-2.832,8.593,8.593,0,0,0,.875,4.611,7.08,7.08,0,0,0,3.353,2.832A8.558,8.558,0,0,0,224.9,466.232Z" transform="translate(-140.783 -295.162)"/><path class="bc" d="M419.455,375.208a6.339,6.339,0,0,1-4.155-.835,6.792,6.792,0,0,1,3.608-2.432,6.339,6.339,0,0,1,4.155.835A7.209,7.209,0,0,1,419.455,375.208Z" transform="translate(-263.946 -236.849)"/><path class="bc" d="M418.486,362.774a6.7,6.7,0,0,1-3.426,2.723,8.467,8.467,0,0,1,.948-4.574,6.7,6.7,0,0,1,3.426-2.723A8.1,8.1,0,0,1,418.486,362.774Z" transform="translate(-263.78 -228.155)"/><g transform="translate(191.333 157.928)"><path class="bg" d="M598.4,548.9l9.512,16.991L618.044,548.9" transform="translate(-571.65 -507.548)"/><ellipse class="bh" cx="19.68" cy="19.605" rx="19.68" ry="19.605" transform="translate(26.714 8.858)"/><path class="bc" d="M601,473.709c0,9.512,7.726,14.558,17.275,14.558s17.275-5.046,17.275-14.558a17.275,17.275,0,0,0-34.549,0Z" transform="translate(-573.302 -448.694)"/><ellipse class="bi" cx="24.126" cy="24.034" rx="24.126" ry="24.034" transform="translate(3.426)"/><path class="bc" d="M556.7,456.52c0,11.835,9.621,18.116,21.5,18.116s21.5-6.281,21.5-18.116a21.5,21.5,0,0,0-43,0Z" transform="translate(-545.147 -435.064)"/><path class="bc" d="M678.15,500.692a13.051,13.051,0,0,0-1.749,7.878,11.491,11.491,0,0,0,8.273-12.671A13.166,13.166,0,0,0,678.15,500.692Z" transform="translate(-621.188 -473.79)"/><path class="bc" d="M679.052,521.683a13.145,13.145,0,0,0-6.851,4.284,13.442,13.442,0,0,0,7.981,1.307,13.145,13.145,0,0,0,6.852-4.284A13.356,13.356,0,0,0,679.052,521.683Z" transform="translate(-618.554 -490.097)"/><path class="bj" d="M533.6,520.5a14.4,14.4,0,0,1,5.321,6.934A12.491,12.491,0,0,1,525,518.757,14.437,14.437,0,0,1,533.6,520.5Z" transform="translate(-525 -488.297)"/><path class="bj" d="M593.752,556.889a14.4,14.4,0,0,1,8.71,1.089,12.463,12.463,0,0,1-15.963,3.812A14.269,14.269,0,0,1,593.752,556.889Z" transform="translate(-564.087 -512.452)"/><path class="bd" d="M615.368,448.706a24.468,24.468,0,0,0-8.164-5.482c-2.843-1.162-6.524-2.215-9.548-1.125-2.369.835-1.348,4.611,1.057,3.776,2.332-.835,5.321.218,7.508,1.162a20.183,20.183,0,0,1,6.414,4.466C614.347,453.244,617.117,450.485,615.368,448.706Z" transform="translate(-570.323 -439.23)"/><path class="bd" d="M660.009,471.174a4.072,4.072,0,0,0-3.863-.944,1.984,1.984,0,0,0-1.385,2.4,2.024,2.024,0,0,0,2.405,1.38c.036,0,.073,0,.073-.036h0c.036,0,.036.036.073.036l-.036-.036a1.968,1.968,0,0,0,2.66-.073A1.843,1.843,0,0,0,660.009,471.174Z" transform="translate(-607.42 -457.341)"/></g><line class="bk" x1="4.373" y1="4.901" transform="translate(115.565 164.572)"/><path class="bc" d="M89.436,406.434a8.113,8.113,0,0,1,2,4.139,6.357,6.357,0,0,1-3.936-1.634,8.113,8.113,0,0,1-2-4.139A6.426,6.426,0,0,1,89.436,406.434Z" transform="translate(-54.34 -257.836)"/><path class="bc" d="M86.69,418.062a6.368,6.368,0,0,1,4.045,1.271,6.59,6.59,0,0,1-3.79,2,6.368,6.368,0,0,1-4.045-1.271A6.66,6.66,0,0,1,86.69,418.062Z" transform="translate(-52.688 -266.27)"/><path class="bc" d="M265.336,295.634a8.113,8.113,0,0,1,2,4.139,6.357,6.357,0,0,1-3.936-1.634,8.113,8.113,0,0,1-2-4.139A6.357,6.357,0,0,1,265.336,295.634Z" transform="translate(-166.134 -187.263)"/><path class="bc" d="M262.59,307.362a6.369,6.369,0,0,1,4.045,1.271,6.589,6.589,0,0,1-3.79,2,6.368,6.368,0,0,1-4.045-1.271A6.59,6.59,0,0,1,262.59,307.362Z" transform="translate(-164.482 -195.76)"/><g transform="translate(0 220.227)"><rect class="bl" width="328" height="118.528"/><g transform="translate(145.541 46.774)"><path class="bm" d="M647.094,649.1h-5.94a1.852,1.852,0,0,1,0-3.7h5.94a1.852,1.852,0,0,1,0,3.7Z" transform="translate(-639.35 -645.4)"/></g><g transform="translate(234.83 74.003)"><path class="bm" d="M647.094,649.1h-5.94a1.852,1.852,0,0,1,0-3.7h5.94a1.852,1.852,0,0,1,0,3.7Z" transform="translate(-639.35 -645.4)"/></g><g transform="translate(163.69 46.774)"><path class="bm" d="M718.105,649.1H690.954a1.852,1.852,0,0,1,0-3.7h27.151c2.369,0,2.369,3.7,0,3.7Z" transform="translate(-689.15 -645.4)"/></g><g transform="translate(252.979 74.003)"><path class="bm" d="M718.105,649.1H690.954a1.852,1.852,0,0,1,0-3.7h27.151c2.369,0,2.369,3.7,0,3.7Z" transform="translate(-689.15 -645.4)"/></g><g transform="translate(57.564 82.18)"><path class="bm" d="M165.694,653.6h-5.94a1.852,1.852,0,0,1,0-3.7h5.94a1.852,1.852,0,0,1,0,3.7Z" transform="translate(-157.95 -649.9)"/></g><g transform="translate(75.677 82.18)"><path class="bm" d="M236.605,653.6H209.454a1.852,1.852,0,0,1,0-3.7h27.151a1.852,1.852,0,0,1,0,3.7Z" transform="translate(-207.65 -649.9)"/></g><g transform="translate(176.227 13.37)"><path class="bm" d="M731.294,631.5h-5.94a1.852,1.852,0,0,1,0-3.7h5.94c2.369,0,2.369,3.7,0,3.7Z" transform="translate(-723.55 -627.8)"/></g><g transform="translate(265.516 40.599)"><path class="bm" d="M731.294,631.5h-5.94a1.852,1.852,0,0,1,0-3.7h5.94c2.369,0,2.369,3.7,0,3.7Z" transform="translate(-723.55 -627.8)"/></g></g><g transform="translate(56.206 224.874)"><g class="bn"><path class="bo" d="M156,623.1H191.28c2.369,0,2.405-3.7,0-3.7H156c-2.369.036-2.369,3.7,0,3.7Z" transform="translate(-154.225 -619.4)"/></g></g><g transform="translate(257.772 191.437)"><path class="bj" d="M762.295,546.941a18.816,18.816,0,0,1-.656,4.974h-54.3c0-.254-.036-.544-.036-.835a15.43,15.43,0,0,1,15.525-15.466,14.6,14.6,0,0,1,3.353.363,19.576,19.576,0,0,1,14.068-8.532c.765-.073,1.531-.145,2.3-.145A19.677,19.677,0,0,1,762.295,546.941Z" transform="translate(-707.3 -527.3)"/><path class="bc" d="M771.683,537.675a18.792,18.792,0,0,1-17.165,10.71,19.405,19.405,0,0,1-9.366-2.4,19.547,19.547,0,0,1-18.951-.109,15.523,15.523,0,0,1,14.5-9.911,14.6,14.6,0,0,1,3.353.363,19.577,19.577,0,0,1,14.068-8.532A17.048,17.048,0,0,1,771.683,537.675Z" transform="translate(-719.312 -527.618)"/></g><g transform="translate(287.437 167.621)"><path class="ax" d="M788.7,471.793a9.72,9.72,0,0,0,.328,2.541h27.844V473.9a7.266,7.266,0,0,0-.547-2.832,7.978,7.978,0,0,0-7.435-5.083,8.838,8.838,0,0,0-1.713.182,10.188,10.188,0,0,0-7.216-4.393c-.4-.036-.8-.073-1.166-.073A10.106,10.106,0,0,0,788.7,471.793Z" transform="translate(-788.7 -461.7)"/></g><g transform="translate(272.932 172.232)"><path class="ax" d="M766.758,480.79a6.3,6.3,0,0,1-.219,1.634H748.9v-.254a5.015,5.015,0,0,1,5.029-5.046,5.583,5.583,0,0,1,1.093.109,6.47,6.47,0,0,1,4.556-2.8,5.405,5.405,0,0,1,.765-.036A6.411,6.411,0,0,1,766.758,480.79Z" transform="translate(-748.9 -474.4)"/></g><g transform="translate(88.56 139.049)"><path class="bd" d="M243,383Z" transform="translate(-243 -383)"/></g><path class="bd" d="M819.01,537.146a11.484,11.484,0,0,0-3.134-2.469,1.963,1.963,0,1,0-2,3.376c.255.145.474.254.729.4a2.018,2.018,0,0,1,.292.218c.036.036.146.109.182.145a10.6,10.6,0,0,1,1.13,1.089,2,2,0,0,0,2.77,0A1.945,1.945,0,0,0,819.01,537.146Z" transform="translate(-516.667 -340.408)"/><path class="bd" d="M800.053,529.081a2.169,2.169,0,0,0-1.385-.581,1.987,1.987,0,0,0-1.968,1.96v.182a1.98,1.98,0,0,0,.583,1.38,2.169,2.169,0,0,0,1.385.581,1.988,1.988,0,0,0,1.968-1.96v-.182A1.917,1.917,0,0,0,800.053,529.081Z" transform="translate(-506.347 -336.627)"/></g><g transform="translate(62.043 159.957)"><g transform="translate(0.768 64.902)"><g transform="translate(70.574 15.745)"><ellipse class="bp" cx="14.159" cy="19.353" rx="14.159" ry="19.353"/><path class="bq" d="M91.488,96.326c0,8.638-3.293,15.526-7.244,15.526-4.061,0-7.244-7-7.244-15.526C77,87.688,80.293,80.8,84.244,80.8,88.2,80.691,91.488,87.688,91.488,96.326Z" transform="translate(-63.61 -76.973)"/></g><g transform="translate(178.136)"><path class="bp" d="M184.971,91.765c0,15.963-4.939,28.865-11.085,28.865S162.8,107.729,162.8,91.765,167.739,62.9,173.885,62.9C180.032,62.791,184.971,75.693,184.971,91.765Z" transform="translate(-162.8 -62.899)"/><path class="bq" d="M181.881,91.453c0,10.715-1.976,19.353-4.39,19.353s-4.39-8.638-4.39-19.353S175.076,72.1,177.49,72.1,181.881,80.738,181.881,91.453Z" transform="translate(-161.795 -62.04)"/><path class="bp" d="M181.327,91.511c0,7.216-1.317,13.011-2.963,13.011S175.4,98.727,175.4,91.511,176.717,78.5,178.363,78.5,181.327,84.295,181.327,91.511Z" transform="translate(-161.571 -61.443)"/><path class="bp" d="M180.093,91.807c0,3.936-.768,7.107-1.646,7.107s-1.646-3.171-1.646-7.107.768-7.107,1.646-7.107C179.434,84.7,180.093,87.871,180.093,91.807Z" transform="translate(-161.434 -60.864)"/><path class="bp" d="M181.346,89.228c0,4.7-1.427,8.528-3.073,8.528S175.2,93.93,175.2,89.228s1.427-8.528,3.073-8.528S181.346,84.527,181.346,89.228Z" transform="translate(-161.59 -61.237)"/></g><g transform="translate(0 7.326)"><ellipse class="bp" cx="20.195" cy="27.553" rx="20.195" ry="27.553"/><path class="bq" d="M36.447,97.789c0,12.9-5.378,23.289-12.073,23.289S12.3,110.581,12.3,97.789c0-12.9,5.378-23.289,12.073-23.289S36.447,84.887,36.447,97.789Z" transform="translate(0.651 -69.142)"/><path class="bp" d="M32.949,98.454c0,8.747-3.183,15.854-7.024,15.854S18.9,107.2,18.9,98.454,22.083,82.6,25.924,82.6,32.949,89.707,32.949,98.454Z" transform="translate(1.295 -68.386)"/></g><g transform="translate(132.696 6.889)"><ellipse class="bp" cx="18.329" cy="27.553" rx="18.329" ry="27.553"/><path class="bq" d="M153.881,95.971c0,10.824-3.951,19.571-8.89,19.571s-8.89-8.747-8.89-19.571S140.051,76.4,144.99,76.4,153.881,85.147,153.881,95.971Z" transform="translate(-119.966 -68.528)"/><path class="bp" d="M152.568,95.635c0,8.638-3.183,15.635-7.134,15.635s-7.134-7-7.134-15.635S141.483,80,145.434,80,152.568,87,152.568,95.635Z" transform="translate(-119.751 -68.192)"/><path class="bq" d="M149.942,97.081l3.4.984-.11-5.248-2.744-.437,2.3-3.061-.988-4.811-2.415,3.5a9.489,9.489,0,0,0-1.976-3.5l-.439-7.107-4.281.109,1.317,7.216a8.307,8.307,0,0,0-1.976,3.936L138.2,84.616l-.988,5.467,4.281,3.608v.984l-4.39-.328V98.83l4.939-.328a.4.4,0,0,0,.11.328l-4.72,4.045,1.646,4.264,4.39-5.139a4.758,4.758,0,0,0,.659.765l-1.317,9.4,5.159.219-.11-9.512a9.568,9.568,0,0,0,.878-1.093l3.4,4.045,1.207-5.358-3.293-2.405C149.832,97.737,149.942,97.409,149.942,97.081Z" transform="translate(-119.868 -68.434)"/><path class="bq" d="M180.176,95.8l1.427.984.11-6.123L180.4,91.75,181.6,86.5l-.549-5.795-1.207,4.264c-.22-1.859-.878-11.371-.878-11.371l-2.2.109s-.329,9.95-.549,12.027l-1.866-4.92-.549,6.56s2.744,5.576,2.744,6.014l-2.854-.875v5.467l2.415-.437c.549-.656-1.976,5.248-1.976,5.248l1.317,4.592,2.3-8.2c.11.328-.878,9.731-.878,9.731l2.2-.547.219-8.856c.11-.328.878,5.467.878,5.467l.988-5.576S180.176,96.124,180.176,95.8Z" transform="translate(-116.297 -68.789)"/></g></g><path class="br" d="M200.765,100.36s1.537-28.537-2.524-25.585c0,0-4.939,4.592-4.72,17.6,0,0,.329,15.526-6.256,16.838l-18.22,1.859a39.235,39.235,0,0,0-2.854-24.71s-.439-22.742-7.134-13.558a12.317,12.317,0,0,0-1.207,2.624,75.6,75.6,0,0,0-5.378,30.4v.109c-.11.328-.329,1.093-.659,2.077h0a14.063,14.063,0,0,1-2.854,4.92s-9.549.328-23.927.656c-32.927.875-90.879,1.859-115.684-.875-2.415-.219-4.39-.547-6.146-.875a26.736,26.736,0,0,1-2.963-6.779,13.284,13.284,0,0,1-.439-3.5s.11-25.038,6.476-35.207c0,0-.549-14.87,13.281-19.025,0,0,3.073-2.952,7.683-7.216,11.3-10.387,31.72-28.537,36.769-29.74,0,0,40.61-11.808,88.245-4.155,0,0,14.707-1.312,26.781,14.323a65.05,65.05,0,0,1,5.049,8.31,39.646,39.646,0,0,1,4.171,12.9l.11.109c.768.765,5.927,6.451,6.915,8.638,1.1,2.515,3.732,15.089,4.939,20.446C200.326,70.948,207.021,91.941,200.765,100.36Z" transform="translate(0.2 -3.53)"/><path class="bs" d="M185.871,41.764c-1.427.656-14.817,6.67-27.659,8.31h-.11c-.329.219-11.085,1.2-17.451-3.171a.2.2,0,0,1,0-.328c1.207-.765,6.8-4.374,6.256-7.544,0-.109-.11-.109-.219-.109L25.516,40.015c-.22,0-.22-.219-.11-.328C36.821,29.191,56.8,11.478,61.846,10.275c0,0,40.61-11.808,88.135-4.155,0,0,14.927-1.312,26.781,14.323,0,0,7.793,10.059,9.22,21.1A.381.381,0,0,1,185.871,41.764Z" transform="translate(2.691 -3.54)"/><g transform="translate(21.842 3.596)"><path class="bt" d="M25.3,37.5l-3.4,3.061L19.7,39.8l.549-2.952c4.39-7.216,10.866-4.811,10.866-4.811Z" transform="translate(-19.7 -4.512)"/><path d="M25.188,37.191,21.9,40.143s-2.2-.109-2.2-.765a5.976,5.976,0,0,1,.549-2.952C21.237,35.442,25.188,37.191,25.188,37.191Z" transform="translate(-19.7 -4.093)"/><path class="bu" d="M156.269,12.38S141.781,1.665,142,13.474c0,0,2.524,30.833,7.573,35.753,0,0,21.512-4.155,24.7-7.654C175.476,40.262,165.6,17.629,156.269,12.38Z" transform="translate(-7.767 -6.727)"/><path class="bq" d="M144.532,21.933s-1.646-9.731,2.085-10.715c0,0,2.963-.547,3.4.109a79.036,79.036,0,0,1,12.073,27.116s-7.9,4.92-11.3,2.3C147.276,38.115,144.532,21.933,144.532,21.933Z" transform="translate(-7.555 -6.439)"/><path class="bq" d="M153.373,13.2a34.883,34.883,0,0,1,15.7,22.086s-6.037,2.3-6.7,1.749-5.159-16.4-9.439-22.524C152.934,14.625,151.836,12.875,153.373,13.2Z" transform="translate(-6.737 -6.238)"/><path class="bu" d="M62.031,11.717c3.622-.765,55.757-10.606,85.83,0A2.379,2.379,0,0,1,149.4,13.9c.11,6.014.22,26.788-4.72,24.82,0,0-86.928-.437-110.964.437a2.335,2.335,0,0,1-1.756-3.936c6.915-6.888,20.634-19.9,29.634-23.289C61.811,11.827,61.921,11.717,62.031,11.717Z" transform="translate(-18.567 -6.829)"/><path class="bq" d="M40.483,35.276a2.028,2.028,0,0,1-1.427-3.5c7.354-7,16.793-14.87,22.939-17.166A282.4,282.4,0,0,1,111.166,9.8c13.281,0,24.366,1.312,32.927,3.936a1.875,1.875,0,0,1,1.427,1.859,91.624,91.624,0,0,1-1.207,17.822,2.009,2.009,0,0,1-1.976,1.531c-5.817,0-25.025-.109-45.988-.109C67.373,34.948,50.471,35.166,40.483,35.276Z" transform="translate(-17.873 -6.552)"/><g transform="translate(20.553 3.248)"><g class="bv"><path class="d" d="M0,0,5.7-.011,5.575,64.5l-5.7.011Z" transform="matrix(0.751, 0.66, -0.66, 0.751, 77.975, -10.667)"/><path class="d" d="M0,0,14.793-.028,14.67,64.48l-14.793.028Z" transform="matrix(0.751, 0.66, -0.66, 0.751, 91.337, -10.029)"/></g></g><g transform="translate(136.615 4.566)"><g class="bw"><path class="d" d="M0,0,5.485-.007,5.44,33.468l-5.485.007Z" transform="translate(6.059 -1.899) rotate(21.932)"/><path class="d" d="M0,0,3.072,0,3.027,33.471l-3.072,0Z" transform="translate(14.638 -1.349) rotate(21.932)"/></g></g><g transform="translate(141.564 4.028)"><g class="bx" transform="matrix(0.939, 0.343, -0.343, 0.939, 8.25, 1.119)"><path class="by" d="M0,0,2.633,0,2.61,18.811l-2.633,0Z" transform="translate(5.754 1.018)"/></g><g class="bz" transform="translate(9.004 0) rotate(17.38)"><path class="by" d="M0,0,5.6-.006l-.023,21L-.023,21Z" transform="translate(9.044 3.531)"/></g></g><path class="bt" d="M146.5,40.9l1.207,3.28s18.988,2.187,23.927-3.827c0,0,1.317-13.667-19.207-9.075-2.2.547-.11,9.184-.11,9.184S148.585,41.558,146.5,40.9Z" transform="translate(-7.328 -4.634)"/></g><g transform="translate(0.659 35.382)"><path class="bt" d="M179.6,70.086s1.976-6.451,3.512,2.843.329,18.915-.22,18.915C182.454,91.844,183.222,81.676,179.6,70.086Z" transform="translate(17.085 -32.911)"/><path class="bt" d="M143,71.16s4.61,1.2,9.329,9.4c0,0,.768-15.963-3.841-15.963C148.488,64.6,144.866,64.381,143,71.16Z" transform="translate(13.514 -33.22)"/><path class="bs" d="M183.385,94.633s1.427-27.225-2.415-25.694c0,0-1.976,1.421-4.061,8.638,0,0-.988-7.107,2.963-10.824a2.331,2.331,0,0,1,3.841,1.2C185.361,74.078,188.215,88.073,183.385,94.633Z" transform="translate(16.811 -33.076)"/><path class="ca" d="M151.8,79.6" transform="translate(14.372 -31.819)"/><path class="ca" d="M148,46.3" transform="translate(14.001 -34.929)"/><path class="bu" d="M124.423,107.995c-32.927.875-90.879,1.859-115.684-.875l-.22-.547a5.009,5.009,0,0,1,.329-3.717c.878-1.859,1.646-4.374,2.3-4.811l.11-.109c.659-.109,2.085-23.945,13.72-26.569,0,0,22.829-9.075,25.9-7.654s31.5.219,31.5.219,26.89,3.717,33.147,14.323c0,0,6.915,13.23,7.354,20.227Z" transform="translate(0.371 -33.317)"/><path class="bp" d="M129.881,72.1s7.9,20.555,0,25.366c0,0-12.622,5.467-13.281-9.4C116.381,82.924,122.747,79.316,129.881,72.1Z" transform="translate(10.937 -32.52)"/><path class="cb" d="M130.1,71.9s8.451,19.79-.22,25.585c0,0-12.622,5.467-13.281-9.4C116.381,82.943,122.966,79.007,130.1,71.9Z" transform="translate(10.937 -32.538)"/><path class="bp" d="M130,71.9s8.232,19.681.329,24.492c0,0-12.073,6.232-12.732-8.638C117.381,82.506,122.869,80.866,130,71.9Z" transform="translate(11.035 -32.538)"/><path class="bs" d="M3.169,72.915C2.73,76.086.535,94.346,1.522,95.767c0,0,5.159,4.155,8.342-.547,3.183-4.592-.878-16.729-6.256-22.414C3.388,72.7,3.169,72.7,3.169,72.915Z" transform="translate(-0.315 -32.461)"/><path class="bp" d="M3.429,76.28C2.88,81.2,1.563,92.681,2.112,95.2c0,.219.22.437.439.656,1.1.765,5.378,3.28,8.122-.765,2.744-4.374-.659-13.558-5.378-19.353A1.045,1.045,0,0,0,3.429,76.28Z" transform="translate(-0.246 -32.217)"/><path class="cc" d="M19.985,47.6s119.306-8.856,123.477-5.358c0,0,5.268-3.717,4.061-6.342L25.912,36.993S17.79,43.772,17.9,44.319C18.12,44.756,19,47.6,19.985,47.6Z" transform="translate(1.307 -35.9)"/><path class="bs" d="M178.476,85.183s.329,15.526-6.256,16.838L154,103.88l.878-7L172.549,94.8s2.634-.328,5.817-12.574a7.826,7.826,0,0,1,.549-1.531A29.551,29.551,0,0,0,178.476,85.183Z" transform="translate(14.587 -31.717)"/><path class="br" d="M141,79.855s1.537-20.555,9.659-16.51c1.756.875,3.622,4.811,1.866,17.166,0,0-.768-16.729-4.72-15.417C147.8,65.094,145.61,64.548,141,79.855Z" transform="translate(13.318 -33.386)"/><g transform="translate(8.675 30.245)"><g class="cd"><line class="ce" x2="143.123" y2="1.312" transform="translate(-8.017 1.026)"/><line class="ce" x2="143.123" y2="1.421" transform="translate(-8.017 3.869)"/><line class="ce" x2="143.123" y2="1.312" transform="translate(-8.017 6.821)"/><line class="ce" x2="143.123" y2="1.312" transform="translate(-8.017 9.663)"/><line class="ce" x2="143.123" y2="1.312" transform="translate(-8.017 12.616)"/><line class="ce" x2="143.123" y2="1.312" transform="translate(-8.017 15.458)"/><line class="ce" x2="143.123" y2="1.312" transform="translate(-8.017 18.411)"/><line class="ce" x2="143.123" y2="1.312" transform="translate(-8.017 21.253)"/><line class="ce" x2="143.123" y2="1.312" transform="translate(-8.017 24.205)"/><line class="ce" x2="143.123" y2="1.312" transform="translate(-8.017 27.048)"/><line class="ce" x2="143.123" y2="1.421" transform="translate(-8.017 29.891)"/><line class="ce" x2="143.123" y2="1.312" transform="translate(-8.017 32.843)"/><line class="ce" x2="143.123" y2="1.421" transform="translate(-8.017 35.686)"/></g></g><path class="bs" d="M124.423,105.059c-32.927.875-90.879,1.859-115.684-.875l-.22-.547a5.009,5.009,0,0,1,.329-3.717c.878-1.859,1.646-4.374,2.3-4.811l.11-.109L25.97,99.264s74.086,1.64,76.062,1.093S123,95.547,123,95.547l.878,5.139Z" transform="translate(0.371 -30.381)"/><path class="br" d="M152.633,97.233v.109l-.659,2.077h0a14.063,14.063,0,0,1-2.854,4.92s-9.549.328-23.927.656c-32.927.875-90.879,1.859-115.684-.875-2.415-.219-4.39-.547-6.146-.875A26.735,26.735,0,0,1,.4,96.468c3.622,1.531,24.805,9.4,56.964,6.888,0,0,68.6.437,76.281-3.717,2.634-1.421,10.866-5.139,10.866-5.139s1.427,3.061,2.415,3.5C148.243,98.764,152.633,97.233,152.633,97.233Z" transform="translate(-0.4 -30.428)"/><path class="cf" d="M82.335,86.921H41.285A6.592,6.592,0,0,1,34.7,80.36h0a6.592,6.592,0,0,1,6.585-6.56H82.444a6.592,6.592,0,0,1,6.585,6.56h0A6.688,6.688,0,0,1,82.335,86.921Z" transform="translate(2.947 -32.361)"/><path class="cc" d="M182.344,47.238s-7.244,12.355-45.988,3.389a14.611,14.611,0,0,0-1.756-4.592s14.268,4.374,40.5-7.326c.11,0,.22-.109.329-.109C176.088,39.365,181.356,45.051,182.344,47.238Z" transform="translate(12.694 -35.648)"/><path class="bs" d="M5.911,60.993S3.5,71.489,20.07,74c0,0,23.927-9.731,28.537-9.731C48.716,64.273,16.448,57.275,5.911,60.993Z" transform="translate(0.126 -33.659)"/><path class="cg" d="M8.959,103.63c.878-1.859,1.646-4.374,2.3-4.811l.11-.109c.659-.109,2.085-23.945,13.72-26.569,0,0,22.829-9.075,25.9-7.654s31.5.219,31.5.219,26.89,3.717,33.147,14.323c0,0,6.915,13.23,7.354,20.227L124.423,108h2.085l-1.317-8.966c-.549-7.435-7.354-20.446-7.683-21.1-6.585-11.371-33.476-15.2-34.683-15.307h-.439s-11.415.437-20.415.437c-8.232,0-9.768-.437-9.988-.437a4.746,4.746,0,0,0-1.866-.328c-5.488,0-22.939,6.779-25.683,7.872-10.646,2.515-13.5,18.915-14.707,25.8a8.546,8.546,0,0,0-.22,1.531,11.655,11.655,0,0,0-1.756,3.171c-.329.656-.549,1.421-.878,1.968-1.317,2.733-.659,4.264-.659,4.264l2.524.219A4.628,4.628,0,0,1,8.959,103.63Z" transform="translate(0.151 -33.435)"/><path class="bs" d="M98.639,70.564s24.915-1.421,36.11-7.763c0,0-25.573-11.59-59.049,1.64Z" transform="translate(6.947 -33.827)"/><path class="bu" d="M25.9,53.693s26.232,1.093,28.317.437c0,0,9.11-8.638,21.842-.109,0,0,35.012-.328,38.086-.875,0,0-7.573,6.342-8.671,10.387,0,0-20.525-.656-24.7,1.531-4.281,2.187-18.11,16.729-32.159.328,0,0-16.683-3.5-19.866-3.061C28.644,62.44,27.656,59.27,25.9,53.693Z" transform="translate(2.088 -34.559)"/><path class="bq" d="M27.468,58.643,49.859,61.7s12.4,19.243,29.525.219l28.208-2.843L109.457,57s-31.281,2.624-32.817,3.5c0,0-12.732,16.947-23.268.109L26.7,55.8Z" transform="translate(2.166 -34.042)"/><path class="bq" d="M69.246,62.167c0,2.952-3.4,5.467-7.573,5.467S54.1,65.228,54.1,62.167c0-2.952,3.4-5.467,7.573-5.467S69.246,59.105,69.246,62.167Z" transform="translate(4.84 -33.958)"/><path class="bq" d="M30.815,65.586S13.254,61.869,9.632,63.618c0,0-2.963-.219-3.732-1.093,0,0-.329-7.654,4.72-13.558A18.13,18.13,0,0,1,19.181,43.5a50.787,50.787,0,0,0,5.707,8.2h0c1.207,1.312,2.415,2.187,3.293,2.187C28.181,53.887,32.681,64.383,30.815,65.586Z" transform="translate(0.136 -35.19)"/><path class="bq" d="M139.956,50.207s-2.744,17.6-12.4,13.449c0,0-20.744.328-29.854,1.421,0,0,2.524-8.419,12.732-13.558a34.092,34.092,0,0,1,8.561-2.952s13.5-3.936,14.488-5.467c0,0,5.488,1.093,6.476,4.92A7.211,7.211,0,0,1,139.956,50.207Z" transform="translate(9.094 -35.228)"/><path class="ch" d="M24.468,51.7c-.329,0-9.878.656-14.268-2.733A18.13,18.13,0,0,1,18.761,43.5,50.787,50.787,0,0,0,24.468,51.7Z" transform="translate(0.556 -35.19)"/><path class="ci" d="M138.734,47.92l-.11.109s-13.939,8.2-29.525,3.389a34.091,34.091,0,0,1,8.561-2.952s13.5-3.936,14.488-5.467C132.259,43.109,137.747,44.2,138.734,47.92Z" transform="translate(10.206 -35.237)"/><path class="cj" d="M164.1,42.3s10.756,21.321,1.427,57.73" transform="translate(15.572 -35.302)"/><path class="br" d="M178.137,90.7c-.659,4.483-2.085,9.84-5.817,10.606l-18.22,1.859s1.207-7.216.659-10.059l4.72-4.7s15.366,8.31,17.122,2.187C177.039,89.493,177.478,89.712,178.137,90.7Z" transform="translate(14.597 -30.998)"/></g></g><g class="ck" transform="translate(103.126 201.715)"><ellipse class="cl" cx="10.48" cy="10.44" rx="10.48" ry="10.44"/><ellipse class="cm" cx="10.48" cy="10.44" rx="9.48" ry="9.44"/></g><g class="ck" transform="translate(171.038 185.011)"><ellipse class="cl" cx="10.48" cy="10.44" rx="10.48" ry="10.44"/><ellipse class="cm" cx="10.48" cy="10.44" rx="9.48" ry="9.44"/></g><g class="ck" transform="translate(244.819 191.693)"><ellipse class="cl" cx="10.48" cy="10.44" rx="10.48" ry="10.44"/><ellipse class="cm" cx="10.48" cy="10.44" rx="9.48" ry="9.44"/></g><g class="ck" transform="translate(234.758 226.772)"><ellipse class="cl" cx="10.48" cy="10.44" rx="10.48" ry="10.44"/><ellipse class="cm" cx="10.48" cy="10.44" rx="9.48" ry="9.44"/></g></g></g></svg>