<svg xmlns="http://www.w3.org/2000/svg" xmlns:xlink="http://www.w3.org/1999/xlink" viewBox="0 0 328 193"><defs><style>.a{fill:#ededed;stroke:#cccece;}.ao,.b,.e{fill:#fff;}.b,.z{stroke:#fff;}.c{clip-path:url(#a);}.d{fill:#88d9e2;}.aa,.ac,.ad,.ae,.af,.ag,.ah,.ai,.aj,.ak,.aw,.bb,.bc,.bh,.bl,.cd,.f,.i,.j,.k,.l,.m,.n,.q,.r,.s,.t,.v,.w,.x,.y,.z{fill:none;}.ac,.ad,.ae,.f,.i,.j,.k,.l,.q,.r{stroke:#a4e3ff;}.aa,.ac,.ad,.ae,.af,.ag,.ah,.ai,.aj,.ak,.aw,.bb,.bc,.bh,.bl,.f,.i,.j,.k,.l,.m,.n,.q,.r,.s,.t,.v,.w,.x,.y,.z{stroke-miterlimit:10;}.f{stroke-width:6.813px;}.ap,.f,.q,.r,.t,.v{opacity:0.68;}.g{fill:#00a8b7;}.h{fill:#006881;}.i,.j,.k,.l,.m,.n{stroke-width:4.679px;}.ad,.j{opacity:0.53;}.k{opacity:0.31;}.ae,.ah,.l,.n{opacity:0.39;}.af,.ag,.ah,.m,.n,.s,.t{stroke:#cff3ff;}.o{fill:#98ba2d;}.p{fill:#36b2d8;}.q,.s,.t{stroke-width:6.238px;}.r{stroke-width:9.131px;}.s{opacity:0.89;}.u{fill:#22557f;}.ak,.v,.w,.x,.y{stroke:#95e4e8;}.v,.w{stroke-width:5.489px;}.w,.x,.y{opacity:0.34;}.x{stroke-width:6.029px;}.y{stroke-width:6.531px;}.aa,.z{stroke-width:6.947px;}.aa{stroke:#a4eeff;}.ab{fill:#2e9bc6;}.ac,.ad,.ae,.af,.ag,.ah,.ak{stroke-width:6.272px;}.af{opacity:0.14;}.ai{stroke:#46c4d1;}.ai,.aj{stroke-width:7.938px;}.aj{stroke:#3a84ad;}.al{fill:#36b6dd;}.am{fill:#2e6193;}.an{fill:#ccb5a3;}.ao{opacity:0.2;}.aq{fill:#a4e3ff;}.ar{fill:#cff3ff;}.as{fill:#38c7e8;}.at{fill:#57dfff;}.au{fill:#00cfff;}.av{fill:#2469ce;opacity:0.5;}.aw{stroke:#38300e;stroke-width:3.519px;}.ax{fill:url(#b);}.ay{fill:#2e8c45;}.az{fill:#2c6026;}.ba{fill:url(#c);}.bb,.bc,.bl{stroke:#562723;}.bb{stroke-linecap:round;stroke-width:17.728px;}.bc{stroke-width:9.455px;}.bd{fill:#49843d;}.be{fill:#77a33e;}.bf{fill:url(#d);}.bg{fill:#33312a;}.bh{stroke:#4b4332;stroke-width:6.696px;}.bi{fill:url(#e);}.bj{fill:url(#f);}.bk{fill:#2a593b;}.bl{stroke-width:0.919px;}.bm{fill:#9b9778;}.bn{fill:#b7b191;}.bo{opacity:0.7;}.bp{fill:#565441;}.bq{clip-path:url(#g);}.br{fill:#1a2428;}.bs,.bv{fill:#2e3d42;}.bs{opacity:0.67;}.bt{fill:#5e757a;}.bu{fill:#0f1719;}.bw{fill:#849ca0;}.bx{opacity:0.4;}.by{fill:#2a5c76;}.bz{fill:#44585e;}.ca{clip-path:url(#s);}.cb{clip-path:url(#t);}.cc{stroke:none;}</style><clipPath id="a"><path class="a" d="M4-2H324c2.209,0,4,1.342,4,3V188c0,1.655-1.791,3-4,3H4c-2.209,0-4-1.342-4-3V1C0-.658,1.791-2,4-2Z" transform="translate(94 182)"/></clipPath><linearGradient id="b" x1="0.5" y1="-2.109" x2="0.5" y2="1.355" gradientUnits="objectBoundingBox"><stop offset="0" stop-color="#7fa637"/><stop offset="1" stop-color="#5f891b"/></linearGradient><linearGradient id="c" x1="0.778" y1="0.052" x2="0.262" y2="1.084" gradientUnits="objectBoundingBox"><stop offset="0.092" stop-color="#49843d"/><stop offset="0.196" stop-color="#447e3d"/><stop offset="0.701" stop-color="#31633b"/><stop offset="1" stop-color="#2a593b"/></linearGradient><linearGradient id="d" x1="0.709" y1="-0.022" x2="0.285" y2="1.05" xlink:href="#c"/><linearGradient id="e" x1="0.705" y1="0.014" x2="0.275" y2="1.035" xlink:href="#c"/><linearGradient id="f" x1="0.705" y1="0.014" x2="0.274" y2="1.035" xlink:href="#c"/><clipPath id="g"><rect width="617.853" height="615.493"/></clipPath><clipPath id="s"><ellipse class="b" cx="49.112" cy="48.812" rx="49.112" ry="48.812"/></clipPath><clipPath id="t"><rect width="608.73" height="613.409"/></clipPath></defs><g class="c" transform="translate(-94 -180)"><g transform="translate(26 -108.892)"><g transform="translate(0.278)"><rect class="d" width="534.28" height="400.54"/><path class="e" d="M719.818,129.091v.591a7.511,7.511,0,0,0,7.48,7.451h34.135v24.779H659.385a7.511,7.511,0,0,1-7.48-7.451v-9.876a7.511,7.511,0,0,1,7.48-7.451h15.732a7.511,7.511,0,0,0,7.48-7.451v-.591a7.511,7.511,0,0,0-7.48-7.451H606.254c-3.918,0-7.124-2.839-7.124-6.269s-3.206-6.269-7.124-6.269H566.48a7.485,7.485,0,0,1-7.48-7.451,7.511,7.511,0,0,1,7.48-7.451H761.433v27.44H727.3A7.511,7.511,0,0,0,719.818,129.091Z" transform="translate(-227.153 -38.492)"/><g transform="translate(403.263 109.819)"><line class="f" x2="14.841" transform="translate(58.949 64.519)"/><line class="f" x2="14.841" transform="translate(58.949 27.322)"/><rect class="g" width="60.196" height="182.499" transform="translate(13.594)"/><rect class="h" width="26.536" height="182.499"/><line class="i" x2="9.795" transform="translate(63.995 95.921)"/><line class="i" x2="7.421" transform="translate(49.747 36.074)"/><line class="i" x2="7.302" transform="translate(30.751 95.921)"/><line class="j" x2="11.873" transform="translate(8.964 36.074)"/><line class="k" x2="6.708" transform="translate(0 36.074)"/><line class="i" x2="9.795" transform="translate(63.995 43.88)"/><line class="i" x2="11.576" transform="translate(52.419 163.93)"/><line class="i" x2="14.247" transform="translate(30.751 103.728)"/><line class="i" x2="14.544" transform="translate(59.246 111.12)"/><line class="i" x2="9.558" transform="translate(26.477 51.272)"/><line class="i" x2="7.599" transform="translate(0 51.272)"/><line class="i" x2="6.649" transform="translate(61.977 118.926)"/><line class="i" x2="9.439" transform="translate(30.929 59.079)"/><line class="i" x2="9.973" transform="translate(6.708 118.926)"/><line class="i" x2="18.878" transform="translate(49.747 66.412)"/><line class="l" x2="14.96" transform="translate(20.599 66.412)"/><line class="i" x2="5.224" transform="translate(15.375 141.517)"/><line class="i" x2="3.859" transform="translate(11.517 126.259)"/><line class="i" x2="14.544" transform="translate(59.246 74.218)"/><line class="i" x2="4.69" transform="translate(47.195 118.926)"/><line class="i" x2="2.612" transform="translate(51.944 14.075)"/><line class="i" x2="16.444" transform="translate(28.139 118.926)"/><line class="i" x2="6.827" transform="translate(19.293 126.259)"/><line class="i" x2="10.864" transform="translate(8.905 134.065)"/><line class="i" x2="3.918" transform="translate(4.987 74.218)"/><line class="j" x2="4.927" transform="translate(3.503 14.075)"/><line class="i" x2="7.48" transform="translate(66.31 21.408)"/><line class="i" x2="16.563" transform="translate(49.747 81.61)"/><line class="i" x2="2.553" transform="translate(47.195 21.408)"/><line class="l" x2="9.914" transform="translate(16.681 81.61)"/><line class="j" x2="3.503" transform="translate(0 21.408)"/><line class="i" x2="9.795" transform="translate(63.995 29.214)"/><line class="i" x2="9.439" transform="translate(54.556 149.264)"/><line class="i" x2="9.558" transform="translate(44.998 89.416)"/><line class="l" x2="14.426" transform="translate(12.17 89.416)"/><line class="j" x2="7.302" transform="translate(11.042 29.214)"/><line class="i" x2="5.224" transform="translate(5.818 89.416)"/><line class="i" x2="5.818" transform="translate(3.503 164.462)"/><line class="m" x2="7.421" transform="translate(55.031 36.074)"/><line class="m" x2="7.302" transform="translate(36.034 95.921)"/><line class="m" x2="11.873" transform="translate(26.714 36.074)"/><line class="m" x2="11.635" transform="translate(57.643 163.93)"/><line class="j" x2="11.992" transform="translate(14.604 43.88)"/><line class="m" x2="9.498" transform="translate(45.533 51.272)"/><line class="n" x2="7.955" transform="translate(18.819 51.272)"/><line class="m" x2="19.472" transform="translate(54.319 59.079)"/><line class="n" x2="9.973" transform="translate(11.992 118.926)"/><line class="m" x2="14.307" transform="translate(26.477 66.412)"/><line class="m" x2="5.224" transform="translate(20.659 141.517)"/><line class="n" x2="3.918" transform="translate(16.741 126.259)"/><line class="m" x2="4.749" transform="translate(52.419 118.926)"/><line class="m" x2="2.612" transform="translate(57.227 14.075)"/><line class="m" x2="8.905" transform="translate(31.879 134.065)"/><line class="m" x2="6.827" transform="translate(24.577 126.259)"/><line class="m" x2="10.923" transform="translate(14.129 134.065)"/><line class="m" x2="3.918" transform="translate(10.211 74.218)"/><line class="m" x2="16.563" transform="translate(55.031 81.61)"/><line class="m" x2="14.307" transform="translate(38.112 21.408)"/><line class="m" x2="6.233" transform="translate(31.879 141.457)"/><line class="n" x2="12.17" transform="translate(9.795 21.408)"/><line class="m" x2="9.439" transform="translate(59.839 149.264)"/><line class="m" x2="9.558" transform="translate(50.282 89.416)"/><line class="m" x2="19.946" transform="translate(30.335 29.214)"/><line class="m" x2="6.411" transform="translate(25.467 89.416)"/><line class="n" x2="5.283" transform="translate(20.184 29.214)"/><line class="m" x2="5.818" transform="translate(8.786 164.462)"/><path class="o" d="M783.059,494.3Z" transform="translate(-721.439 -311.801)"/></g><path class="e" d="M154.3,149.328v.946a7.725,7.725,0,0,1-7.717,7.688h-75.1a7.725,7.725,0,0,0-7.717,7.688V168.9a7.725,7.725,0,0,1-7.717,7.688H.305V142.409c1.009-.414-1.128-.71.119-.71H146.639A7.624,7.624,0,0,1,154.3,149.328Z" transform="translate(-0.008 -57.901)"/><g transform="translate(45.473 47.074)"><g transform="translate(166.28)"><rect class="p" width="83.229" height="210.471" transform="translate(86.019 104.969)"/><line class="q" x2="15.079" transform="translate(104.956 124.485)"/><line class="r" x2="18.997" transform="translate(78.955 231.879)"/><line class="q" x2="38.349" transform="translate(120.154 215.557)"/><line class="q" x2="34.135" transform="translate(86.019 134.893)"/><line class="q" x2="24.814" transform="translate(107.45 144.769)"/><line class="r" x2="21.431" transform="translate(78.955 252.222)"/><line class="r" x2="18.997" transform="translate(78.955 182.026)"/><line class="q" x2="40.308" transform="translate(86.019 165.112)"/><line class="q" x2="18.878" transform="translate(100.029 256.244)"/><line class="q" x2="14.01" transform="translate(95.874 175.58)"/><line class="q" x2="28.079" transform="translate(135.292 266.12)"/><line class="q" x2="22.38" transform="translate(138.082 185.456)"/><line class="q" x2="18.166" transform="translate(145.206 276.587)"/><line class="q" x1="15.197" transform="translate(109.884 195.923)"/><line class="q" x2="22.559" transform="translate(102.522 276.587)"/><line class="s" x2="12.348" transform="translate(127.752 124.485)"/><line class="t" x2="26.773" transform="translate(100.979 205.149)"/><line class="t" x2="22.559" transform="translate(141.347 225.433)"/><line class="t" x2="17.038" transform="translate(138.022 144.769)"/><line class="t" x2="29.207" transform="translate(100.979 225.433)"/><line class="s" x2="25.408" transform="translate(113.92 155.236)"/><line class="t" x1="17.156" transform="translate(141.347 165.112)"/><line class="s" x2="11.161" transform="translate(122.766 256.244)"/><line class="t" x2="55.15" transform="translate(71.594 185.456)"/><line class="s" x2="25.942" transform="translate(140.1 195.923)"/><line class="t" x2="14.841" transform="translate(125.259 276.587)"/><path class="u" d="M502.652,261V469.165H427.2V261Z" transform="translate(-385.348 -153.724)"/><line class="v" x2="51.766" transform="translate(117.482 113.958)"/><line class="w" x2="23.449" transform="translate(86.019 113.958)"/><line class="x" x2="5.58" transform="translate(111.665 124.485)"/><line class="x" x2="5.58" transform="translate(108.874 155.236)"/><line class="y" x2="13.12" transform="translate(86.019 129.63)"/><line class="z" x2="51.766" transform="translate(117.482 104.969)"/><line class="aa" x2="31.463" transform="translate(86.019 104.969)"/><rect class="ab" width="80.38" height="309.763" transform="translate(18.166)"/><rect class="u" width="35.619" height="309.763"/><line class="ac" x2="11.279" transform="translate(85.782 273.985)"/><line class="ac" x2="4.037" transform="translate(76.58 19.515)"/><line class="ac" x2="9.914" transform="translate(66.666 193.794)"/><line class="ac" x2="7.717" transform="translate(43.93 19.515)"/><line class="ac" x2="9.736" transform="translate(41.199 273.985)"/><line class="ad" x2="15.91" transform="translate(11.992 193.794)"/><line class="ad" x2="16.325" transform="translate(0.059 19.515)"/><line class="ac" x2="8.964" transform="translate(0 193.794)"/><line class="ac" x2="12.763" transform="translate(85.782 204.262)"/><line class="ac" x2="9.855" transform="translate(60.314 29.983)"/><line class="ac" x2="19.115" transform="translate(41.199 284.452)"/><line class="ad" x1="9.795" transform="translate(25.824 29.983)"/><line class="ad" x2="7.064" transform="translate(0 29.983)"/><line class="ac" x2="17.691" transform="translate(79.37 294.328)"/><line class="ac" x2="5.877" transform="translate(66.666 39.859)"/><line class="ac" x2="12.763" transform="translate(35.5 214.138)"/><line class="ac" x2="18.047" transform="translate(35.856 39.859)"/><line class="ad" x2="8.014" transform="translate(10.151 39.859)"/><line class="ac" x2="5.105" transform="translate(91.956 50.326)"/><line class="ac" x2="8.905" transform="translate(83.051 304.796)"/><line class="ac" x2="7.539" transform="translate(55.446 50.326)"/><line class="ac" x2="12.704" transform="translate(41.436 224.546)"/><line class="ac" x2="11.992" transform="translate(35.619 50.326)"/><line class="ac" x2="13.416" transform="translate(8.964 304.796)"/><line class="ad" x2="8.964" transform="translate(0 50.326)"/><line class="ac" x2="5.105" transform="translate(91.956 153.758)"/><line class="ac" x2="25.289" transform="translate(66.666 234.422)"/><line class="ac" x2="12.763" transform="translate(53.903 153.758)"/><line class="ac" x2="6.293" transform="translate(47.61 153.758)"/><line class="ae" x2="20.006" transform="translate(27.604 234.422)"/><line class="af" x2="5.224" transform="translate(15.375 314.672)"/><line class="ad" x2="7.064" transform="translate(0 60.202)"/><line class="ac" x2="17.691" transform="translate(79.37 244.889)"/><line class="ac" x2="6.293" transform="translate(63.223 304.796)"/><line class="ac" x2="3.443" transform="translate(69.635 164.225)"/><line class="ac" x2="22.024" transform="translate(37.696 304.796)"/><line class="af" x2="14.604" transform="translate(11.873 325.08)"/><line class="ac" x2="5.224" transform="translate(6.649 244.889)"/><line class="ad" x2="6.589" transform="translate(4.69 70.61)"/><line class="ac" x2="8.192" transform="translate(88.869 174.101)"/><line class="ac" x2="22.202" transform="translate(66.666 254.765)"/><line class="ac" x2="3.503" transform="translate(63.164 174.101)"/><line class="ae" x2="13.238" transform="translate(22.38 254.765)"/><line class="ad" x2="4.69" transform="translate(0 174.101)"/><line class="ac" x2="11.279" transform="translate(85.782 184.569)"/><line class="ac" x2="12.763" transform="translate(60.314 265.233)"/><line class="ae" x2="19.293" transform="translate(16.325 265.233)"/><line class="af" x2="7.005" transform="translate(7.777 265.233)"/><line class="ag" x2="5.64" transform="translate(87.206 19.515)"/><line class="ag" x2="9.914" transform="translate(73.79 193.794)"/><line class="ag" x2="15.791" transform="translate(57.999 19.515)"/><line class="ag" x2="9.736" transform="translate(48.263 273.985)"/><line class="ag" x2="15.91" transform="translate(35.737 193.794)"/><line class="af" x2="11.101" transform="translate(21.252 19.515)"/><line class="af" x2="8.964" transform="translate(7.064 193.794)"/><line class="ag" x2="9.855" transform="translate(74.74 29.983)"/><line class="ag" x2="19.115" transform="translate(48.263 284.452)"/><line class="ag" x2="12.526" transform="translate(35.737 29.983)"/><line class="ad" x2="16.088" transform="translate(19.531 204.262)"/><line class="af" x2="7.658" transform="translate(11.873 29.983)"/><line class="ag" x2="12.704" transform="translate(76.699 39.859)"/><line class="ag" x2="12.823" transform="translate(60.967 214.138)"/><line class="ag" x2="25.111" transform="translate(35.856 39.859)"/><line class="ah" x2="10.626" transform="translate(25.23 214.138)"/><line class="af" x2="8.014" transform="translate(22.796 39.859)"/><line class="af" x2="10.151" transform="translate(7.064 214.138)"/><line class="ag" x2="22.737" transform="translate(67.379 50.326)"/><line class="ac" x1="3.977" transform="translate(52.063 61.681)"/><line class="ac" x1="7.777" transform="translate(80.973 61.681)"/><line class="ac" x1="9.914" transform="translate(62.451 72.148)"/><line class="ac" x1="5.877" transform="translate(60.077 82.024)"/><line class="ac" x1="19.412" transform="translate(78.777 82.024)"/><line class="ac" x1="7.599" transform="translate(69.635 92.491)"/><line class="ac" x1="13.357" transform="translate(85.069 92.491)"/><line class="ag" x1="5.699" transform="translate(39.774 61.681)"/><line class="ag" x1="15.732" transform="translate(58.89 61.681)"/><line class="ag" x1="9.914" transform="translate(48.026 72.148)"/><line class="ag" x1="13.951" transform="translate(84.357 72.148)"/><line class="ag" x1="12.645" transform="translate(43.277 82.024)"/><line class="ag" x1="26.477" transform="translate(71.712 82.024)"/><line class="ag" x1="22.737" transform="translate(42.564 92.491)"/><line class="ag" x2="25.467" transform="translate(72.781 224.546)"/><line class="af" x2="13.416" transform="translate(16.028 304.796)"/><line class="ah" x2="8.905" transform="translate(26.655 50.326)"/><line class="ag" x2="6.293" transform="translate(71.89 153.758)"/><line class="ag" x2="19.175" transform="translate(35.5 234.422)"/><line class="ah" x2="5.283" transform="translate(22.44 314.672)"/><line class="af" x2="15.375" transform="translate(11.992 60.202)"/><line class="ad" x2="9.795" transform="translate(0 92.491)"/><line class="ad" x1="7.064" transform="translate(28.554 92.491)"/><line class="ad" x1="8.074" transform="translate(17.453 102.367)"/><line class="ad" x1="8.964" transform="translate(26.655 112.835)"/><line class="ad" x1="7.064" transform="translate(28.554 122.711)"/><line class="ad" x1="6.649" transform="translate(24.339 133.178)"/><line class="af" x1="11.101" transform="translate(3.265 82.024)"/><line class="af" x1="7.658" transform="translate(16.088 92.491)"/><line class="af" x1="8.074" transform="translate(4.809 102.367)"/><line class="ah" x1="8.964" transform="translate(0.059 112.835)"/><line class="af" x1="15.316" transform="translate(8.311 122.711)"/><line class="ag" x2="3.443" transform="translate(76.699 164.225)"/><line class="ag" x2="11.992" transform="translate(42.683 325.08)"/><line class="ae" x2="14.604" transform="translate(18.937 325.08)"/><line class="af" x2="5.224" transform="translate(13.713 244.889)"/><line class="ag" x2="22.143" transform="translate(73.79 254.765)"/><line class="ag" x2="19.234" transform="translate(51.053 174.101)"/><line class="ah" x2="16.385" transform="translate(13.06 174.101)"/><line class="ag" x2="12.763" transform="translate(67.379 265.233)"/><line class="ag" x2="24.696" transform="translate(42.683 184.569)"/><line class="ac" x2="9.914" transform="translate(66.666 142.877)"/><line class="ac" x2="5.105" transform="translate(91.956 102.84)"/><line class="ac" x2="12.763" transform="translate(53.903 102.84)"/><line class="ac" x2="6.293" transform="translate(47.61 102.84)"/><line class="ac" x2="3.443" transform="translate(69.635 113.308)"/><line class="ac" x2="8.192" transform="translate(88.869 123.184)"/><line class="ac" x2="3.503" transform="translate(63.164 123.184)"/><line class="ac" x2="11.279" transform="translate(85.782 133.651)"/><line class="ag" x2="9.914" transform="translate(73.79 142.877)"/><line class="ag" x2="15.91" transform="translate(35.737 142.877)"/><line class="ag" x2="6.293" transform="translate(71.89 102.84)"/><line class="ag" x2="3.443" transform="translate(76.699 113.308)"/><line class="ag" x2="19.234" transform="translate(51.053 123.184)"/><line class="ag" x2="24.696" transform="translate(42.683 133.651)"/><line class="ah" x2="7.124" transform="translate(27.011 184.569)"/><line class="ai" x2="62.926" transform="translate(35.619)"/><line class="aj" x2="35.619"/><line class="ak" x2="63.045" transform="translate(35.5 9.048)"/><path class="o" d="M495.759,603.4Z" transform="translate(-413.183 -293.637)"/></g><g transform="translate(0 91.427)"><rect class="al" width="105.075" height="6.683" transform="translate(3.859 20.048)"/><rect class="al" width="105.075" height="6.683" transform="translate(3.859 6.683)"/><rect class="al" width="105.075" height="6.683" transform="translate(4.096 33.354)"/><rect class="al" width="105.075" height="6.683" transform="translate(4.096 46.719)"/><rect class="al" width="105.075" height="6.683" transform="translate(3.859 73.508)"/><rect class="al" width="105.075" height="6.683" transform="translate(3.859 60.143)"/><rect class="al" width="105.075" height="6.683" transform="translate(3.562 86.873)"/><rect class="al" width="105.075" height="6.683" transform="translate(3.562 100.238)"/><rect class="am" width="105.075" height="6.683" transform="translate(3.859 68.659)"/><rect class="am" width="105.075" height="6.683" transform="translate(3.859 55.294)"/><rect class="am" width="105.075" height="6.683" transform="translate(3.562 82.024)"/><rect class="am" width="105.075" height="6.683" transform="translate(3.562 95.389)"/><rect class="am" width="105.075" height="6.683" transform="translate(3.859 15.198)"/><rect class="am" width="105.075" height="6.683" transform="translate(3.859 1.833)"/><rect class="am" width="105.075" height="6.683" transform="translate(4.096 28.564)"/><rect class="am" width="105.075" height="6.683" transform="translate(4.096 41.929)"/><rect class="am" width="30.513" height="6.683" transform="translate(2.909 20.107)"/><rect class="am" width="30.513" height="6.683" transform="translate(2.909 6.801)"/><rect class="am" width="30.513" height="6.683" transform="translate(2.968 33.472)"/><rect class="am" width="30.513" height="6.683" transform="translate(2.968 46.837)"/><rect class="am" width="30.513" height="6.683" transform="translate(2.909 73.626)"/><rect class="am" width="30.513" height="6.683" transform="translate(2.909 60.261)"/><rect class="am" width="30.513" height="6.683" transform="translate(2.79 86.992)"/><rect class="am" width="30.513" height="6.683" transform="translate(2.79 100.298)"/><rect class="e" width="111.783" height="6.683" transform="translate(0.237 66.885)"/><rect class="e" width="111.783" height="6.683" transform="translate(0.237 80.25)"/><rect class="e" width="111.783" height="6.683" transform="translate(0.237 53.52)"/><rect class="e" width="111.783" height="6.683" transform="translate(0 93.615)"/><rect class="e" width="111.783" height="6.683" transform="translate(0 106.98)"/><rect class="e" width="111.783" height="6.683" transform="translate(0.237 13.424)"/><rect class="e" width="111.783" height="6.683" transform="translate(0.237 26.789)"/><rect class="e" width="111.783" height="6.683" transform="translate(0.237)"/><rect class="e" width="111.783" height="6.683" transform="translate(0.475 40.095)"/><rect class="an" width="35.203" height="6.683" transform="translate(0.178 66.885)"/><rect class="an" width="35.203" height="6.683" transform="translate(0.178 80.25)"/><rect class="an" width="35.203" height="6.683" transform="translate(0.178 53.52)"/><rect class="an" width="35.203" height="6.683" transform="translate(0.059 93.615)"/><rect class="an" width="35.203" height="6.683" transform="translate(0.059 106.98)"/><rect class="an" width="35.203" height="6.683" transform="translate(0.178 13.424)"/><rect class="an" width="35.203" height="6.683" transform="translate(0.178 26.789)"/><rect class="an" width="35.203" height="6.683" transform="translate(0.178)"/><rect class="an" width="35.203" height="6.683" transform="translate(0.237 40.095)"/><path class="ao" d="M166.318,248.6H149.4l-3.8,4.908H162.46Z" transform="translate(-104.639 -240.084)"/><path class="ao" d="M199.223,248.6H190.2l-3.8,4.908h8.964Z" transform="translate(-121.218 -240.084)"/><path class="ao" d="M194.126,271H166.7l-3.8,4.908h27.426Z" transform="translate(-111.668 -249.237)"/><path class="ao" d="M243.123,271H234.1l-3.8,4.908h9.023Z" transform="translate(-139.057 -249.237)"/><path class="ao" d="M156.718,293.6h-16.86L136,298.449h16.919Z" transform="translate(-100.738 -258.472)"/><path class="ao" d="M166.826,316H139.4l-3.8,4.908h27.426Z" transform="translate(-100.575 -267.625)"/><path class="ao" d="M233.623,316H224.6l-3.8,4.908h8.964Z" transform="translate(-135.196 -267.625)"/><path class="ao" d="M171.918,338.6H155l-3.8,4.908h16.86Z" transform="translate(-106.914 -276.86)"/><path class="ao" d="M199.726,361.1H172.3l-3.8,4.849h27.426Z" transform="translate(-113.944 -286.054)"/><path class="ao" d="M248.723,361.1H239.7l-3.8,4.849h9.023Z" transform="translate(-141.332 -286.054)"/><path class="ao" d="M162.318,383.6h-16.86l-3.859,4.908h16.919Z" transform="translate(-103.013 -295.248)"/><path class="ao" d="M226.323,383.6H217.3l-3.8,4.908h9.023Z" transform="translate(-132.23 -295.248)"/><path class="ao" d="M172.426,406H145l-3.8,4.908h27.426Z" transform="translate(-102.851 -304.401)"/><path class="ao" d="M239.223,406H230.2l-3.8,4.908h8.964Z" transform="translate(-137.472 -304.401)"/></g><g transform="translate(0 198.23)"><rect class="al" width="105.075" height="6.683" transform="translate(3.859 20.048)"/><rect class="al" width="105.075" height="6.683" transform="translate(3.859 6.683)"/><rect class="al" width="105.075" height="6.683" transform="translate(4.096 33.413)"/><rect class="al" width="105.075" height="6.683" transform="translate(4.096 46.778)"/><rect class="al" width="105.075" height="6.683" transform="translate(3.859 73.508)"/><rect class="al" width="105.075" height="6.683" transform="translate(3.859 60.202)"/><rect class="al" width="105.075" height="6.683" transform="translate(3.562 86.873)"/><rect class="al" width="105.075" height="6.683" transform="translate(3.562 100.238)"/><rect class="am" width="105.075" height="6.683" transform="translate(3.859 68.718)"/><rect class="am" width="105.075" height="6.683" transform="translate(3.859 55.353)"/><rect class="am" width="105.075" height="6.683" transform="translate(3.562 82.083)"/><rect class="am" width="105.075" height="6.683" transform="translate(3.562 95.389)"/><rect class="am" width="105.075" height="6.683" transform="translate(3.859 15.198)"/><rect class="am" width="105.075" height="6.683" transform="translate(3.859 1.892)"/><rect class="am" width="105.075" height="6.683" transform="translate(4.096 28.564)"/><rect class="am" width="105.075" height="6.683" transform="translate(4.096 41.929)"/><rect class="am" width="30.513" height="6.683" transform="translate(2.909 20.166)"/><rect class="am" width="30.513" height="6.683" transform="translate(2.909 6.801)"/><rect class="am" width="30.513" height="6.683" transform="translate(2.968 33.531)"/><rect class="am" width="30.513" height="6.683" transform="translate(2.968 46.837)"/><rect class="am" width="30.513" height="6.683" transform="translate(2.909 73.626)"/><rect class="am" width="30.513" height="6.683" transform="translate(2.909 60.261)"/><rect class="am" width="30.513" height="6.683" transform="translate(2.79 86.992)"/><rect class="am" width="30.513" height="6.683" transform="translate(2.79 100.357)"/><rect class="e" width="111.783" height="6.683" transform="translate(0.237 66.944)"/><rect class="e" width="111.783" height="6.683" transform="translate(0.237 80.25)"/><rect class="e" width="111.783" height="6.683" transform="translate(0.237 53.579)"/><rect class="e" width="111.783" height="6.683" transform="translate(0 93.615)"/><rect class="e" width="111.783" height="6.683" transform="translate(0 106.98)"/><rect class="e" width="111.783" height="6.683" transform="translate(0.237 13.424)"/><rect class="e" width="111.783" height="6.683" transform="translate(0.237 26.789)"/><rect class="e" width="111.783" height="6.683" transform="translate(0.237)"/><rect class="e" width="111.783" height="6.683" transform="translate(0.475 40.155)"/><rect class="an" width="35.203" height="6.683" transform="translate(0.178 66.944)"/><rect class="an" width="35.203" height="6.683" transform="translate(0.178 80.25)"/><rect class="an" width="35.203" height="6.683" transform="translate(0.178 53.579)"/><rect class="an" width="35.203" height="6.683" transform="translate(0.059 93.615)"/><rect class="an" width="35.203" height="6.683" transform="translate(0.059 106.98)"/><rect class="an" width="35.203" height="6.683" transform="translate(0.178 13.424)"/><rect class="an" width="35.203" height="6.683" transform="translate(0.178 26.789)"/><rect class="an" width="35.203" height="6.683" transform="translate(0.178)"/><rect class="an" width="35.203" height="6.683" transform="translate(0.237 40.155)"/><path class="ao" d="M166.318,429.2H149.4l-3.8,4.908H162.46Z" transform="translate(-104.639 -420.684)"/><path class="ao" d="M199.223,429.2H190.2l-3.8,4.908h8.964Z" transform="translate(-121.218 -420.684)"/><path class="ao" d="M194.126,451.7H166.7l-3.8,4.849h27.426Z" transform="translate(-111.668 -429.878)"/><path class="ao" d="M243.123,451.7H234.1l-3.8,4.849h9.023Z" transform="translate(-139.057 -429.878)"/><path class="ao" d="M156.718,474.2h-16.86L136,479.108h16.919Z" transform="translate(-100.738 -439.072)"/><path class="ao" d="M166.826,496.6H139.4l-3.8,4.908h27.426Z" transform="translate(-100.575 -448.225)"/><path class="ao" d="M233.623,496.6H224.6l-3.8,4.908h8.964Z" transform="translate(-135.196 -448.225)"/><path class="ao" d="M171.918,519.3H155l-3.8,4.908h16.86Z" transform="translate(-106.914 -457.501)"/><path class="ao" d="M199.726,541.7H172.3l-3.8,4.908h27.426Z" transform="translate(-113.944 -466.654)"/><path class="ao" d="M248.723,541.7H239.7l-3.8,4.908h9.023Z" transform="translate(-141.332 -466.654)"/><path class="ao" d="M162.318,564.3h-16.86l-3.859,4.849h16.919Z" transform="translate(-103.013 -475.889)"/><path class="ao" d="M226.323,564.3H217.3l-3.8,4.849h9.023Z" transform="translate(-132.23 -475.889)"/><path class="ao" d="M172.426,586.7H145l-3.8,4.909h27.426Z" transform="translate(-102.851 -485.042)"/><path class="ao" d="M239.223,586.7H230.2l-3.8,4.909h8.964Z" transform="translate(-137.472 -485.042)"/></g><g transform="translate(316.531 153.285)"><g class="ap" transform="translate(102.997 92.905)"><rect class="aq" width="25.171" height="2.72"/></g><g class="ap" transform="translate(105.669 97.282)"><rect class="aq" width="8.133" height="2.72"/></g><g class="ap" transform="translate(83.466 97.282)"><rect class="aq" width="14.188" height="2.72"/></g><g class="ap" transform="translate(86.791 18.924)"><rect class="aq" width="20.481" height="2.72"/></g><g class="ap" transform="translate(86.791 23.537)"><rect class="aq" width="13.238" height="2.72"/></g><g class="ap" transform="translate(114.692 23.537)"><rect class="aq" width="15.257" height="2.72"/></g><g class="ap" transform="translate(92.074 92.905)"><rect class="ar" width="20.718" height="2.72"/></g><path class="u" d="M720.1,356.263V351H609.8v5.263h1.84V367.2H609.8v3.371h1.84v11.473H609.8v3.312h1.84v11.532H609.8V400.2h1.84v11H609.8v3.371h1.84v11.473H609.8v3.371h1.84v11.473H609.8V444.2h1.84v11.532H609.8v3.312h1.84v11.3H609.8v3.312h1.84v14.725H718.259V473.652h1.84V470.34h-1.84v-11.3h1.84v-3.312h-1.84V444.2h1.84v-3.312h-1.84V429.417h1.84v-3.371h-1.84V414.573h1.84V411.2h-1.84v-11h1.84v-3.312h-1.84V385.359h1.84v-3.312h-1.84V370.575h1.84V367.2h-1.84v-10.94Z" transform="translate(-609.8 -343.785)"/><g class="ap" transform="translate(94.746 97.282)"><rect class="ar" width="8.133" height="2.72"/></g><g class="ap" transform="translate(103.769 23.537)"><rect class="ar" width="10.804" height="2.72"/></g><g transform="translate(11.695)"><path class="an" d="M737.959,346.8H631.34v11.532H629.5v3.312h1.84v11.473H629.5v3.312h1.84V387.96H629.5v3.312h1.84V402.33H629.5v3.312h1.84v11.532H629.5v3.312h1.84v11.473H629.5v3.312h1.84V446.8H629.5v3.312h1.84v11.3H629.5v3.312h1.84v14.725H737.959V464.721h1.84v-3.312h-1.84v-11.3h1.84V446.8h-1.84V435.27h1.84v-3.312h-1.84V420.486h1.84v-3.312h-1.84V405.642h1.84V402.33h-1.84V391.272h1.84V387.96h-1.84V376.428h1.84v-3.312h-1.84V361.644h1.84v-3.312h-1.84Z" transform="translate(-629.5 -342.069)"/><rect class="an" width="110.299" height="5.263"/></g><rect class="e" width="95.577" height="132.646" transform="translate(35.737 5.086)"/><rect class="al" width="6.589" height="11.532" transform="translate(42.386 5.086)"/><rect class="as" width="6.589" height="11.532" transform="translate(54.972 5.086)"/><rect class="al" width="6.589" height="11.532" transform="translate(67.616 5.086)"/><rect class="al" width="6.589" height="11.532" transform="translate(80.201 5.086)"/><rect class="al" width="6.589" height="11.532" transform="translate(92.846 5.086)"/><rect class="at" width="6.589" height="11.532" transform="translate(105.431 5.086)"/><rect class="al" width="6.589" height="11.532" transform="translate(118.076 5.086)"/><rect class="al" width="6.589" height="11.532" transform="translate(118.076 19.929)"/><rect class="as" width="6.589" height="11.532" transform="translate(105.431 19.929)"/><rect class="al" width="6.589" height="11.532" transform="translate(92.846 19.929)"/><rect class="au" width="6.589" height="11.532" transform="translate(80.201 19.929)"/><rect class="al" width="6.589" height="11.532" transform="translate(67.616 19.929)"/><rect class="at" width="6.589" height="11.532" transform="translate(54.972 19.929)"/><rect class="al" width="6.589" height="11.532" transform="translate(42.386 19.929)"/><rect class="al" width="6.589" height="11.532" transform="translate(42.386 34.714)"/><rect class="al" width="6.589" height="11.532" transform="translate(54.972 34.714)"/><rect class="as" width="6.589" height="11.532" transform="translate(67.616 34.714)"/><rect class="al" width="6.589" height="11.532" transform="translate(80.201 34.714)"/><rect class="al" width="6.589" height="11.532" transform="translate(92.846 34.714)"/><rect class="al" width="6.589" height="11.532" transform="translate(105.431 34.714)"/><rect class="al" width="6.589" height="11.532" transform="translate(118.076 34.714)"/><rect class="al" width="6.589" height="11.532" transform="translate(118.076 49.557)"/><rect class="as" width="6.589" height="11.532" transform="translate(105.431 49.557)"/><rect class="as" width="6.589" height="11.532" transform="translate(92.846 49.557)"/><rect class="al" width="6.589" height="11.532" transform="translate(80.201 49.557)"/><rect class="al" width="6.589" height="11.532" transform="translate(67.616 49.557)"/><rect class="al" width="6.589" height="11.532" transform="translate(54.972 49.557)"/><rect class="at" width="6.589" height="11.532" transform="translate(42.386 49.557)"/><rect class="al" width="6.589" height="11.532" transform="translate(42.386 63.928)"/><rect class="as" width="6.589" height="11.532" transform="translate(54.972 63.928)"/><rect class="al" width="6.589" height="11.532" transform="translate(67.616 63.928)"/><rect class="al" width="6.589" height="11.532" transform="translate(80.201 63.928)"/><rect class="al" width="6.589" height="11.532" transform="translate(92.846 63.928)"/><rect class="at" width="6.589" height="11.532" transform="translate(105.431 63.928)"/><rect class="al" width="6.589" height="11.532" transform="translate(118.076 63.928)"/><rect class="al" width="6.589" height="11.532" transform="translate(118.076 78.771)"/><rect class="as" width="6.589" height="11.532" transform="translate(105.431 78.771)"/><rect class="al" width="6.589" height="11.532" transform="translate(92.846 78.771)"/><rect class="au" width="6.589" height="11.532" transform="translate(80.201 78.771)"/><rect class="al" width="6.589" height="11.532" transform="translate(67.616 78.771)"/><rect class="at" width="6.589" height="11.532" transform="translate(54.972 78.771)"/><rect class="al" width="6.589" height="11.532" transform="translate(42.386 78.771)"/><rect class="al" width="6.589" height="11.532" transform="translate(42.386 93.556)"/><rect class="al" width="6.589" height="11.532" transform="translate(54.972 93.556)"/><rect class="as" width="6.589" height="11.532" transform="translate(67.616 93.556)"/><rect class="al" width="6.589" height="11.532" transform="translate(80.201 93.556)"/><rect class="al" width="6.589" height="11.532" transform="translate(92.846 93.556)"/><rect class="al" width="6.589" height="11.532" transform="translate(105.431 93.556)"/><rect class="al" width="6.589" height="11.532" transform="translate(118.076 93.556)"/><rect class="e" width="99.257" height="3.312" transform="translate(33.897 16.618)"/><rect class="e" width="99.257" height="3.312" transform="translate(33.897 46.246)"/><rect class="e" width="99.257" height="5.263" transform="translate(33.897)"/><rect class="e" width="99.257" height="3.312" transform="translate(33.897 31.402)"/><rect class="e" width="99.257" height="3.312" transform="translate(33.897 75.46)"/><rect class="e" width="99.257" height="3.312" transform="translate(33.897 60.616)"/><rect class="e" width="99.257" height="3.312" transform="translate(33.897 90.244)"/><rect class="av" width="95.577" height="3.312" transform="translate(35.737 5.086)"/><rect class="av" width="95.577" height="3.312" transform="translate(35.737 20.048)"/><rect class="av" width="95.577" height="3.312" transform="translate(35.737 34.714)"/><rect class="av" width="95.577" height="3.312" transform="translate(35.737 49.676)"/><rect class="av" width="95.577" height="3.312" transform="translate(35.737 63.928)"/><rect class="av" width="95.577" height="3.312" transform="translate(35.737 78.89)"/><rect class="av" width="95.577" height="3.312" transform="translate(35.737 93.556)"/><path class="aw" d="M789.4,467.3" transform="translate(-682.781 -391.308)"/></g><g transform="translate(193.35 180.015)"><g class="ap" transform="translate(76.818 92.905)"><rect class="aq" width="25.171" height="2.72"/></g><g class="ap" transform="translate(79.489 97.222)"><rect class="aq" width="8.133" height="2.72"/></g><g class="ap" transform="translate(57.287 97.222)"><rect class="aq" width="14.188" height="2.72"/></g><g class="ap" transform="translate(60.611 18.924)"><rect class="aq" width="20.481" height="2.72"/></g><g class="ap" transform="translate(60.611 23.478)"><rect class="aq" width="13.238" height="2.72"/></g><g class="ap" transform="translate(88.512 23.478)"><rect class="aq" width="15.257" height="2.72"/></g><g class="ap" transform="translate(65.835 92.905)"><rect class="ar" width="20.718" height="2.72"/></g><path class="u" d="M486.419,401.4v-5.2H402.3v5.2h1.84v11H402.3v3.312h1.84v11.473H402.3V430.5h1.84v11.532H402.3v3.312h1.84V456.4H402.3v3.312h1.84v11.532H402.3v3.312h1.84V486.03H402.3v3.312h1.84v11.532H402.3v3.312h1.84v11.3H402.3v3.312h1.84v14.725h80.439V518.792h1.84v-3.312h-1.84v-11.3h1.84v-3.312h-1.84V489.342h1.84V486.03h-1.84V474.557h1.84v-3.312h-1.84V459.714h1.84V456.4h-1.84V445.343h1.84v-3.312h-1.84V430.5h1.84v-3.312h-1.84V415.715h1.84V412.4h-1.84v-11Z" transform="translate(-402.3 -388.985)"/><g class="ap" transform="translate(68.566 97.222)"><rect class="ar" width="8.133" height="2.72"/></g><g class="ap" transform="translate(77.589 23.478)"><rect class="ar" width="10.804" height="2.72"/></g><g transform="translate(11.695)"><path class="an" d="M504.279,391.9H423.84v11.532H422V406.8h1.84v11.414H422v3.371h1.84v11.532H422v3.312h1.84v11H422v3.312h1.84v11.532H422v3.371h1.84v11.473H422v3.312h1.84v11.532H422v3.312h1.84v11.236H422v3.371h1.84v14.725h80.439V509.88h1.84v-3.371h-1.84V495.273h1.84v-3.312h-1.84V480.429h1.84v-3.312h-1.84V465.645h1.84v-3.371h-1.84V450.742h1.84V447.43h-1.84v-11h1.84v-3.312h-1.84V421.587h1.84v-3.371h-1.84V406.8h1.84v-3.371h-1.84Z" transform="translate(-422 -387.228)"/><rect class="an" width="84.119" height="5.263"/></g><rect class="e" width="69.397" height="132.646" transform="translate(35.678 5.086)"/><rect class="al" width="6.589" height="11.532" transform="translate(41.436 5.086)"/><rect class="al" width="6.589" height="11.532" transform="translate(54.022 5.086)"/><rect class="al" width="6.589" height="11.532" transform="translate(66.666 5.086)"/><rect class="at" width="6.589" height="11.532" transform="translate(79.252 5.086)"/><rect class="al" width="6.589" height="11.532" transform="translate(91.837 5.086)"/><rect class="al" width="6.589" height="11.532" transform="translate(91.837 19.929)"/><rect class="as" width="6.589" height="11.532" transform="translate(79.252 19.929)"/><rect class="al" width="6.589" height="11.532" transform="translate(66.666 19.929)"/><rect class="au" width="6.589" height="11.532" transform="translate(54.022 19.929)"/><rect class="al" width="6.589" height="11.532" transform="translate(41.436 19.929)"/><rect class="as" width="6.589" height="11.532" transform="translate(41.436 34.714)"/><rect class="al" width="6.589" height="11.532" transform="translate(54.022 34.714)"/><rect class="al" width="6.589" height="11.532" transform="translate(66.666 34.714)"/><rect class="al" width="6.589" height="11.532" transform="translate(79.252 34.714)"/><rect class="al" width="6.589" height="11.532" transform="translate(91.837 34.714)"/><rect class="al" width="6.589" height="11.532" transform="translate(91.837 49.557)"/><rect class="as" width="6.589" height="11.532" transform="translate(79.252 49.557)"/><rect class="as" width="6.589" height="11.532" transform="translate(66.666 49.557)"/><rect class="al" width="6.589" height="11.532" transform="translate(54.022 49.557)"/><rect class="al" width="6.589" height="11.532" transform="translate(41.436 49.557)"/><rect class="al" width="6.589" height="11.532" transform="translate(41.436 63.869)"/><rect class="al" width="6.589" height="11.532" transform="translate(54.022 63.869)"/><rect class="al" width="6.589" height="11.532" transform="translate(66.666 63.869)"/><rect class="at" width="6.589" height="11.532" transform="translate(79.252 63.869)"/><rect class="al" width="6.589" height="11.532" transform="translate(91.837 63.869)"/><rect class="al" width="6.589" height="11.532" transform="translate(91.837 78.712)"/><rect class="as" width="6.589" height="11.532" transform="translate(79.252 78.712)"/><rect class="al" width="6.589" height="11.532" transform="translate(66.666 78.712)"/><rect class="au" width="6.589" height="11.532" transform="translate(54.022 78.712)"/><rect class="al" width="6.589" height="11.532" transform="translate(41.436 78.712)"/><rect class="as" width="6.589" height="11.532" transform="translate(41.436 93.556)"/><rect class="al" width="6.589" height="11.532" transform="translate(54.022 93.556)"/><rect class="al" width="6.589" height="11.532" transform="translate(66.666 93.556)"/><rect class="al" width="6.589" height="11.532" transform="translate(79.252 93.556)"/><rect class="al" width="6.589" height="11.532" transform="translate(91.837 93.556)"/><rect class="e" width="73.078" height="3.312" transform="translate(33.838 16.618)"/><rect class="e" width="73.078" height="3.312" transform="translate(33.838 46.246)"/><rect class="e" width="73.078" height="3.312" transform="translate(33.838 31.402)"/><rect class="e" width="73.078" height="3.312" transform="translate(33.838 75.46)"/><rect class="e" width="73.078" height="3.312" transform="translate(33.838 60.616)"/><rect class="e" width="73.078" height="3.312" transform="translate(33.838 90.244)"/><rect class="av" width="69.397" height="3.312" transform="translate(35.678 5.086)"/><path class="av" d="M495.229,421.212H462.4V417.9h69.456v3.312H495.229" transform="translate(-426.722 -397.852)"/><rect class="av" width="69.397" height="3.312" transform="translate(35.678 34.714)"/><rect class="av" width="69.397" height="3.312" transform="translate(35.678 49.676)"/><rect class="av" width="69.397" height="3.312" transform="translate(35.678 63.928)"/><rect class="av" width="69.397" height="3.312" transform="translate(35.678 78.89)"/><rect class="av" width="69.397" height="3.312" transform="translate(35.678 93.556)"/><path class="aw" d="M537.7,512.5" transform="translate(-457.32 -436.508)"/><rect class="e" width="73.078" height="5.263" transform="translate(33.838)"/></g></g><g transform="translate(370.494 304.5)"><rect class="aq" width="18.997" height="3.134"/></g><g transform="translate(357.849 304.5)"><rect class="ar" width="13.891" height="3.134"/></g><rect class="e" width="114.752" height="3.844" transform="translate(272.839 304.441)"/><g transform="translate(0 300.065)"><rect class="ax" width="534.28" height="58.665"/></g><rect class="ay" width="534.28" height="10.29" transform="translate(0 292.909)"/><g transform="translate(16.266 273.039)"><path class="ay" d="M73.289,478.14a15.83,15.83,0,0,1-.534,4.14H27.4v-.71a11.834,11.834,0,0,1,.89-4.613,13,13,0,0,1,12.11-8.279,14.4,14.4,0,0,1,2.79.3,16.594,16.594,0,0,1,11.754-7.156c.653-.059,1.306-.118,1.9-.118A16.462,16.462,0,0,1,73.289,478.14Z" transform="translate(-27.4 -461.7)"/></g><g transform="translate(130.543 273.039)"><path class="ay" d="M265.789,478.14a15.83,15.83,0,0,1-.534,4.14H219.9v-.71a11.834,11.834,0,0,1,.89-4.613,13,13,0,0,1,12.11-8.279,14.4,14.4,0,0,1,2.79.3,16.594,16.594,0,0,1,11.754-7.156c.653-.059,1.306-.118,1.9-.118A16.462,16.462,0,0,1,265.789,478.14Z" transform="translate(-219.9 -461.7)"/></g><g transform="translate(56.693 280.549)"><path class="ay" d="M95.5,484.808a10.253,10.253,0,0,0,.356,2.661h28.732v-.414a8.17,8.17,0,0,0-8.192-8.22,9.1,9.1,0,0,0-1.781.177,10.539,10.539,0,0,0-7.421-4.554,8.8,8.8,0,0,0-1.247-.059A10.482,10.482,0,0,0,95.5,484.808Z" transform="translate(-95.5 -474.4)"/></g><rect class="az" width="534.28" height="7.57" transform="translate(0 351.16)"/><ellipse class="az" cx="28.792" cy="4.317" rx="28.792" ry="4.317" transform="translate(162.065 320.94)"/><path class="ba" d="M350.093,320.964a67.956,67.956,0,0,0-15.494-41.1c-4.571-25.725-24.814-45.063-49.154-45.063-27.664,0-50.1,25.074-50.1,56a60.8,60.8,0,0,0,1.425,13.247A52.541,52.541,0,0,0,222.4,340.716c0,27.558,20.006,49.971,44.7,49.971a40.072,40.072,0,0,0,16.147-3.371,54.073,54.073,0,0,0,9.32.828,51.591,51.591,0,0,0,21.905-4.849c.594.059,1.187.059,1.781.059,21.074,0,38.112-19.1,38.112-42.638A46.072,46.072,0,0,0,350.093,320.964Z" transform="translate(-90.373 -95.945)"/><line class="bb" y2="89.83" transform="translate(198.04 231.465)"/><line class="bc" y1="27.262" x2="15.969" transform="translate(197.921 260.147)"/><path class="bd" d="M347.8,320.771a29.441,29.441,0,0,0,1.959-10.586c0-9.4-4.334-17.682-10.923-22.413-1.365-21.763-17.572-38.972-37.4-38.972-19.293,0-35.2,16.322-37.281,37.316C253.827,293.567,247,306.578,247,321.3c0,23.123,16.8,41.929,37.518,41.929,10.686,0,20.3-5.027,27.13-13.01,2.553,11.887,12.11,20.7,23.508,20.7,13.357,0,24.221-12.123,24.221-27.026C359.436,334.077,354.747,325.5,347.8,320.771Z" transform="translate(-100.37 -101.665)"/><path class="be" d="M356.615,270.866a31.091,31.091,0,0,0-23.568-21.112c-4.037-.769-5.758,5.382-1.722,6.15a24.681,24.681,0,0,1,19.115,16.677C351.747,276.484,357.861,274.829,356.615,270.866Z" transform="translate(-133.701 -102.028)"/><path class="be" d="M379.874,308.763c-.237-1.064-.416-2.129-.653-3.193a3.247,3.247,0,0,0-3.918-2.247,3.282,3.282,0,0,0-2.256,3.9c.237,1.064.416,2.129.653,3.193a3.2,3.2,0,0,0,6.174-1.656Z" transform="translate(-151.558 -123.898)"/><path class="az" d="M177.27,574.421c0,2.247-14.01,4.021-31.285,4.021s-31.285-1.833-31.285-4.021c0-2.247,14.01-4.021,31.285-4.021S177.27,572.233,177.27,574.421Z" transform="translate(-46.609 -233.079)"/><path class="bf" d="M196.68,370.471c0-31.757-23.033-55.471-51.469-55.471-16.147,0-30.513,6.269-39.952,19.22C82.225,335.994,64,357.4,64,383.6c0,25.252,16.978,46.127,38.884,49.084a43.068,43.068,0,0,0,22.5,6.387,44.115,44.115,0,0,0,30.157-12.242C178.989,421.507,196.68,398.325,196.68,370.471Z" transform="translate(-26.007 -128.716)"/><line class="bb" y2="89.83" transform="translate(111.724 247.787)"/><line class="bc" x1="19.056" y1="33.058" transform="translate(91.065 273.453)"/><path class="bd" d="M198.058,381.821c6.708-25.725-4.927-48.907-27.9-54.88-16.681-4.317-35.441.473-46.245,14.548C108.655,343.8,95,356.1,90.489,373.482c-5.877,22.531,4.63,40.214,24.755,45.418,10.329,2.661,26.833-.414,31.938-5.914C165.882,421.857,191.528,406.9,198.058,381.821Z" transform="translate(-36.112 -132.969)"/><path class="be" d="M222.768,342.425a24.153,24.153,0,0,0-16.5-12.478c-4.037-.828-5.7,5.263-1.722,6.15a18.027,18.027,0,0,1,12.645,9.58C219.146,349.285,224.667,346.032,222.768,342.425Z" transform="translate(-82.193 -134.792)"/><path class="be" d="M246.487,372.856a3.184,3.184,0,0,0-4.512,4.494l.178.355h0v.059a.748.748,0,0,1,.059.355h0c0,.118,0,.3-.059.355a.641.641,0,0,1,.059-.3h0c-.237,1.6.416,3.489,2.256,3.844,1.543.355,3.621-.473,3.918-2.247A7.8,7.8,0,0,0,246.487,372.856Z" transform="translate(-97.957 -151.977)"/><g transform="translate(354.287 342.112)"><line class="bg" x1="4.809" transform="translate(0 0)"/></g><path class="bd" d="M236.368,464.462a10.1,10.1,0,0,0-6.768,1.183s2.315,3.312,5.758,4.14a10.1,10.1,0,0,0,6.768-1.183S239.811,465.29,236.368,464.462Z" transform="translate(-93.299 -189.708)"/><path class="bd" d="M227.025,468.013a11.533,11.533,0,0,0-5.462-4.613,14,14,0,0,0,1.425,7.51,11.533,11.533,0,0,0,5.462,4.613A13.94,13.94,0,0,0,227.025,468.013Z" transform="translate(-90.012 -189.356)"/><path class="bd" d="M422.068,377.32a10.327,10.327,0,0,1-6.768-1.36A11.063,11.063,0,0,1,421.177,372a10.326,10.326,0,0,1,6.768,1.36A11.743,11.743,0,0,1,422.068,377.32Z" transform="translate(-168.759 -151.946)"/><path class="bd" d="M420.655,365.651a10.908,10.908,0,0,1-5.58,4.435,13.792,13.792,0,0,1,1.543-7.451,10.908,10.908,0,0,1,5.58-4.435A13.193,13.193,0,0,1,420.655,365.651Z" transform="translate(-168.653 -146.369)"/><g transform="translate(311.664 257.249)"><path class="bh" d="M598.4,548.9l15.494,27.676L630.4,548.9" transform="translate(-554.826 -481.542)"/><ellipse class="bi" cx="32.057" cy="31.934" rx="32.057" ry="31.934" transform="translate(43.514 14.43)"/><path class="bd" d="M601,484.531c0,15.494,12.585,23.714,28.139,23.714s28.139-8.22,28.139-23.714a28.139,28.139,0,0,0-56.278,0Z" transform="translate(-555.883 -443.785)"/><ellipse class="bj" cx="39.299" cy="39.149" rx="39.299" ry="39.149" transform="translate(5.58)"/><path class="bd" d="M556.7,469.991c0,19.279,15.672,29.51,35.025,29.51s35.025-10.231,35.025-29.51a35.025,35.025,0,0,0-70.05,0Z" transform="translate(-537.881 -435.041)"/><path class="bd" d="M679.286,503.706c-3.74,5.677-2.85,12.833-2.85,12.833s6.886-2.07,10.626-7.806c3.74-5.677,2.85-12.833,2.85-12.833S683.026,497.97,679.286,503.706Z" transform="translate(-586.499 -459.885)"/><path class="bd" d="M683.36,521.8c-6.708,1.36-11.16,6.978-11.16,6.978s6.352,3.43,13,2.129c6.708-1.36,11.161-6.978,11.161-6.978S690.069,520.5,683.36,521.8Z" transform="translate(-584.816 -470.347)"/><path class="bk" d="M539.01,521.647c6.233,3.9,8.667,11.3,8.667,11.3s-7.717,1.065-14.01-2.839c-6.233-3.9-8.667-11.3-8.667-11.3S532.777,517.744,539.01,521.647Z" transform="translate(-525 -469.192)"/><path class="bk" d="M598.314,557.072c7.183-1.715,14.188,1.774,14.188,1.774s-4.63,6.269-11.814,7.984-14.188-1.774-14.188-1.774S591.13,558.787,598.314,557.072Z" transform="translate(-549.991 -484.688)"/><path class="be" d="M627.352,453.149a39.859,39.859,0,0,0-13.3-8.93c-4.63-1.892-10.626-3.607-15.554-1.833-3.859,1.36-2.2,7.51,1.722,6.15,3.8-1.36,8.667.355,12.229,1.892A32.877,32.877,0,0,1,622.9,457.7C625.69,460.541,630.2,456.047,627.352,453.149Z" transform="translate(-553.978 -437.714)"/><path class="be" d="M663.36,471.864a6.632,6.632,0,0,0-6.293-1.538,3.232,3.232,0,0,0-2.256,3.9,3.3,3.3,0,0,0,3.918,2.247c.059,0,.119,0,.119-.059h0c.059,0,.059.059.119.059l-.059-.059a3.206,3.206,0,0,0,4.334-.118A3,3,0,0,0,663.36,471.864Z" transform="translate(-577.697 -449.333)"/></g><line class="bl" x1="7.124" y1="7.984" transform="translate(188.245 268.071)"/><path class="bd" d="M91.911,407.461a13.215,13.215,0,0,1,3.265,6.742,10.355,10.355,0,0,1-6.411-2.661A13.215,13.215,0,0,1,85.5,404.8,10.467,10.467,0,0,1,91.911,407.461Z" transform="translate(-34.743 -165.411)"/><path class="bd" d="M89.074,418.075a10.374,10.374,0,0,1,6.589,2.07s-2.671,2.957-6.174,3.253a10.373,10.373,0,0,1-6.589-2.07A10.849,10.849,0,0,1,89.074,418.075Z" transform="translate(-33.687 -170.821)"/><path class="bd" d="M267.811,296.661a13.215,13.215,0,0,1,3.265,6.742,10.355,10.355,0,0,1-6.411-2.661A13.215,13.215,0,0,1,261.4,294,10.355,10.355,0,0,1,267.811,296.661Z" transform="translate(-106.221 -120.135)"/><path class="bd" d="M264.974,307.375a10.374,10.374,0,0,1,6.589,2.07s-2.671,2.957-6.174,3.253a10.373,10.373,0,0,1-6.589-2.07S261.471,307.671,264.974,307.375Z" transform="translate(-105.165 -125.586)"/><g transform="translate(0 358.729)"><rect class="bm" width="534.28" height="193.071"/><g transform="translate(237.072 76.19)"><path class="bn" d="M651.965,651.432h-9.676c-3.918,0-3.918-6.032,0-6.032h9.676c3.918,0,3.918,6.032,0,6.032Z" transform="translate(-639.35 -645.4)"/></g><g transform="translate(382.515 120.543)"><path class="bn" d="M651.965,651.432h-9.676c-3.918,0-3.918-6.032,0-6.032h9.676c3.918,0,3.918,6.032,0,6.032Z" transform="translate(-639.35 -645.4)"/></g><g transform="translate(266.636 76.19)"><path class="bn" d="M736.315,651.432H692.089c-3.918,0-3.918-6.032,0-6.032h44.227c3.859,0,3.859,6.032,0,6.032Z" transform="translate(-689.15 -645.4)"/></g><g transform="translate(412.079 120.543)"><path class="bn" d="M736.315,651.432H692.089c-3.918,0-3.918-6.032,0-6.032h44.227c3.859,0,3.859,6.032,0,6.032Z" transform="translate(-689.15 -645.4)"/></g><g transform="translate(93.766 133.864)"><path class="bn" d="M170.565,655.932h-9.676c-3.918,0-3.918-6.032,0-6.032h9.676c3.918,0,3.918,6.032,0,6.032Z" transform="translate(-157.95 -649.9)"/></g><g transform="translate(123.27 133.864)"><path class="bn" d="M254.815,655.932H210.589c-3.918,0-3.918-6.032,0-6.032h44.227c3.918,0,3.918,6.032,0,6.032Z" transform="translate(-207.65 -649.9)"/></g><g transform="translate(287.057 21.779)"><path class="bn" d="M736.165,633.832h-9.676c-3.918,0-3.918-6.032,0-6.032h9.676c3.859,0,3.859,6.032,0,6.032Z" transform="translate(-723.55 -627.8)"/></g><g transform="translate(432.5 66.132)"><path class="bn" d="M736.165,633.832h-9.676c-3.918,0-3.918-6.032,0-6.032h9.676c3.859,0,3.859,6.032,0,6.032Z" transform="translate(-723.55 -627.8)"/></g></g><g transform="translate(91.555 366.299)"><g class="bo"><path class="bp" d="M157.119,625.432h57.465c3.859,0,3.918-6.032,0-6.032H157.119c-3.859.059-3.859,6.032,0,6.032Z" transform="translate(-154.225 -619.4)"/></g></g><g transform="translate(419.885 311.833)"><path class="bk" d="M796.881,559.294a30.651,30.651,0,0,1-1.069,8.1H707.359c0-.414-.059-.887-.059-1.36a25.134,25.134,0,0,1,25.289-25.193,23.785,23.785,0,0,1,5.462.591,31.888,31.888,0,0,1,22.915-13.9c1.247-.118,2.493-.237,3.74-.237A32.052,32.052,0,0,1,796.881,559.294Z" transform="translate(-707.3 -527.3)"/><path class="bd" d="M800.287,543.885a30.61,30.61,0,0,1-27.961,17.446,31.609,31.609,0,0,1-15.257-3.9,31.84,31.84,0,0,1-30.87-.177,25.286,25.286,0,0,1,23.627-16.145,23.785,23.785,0,0,1,5.462.591A31.888,31.888,0,0,1,778.2,527.8,27.769,27.769,0,0,1,800.287,543.885Z" transform="translate(-714.98 -527.504)"/></g><g transform="translate(468.208 273.039)"><path class="ay" d="M788.7,478.14a15.83,15.83,0,0,0,.534,4.14h45.354v-.71a11.834,11.834,0,0,0-.89-4.613,13,13,0,0,0-12.11-8.279,14.4,14.4,0,0,0-2.79.3,16.594,16.594,0,0,0-11.754-7.156c-.653-.059-1.306-.118-1.9-.118A16.462,16.462,0,0,0,788.7,478.14Z" transform="translate(-788.7 -461.7)"/></g><g transform="translate(444.581 280.549)"><path class="ay" d="M777.989,484.808a10.259,10.259,0,0,1-.356,2.661H748.9v-.414a8.17,8.17,0,0,1,8.192-8.22,9.1,9.1,0,0,1,1.781.177,10.538,10.538,0,0,1,7.421-4.554,8.8,8.8,0,0,1,1.247-.059A10.444,10.444,0,0,1,777.989,484.808Z" transform="translate(-748.9 -474.4)"/></g><g transform="translate(144.256 226.497)"><path class="be" d="M243,383Z" transform="translate(-243 -383)"/></g><path class="be" d="M822.829,538.85a18.7,18.7,0,0,0-5.105-4.021,3.2,3.2,0,1,0-3.265,5.5c.416.236.772.414,1.187.65a3.292,3.292,0,0,1,.475.355c.059.059.237.177.3.237a17.263,17.263,0,0,1,1.84,1.774,3.253,3.253,0,0,0,4.512,0A3.169,3.169,0,0,0,822.829,538.85Z" transform="translate(-330.341 -218.383)"/><path class="be" d="M802.162,529.446a3.532,3.532,0,0,0-2.256-.946,3.237,3.237,0,0,0-3.206,3.193v.3a3.225,3.225,0,0,0,.95,2.247,3.532,3.532,0,0,0,2.256.946,3.238,3.238,0,0,0,3.206-3.193v-.3A3.121,3.121,0,0,0,802.162,529.446Z" transform="translate(-323.743 -215.957)"/></g><g transform="translate(0 0.146)"><g class="bq" transform="translate(0)"><path class="br" d="M640.714,259.643V508.149H0V249.642S134.692,232.1,320.357,232.1a1965.418,1965.418,0,0,1,218.257,12c63.021,7.232,99.938,15.08,102.1,15.541Z" transform="translate(-11.43 125.04)"/></g><g class="bq" transform="translate(0)"><path class="bs" d="M640.714,259.589v6.155s-68.891-12.771-233.858-21.388C241.89,235.893,0,272.053,0,272.053V249.742S134.692,232.2,320.357,232.2a1965.425,1965.425,0,0,1,218.257,12c62.558,8,99.938,14.926,102.1,15.387Z" transform="translate(-11.43 125.094)"/></g><g class="bq" transform="translate(0)"><path class="bt" d="M0,298.6l59.777-8.617L76.15,250.9,0,261.979Z" transform="translate(-11.43 135.168)"/></g><g class="bq" transform="translate(0)"><path class="bu" d="M277.809,310.4H38.7c.463-2.154,21.934-97.4,119.555-97.4,5.252,0,10.5.308,15.292.769,57.769,5.539,84.028,42.161,95.613,68.627,6.333,14.618,8.341,26.312,8.5,27.851l.154.154Z" transform="translate(9.647 114.75)"/><g transform="translate(101.791 351.563)"><path class="bt" d="M154.19,260.02a20.583,20.583,0,0,1-.618,5.386,26.68,26.68,0,0,1-45.721,12.464A26.169,26.169,0,0,1,100.9,261.4v-1.539a26.608,26.608,0,0,1,49.428-13.541A26.157,26.157,0,0,1,154.19,260.02Z" transform="translate(-58.268 -225.822)"/><path class="bv" d="M24.2.046A24.2,24.2,0,1,1,.046,24.2,24.317,24.317,0,0,1,24.2.046Z" transform="translate(35.073 34.164) rotate(-45)"/><path class="bt" d="M109.444,260.449a7.465,7.465,0,0,1-.154,1.846,18.066,18.066,0,0,1-31.665,9.694,19.436,19.436,0,0,1-3.707-7.078,20.733,20.733,0,0,1-.618-4.462A17.931,17.931,0,0,1,91.372,242.6a18.25,18.25,0,0,1,15.446,8.771h0A16.1,16.1,0,0,1,109.444,260.449Z" transform="translate(-73.3 -220.866)"/><ellipse class="bv" cx="16.373" cy="16.311" rx="16.373" ry="16.311" transform="translate(1.854 23.273)"/><path class="bt" d="M173.835,260.5a17.9,17.9,0,0,1-17.918,17.849,18.337,18.337,0,0,1-9.577-2.77,1.541,1.541,0,0,1-.772-.615,18.827,18.827,0,0,1-5.87-7.078,16.386,16.386,0,0,1-1.545-5.539,8.741,8.741,0,0,1-.154-2,17.9,17.9,0,0,1,34.754-6,15.083,15.083,0,0,1,.772,2.462v.154A13.727,13.727,0,0,1,173.835,260.5Z" transform="translate(-38.062 -220.92)"/><ellipse class="bv" cx="16.373" cy="16.311" rx="16.373" ry="16.311" transform="translate(101.482 23.273)"/><path class="bw" d="M121.948,259.25,109.9,240.169l.772-.769,14.211,17.7Z" transform="translate(-53.366 -222.59)"/><path class="bw" d="M83.9,260.664,86.989,248.2h.463l-1.545,12.771Z" transform="translate(-67.527 -217.849)"/><path class="bw" d="M154.612,256.724,142.1,254.262V253.8l12.82.769Z" transform="translate(-35.829 -214.832)"/><path class="bw" d="M118.409,238.162a7.02,7.02,0,0,1-.154,2.462,19.7,19.7,0,0,1,0-4.924C118.254,235.854,118.409,236.931,118.409,238.162Z" transform="translate(-48.9 -224.583)"/><path class="bw" d="M116.963,238.262c.154,1.385.154,2.462.154,2.462a6.879,6.879,0,0,1-.463-2.462c-.154-1.385-.154-2.462-.154-2.462A6.878,6.878,0,0,1,116.963,238.262Z" transform="translate(-49.772 -224.529)"/><path class="bw" d="M115.572,238.513c.309,1.385.463,2.462.463,2.462a7.012,7.012,0,0,1-.772-2.308c-.309-1.385-.463-2.462-.463-2.462C114.954,236.051,115.263,237.128,115.572,238.513Z" transform="translate(-50.698 -224.319)"/><path class="bw" d="M114.141,238.908c.463,1.231.772,2.308.618,2.308a7.45,7.45,0,0,1-.927-2.308c-.463-1.231-.772-2.308-.618-2.308A7.45,7.45,0,0,1,114.141,238.908Z" transform="translate(-51.583 -224.098)"/><path class="bw" d="M112.836,239.354c.618,1.231,1.081,2.154.927,2.308a8.318,8.318,0,0,1-1.236-2.154,10.383,10.383,0,0,1-.927-2.308A6.905,6.905,0,0,1,112.836,239.354Z" transform="translate(-52.441 -223.775)"/><path class="bw" d="M111.59,240.1a12.948,12.948,0,0,1,1.236,2.154,8.4,8.4,0,0,1-1.39-2A12.946,12.946,0,0,1,110.2,238.1,8.406,8.406,0,0,1,111.59,240.1Z" transform="translate(-53.203 -223.29)"/><path class="bw" d="M110.506,240.846c.772,1.077,1.545,2,1.39,2,0,0-.772-.769-1.7-1.846-.772-1.077-1.545-2-1.39-2S109.579,239.923,110.506,240.846Z" transform="translate(-53.973 -222.805)"/><path class="bw" d="M109.454,241.739a11.416,11.416,0,0,1,1.7,1.846,13.681,13.681,0,0,1-1.854-1.539,11.415,11.415,0,0,1-1.7-1.846S108.372,240.816,109.454,241.739Z" transform="translate(-54.619 -222.159)"/><path class="bw" d="M108.508,242.893a6.709,6.709,0,0,1,1.854,1.693s-.927-.616-2.008-1.385a6.708,6.708,0,0,1-1.854-1.693C106.5,241.354,107.427,241.97,108.508,242.893Z" transform="translate(-55.218 -221.467)"/><path class="bw" d="M107.662,243.987c1.081.769,2.008,1.385,2.008,1.385a24.068,24.068,0,0,1-2.162-1.077c-1.081-.769-2.008-1.385-2.008-1.385C105.5,242.756,106.427,243.218,107.662,243.987Z" transform="translate(-55.763 -220.715)"/><path class="bw" d="M107.017,245.223a8.362,8.362,0,0,1,2.162,1.231,6.632,6.632,0,0,1-2.317-.923A8.36,8.36,0,0,1,104.7,244.3,15.071,15.071,0,0,1,107.017,245.223Z" transform="translate(-56.199 -219.95)"/><path class="bw" d="M106.417,246.53c1.236.462,2.317.923,2.317.923,0,.154-1.081-.154-2.317-.616s-2.317-.923-2.317-.923C104.1,245.76,105.181,246.068,106.417,246.53Z" transform="translate(-56.525 -219.102)"/><path class="bw" d="M106.071,247.808c1.39.308,2.317.615,2.317.615a12.692,12.692,0,0,1-2.471-.308c-1.39-.308-2.317-.615-2.317-.615S104.681,247.654,106.071,247.808Z" transform="translate(-56.798 -218.226)"/><path class="bw" d="M105.771,249.254a6.949,6.949,0,0,1,2.471.462,7.637,7.637,0,0,1-2.471-.154,6.951,6.951,0,0,1-2.471-.462A22.869,22.869,0,0,1,105.771,249.254Z" transform="translate(-56.961 -217.364)"/><path class="bw" d="M105.671,250.7a7.094,7.094,0,0,1,2.471.154,7.1,7.1,0,0,1-2.471.154,7.1,7.1,0,0,1-2.471-.154A21.1,21.1,0,0,0,105.671,250.7Z" transform="translate(-57.015 -216.502)"/><path class="bw" d="M105.771,252.276a7.636,7.636,0,0,1,2.471-.154,6.951,6.951,0,0,1-2.471.462,7.637,7.637,0,0,1-2.471.154A18.024,18.024,0,0,0,105.771,252.276Z" transform="translate(-56.961 -215.77)"/><path class="bw" d="M119.886,238.262a6.878,6.878,0,0,1-.463,2.462,7.552,7.552,0,0,1,.154-2.462,6.877,6.877,0,0,1,.463-2.462A7.545,7.545,0,0,1,119.886,238.262Z" transform="translate(-48.215 -224.529)"/><path class="bw" d="M121.433,238.562c-.309,1.385-.618,2.308-.618,2.308a12.551,12.551,0,0,1,.309-2.462c.309-1.385.618-2.308.618-2.308C121.9,236.1,121.742,237.177,121.433,238.562Z" transform="translate(-47.445 -224.368)"/><path class="bw" d="M122.941,238.908c-.463,1.231-.927,2.308-.927,2.308-.154,0,.154-1.077.618-2.308s.927-2.308.927-2.308C123.713,236.6,123.4,237.677,122.941,238.908Z" transform="translate(-46.791 -224.098)"/><path class="bw" d="M124.346,239.408a8.318,8.318,0,0,1-1.236,2.154,6.576,6.576,0,0,1,.927-2.308,8.316,8.316,0,0,1,1.236-2.154C125.428,237.254,124.964,238.331,124.346,239.408Z" transform="translate(-46.188 -223.829)"/><path class="bw" d="M125.69,240.054c-.772,1.077-1.39,2-1.39,2a23.893,23.893,0,0,1,1.081-2.154c.772-1.077,1.39-2,1.39-2C126.926,238.054,126.463,238.977,125.69,240.054Z" transform="translate(-45.524 -223.398)"/><path class="bw" d="M126.945,240.9a16.277,16.277,0,0,1-1.545,1.846s.618-.923,1.39-2a16.28,16.28,0,0,1,1.545-1.846S127.717,239.823,126.945,240.9Z" transform="translate(-44.925 -222.859)"/><path class="bw" d="M128.154,241.747a11.431,11.431,0,0,1-1.854,1.693,13.646,13.646,0,0,1,1.545-1.846A11.428,11.428,0,0,1,129.7,239.9C129.853,240.054,129.08,240.823,128.154,241.747Z" transform="translate(-44.434 -222.321)"/><path class="bw" d="M129.208,242.8c-1.081.923-1.854,1.539-2.008,1.385,0,0,.772-.769,1.854-1.693s1.854-1.539,2.008-1.385A6.71,6.71,0,0,1,129.208,242.8Z" transform="translate(-43.944 -221.682)"/><path class="bw" d="M130.162,243.939A8.616,8.616,0,0,1,128,245.17a12.384,12.384,0,0,1,2.008-1.539,8.618,8.618,0,0,1,2.162-1.231A10.966,10.966,0,0,1,130.162,243.939Z" transform="translate(-43.509 -220.974)"/><path class="bw" d="M130.917,245.141c-1.236.615-2.163,1.077-2.317.923a8.364,8.364,0,0,1,2.162-1.231c1.236-.615,2.162-1.077,2.317-.923A22.377,22.377,0,0,1,130.917,245.141Z" transform="translate(-43.182 -220.176)"/><path class="bw" d="M131.517,246.377c-1.236.462-2.317.769-2.317.769a11.819,11.819,0,0,1,2.162-1.077c1.236-.462,2.317-.769,2.317-.769A6.081,6.081,0,0,1,131.517,246.377Z" transform="translate(-42.855 -219.411)"/><path class="bw" d="M131.971,247.684a7.349,7.349,0,0,1-2.471.462,7.072,7.072,0,0,1,2.317-.769,7.348,7.348,0,0,1,2.471-.462C134.288,247.068,133.362,247.376,131.971,247.684Z" transform="translate(-42.692 -218.564)"/><path class="bw" d="M132.271,248.984a7.637,7.637,0,0,1-2.471.154,6.627,6.627,0,0,1,2.317-.462,7.639,7.639,0,0,1,2.471-.154C134.588,248.676,133.662,248.83,132.271,248.984Z" transform="translate(-42.528 -217.71)"/><path class="bw" d="M132.371,250.408H129.9a10,10,0,0,1,2.471-.308h2.471A5.387,5.387,0,0,1,132.371,250.408Z" transform="translate(-42.474 -216.826)"/><path class="bw" d="M132.371,251.948c-1.39-.154-2.471-.308-2.471-.308a5.521,5.521,0,0,1,2.471,0c1.39.154,2.471.308,2.471.308Z" transform="translate(-42.474 -216.058)"/><ellipse class="bt" cx="0.618" cy="0.615" rx="0.618" ry="0.615" transform="translate(68.736 33.582)"/></g><path class="bx" d="M277.809,310.456H217.26s-28.885-40.469-87.735-43.7C71.6,263.524,39.627,308.917,38.7,310.3c.463-2.154,21.934-97.4,119.555-97.4,5.252,0,10.5.308,15.292.769,57.769,5.539,84.028,42.161,95.613,68.627,6.333,14.618,8.341,26.312,8.5,27.851l.154.308Z" transform="translate(9.647 114.696)"/><path class="ao" d="M154.19,255.656a20.582,20.582,0,0,1-.618,5.386l-45.721,12.464a26.169,26.169,0,0,1-6.951-16.464L150.019,241.5l.309.462A26.157,26.157,0,0,1,154.19,255.656Z" transform="translate(43.523 130.104)"/><path class="ao" d="M109.227,257.486a7.463,7.463,0,0,1-.154,1.846l-31.665,9.694a19.437,19.437,0,0,1-3.707-7.078v-.154L106.6,248.1h0A17.908,17.908,0,0,1,109.227,257.486Z" transform="translate(28.709 133.66)"/><path class="ao" d="M173.472,252.87l-27.186,18.619a1.541,1.541,0,0,1-.772-.615,18.828,18.828,0,0,1-5.87-7.078,16.387,16.387,0,0,1-1.545-5.539l34.754-8.155.618,2.77Z" transform="translate(63.784 134.737)"/></g><g class="bq" transform="translate(0)"><path class="bu" d="M24.741,445.685,16.4,378.9S83.9,344.9,182.911,348.283c93.3,3.231,151.992,31.852,151.992,31.852l-9.268,65.55Z" transform="translate(-2.498 187.504)"/></g><g class="bq" transform="translate(0)"><path class="bu" d="M468.991,348.1v97.71H323.641L315.3,379.029C315.454,378.875,377.085,347.793,468.991,348.1Z" transform="translate(160.293 187.532)"/></g><g class="bq" transform="translate(0)"><path class="bv" d="M216.978,322.842,193.5,252.214s37.226-4.462,112.913-2.308c65.184,1.846,114.921,7.694,114.921,7.694l-22.861,67.243Z" transform="translate(93.956 134.316)"/><path class="br" d="M244.9,311.1l-8.5-57.7,92.369,2-8.187,56.933Z" transform="translate(117.321 136.515)"/><path class="bv" d="M246.478,308.194,238.6,254.8l85.573,1.846L316.6,309.425Z" transform="translate(118.519 137.269)"/><path class="bt" d="M247.76,305.7,240.5,256l79.7,1.693L313.1,306.932Z" transform="translate(119.554 137.916)"/><path class="bx" d="M236.4,253.4l1.854,12.772s33.673-3.231,54.835,3.539c27.186,8.771,30.275,23.7,30.275,23.7l5.561-38.161Z" transform="translate(117.321 136.515)"/><path class="bu" d="M208.7,319.888l185.047,4.924L413.21,254.8l-23.015,67.243Z" transform="translate(102.235 137.269)"/><path class="bu" d="M198.3,254.231,217.762,314.7l44.331-3.231L254.216,253Z" transform="translate(96.571 136.299)"/><path class="bu" d="M299.978,254.7l60.55,3.693-20.853,56.779L292.1,310.71Z" transform="translate(147.657 137.215)"/><path class="bt" d="M296.954,257.2l59.005,5.078-.772,2.462L296.8,258.585Z" transform="translate(150.217 138.562)"/><path class="bt" d="M296.055,263.4l56.843,5.232-.154.616L295.9,265.093Z" transform="translate(149.727 141.902)"/><path class="bt" d="M295.2,269l54.68,6.155-.618,1.693L295.2,269.616Z" transform="translate(149.345 144.919)"/><path class="bt" d="M294.509,275l52.672,5.539-.309,1.077L294.2,277.154Z" transform="translate(148.801 148.151)"/><path class="bt" d="M293.609,281.5l51.127,3.693-.309.769L293.3,282.885Z" transform="translate(148.311 151.653)"/><path class="bt" d="M340.947,293.463,292.754,287l-.154.615L340.484,295Z" transform="translate(147.929 154.616)"/><path class="bt" d="M254.389,257.1H199.4l.463,1.539,54.68-.769Z" transform="translate(97.17 138.508)"/><path class="bt" d="M254.054,261.9,202,266.824l.618,2,51.591-6.155Z" transform="translate(98.586 141.094)"/><path class="bt" d="M253.955,265.8,203.6,272.417l.154.769,50.355-5.847Z" transform="translate(99.457 143.195)"/><path class="bt" d="M254.428,271.6,205,276.062l.309.923,49.274-3.847Z" transform="translate(100.22 146.32)"/><path class="bt" d="M254.575,278.1,207,282.255l.154.462,47.729-3.385Z" transform="translate(101.309 149.822)"/><path class="bt" d="M208.7,286.839l46.494-1.539v.462l-45.876,2.616Z" transform="translate(102.235 153.7)"/><path class="ao" d="M243.626,297.707,241,280.166,308.809,255.7l14.056.462-1.7,11.387Z" transform="translate(119.826 137.754)"/></g><g class="bq" transform="translate(0)"><path class="bv" d="M247.417,448.242,227.8,343.3h61.631c40.315,0,63.021.923,63.021.923l-19,104.172H247.417Z" transform="translate(112.637 184.947)"/><g transform="translate(313.406 462.081)"><path class="bv" d="M210.3,300.3l13.284,40.623s15.6,15.387,73.216,15.387,73.061-10.771,73.061-10.771l16.991-40.161Z" transform="translate(-210.3 -300.3)"/><path class="bt" d="M219.315,317.857,213.6,301.7l167.284,5.386-6.024,14Z" transform="translate(-208.503 -299.546)"/><path class="bx" d="M252.577,334.153c-2.471,5.232-10.5,6.463-17.763,2.924s-11.121-10.617-8.65-15.849,10.5-6.463,17.763-2.924S255.048,328.921,252.577,334.153Z" transform="translate(-202.067 -291.684)"/><g transform="translate(22.861 22.927)"><path class="bu" d="M245.489,325.356A10.195,10.195,0,1,1,235.295,315.2,10.265,10.265,0,0,1,245.489,325.356Z" transform="translate(-225.1 -315.2)"/><path class="bv" d="M238.386,323.524a4.943,4.943,0,1,1-4.943-4.924A4.87,4.87,0,0,1,238.386,323.524Z" transform="translate(-223.248 -313.368)"/></g><path class="bx" d="M271.777,334.153c-2.471,5.232-10.5,6.463-17.763,2.924s-11.121-10.617-8.65-15.849,10.5-6.463,17.763-2.924C270.541,321.843,274.4,328.921,271.777,334.153Z" transform="translate(-191.61 -291.684)"/><g transform="translate(52.672 22.927)"><path class="bu" d="M264.789,325.356A10.195,10.195,0,1,1,254.595,315.2,10.265,10.265,0,0,1,264.789,325.356Z" transform="translate(-244.4 -315.2)"/><path class="bv" d="M257.686,323.524a4.943,4.943,0,1,1-4.943-4.924A4.87,4.87,0,0,1,257.686,323.524Z" transform="translate(-242.548 -313.368)"/></g><path class="bx" d="M329.576,334.153c-2.471,5.232-10.5,6.463-17.763,2.924s-11.121-10.617-8.65-15.849,10.5-6.463,17.763-2.924C328.341,321.843,332.2,328.921,329.576,334.153Z" transform="translate(-160.13 -291.684)"/><g transform="translate(141.952 22.927)"><path class="bu" d="M322.589,325.356A10.195,10.195,0,1,1,312.395,315.2,10.265,10.265,0,0,1,322.589,325.356Z" transform="translate(-302.2 -315.2)"/><path class="bv" d="M315.486,323.524a4.943,4.943,0,1,1-4.943-4.924A4.87,4.87,0,0,1,315.486,323.524Z" transform="translate(-300.348 -313.368)"/></g></g><path class="bu" d="M251.676,441.615,240.4,355.6h83.1l-10.658,86.015Z" transform="translate(119.5 191.573)"/><path class="bt" d="M248.571,385.082,244.4,358l71.362,1.385-4.016,25.7Z" transform="translate(121.678 192.866)"/><path class="bu" d="M300.371,447.918,315.2,343.9l-19,104.018Z" transform="translate(149.89 185.27)"/></g><g class="bq" transform="translate(0)"><path class="by" d="M138.135,438.306s-.772-61.549,2.008-69.4c2.78-8,40.006-9.694,47.729-3.077,7.569,6.77,25.178,72.474,25.178,72.474Z" transform="translate(63.749 194.883)"/></g><g class="bq" transform="translate(0)"><path class="by" d="M124.415,438.289s.772-61.549-2.008-69.4S82.4,359.2,74.678,365.815c-7.569,6.77-25.178,72.474-25.178,72.474Z" transform="translate(15.529 194.899)"/></g><g class="bq" transform="translate(0)"><path class="bx" d="M219.857,230.9S306.82,284.91,340.8,375.695c27.8,74.321,27.8,133.1,27.8,133.1H135.366S116.212,493.1,94.9,460.017c-21.161-32.775-41.4-84.323-41.4-84.323s57.924,42.469,126.505,12.618C261.562,352.922,219.857,230.9,219.857,230.9Z" transform="translate(17.708 124.393)"/></g><g class="bq" transform="translate(0)"><g transform="translate(56.534 332.212)"><path class="bv" d="M156.6,215.9C94.355,215.9,44,266.217,44,328.074S94.509,440.247,156.6,440.247s112.6-50.317,112.6-112.174S218.7,215.9,156.6,215.9Zm0,203.421c-50.51,0-91.6-40.776-91.6-91.247a91.6,91.6,0,0,1,183.193,0C248.2,378.544,207.113,419.32,156.6,419.32Z" transform="translate(-44 -215.9)"/><path class="bt" d="M146.876,401.648c50.51,0,91.6-40.776,91.6-91.247a91.556,91.556,0,0,0-16.064-51.7,90.4,90.4,0,0,1,12.666,46.162c0,50.317-40.933,91.247-91.6,91.247A91.457,91.457,0,0,1,68.1,356.563,90.8,90.8,0,0,0,146.876,401.648Z" transform="translate(-30.874 -192.842)"/><path class="bt" d="M47.4,333.459c0-62.011,50.509-112.174,112.6-112.174a112.969,112.969,0,0,1,93.3,49.239A112.458,112.458,0,0,0,156.6,215.9C94.355,215.9,44,266.217,44,328.074a110.948,110.948,0,0,0,19.462,63.088A109.945,109.945,0,0,1,47.4,333.459Z" transform="translate(-44 -215.9)"/><path class="bz" d="M152.149,229.617c-52.981-1.693-96.231,41.392-94.532,94.17,1.545,47.7,40.624,86.631,88.507,88.169,52.981,1.693,96.231-41.392,94.532-94.171C239.112,270.086,200.032,231.156,152.149,229.617Zm-2.935,4.155a87.542,87.542,0,0,1,83.719,62.165,10.889,10.889,0,0,1-9.268,13.695l-44.177,5.232h0a33.078,33.078,0,0,0-61.631,2.924H71.21a8.479,8.479,0,0,1-8.341-9.694A87.014,87.014,0,0,1,149.214,233.771ZM71.055,359.64a10.152,10.152,0,0,1,6.487-14.464l39.079-10.156h0a32.73,32.73,0,0,0,25.332,25.235h0l-5.1,36.006a9.621,9.621,0,0,1-12.2,7.848A87.152,87.152,0,0,1,71.055,359.64ZM171.92,393.8l-11.894-34.621a33.063,33.063,0,0,0,21.779-26.159l42.786,2A8.614,8.614,0,0,1,232.47,346.1a87.459,87.459,0,0,1-46.957,53.548A9.857,9.857,0,0,1,171.92,393.8Z" transform="translate(-36.61 -208.536)"/><path class="bv" d="M26.209.05A26.209,26.209,0,1,1,.05,26.209,26.33,26.33,0,0,1,26.209.05Z" transform="translate(75.418 119.058) rotate(-45)"/><path class="bt" d="M103,304.613a26.187,26.187,0,0,1,26.259-26.158,25.8,25.8,0,0,1,12.357,3.077,26.509,26.509,0,0,0-15.755-5.232,26.186,26.186,0,0,0-12.2,49.393A25.7,25.7,0,0,1,103,304.613Z" transform="translate(-13.718 -183.361)"/><path class="bt" d="M138,289.5l49.737-6,.618,16.157-49.583-1.077Z" transform="translate(7.196 -179.482)"/><path class="bt" d="M111.167,289.5H65.6l1.545,19.388,44.022-11.848Z" transform="translate(-32.236 -176.249)"/><path class="bt" d="M116.9,315.516l9.731-.615,10.812,42.161L111.8,358.6Z" transform="translate(-7.074 -162.566)"/></g></g></g><g transform="translate(139.302 323.133)"><g class="b"><ellipse class="cc" cx="50.531" cy="50.338" rx="50.531" ry="50.338"/><ellipse class="cd" cx="50.531" cy="50.338" rx="50.031" ry="49.838"/></g><g class="ca" transform="translate(1.472 1.606)"><g transform="translate(-125.136 -338.164)"><g class="cb" transform="translate(0)"><path class="br" d="M631.253,259.55V507.214H0V249.582S132.7,232.1,315.627,232.1a1914.535,1914.535,0,0,1,215.034,11.961c62.091,7.208,98.462,15.029,100.593,15.489Z" transform="translate(-11.262 123.831)"/></g><g class="cb" transform="translate(0)"><path class="bs" d="M631.253,259.5v6.134s-67.873-12.728-230.4-21.316C238.318,235.88,0,271.918,0,271.918V249.682S132.7,232.2,315.627,232.2a1914.543,1914.543,0,0,1,215.034,11.961c61.634,7.974,98.462,14.875,100.593,15.335Z" transform="translate(-11.262 123.884)"/></g><g class="cb" transform="translate(0)"><path class="bt" d="M0,298.439l58.895-8.588L75.026,250.9,0,261.941Z" transform="translate(-11.262 133.861)"/></g><g class="cb" transform="translate(0)"><path class="bu" d="M274.279,310.072H38.7C39.157,307.925,60.31,213,156.489,213c5.174,0,10.348.307,15.066.767,56.916,5.521,82.787,42.018,94.2,68.4,6.24,14.568,8.218,26.223,8.37,27.757l.152.153Z" transform="translate(8.933 113.64)"/><g transform="translate(100.288 350.566)"><path class="bt" d="M153.4,259.93a20.739,20.739,0,0,1-.609,5.367A26.233,26.233,0,0,1,100.9,261.31v-1.534a26.252,26.252,0,0,1,52.5.153Z" transform="translate(-58.898 -226.042)"/><path class="bv" d="M24.123.047A23.764,23.764,0,0,1,48.016,23.939,24.207,24.207,0,0,1,23.939,48.016,23.764,23.764,0,0,1,.047,24.123,24.207,24.207,0,0,1,24.123.047Z" transform="translate(34.36 33.855) rotate(-45)"/><path class="bt" d="M108.911,260.389a7.521,7.521,0,0,1-.152,1.84,17.74,17.74,0,0,1-31.2,9.661,19.448,19.448,0,0,1-3.652-7.054,20.89,20.89,0,0,1-.609-4.447,17.737,17.737,0,0,1,33.024-9.048h0A16.181,16.181,0,0,1,108.911,260.389Z" transform="translate(-73.3 -221.133)"/><ellipse class="bv" cx="16.131" cy="16.255" rx="16.131" ry="16.255" transform="translate(1.826 23)"/><path class="bt" d="M173.306,260.442a17.734,17.734,0,0,1-17.653,17.789,17.915,17.915,0,0,1-9.435-2.76,1.521,1.521,0,0,1-.761-.613,18.715,18.715,0,0,1-5.783-7.054,16.476,16.476,0,0,1-1.522-5.521,8.811,8.811,0,0,1-.152-1.994,17.613,17.613,0,0,1,34.241-5.981,15.162,15.162,0,0,1,.761,2.454v.153A13.834,13.834,0,0,1,173.306,260.442Z" transform="translate(-39.538 -221.187)"/><ellipse class="bv" cx="16.131" cy="16.255" rx="16.131" ry="16.255" transform="translate(99.984 23)"/><path class="bw" d="M121.77,259.182,109.9,240.167l.761-.767,14,17.636Z" transform="translate(-54.201 -222.841)"/><path class="bw" d="M83.9,260.621,86.944,248.2H87.4l-1.522,12.728Z" transform="translate(-67.769 -218.146)"/><path class="bw" d="M154.427,256.714,142.1,254.26v-.46l12.631.767Z" transform="translate(-37.398 -215.158)"/><path class="bw" d="M118.4,238.154a7.073,7.073,0,0,1-.152,2.454,19.857,19.857,0,0,1,0-4.907C118.252,235.853,118.4,236.927,118.4,238.154Z" transform="translate(-49.922 -224.815)"/><path class="bw" d="M116.957,238.254c.152,1.38.152,2.454.152,2.454a6.923,6.923,0,0,1-.457-2.454c-.152-1.38-.152-2.454-.152-2.454A6.922,6.922,0,0,1,116.957,238.254Z" transform="translate(-50.757 -224.761)"/><path class="bw" d="M115.561,238.505c.3,1.38.457,2.454.457,2.454a7.04,7.04,0,0,1-.761-2.3c-.3-1.38-.457-2.454-.457-2.454C114.952,236.052,115.257,237.125,115.561,238.505Z" transform="translate(-51.644 -224.553)"/><path class="bw" d="M114.127,238.9c.457,1.227.761,2.3.609,2.3a7.47,7.47,0,0,1-.913-2.3c-.457-1.227-.761-2.3-.609-2.3A7.47,7.47,0,0,1,114.127,238.9Z" transform="translate(-52.493 -224.335)"/><path class="bw" d="M112.817,239.347c.609,1.227,1.065,2.147.913,2.3a8.309,8.309,0,0,1-1.217-2.147,10.42,10.42,0,0,1-.913-2.3A6.9,6.9,0,0,1,112.817,239.347Z" transform="translate(-53.314 -224.014)"/><path class="bw" d="M111.57,240.094a12.947,12.947,0,0,1,1.217,2.147,8.371,8.371,0,0,1-1.37-1.994A12.946,12.946,0,0,1,110.2,238.1,8.373,8.373,0,0,1,111.57,240.094Z" transform="translate(-54.045 -223.534)"/><path class="bw" d="M110.481,240.84c.761,1.073,1.522,1.994,1.37,1.994,0,0-.761-.767-1.674-1.84-.761-1.073-1.522-1.994-1.37-1.994S109.568,239.92,110.481,240.84Z" transform="translate(-54.782 -223.054)"/><path class="bw" d="M109.426,241.734a11.333,11.333,0,0,1,1.674,1.84,13.511,13.511,0,0,1-1.826-1.534,11.334,11.334,0,0,1-1.674-1.84S108.361,240.813,109.426,241.734Z" transform="translate(-55.401 -222.414)"/><path class="bw" d="M108.478,242.888a6.645,6.645,0,0,1,1.826,1.687s-.913-.613-1.978-1.38a6.642,6.642,0,0,1-1.826-1.687C106.5,241.355,107.413,241.968,108.478,242.888Z" transform="translate(-55.975 -221.728)"/><path class="bw" d="M107.631,243.984c1.065.767,1.978,1.38,1.978,1.38a23.6,23.6,0,0,1-2.131-1.073c-1.065-.767-1.978-1.38-1.978-1.38C105.5,242.757,106.413,243.217,107.631,243.984Z" transform="translate(-56.497 -220.984)"/><path class="bw" d="M106.983,245.22a8.217,8.217,0,0,1,2.131,1.227c0,.153-1.065-.307-2.283-.92A8.217,8.217,0,0,1,104.7,244.3,14.742,14.742,0,0,1,106.983,245.22Z" transform="translate(-56.915 -220.226)"/><path class="bw" d="M106.383,246.527c1.217.46,2.283.92,2.283.92,0,.153-1.065-.153-2.283-.613s-2.283-.92-2.283-.92C104.1,245.761,105.165,246.067,106.383,246.527Z" transform="translate(-57.228 -219.387)"/><path class="bw" d="M106.035,247.807c1.37.307,2.283.613,2.283.613a12.366,12.366,0,0,1-2.435-.307c-1.37-.307-2.283-.613-2.283-.613S104.665,247.653,106.035,247.807Z" transform="translate(-57.489 -218.519)"/><path class="bw" d="M105.735,249.253a6.781,6.781,0,0,1,2.435.46,7.439,7.439,0,0,1-2.435-.153,6.782,6.782,0,0,1-2.435-.46A22.276,22.276,0,0,1,105.735,249.253Z" transform="translate(-57.645 -217.666)"/><path class="bw" d="M105.635,250.7a6.913,6.913,0,0,1,2.435.153,6.917,6.917,0,0,1-2.435.153,6.917,6.917,0,0,1-2.435-.153A20.551,20.551,0,0,0,105.635,250.7Z" transform="translate(-57.697 -216.812)"/><path class="bw" d="M105.735,252.275a7.44,7.44,0,0,1,2.435-.153,6.779,6.779,0,0,1-2.435.46,7.441,7.441,0,0,1-2.435.153A17.581,17.581,0,0,0,105.735,252.275Z" transform="translate(-57.645 -216.087)"/><path class="bw" d="M119.878,238.254a6.922,6.922,0,0,1-.457,2.454,7.611,7.611,0,0,1,.152-2.454,6.921,6.921,0,0,1,.457-2.454A7.6,7.6,0,0,1,119.878,238.254Z" transform="translate(-49.265 -224.761)"/><path class="bw" d="M121.423,238.554c-.3,1.38-.609,2.3-.609,2.3a12.645,12.645,0,0,1,.3-2.454c.3-1.38.609-2.3.609-2.3A5.926,5.926,0,0,1,121.423,238.554Z" transform="translate(-48.527 -224.601)"/><path class="bw" d="M122.927,238.9c-.457,1.227-.913,2.3-.913,2.3-.152,0,.152-1.073.609-2.3s.913-2.3.913-2.3C123.688,236.6,123.383,237.674,122.927,238.9Z" transform="translate(-47.901 -224.335)"/><path class="bw" d="M124.328,239.4a8.309,8.309,0,0,1-1.217,2.147,6.6,6.6,0,0,1,.913-2.3,8.308,8.308,0,0,1,1.217-2.147C125.393,237.253,124.936,238.327,124.328,239.4Z" transform="translate(-47.323 -224.068)"/><path class="bw" d="M125.67,240.047c-.761,1.073-1.37,1.994-1.37,1.994a23.933,23.933,0,0,1,1.065-2.147c.761-1.073,1.37-1.994,1.37-1.994C126.887,238.053,126.431,238.973,125.67,240.047Z" transform="translate(-46.687 -223.641)"/><path class="bw" d="M126.922,240.894a16.179,16.179,0,0,1-1.522,1.84s.609-.92,1.37-1.994a16.174,16.174,0,0,1,1.522-1.84S127.683,239.82,126.922,240.894Z" transform="translate(-46.113 -223.107)"/><path class="bw" d="M128.126,241.74a11.306,11.306,0,0,1-1.826,1.687,13.572,13.572,0,0,1,1.522-1.84,11.3,11.3,0,0,1,1.826-1.687C129.8,240.053,129.039,240.82,128.126,241.74Z" transform="translate(-45.643 -222.574)"/><path class="bw" d="M129.178,242.8c-1.065.92-1.826,1.534-1.978,1.38,0,0,.761-.767,1.826-1.687s1.826-1.534,1.978-1.38A6.645,6.645,0,0,1,129.178,242.8Z" transform="translate(-45.174 -221.942)"/><path class="bw" d="M130.131,243.934A8.46,8.46,0,0,1,128,245.16a12.224,12.224,0,0,1,1.978-1.534,8.462,8.462,0,0,1,2.131-1.227A10.826,10.826,0,0,1,130.131,243.934Z" transform="translate(-44.756 -221.24)"/><path class="bw" d="M130.883,245.137c-1.217.613-2.131,1.073-2.283.92a8.221,8.221,0,0,1,2.131-1.227c1.217-.613,2.131-1.073,2.283-.92A21.981,21.981,0,0,1,130.883,245.137Z" transform="translate(-44.443 -220.45)"/><path class="bw" d="M131.483,246.373c-1.217.46-2.283.767-2.283.767a11.6,11.6,0,0,1,2.131-1.073c1.217-.46,2.283-.767,2.283-.767A5.969,5.969,0,0,1,131.483,246.373Z" transform="translate(-44.13 -219.693)"/><path class="bw" d="M131.935,247.681a7.166,7.166,0,0,1-2.435.46,6.916,6.916,0,0,1,2.283-.767,7.164,7.164,0,0,1,2.435-.46C134.218,247.068,133.3,247.374,131.935,247.681Z" transform="translate(-43.973 -218.854)"/><path class="bw" d="M132.235,248.982a7.441,7.441,0,0,1-2.435.153,6.464,6.464,0,0,1,2.283-.46,7.441,7.441,0,0,1,2.435-.153C134.518,248.675,133.6,248.829,132.235,248.982Z" transform="translate(-43.817 -218.008)"/><path class="bw" d="M132.335,250.407H129.9a9.753,9.753,0,0,1,2.435-.307h2.435A5.254,5.254,0,0,1,132.335,250.407Z" transform="translate(-43.765 -217.132)"/><path class="bw" d="M132.335,251.947c-1.37-.153-2.435-.307-2.435-.307a5.381,5.381,0,0,1,2.435,0c1.37.153,2.435.307,2.435.307Z" transform="translate(-43.765 -216.372)"/><ellipse class="bt" cx="0.609" cy="0.613" rx="0.609" ry="0.613" transform="translate(67.721 33.275)"/></g><path class="bx" d="M274.279,310.125H214.623s-28.458-40.332-86.44-43.552c-57.068-3.22-88.57,42.018-89.483,43.4.457-2.147,21.61-97.072,117.789-97.072,5.174,0,10.348.307,15.066.767,56.916,5.521,82.787,42.019,94.2,68.4,6.24,14.568,8.218,26.223,8.37,27.757l.152.307Z" transform="translate(8.933 113.587)"/><path class="ao" d="M153.4,255.608a20.738,20.738,0,0,1-.609,5.367L107.748,273.4a26.232,26.232,0,0,1-6.848-16.409L149.294,241.5l.3.46A26.294,26.294,0,0,1,153.4,255.608Z" transform="translate(41.391 128.846)"/><path class="ao" d="M108.7,257.454a7.521,7.521,0,0,1-.152,1.84l-31.2,9.661A19.448,19.448,0,0,1,73.7,261.9v-.153L106.115,248.1h0A18,18,0,0,1,108.7,257.454Z" transform="translate(27.197 132.367)"/><path class="ao" d="M172.95,252.86l-26.784,18.556a1.522,1.522,0,0,1-.761-.613,18.716,18.716,0,0,1-5.783-7.054,16.477,16.477,0,0,1-1.522-5.521l34.241-8.128.609,2.76Z" transform="translate(60.803 133.434)"/></g><g class="cb" transform="translate(0)"><path class="bu" d="M24.618,445.354,16.4,378.8s66.5-33.891,164.053-30.517C272.371,351.5,330.2,380.026,330.2,380.026l-9.131,65.328Z" transform="translate(-2.704 185.69)"/></g><g class="cb" transform="translate(0)"><path class="bu" d="M466.722,348.1V445.48h-143.2L315.3,378.925C315.452,378.771,376.173,347.794,466.722,348.1Z" transform="translate(153.27 185.718)"/></g><g class="cb" transform="translate(0)"><path class="bv" d="M216.632,322.593,193.5,252.2s36.676-4.447,111.246-2.3c64.221,1.84,113.224,7.668,113.224,7.668l-22.523,67.015Z" transform="translate(89.712 133.017)"/><path class="br" d="M244.77,310.907,236.4,253.4l91.005,1.994-8.066,56.74Z" transform="translate(112.098 135.195)"/><path class="bv" d="M246.361,308.013,238.6,254.8l84.309,1.84-7.457,52.6Z" transform="translate(113.246 135.942)"/><path class="bt" d="M247.653,305.533,240.5,256l78.526,1.687-7,49.073Z" transform="translate(114.238 136.582)"/><path class="bx" d="M236.4,253.4l1.826,12.728s33.176-3.22,54.025,3.527c26.784,8.741,29.828,23.616,29.828,23.616l5.479-38.031Z" transform="translate(112.098 135.195)"/><path class="bu" d="M208.7,319.668l182.315,4.907L410.19,254.8l-22.675,67.015Z" transform="translate(97.644 135.942)"/><path class="bu" d="M198.3,254.227l19.175,60.267,43.676-3.22L253.39,253Z" transform="translate(92.217 134.981)"/><path class="bu" d="M299.861,254.7l59.656,3.68-20.545,56.587L292.1,310.52Z" transform="translate(141.164 135.888)"/><path class="bt" d="M296.952,257.2l58.134,5.061-.761,2.454L296.8,258.58Z" transform="translate(143.616 137.222)"/><path class="bt" d="M296.052,263.4l56,5.214-.152.613-56-4.141Z" transform="translate(143.147 140.53)"/><path class="bt" d="M295.2,269l53.873,6.134-.609,1.687L295.2,269.613Z" transform="translate(142.782 143.518)"/><path class="bt" d="M294.5,275l51.894,5.521-.3,1.073L294.2,277.147Z" transform="translate(142.26 146.719)"/><path class="bt" d="M293.6,281.5l50.372,3.68-.3.767L293.3,282.88Z" transform="translate(141.79 150.187)"/><path class="bt" d="M340.233,293.441,292.752,287l-.152.613,47.177,7.361Z" transform="translate(141.425 153.121)"/><path class="bt" d="M253.577,257.1H199.4l.457,1.534,53.873-.767Z" transform="translate(92.791 137.169)"/><path class="bt" d="M253.286,261.9,202,266.807l.609,1.994,50.829-6.134Z" transform="translate(94.147 139.73)"/><path class="bt" d="M253.212,265.8,203.6,272.394l.152.767,49.612-5.827Z" transform="translate(94.982 141.81)"/><path class="bt" d="M253.7,271.6,205,276.047l.3.92,48.546-3.834Z" transform="translate(95.713 144.905)"/><path class="bt" d="M253.872,278.1,207,282.24l.152.46,47.024-3.374Z" transform="translate(96.757 148.373)"/><path class="bt" d="M208.7,286.834l45.807-1.534v.46l-45.2,2.607Z" transform="translate(97.644 152.214)"/><path class="ao" d="M243.587,297.565,241,280.083,307.808,255.7l13.849.46-1.674,11.348Z" transform="translate(114.499 136.422)"/></g><g class="cb" transform="translate(0)"><path class="bv" d="M247.127,447.886,227.8,343.3h60.721c39.72,0,62.091.92,62.091.92L331.893,448.04H247.127Z" transform="translate(107.61 183.158)"/><g transform="translate(308.779 460.517)"><path class="bv" d="M210.3,300.3l13.088,40.485s15.371,15.335,72.135,15.335S367.5,345.385,367.5,345.385l16.74-40.025Z" transform="translate(-210.3 -300.3)"/><path class="bt" d="M219.231,317.8,213.6,301.7l164.814,5.367-5.935,13.955Z" transform="translate(-208.578 -299.553)"/><path class="bx" d="M252.176,334.092c-2.435,5.214-10.348,6.441-17.5,2.914s-10.957-10.581-8.522-15.8,10.348-6.441,17.5-2.914S254.61,328.878,252.176,334.092Z" transform="translate(-202.412 -291.767)"/><g transform="translate(22.523 22.849)"><path class="bu" d="M245.188,325.321A10.044,10.044,0,1,1,235.144,315.2,10.172,10.172,0,0,1,245.188,325.321Z" transform="translate(-225.1 -315.2)"/><path class="bv" d="M238.24,323.507a4.87,4.87,0,1,1-4.87-4.907A4.826,4.826,0,0,1,238.24,323.507Z" transform="translate(-223.326 -313.386)"/></g><path class="bx" d="M271.376,334.092c-2.435,5.214-10.348,6.441-17.5,2.914s-10.957-10.581-8.522-15.8,10.348-6.441,17.5-2.914C270.158,321.824,273.963,328.878,271.376,334.092Z" transform="translate(-192.393 -291.767)"/><g transform="translate(51.894 22.849)"><path class="bu" d="M264.488,325.321A10.044,10.044,0,1,1,254.444,315.2,10.172,10.172,0,0,1,264.488,325.321Z" transform="translate(-244.4 -315.2)"/><path class="bv" d="M257.54,323.507a4.87,4.87,0,1,1-4.87-4.907A4.826,4.826,0,0,1,257.54,323.507Z" transform="translate(-242.626 -313.386)"/></g><path class="bx" d="M329.175,334.092c-2.435,5.214-10.348,6.441-17.5,2.914s-10.957-10.581-8.522-15.8,10.348-6.441,17.5-2.914C327.958,321.824,331.763,328.878,329.175,334.092Z" transform="translate(-162.231 -291.767)"/><g transform="translate(139.856 22.849)"><path class="bu" d="M322.288,325.321A10.044,10.044,0,1,1,312.244,315.2,10.172,10.172,0,0,1,322.288,325.321Z" transform="translate(-302.2 -315.2)"/><path class="bv" d="M315.34,323.507a4.87,4.87,0,1,1-4.87-4.907A4.826,4.826,0,0,1,315.34,323.507Z" transform="translate(-300.426 -313.386)"/></g></g><path class="bu" d="M251.509,441.324,240.4,355.6h81.874l-10.5,85.724Z" transform="translate(114.185 189.721)"/><path class="bt" d="M248.509,384.99,244.4,358l70.308,1.38-3.957,25.61Z" transform="translate(116.273 191.001)"/><path class="bu" d="M300.309,447.566,314.919,343.9,296.2,447.566Z" transform="translate(143.303 183.479)"/></g><g class="cb" transform="translate(0)"><path class="by" d="M138.133,438.046s-.761-61.341,1.978-69.162c2.739-7.974,39.415-9.661,47.024-3.067,7.457,6.747,24.806,72.229,24.806,72.229Z" transform="translate(60.769 192.998)"/></g><g class="cb" transform="translate(0)"><path class="by" d="M123.309,438.03s.761-61.341-1.978-69.162-39.415-9.661-47.024-3.067C66.849,372.549,49.5,438.03,49.5,438.03Z" transform="translate(14.569 193.015)"/></g><g class="cb" transform="translate(0)"><path class="bx" d="M217.4,230.9s85.679,53.827,119.159,144.3c27.393,74.069,27.393,132.65,27.393,132.65h-229.8s-18.871-15.642-39.872-48.613C73.436,426.578,53.5,375.2,53.5,375.2s57.068,42.325,124.638,12.575C258.49,352.508,217.4,230.9,217.4,230.9Z" transform="translate(16.656 123.19)"/></g><g class="cb" transform="translate(0)"><g transform="translate(55.699 331.088)"><path class="bv" d="M154.941,215.9C93.612,215.9,44,266.046,44,327.694S93.764,439.488,154.941,439.488s110.941-50.146,110.941-111.794S216.119,215.9,154.941,215.9Zm0,202.732c-49.764,0-90.244-40.638-90.244-90.938s40.328-90.938,90.244-90.938,90.244,40.638,90.244,90.938S204.7,418.632,154.941,418.632Z" transform="translate(-44 -215.9)"/><path class="bt" d="M145.713,401.164c49.764,0,90.244-40.638,90.244-90.938A91.982,91.982,0,0,0,220.13,258.7a90.879,90.879,0,0,1,12.479,46.006c0,50.146-40.328,90.938-90.244,90.938A89.822,89.822,0,0,1,68.1,356.232,89.273,89.273,0,0,0,145.713,401.164Z" transform="translate(-31.424 -193.065)"/><path class="bt" d="M47.348,333.061c0-61.8,49.764-111.794,110.941-111.794,38.2,0,71.83,19.476,91.918,49.073a110.55,110.55,0,0,0-95.266-54.44C93.612,215.9,44,266.046,44,327.694a111.467,111.467,0,0,0,19.175,62.874A110.523,110.523,0,0,1,47.348,333.061Z" transform="translate(-44 -215.9)"/><path class="bz" d="M150.752,229.617c-52.2-1.687-94.81,41.252-93.136,93.852,1.522,47.539,40.024,86.337,87.2,87.871,52.2,1.687,94.81-41.252,93.136-93.852C236.431,269.948,197.929,231.15,150.752,229.617Zm-2.891,4.141c38.959,0,71.83,26.223,82.483,61.954a10.844,10.844,0,0,1-9.131,13.648l-43.524,5.214h0a32.458,32.458,0,0,0-60.721,2.914H71.008a8.419,8.419,0,0,1-8.218-9.661A86.049,86.049,0,0,1,147.861,233.757Zm-77,125.442a10.147,10.147,0,0,1,6.392-14.415l38.5-10.121h0a32.433,32.433,0,0,0,24.958,25.15h0L135.686,395.7a9.482,9.482,0,0,1-12.022,7.821A86.109,86.109,0,0,1,70.856,359.2Zm99.375,34.044-11.718-34.5a32.857,32.857,0,0,0,21.458-26.07l42.155,1.993a8.573,8.573,0,0,1,7.761,11.041,86.855,86.855,0,0,1-46.264,53.367A9.678,9.678,0,0,1,170.232,393.243Z" transform="translate(-36.92 -208.607)"/><path class="bv" d="M26.12.05A25.732,25.732,0,0,1,51.991,25.921a26.212,26.212,0,0,1-26.07,26.07A25.732,25.732,0,0,1,.05,26.12,26.212,26.212,0,0,1,26.12.05Z" transform="translate(74.092 118.655) rotate(-45)"/><path class="bt" d="M102.948,304.517a25.949,25.949,0,0,1,25.871-26.07,25.187,25.187,0,0,1,12.175,3.067A25.832,25.832,0,0,0,99.6,302.37a26.4,26.4,0,0,0,13.849,23.156A25.713,25.713,0,0,1,102.948,304.517Z" transform="translate(-14.986 -183.675)"/><path class="bt" d="M138,289.481l49-5.981.609,16.1-48.851-1.073Z" transform="translate(5.052 -179.834)"/><path class="bt" d="M110.494,289.5H65.6l1.522,19.322,43.372-11.808Z" transform="translate(-32.729 -176.633)"/><path class="bt" d="M116.822,315.513l9.588-.613,10.653,42.019L111.8,358.452Z" transform="translate(-8.62 -163.081)"/></g></g></g></g></g></g></g></svg>