<svg xmlns="http://www.w3.org/2000/svg" xmlns:xlink="http://www.w3.org/1999/xlink" viewBox="0 0 328 193"><defs><style>.a{fill:#ededed;stroke:#cccece;}.ao,.b,.e{fill:#fff;}.b,.z{stroke:#fff;}.c{clip-path:url(#a);}.d{fill:#88d9e2;}.aa,.ac,.ad,.ae,.af,.ag,.ah,.ai,.aj,.ak,.aw,.bb,.bc,.bh,.bl,.cb,.ch,.f,.i,.j,.k,.l,.m,.n,.q,.r,.s,.t,.v,.w,.x,.y,.z{fill:none;}.ac,.ad,.ae,.f,.i,.j,.k,.l,.q,.r{stroke:#a4e3ff;}.aa,.ac,.ad,.ae,.af,.ag,.ah,.ai,.aj,.ak,.aw,.bb,.bc,.bh,.bl,.bu,.cb,.f,.i,.j,.k,.l,.m,.n,.q,.r,.s,.t,.v,.w,.x,.y,.z{stroke-miterlimit:10;}.f{stroke-width:6.813px;}.ap,.f,.q,.r,.t,.v{opacity:0.68;}.g{fill:#00a8b7;}.h{fill:#006881;}.i,.j,.k,.l,.m,.n{stroke-width:4.679px;}.ad,.j{opacity:0.53;}.k{opacity:0.31;}.ae,.ah,.l,.n{opacity:0.39;}.af,.ag,.ah,.m,.n,.s,.t{stroke:#cff3ff;}.o{fill:#98ba2d;}.p{fill:#36b2d8;}.q,.s,.t{stroke-width:6.238px;}.r{stroke-width:9.131px;}.s{opacity:0.89;}.u{fill:#22557f;}.ak,.v,.w,.x,.y{stroke:#95e4e8;}.v,.w{stroke-width:5.489px;}.w,.x,.y{opacity:0.34;}.x{stroke-width:6.029px;}.y{stroke-width:6.531px;}.aa,.z{stroke-width:6.947px;}.aa{stroke:#a4eeff;}.ab{fill:#2e9bc6;}.ac,.ad,.ae,.af,.ag,.ah,.ak{stroke-width:6.272px;}.af{opacity:0.14;}.ai{stroke:#46c4d1;}.ai,.aj{stroke-width:7.938px;}.aj{stroke:#3a84ad;}.al{fill:#36b6dd;}.am{fill:#2e6193;}.an{fill:#ccb5a3;}.ao{opacity:0.2;}.aq{fill:#a4e3ff;}.ar{fill:#cff3ff;}.as{fill:#38c7e8;}.at{fill:#57dfff;}.au{fill:#00cfff;}.av{fill:#2469ce;opacity:0.5;}.aw{stroke:#38300e;stroke-width:3.519px;}.ax{fill:url(#b);}.ay{fill:#2e8c45;}.az{fill:#2c6026;}.ba{fill:url(#c);}.bb,.bc,.bl{stroke:#562723;}.bb{stroke-linecap:round;stroke-width:17.728px;}.bc{stroke-width:9.455px;}.bd{fill:#49843d;}.be{fill:#77a33e;}.bf{fill:url(#d);}.bg{fill:#33312a;}.bh{stroke:#4b4332;stroke-width:6.696px;}.bi{fill:url(#e);}.bj{fill:url(#f);}.bk{fill:#2a593b;}.bl{stroke-width:0.919px;}.bm{fill:#9b9778;}.bn{fill:#b7b191;}.bo{opacity:0.7;}.bp{fill:#565441;}.bq{fill:#eebb2d;}.br{fill:#2a2b2a;}.bs{fill:#3d4039;}.bt{fill:#d6e3dd;}.bu,.cg{fill:#c6c6c6;}.bu{stroke:#3d4039;stroke-width:0.1px;}.bv{fill:#e59c0a;}.bw{fill:#f49211;}.bx{fill:#f7d877;}.by{fill:#111;}.bz{fill:#e27e05;}.ca{fill:#e0e9ef;}.cb{stroke:#e27e05;}.cc{fill:#434443;}.cd,.ci{opacity:0.57;}.cd{clip-path:url(#g);}.ce,.cj{opacity:0.56;}.ce{clip-path:url(#h);}.cf{clip-path:url(#i);}.ci{clip-path:url(#j);}.cj{clip-path:url(#k);}.ck{stroke:none;}</style><clipPath id="a"><path class="a" d="M4-2H324c2.209,0,4,1.342,4,3V188c0,1.655-1.791,3-4,3H4c-2.209,0-4-1.342-4-3V1C0-.658,1.791-2,4-2Z" transform="translate(94 182)"/></clipPath><linearGradient id="b" x1="0.5" y1="-2.109" x2="0.5" y2="1.355" gradientUnits="objectBoundingBox"><stop offset="0" stop-color="#7fa637"/><stop offset="1" stop-color="#5f891b"/></linearGradient><linearGradient id="c" x1="0.778" y1="0.052" x2="0.262" y2="1.084" gradientUnits="objectBoundingBox"><stop offset="0.092" stop-color="#49843d"/><stop offset="0.196" stop-color="#447e3d"/><stop offset="0.701" stop-color="#31633b"/><stop offset="1" stop-color="#2a593b"/></linearGradient><linearGradient id="d" x1="0.709" y1="-0.022" x2="0.285" y2="1.05" xlink:href="#c"/><linearGradient id="e" x1="0.705" y1="0.014" x2="0.275" y2="1.035" xlink:href="#c"/><linearGradient id="f" x1="0.705" y1="0.014" x2="0.274" y2="1.035" xlink:href="#c"/><clipPath id="g"><path d="M210.766,13.129c-1.175,6.208-4.866,25.253-4.866,26.511l46.227-1.007s9.229-11.745,7.215-19.883C259.09,17.743,228.8,11.618,213.2,11.2A2.353,2.353,0,0,0,210.766,13.129Z" transform="translate(-205.9 -11.193)"/></clipPath><clipPath id="h"><path d="M129.5,19.2c6.8-2.349,35.4-11.745,54.281-8.809a1.055,1.055,0,0,1,.839,1.342c-1.007,4.279-4.7,19.548-6.8,26.008a2.794,2.794,0,0,1-2.685,2.014l-48.492,2.6L123.8,34.638l3.691-13.591A3.381,3.381,0,0,1,129.5,19.2Z" transform="translate(-123.8 -9.829)"/></clipPath><clipPath id="i"><ellipse class="b" cx="30.622" cy="30.203" rx="30.622" ry="30.203"/></clipPath><clipPath id="j"><path d="M211.967,13.573c-1.465,7.635-6.068,31.057-6.068,32.6l57.642-1.238s11.507-14.445,9-24.454c-.314-1.238-38.079-8.77-57.537-9.286A2.926,2.926,0,0,0,211.967,13.573Z" transform="translate(-205.9 -11.193)"/></clipPath><clipPath id="k"><path d="M130.914,21.355C139.387,18.466,175.06,6.91,198.6,10.521a1.3,1.3,0,0,1,1.046,1.651c-1.255,5.262-5.858,24.041-8.474,31.986a3.477,3.477,0,0,1-3.348,2.476l-60.466,3.2L123.8,40.34l4.6-16.715A4.194,4.194,0,0,1,130.914,21.355Z" transform="translate(-123.8 -9.829)"/></clipPath></defs><g class="c" transform="translate(-94 -180)"><g transform="translate(-1172 -353)"><g transform="translate(1266 421.488)"><rect class="d" width="328.211" height="246.997"/><path class="e" d="M657.791,115.716v.365a4.623,4.623,0,0,0,4.595,4.595h20.969v15.28H620.667a4.623,4.623,0,0,1-4.595-4.595v-6.09a4.623,4.623,0,0,1,4.595-4.595h9.664a4.623,4.623,0,0,0,4.595-4.595v-.365a4.623,4.623,0,0,0-4.595-4.595h-42.3a4.164,4.164,0,0,1-4.376-3.866,4.164,4.164,0,0,0-4.376-3.866H563.595A4.607,4.607,0,0,1,559,98.795a4.623,4.623,0,0,1,4.595-4.595h119.76v16.921H662.386A4.623,4.623,0,0,0,657.791,115.716Z" transform="translate(-355.145 -59.847)"/><g transform="translate(247.726 67.721)"><line class="f" x2="9.117" transform="translate(36.213 39.786)"/><line class="f" x2="9.117" transform="translate(36.213 16.848)"/><rect class="g" width="36.978" height="112.54" transform="translate(8.351)"/><rect class="h" width="16.301" height="112.54"/><line class="i" x2="6.017" transform="translate(39.312 59.151)"/><line class="i" x2="4.558" transform="translate(30.56 22.245)"/><line class="i" x2="4.486" transform="translate(18.89 59.151)"/><line class="j" x2="7.294" transform="translate(5.507 22.245)"/><line class="k" x2="4.121" transform="translate(0 22.245)"/><line class="i" x2="6.017" transform="translate(39.312 27.059)"/><line class="i" x2="7.111" transform="translate(32.201 101.089)"/><line class="i" x2="8.752" transform="translate(18.89 63.965)"/><line class="i" x2="8.935" transform="translate(36.395 68.523)"/><line class="i" x2="5.871" transform="translate(16.265 31.618)"/><line class="i" x2="4.668" transform="translate(0 31.618)"/><line class="i" x2="4.084" transform="translate(38.072 73.337)"/><line class="i" x2="5.798" transform="translate(19 36.431)"/><line class="i" x2="6.127" transform="translate(4.121 73.337)"/><line class="i" x2="11.597" transform="translate(30.56 40.953)"/><line class="l" x2="9.19" transform="translate(12.654 40.953)"/><line class="i" x2="3.209" transform="translate(9.445 87.268)"/><line class="i" x2="2.37" transform="translate(7.075 77.859)"/><line class="i" x2="8.935" transform="translate(36.395 45.767)"/><line class="i" x2="2.881" transform="translate(28.992 73.337)"/><line class="i" x2="1.605" transform="translate(31.909 8.679)"/><line class="i" x2="10.102" transform="translate(17.286 73.337)"/><line class="i" x2="4.194" transform="translate(11.852 77.859)"/><line class="i" x2="6.674" transform="translate(5.47 82.673)"/><line class="i" x2="2.407" transform="translate(3.063 45.767)"/><line class="j" x2="3.027" transform="translate(2.152 8.679)"/><line class="i" x2="4.595" transform="translate(40.735 13.201)"/><line class="i" x2="10.175" transform="translate(30.56 50.326)"/><line class="i" x2="1.568" transform="translate(28.992 13.201)"/><line class="l" x2="6.09" transform="translate(10.247 50.326)"/><line class="j" x2="2.152" transform="translate(0 13.201)"/><line class="i" x2="6.017" transform="translate(39.312 18.015)"/><line class="i" x2="5.798" transform="translate(33.514 92.045)"/><line class="i" x2="5.871" transform="translate(27.643 55.139)"/><line class="l" x2="8.862" transform="translate(7.476 55.139)"/><line class="j" x2="4.486" transform="translate(6.783 18.015)"/><line class="i" x2="3.209" transform="translate(3.574 55.139)"/><line class="i" x2="3.574" transform="translate(2.152 101.417)"/><line class="m" x2="4.558" transform="translate(33.806 22.245)"/><line class="m" x2="4.486" transform="translate(22.136 59.151)"/><line class="m" x2="7.294" transform="translate(16.411 22.245)"/><line class="m" x2="7.148" transform="translate(35.41 101.089)"/><line class="j" x2="7.367" transform="translate(8.971 27.059)"/><line class="m" x2="5.835" transform="translate(27.971 31.618)"/><line class="n" x2="4.887" transform="translate(11.56 31.618)"/><line class="m" x2="11.961" transform="translate(33.368 36.431)"/><line class="n" x2="6.127" transform="translate(7.367 73.337)"/><line class="m" x2="8.789" transform="translate(16.265 40.953)"/><line class="m" x2="3.209" transform="translate(12.691 87.268)"/><line class="n" x2="2.407" transform="translate(10.284 77.859)"/><line class="m" x2="2.917" transform="translate(32.201 73.337)"/><line class="m" x2="1.605" transform="translate(35.155 8.679)"/><line class="m" x2="5.47" transform="translate(19.583 82.673)"/><line class="m" x2="4.194" transform="translate(15.098 77.859)"/><line class="m" x2="6.71" transform="translate(8.679 82.673)"/><line class="m" x2="2.407" transform="translate(6.272 45.767)"/><line class="m" x2="10.175" transform="translate(33.806 50.326)"/><line class="m" x2="8.789" transform="translate(23.412 13.201)"/><line class="m" x2="3.829" transform="translate(19.583 87.231)"/><line class="n" x2="7.476" transform="translate(6.017 13.201)"/><line class="m" x2="5.798" transform="translate(36.76 92.045)"/><line class="m" x2="5.871" transform="translate(30.888 55.139)"/><line class="m" x2="12.253" transform="translate(18.635 18.015)"/><line class="m" x2="3.939" transform="translate(15.645 55.139)"/><line class="n" x2="3.246" transform="translate(12.399 18.015)"/><line class="m" x2="3.574" transform="translate(5.397 101.417)"/><path class="o" d="M783.036,494.3Z" transform="translate(-745.183 -381.76)"/></g><path class="e" d="M94.793,146.4v.583a4.755,4.755,0,0,1-4.741,4.741H43.921a4.755,4.755,0,0,0-4.741,4.741v2.006a4.755,4.755,0,0,1-4.741,4.741H.2V142.137c.62-.255-.693-.438.073-.438h89.82A4.692,4.692,0,0,1,94.793,146.4Z" transform="translate(-0.013 -90.024)"/><g transform="translate(27.934 29.028)"><g transform="translate(102.146)"><rect class="p" width="51.128" height="129.789" transform="translate(52.842 64.73)"/><line class="q" x2="9.263" transform="translate(64.475 76.765)"/><line class="r" x2="11.67" transform="translate(48.502 142.99)"/><line class="q" x2="23.558" transform="translate(73.811 132.925)"/><line class="q" x2="20.969" transform="translate(52.842 83.183)"/><line class="q" x2="15.244" transform="translate(66.007 89.273)"/><line class="r" x2="13.165" transform="translate(48.502 155.535)"/><line class="r" x2="11.67" transform="translate(48.502 112.248)"/><line class="q" x2="24.762" transform="translate(52.842 101.818)"/><line class="q" x2="11.597" transform="translate(61.448 158.015)"/><line class="q" x2="8.606" transform="translate(58.896 108.273)"/><line class="q" x2="17.249" transform="translate(83.11 164.105)"/><line class="q" x2="13.748" transform="translate(84.824 114.363)"/><line class="q" x2="11.159" transform="translate(89.2 170.56)"/><line class="q" x1="9.336" transform="translate(67.502 120.818)"/><line class="q" x2="13.858" transform="translate(62.98 170.56)"/><line class="s" x2="7.585" transform="translate(78.479 76.765)"/><line class="t" x2="16.447" transform="translate(62.032 126.507)"/><line class="t" x2="13.858" transform="translate(86.83 139.015)"/><line class="t" x2="10.466" transform="translate(84.788 89.273)"/><line class="t" x2="17.942" transform="translate(62.032 139.015)"/><line class="s" x2="15.608" transform="translate(69.982 95.728)"/><line class="t" x1="10.539" transform="translate(86.83 101.818)"/><line class="s" x2="6.856" transform="translate(75.416 158.015)"/><line class="t" x2="33.879" transform="translate(43.98 114.363)"/><line class="s" x2="15.936" transform="translate(86.064 120.818)"/><line class="t" x2="9.117" transform="translate(76.947 170.56)"/><path class="u" d="M473.551,261V389.367H427.2V261Z" transform="translate(-401.49 -194.847)"/><line class="v" x2="31.8" transform="translate(72.17 70.274)"/><line class="w" x2="14.405" transform="translate(52.842 70.274)"/><line class="x" x2="3.428" transform="translate(68.596 76.765)"/><line class="x" x2="3.428" transform="translate(66.882 95.728)"/><line class="y" x2="8.059" transform="translate(52.842 79.938)"/><line class="z" x2="31.8" transform="translate(72.17 64.73)"/><line class="aa" x2="19.328" transform="translate(52.842 64.73)"/><rect class="ab" width="49.377" height="191.019" transform="translate(11.159)"/><rect class="u" width="21.881" height="191.019"/><line class="ac" x2="6.929" transform="translate(52.696 168.956)"/><line class="ac" x2="2.48" transform="translate(47.044 12.034)"/><line class="ac" x2="6.09" transform="translate(40.953 119.505)"/><line class="ac" x2="4.741" transform="translate(26.986 12.034)"/><line class="ac" x2="5.981" transform="translate(25.309 168.956)"/><line class="ad" x2="9.773" transform="translate(7.366 119.505)"/><line class="ad" x2="10.029" transform="translate(0.036 12.034)"/><line class="ac" x2="5.507" transform="translate(0 119.505)"/><line class="ac" x2="7.841" transform="translate(52.696 125.96)"/><line class="ac" x2="6.054" transform="translate(37.051 18.489)"/><line class="ac" x2="11.743" transform="translate(25.309 175.41)"/><line class="ad" x1="6.017" transform="translate(15.864 18.489)"/><line class="ad" x2="4.34" transform="translate(0 18.489)"/><line class="ac" x2="10.867" transform="translate(48.758 181.5)"/><line class="ac" x2="3.61" transform="translate(40.953 24.579)"/><line class="ac" x2="7.841" transform="translate(21.808 132.05)"/><line class="ac" x2="11.086" transform="translate(22.027 24.579)"/><line class="ad" x2="4.923" transform="translate(6.236 24.579)"/><line class="ac" x2="3.136" transform="translate(56.489 31.034)"/><line class="ac" x2="5.47" transform="translate(51.019 187.955)"/><line class="ac" x2="4.631" transform="translate(34.061 31.034)"/><line class="ac" x2="7.804" transform="translate(25.455 138.468)"/><line class="ac" x2="7.367" transform="translate(21.881 31.034)"/><line class="ac" x2="8.242" transform="translate(5.507 187.955)"/><line class="ad" x2="5.507" transform="translate(0 31.034)"/><line class="ac" x2="3.136" transform="translate(56.489 94.816)"/><line class="ac" x2="15.535" transform="translate(40.953 144.559)"/><line class="ac" x2="7.841" transform="translate(33.113 94.816)"/><line class="ac" x2="3.866" transform="translate(29.247 94.816)"/><line class="ae" x2="12.29" transform="translate(16.958 144.559)"/><line class="af" x2="3.209" transform="translate(9.445 194.045)"/><line class="ad" x2="4.34" transform="translate(0 37.124)"/><line class="ac" x2="10.867" transform="translate(48.758 151.013)"/><line class="ac" x2="3.866" transform="translate(38.838 187.955)"/><line class="ac" x2="2.115" transform="translate(42.777 101.271)"/><line class="ac" x2="13.53" transform="translate(23.157 187.955)"/><line class="af" x2="8.971" transform="translate(7.294 200.464)"/><line class="ac" x2="3.209" transform="translate(4.084 151.013)"/><line class="ad" x2="4.048" transform="translate(2.881 43.543)"/><line class="ac" x2="5.033" transform="translate(54.592 107.361)"/><line class="ac" x2="13.639" transform="translate(40.953 157.104)"/><line class="ac" x2="2.152" transform="translate(38.802 107.361)"/><line class="ae" x2="8.132" transform="translate(13.748 157.104)"/><line class="ad" x2="2.881" transform="translate(0 107.361)"/><line class="ac" x2="6.929" transform="translate(52.696 113.816)"/><line class="ac" x2="7.841" transform="translate(37.051 163.558)"/><line class="ae" x2="11.852" transform="translate(10.029 163.558)"/><line class="af" x2="4.303" transform="translate(4.777 163.558)"/><line class="ag" x2="3.464" transform="translate(53.571 12.034)"/><line class="ag" x2="6.09" transform="translate(45.33 119.505)"/><line class="ag" x2="9.7" transform="translate(35.629 12.034)"/><line class="ag" x2="5.981" transform="translate(29.648 168.956)"/><line class="ag" x2="9.773" transform="translate(21.954 119.505)"/><line class="af" x2="6.819" transform="translate(13.055 12.034)"/><line class="af" x2="5.507" transform="translate(4.34 119.505)"/><line class="ag" x2="6.054" transform="translate(45.913 18.489)"/><line class="ag" x2="11.743" transform="translate(29.648 175.41)"/><line class="ag" x2="7.695" transform="translate(21.954 18.489)"/><line class="ad" x2="9.883" transform="translate(11.998 125.96)"/><line class="af" x2="4.704" transform="translate(7.294 18.489)"/><line class="ag" x2="7.804" transform="translate(47.116 24.579)"/><line class="ag" x2="7.877" transform="translate(37.452 132.05)"/><line class="ag" x2="15.426" transform="translate(22.027 24.579)"/><line class="ah" x2="6.528" transform="translate(15.499 132.05)"/><line class="af" x2="4.923" transform="translate(14.004 24.579)"/><line class="af" x2="6.236" transform="translate(4.34 132.05)"/><line class="ag" x2="13.967" transform="translate(41.391 31.034)"/><line class="ac" x1="2.443" transform="translate(31.982 38.036)"/><line class="ac" x1="4.777" transform="translate(49.742 38.036)"/><line class="ac" x1="6.09" transform="translate(38.364 44.491)"/><line class="ac" x1="3.61" transform="translate(36.905 50.581)"/><line class="ac" x1="11.925" transform="translate(48.393 50.581)"/><line class="ac" x1="4.668" transform="translate(42.777 57.036)"/><line class="ac" x1="8.205" transform="translate(52.258 57.036)"/><line class="ag" x1="3.501" transform="translate(24.433 38.036)"/><line class="ag" x1="9.664" transform="translate(36.176 38.036)"/><line class="ag" x1="6.09" transform="translate(29.502 44.491)"/><line class="ag" x1="8.57" transform="translate(51.821 44.491)"/><line class="ag" x1="7.768" transform="translate(26.585 50.581)"/><line class="ag" x1="16.265" transform="translate(44.053 50.581)"/><line class="ag" x1="13.967" transform="translate(26.147 57.036)"/><line class="ag" x2="15.645" transform="translate(44.71 138.468)"/><line class="af" x2="8.242" transform="translate(9.846 187.955)"/><line class="ah" x2="5.47" transform="translate(16.374 31.034)"/><line class="ag" x2="3.866" transform="translate(44.163 94.816)"/><line class="ag" x2="11.779" transform="translate(21.808 144.559)"/><line class="ah" x2="3.246" transform="translate(13.785 194.045)"/><line class="af" x2="9.445" transform="translate(7.366 37.124)"/><line class="ad" x2="6.017" transform="translate(0 57.036)"/><line class="ad" x1="4.34" transform="translate(17.541 57.036)"/><line class="ad" x1="4.96" transform="translate(10.722 63.126)"/><line class="ad" x1="5.507" transform="translate(16.374 69.581)"/><line class="ad" x1="4.34" transform="translate(17.541 75.671)"/><line class="ad" x1="4.084" transform="translate(14.952 82.126)"/><line class="af" x1="6.819" transform="translate(2.006 50.581)"/><line class="af" x1="4.704" transform="translate(9.883 57.036)"/><line class="af" x1="4.96" transform="translate(2.954 63.126)"/><line class="ah" x1="5.507" transform="translate(0.036 69.581)"/><line class="af" x1="9.409" transform="translate(5.105 75.671)"/><line class="ag" x2="2.115" transform="translate(47.116 101.271)"/><line class="ag" x2="7.367" transform="translate(26.22 200.464)"/><line class="ae" x2="8.971" transform="translate(11.633 200.464)"/><line class="af" x2="3.209" transform="translate(8.424 151.013)"/><line class="ag" x2="13.603" transform="translate(45.33 157.104)"/><line class="ag" x2="11.816" transform="translate(31.362 107.361)"/><line class="ah" x2="10.065" transform="translate(8.023 107.361)"/><line class="ag" x2="7.841" transform="translate(41.391 163.558)"/><line class="ag" x2="15.171" transform="translate(26.22 113.816)"/><line class="ac" x2="6.09" transform="translate(40.953 88.106)"/><line class="ac" x2="3.136" transform="translate(56.489 63.418)"/><line class="ac" x2="7.841" transform="translate(33.113 63.418)"/><line class="ac" x2="3.866" transform="translate(29.247 63.418)"/><line class="ac" x2="2.115" transform="translate(42.777 69.872)"/><line class="ac" x2="5.033" transform="translate(54.592 75.963)"/><line class="ac" x2="2.152" transform="translate(38.802 75.963)"/><line class="ac" x2="6.929" transform="translate(52.696 82.417)"/><line class="ag" x2="6.09" transform="translate(45.33 88.106)"/><line class="ag" x2="9.773" transform="translate(21.954 88.106)"/><line class="ag" x2="3.866" transform="translate(44.163 63.418)"/><line class="ag" x2="2.115" transform="translate(47.116 69.872)"/><line class="ag" x2="11.816" transform="translate(31.362 75.963)"/><line class="ag" x2="15.171" transform="translate(26.22 82.417)"/><line class="ah" x2="4.376" transform="translate(16.593 113.816)"/><line class="ai" x2="38.656" transform="translate(21.881)"/><line class="aj" x2="21.881"/><line class="ak" x2="38.729" transform="translate(21.808 5.58)"/><path class="o" d="M495.736,603.4Z" transform="translate(-445.01 -412.381)"/></g><g transform="translate(0 56.379)"><rect class="al" width="64.548" height="4.121" transform="translate(2.37 12.363)"/><rect class="al" width="64.548" height="4.121" transform="translate(2.37 4.121)"/><rect class="al" width="64.548" height="4.121" transform="translate(2.516 20.568)"/><rect class="al" width="64.548" height="4.121" transform="translate(2.516 28.81)"/><rect class="al" width="64.548" height="4.121" transform="translate(2.37 45.33)"/><rect class="al" width="64.548" height="4.121" transform="translate(2.37 37.088)"/><rect class="al" width="64.548" height="4.121" transform="translate(2.188 53.571)"/><rect class="al" width="64.548" height="4.121" transform="translate(2.188 61.813)"/><rect class="am" width="64.548" height="4.121" transform="translate(2.37 42.339)"/><rect class="am" width="64.548" height="4.121" transform="translate(2.37 34.097)"/><rect class="am" width="64.548" height="4.121" transform="translate(2.188 50.581)"/><rect class="am" width="64.548" height="4.121" transform="translate(2.188 58.823)"/><rect class="am" width="64.548" height="4.121" transform="translate(2.37 9.372)"/><rect class="am" width="64.548" height="4.121" transform="translate(2.37 1.131)"/><rect class="am" width="64.548" height="4.121" transform="translate(2.516 17.614)"/><rect class="am" width="64.548" height="4.121" transform="translate(2.516 25.856)"/><rect class="am" width="18.744" height="4.121" transform="translate(1.787 12.399)"/><rect class="am" width="18.744" height="4.121" transform="translate(1.787 4.194)"/><rect class="am" width="18.744" height="4.121" transform="translate(1.823 20.641)"/><rect class="am" width="18.744" height="4.121" transform="translate(1.823 28.883)"/><rect class="am" width="18.744" height="4.121" transform="translate(1.787 45.402)"/><rect class="am" width="18.744" height="4.121" transform="translate(1.787 37.161)"/><rect class="am" width="18.744" height="4.121" transform="translate(1.714 53.644)"/><rect class="am" width="18.744" height="4.121" transform="translate(1.714 61.849)"/><rect class="e" width="68.669" height="4.121" transform="translate(0.146 41.245)"/><rect class="e" width="68.669" height="4.121" transform="translate(0.146 49.487)"/><rect class="e" width="68.669" height="4.121" transform="translate(0.146 33.003)"/><rect class="e" width="68.669" height="4.121" transform="translate(0 57.729)"/><rect class="e" width="68.669" height="4.121" transform="translate(0 65.97)"/><rect class="e" width="68.669" height="4.121" transform="translate(0.146 8.278)"/><rect class="e" width="68.669" height="4.121" transform="translate(0.146 16.52)"/><rect class="e" width="68.669" height="4.121" transform="translate(0.146)"/><rect class="e" width="68.669" height="4.121" transform="translate(0.292 24.725)"/><rect class="an" width="21.625" height="4.121" transform="translate(0.109 41.245)"/><rect class="an" width="21.625" height="4.121" transform="translate(0.109 49.487)"/><rect class="an" width="21.625" height="4.121" transform="translate(0.109 33.003)"/><rect class="an" width="21.625" height="4.121" transform="translate(0.036 57.729)"/><rect class="an" width="21.625" height="4.121" transform="translate(0.036 65.97)"/><rect class="an" width="21.625" height="4.121" transform="translate(0.109 8.278)"/><rect class="an" width="21.625" height="4.121" transform="translate(0.109 16.52)"/><rect class="an" width="21.625" height="4.121" transform="translate(0.109)"/><rect class="an" width="21.625" height="4.121" transform="translate(0.146 24.725)"/><path class="ao" d="M158.327,248.6H147.934l-2.334,3.027h10.357Z" transform="translate(-120.437 -243.349)"/><path class="ao" d="M194.277,248.6h-5.543l-2.334,3.027h5.507Z" transform="translate(-146.358 -243.349)"/><path class="ao" d="M182.082,271H165.234l-2.334,3.027h16.848Z" transform="translate(-131.428 -257.58)"/><path class="ao" d="M238.177,271h-5.543l-2.334,3.027h5.543Z" transform="translate(-174.249 -257.58)"/><path class="ao" d="M148.727,293.6H138.37L136,296.59h10.393Z" transform="translate(-114.338 -271.938)"/><path class="ao" d="M154.782,316H137.934l-2.334,3.027h16.848Z" transform="translate(-114.084 -286.169)"/><path class="ao" d="M228.677,316h-5.543l-2.334,3.027h5.507Z" transform="translate(-168.213 -286.169)"/><path class="ao" d="M163.927,338.6H153.534l-2.334,3.027h10.357Z" transform="translate(-123.995 -300.528)"/><path class="ao" d="M187.682,361.1H170.834l-2.334,2.99h16.848Z" transform="translate(-134.986 -314.822)"/><path class="ao" d="M243.777,361.1h-5.543l-2.334,2.99h5.543Z" transform="translate(-177.807 -314.822)"/><path class="ao" d="M154.327,383.6H143.97l-2.37,3.027h10.393Z" transform="translate(-117.896 -329.117)"/><path class="ao" d="M221.377,383.6h-5.543l-2.334,3.027h5.543Z" transform="translate(-163.576 -329.117)"/><path class="ao" d="M160.382,406H143.534l-2.334,3.027h16.848Z" transform="translate(-117.642 -343.348)"/><path class="ao" d="M234.277,406h-5.543l-2.334,3.027h5.507Z" transform="translate(-171.771 -343.348)"/></g><g transform="translate(0 122.24)"><rect class="al" width="64.548" height="4.121" transform="translate(2.37 12.363)"/><rect class="al" width="64.548" height="4.121" transform="translate(2.37 4.121)"/><rect class="al" width="64.548" height="4.121" transform="translate(2.516 20.604)"/><rect class="al" width="64.548" height="4.121" transform="translate(2.516 28.846)"/><rect class="al" width="64.548" height="4.121" transform="translate(2.37 45.33)"/><rect class="al" width="64.548" height="4.121" transform="translate(2.37 37.124)"/><rect class="al" width="64.548" height="4.121" transform="translate(2.188 53.571)"/><rect class="al" width="64.548" height="4.121" transform="translate(2.188 61.813)"/><rect class="am" width="64.548" height="4.121" transform="translate(2.37 42.376)"/><rect class="am" width="64.548" height="4.121" transform="translate(2.37 34.134)"/><rect class="am" width="64.548" height="4.121" transform="translate(2.188 50.617)"/><rect class="am" width="64.548" height="4.121" transform="translate(2.188 58.823)"/><rect class="am" width="64.548" height="4.121" transform="translate(2.37 9.372)"/><rect class="am" width="64.548" height="4.121" transform="translate(2.37 1.167)"/><rect class="am" width="64.548" height="4.121" transform="translate(2.516 17.614)"/><rect class="am" width="64.548" height="4.121" transform="translate(2.516 25.856)"/><rect class="am" width="18.744" height="4.121" transform="translate(1.787 12.436)"/><rect class="am" width="18.744" height="4.121" transform="translate(1.787 4.194)"/><rect class="am" width="18.744" height="4.121" transform="translate(1.823 20.677)"/><rect class="am" width="18.744" height="4.121" transform="translate(1.823 28.883)"/><rect class="am" width="18.744" height="4.121" transform="translate(1.787 45.402)"/><rect class="am" width="18.744" height="4.121" transform="translate(1.787 37.161)"/><rect class="am" width="18.744" height="4.121" transform="translate(1.714 53.644)"/><rect class="am" width="18.744" height="4.121" transform="translate(1.714 61.886)"/><rect class="e" width="68.669" height="4.121" transform="translate(0.146 41.282)"/><rect class="e" width="68.669" height="4.121" transform="translate(0.146 49.487)"/><rect class="e" width="68.669" height="4.121" transform="translate(0.146 33.04)"/><rect class="e" width="68.669" height="4.121" transform="translate(0 57.729)"/><rect class="e" width="68.669" height="4.121" transform="translate(0 65.97)"/><rect class="e" width="68.669" height="4.121" transform="translate(0.146 8.278)"/><rect class="e" width="68.669" height="4.121" transform="translate(0.146 16.52)"/><rect class="e" width="68.669" height="4.121" transform="translate(0.146)"/><rect class="e" width="68.669" height="4.121" transform="translate(0.292 24.762)"/><rect class="an" width="21.625" height="4.121" transform="translate(0.109 41.282)"/><rect class="an" width="21.625" height="4.121" transform="translate(0.109 49.487)"/><rect class="an" width="21.625" height="4.121" transform="translate(0.109 33.04)"/><rect class="an" width="21.625" height="4.121" transform="translate(0.036 57.729)"/><rect class="an" width="21.625" height="4.121" transform="translate(0.036 65.97)"/><rect class="an" width="21.625" height="4.121" transform="translate(0.109 8.278)"/><rect class="an" width="21.625" height="4.121" transform="translate(0.109 16.52)"/><rect class="an" width="21.625" height="4.121" transform="translate(0.109)"/><rect class="an" width="21.625" height="4.121" transform="translate(0.146 24.762)"/><path class="ao" d="M158.327,429.2H147.934l-2.334,3.027h10.357Z" transform="translate(-120.437 -423.949)"/><path class="ao" d="M194.277,429.2h-5.543l-2.334,3.027h5.507Z" transform="translate(-146.358 -423.949)"/><path class="ao" d="M182.082,451.7H165.234l-2.334,2.99h16.848Z" transform="translate(-131.428 -438.243)"/><path class="ao" d="M238.177,451.7h-5.543l-2.334,2.99h5.543Z" transform="translate(-174.249 -438.243)"/><path class="ao" d="M148.727,474.2H138.37L136,477.227h10.393Z" transform="translate(-114.338 -452.538)"/><path class="ao" d="M154.782,496.6H137.934l-2.334,3.027h16.848Z" transform="translate(-114.084 -466.769)"/><path class="ao" d="M228.677,496.6h-5.543l-2.334,3.027h5.507Z" transform="translate(-168.213 -466.769)"/><path class="ao" d="M163.927,519.3H153.534l-2.334,3.027h10.357Z" transform="translate(-123.995 -481.191)"/><path class="ao" d="M187.682,541.7H170.834l-2.334,3.027h16.848Z" transform="translate(-134.986 -495.422)"/><path class="ao" d="M243.777,541.7h-5.543l-2.334,3.027h5.543Z" transform="translate(-177.807 -495.422)"/><path class="ao" d="M154.327,564.3H143.97l-2.37,2.99h10.393Z" transform="translate(-117.896 -509.781)"/><path class="ao" d="M221.377,564.3h-5.543l-2.334,2.99h5.543Z" transform="translate(-163.576 -509.781)"/><path class="ao" d="M160.382,586.7H143.534l-2.334,3.027h16.848Z" transform="translate(-117.642 -524.012)"/><path class="ao" d="M234.277,586.7h-5.543l-2.334,3.027h5.507Z" transform="translate(-171.771 -524.012)"/></g><g transform="translate(194.447 94.525)"><g class="ap" transform="translate(63.272 57.291)"><rect class="aq" width="15.462" height="1.678"/></g><g class="ap" transform="translate(64.913 59.99)"><rect class="aq" width="4.996" height="1.678"/></g><g class="ap" transform="translate(51.274 59.99)"><rect class="aq" width="8.716" height="1.678"/></g><g class="ap" transform="translate(53.316 11.67)"><rect class="aq" width="12.581" height="1.678"/></g><g class="ap" transform="translate(53.316 14.514)"><rect class="aq" width="8.132" height="1.678"/></g><g class="ap" transform="translate(70.456 14.514)"><rect class="aq" width="9.372" height="1.678"/></g><g class="ap" transform="translate(56.562 57.291)"><rect class="ar" width="12.727" height="1.678"/></g><path class="u" d="M677.557,354.246V351H609.8v3.246h1.13v6.747H609.8v2.079h1.13v7.075H609.8v2.042h1.13V379.3H609.8v2.042h1.13v6.783H609.8V390.2h1.13v7.075H609.8v2.079h1.13v7.075H609.8v2.042h1.13v7.111H609.8v2.042h1.13v6.965H609.8v2.042h1.13v9.08h65.5v-9.08h1.131v-2.042h-1.131v-6.965h1.131v-2.042h-1.131v-7.111h1.131v-2.042h-1.131v-7.075h1.131v-2.079h-1.131V390.2h1.131v-2.079h-1.131v-6.783h1.131V379.3h-1.131v-7.111h1.131v-2.042h-1.131v-7.075h1.131v-2.079h-1.131v-6.747Z" transform="translate(-609.8 -346.551)"/><g class="ap" transform="translate(58.203 59.99)"><rect class="ar" width="4.996" height="1.678"/></g><g class="ap" transform="translate(63.746 14.514)"><rect class="ar" width="6.637" height="1.678"/></g><g transform="translate(7.184)"><path class="an" d="M696.127,346.8h-65.5v7.111H629.5v2.042h1.13v7.075H629.5v2.042h1.13v7.111H629.5v2.042h1.13v6.819H629.5v2.042h1.13V390.2H629.5v2.042h1.13v7.075H629.5v2.042h1.13v7.111H629.5v2.042h1.13v6.965H629.5v2.042h1.13v9.08h65.5v-9.08h1.13v-2.042h-1.13v-6.965h1.13v-2.042h-1.13v-7.111h1.13v-2.042h-1.13v-7.075h1.13V390.2h-1.13v-7.111h1.13v-2.042h-1.13v-6.819h1.13v-2.042h-1.13V365.07h1.13v-2.042h-1.13v-7.075h1.13v-2.042h-1.13Z" transform="translate(-629.5 -343.883)"/><rect class="an" width="67.757" height="3.246"/></g><rect class="e" width="58.713" height="81.797" transform="translate(21.954 3.136)"/><rect class="al" width="4.048" height="7.111" transform="translate(26.038 3.136)"/><rect class="as" width="4.048" height="7.111" transform="translate(33.769 3.136)"/><rect class="al" width="4.048" height="7.111" transform="translate(41.537 3.136)"/><rect class="al" width="4.048" height="7.111" transform="translate(49.268 3.136)"/><rect class="al" width="4.048" height="7.111" transform="translate(57.036 3.136)"/><rect class="at" width="4.048" height="7.111" transform="translate(64.767 3.136)"/><rect class="al" width="4.048" height="7.111" transform="translate(72.535 3.136)"/><rect class="al" width="4.048" height="7.111" transform="translate(72.535 12.29)"/><rect class="as" width="4.048" height="7.111" transform="translate(64.767 12.29)"/><rect class="al" width="4.048" height="7.111" transform="translate(57.036 12.29)"/><rect class="au" width="4.048" height="7.111" transform="translate(49.268 12.29)"/><rect class="al" width="4.048" height="7.111" transform="translate(41.537 12.29)"/><rect class="at" width="4.048" height="7.111" transform="translate(33.769 12.29)"/><rect class="al" width="4.048" height="7.111" transform="translate(26.038 12.29)"/><rect class="al" width="4.048" height="7.111" transform="translate(26.038 21.407)"/><rect class="al" width="4.048" height="7.111" transform="translate(33.769 21.407)"/><rect class="as" width="4.048" height="7.111" transform="translate(41.537 21.407)"/><rect class="al" width="4.048" height="7.111" transform="translate(49.268 21.407)"/><rect class="al" width="4.048" height="7.111" transform="translate(57.036 21.407)"/><rect class="al" width="4.048" height="7.111" transform="translate(64.767 21.407)"/><rect class="al" width="4.048" height="7.111" transform="translate(72.535 21.407)"/><rect class="al" width="4.048" height="7.111" transform="translate(72.535 30.56)"/><rect class="as" width="4.048" height="7.111" transform="translate(64.767 30.56)"/><rect class="as" width="4.048" height="7.111" transform="translate(57.036 30.56)"/><rect class="al" width="4.048" height="7.111" transform="translate(49.268 30.56)"/><rect class="al" width="4.048" height="7.111" transform="translate(41.537 30.56)"/><rect class="al" width="4.048" height="7.111" transform="translate(33.769 30.56)"/><rect class="at" width="4.048" height="7.111" transform="translate(26.038 30.56)"/><rect class="al" width="4.048" height="7.111" transform="translate(26.038 39.422)"/><rect class="as" width="4.048" height="7.111" transform="translate(33.769 39.422)"/><rect class="al" width="4.048" height="7.111" transform="translate(41.537 39.422)"/><rect class="al" width="4.048" height="7.111" transform="translate(49.268 39.422)"/><rect class="al" width="4.048" height="7.111" transform="translate(57.036 39.422)"/><rect class="at" width="4.048" height="7.111" transform="translate(64.767 39.422)"/><rect class="al" width="4.048" height="7.111" transform="translate(72.535 39.422)"/><rect class="al" width="4.048" height="7.111" transform="translate(72.535 48.575)"/><rect class="as" width="4.048" height="7.111" transform="translate(64.767 48.575)"/><rect class="al" width="4.048" height="7.111" transform="translate(57.036 48.575)"/><rect class="au" width="4.048" height="7.111" transform="translate(49.268 48.575)"/><rect class="al" width="4.048" height="7.111" transform="translate(41.537 48.575)"/><rect class="at" width="4.048" height="7.111" transform="translate(33.769 48.575)"/><rect class="al" width="4.048" height="7.111" transform="translate(26.038 48.575)"/><rect class="al" width="4.048" height="7.111" transform="translate(26.038 57.692)"/><rect class="al" width="4.048" height="7.111" transform="translate(33.769 57.692)"/><rect class="as" width="4.048" height="7.111" transform="translate(41.537 57.692)"/><rect class="al" width="4.048" height="7.111" transform="translate(49.268 57.692)"/><rect class="al" width="4.048" height="7.111" transform="translate(57.036 57.692)"/><rect class="al" width="4.048" height="7.111" transform="translate(64.767 57.692)"/><rect class="al" width="4.048" height="7.111" transform="translate(72.535 57.692)"/><rect class="e" width="60.974" height="2.042" transform="translate(20.823 10.247)"/><rect class="e" width="60.974" height="2.042" transform="translate(20.823 28.518)"/><rect class="e" width="60.974" height="3.246" transform="translate(20.823)"/><rect class="e" width="60.974" height="2.042" transform="translate(20.823 19.364)"/><rect class="e" width="60.974" height="2.042" transform="translate(20.823 46.533)"/><rect class="e" width="60.974" height="2.042" transform="translate(20.823 37.38)"/><rect class="e" width="60.974" height="2.042" transform="translate(20.823 55.65)"/><rect class="av" width="58.713" height="2.042" transform="translate(21.954 3.136)"/><rect class="av" width="58.713" height="2.042" transform="translate(21.954 12.363)"/><rect class="av" width="58.713" height="2.042" transform="translate(21.954 21.407)"/><rect class="av" width="58.713" height="2.042" transform="translate(21.954 30.633)"/><rect class="av" width="58.713" height="2.042" transform="translate(21.954 39.422)"/><rect class="av" width="58.713" height="2.042" transform="translate(21.954 48.648)"/><rect class="av" width="58.713" height="2.042" transform="translate(21.954 57.692)"/><path class="aw" d="M789.4,467.3" transform="translate(-723.904 -420.439)"/></g><g transform="translate(118.776 111.008)"><g class="ap" transform="translate(47.189 57.291)"><rect class="aq" width="15.462" height="1.678"/></g><g class="ap" transform="translate(48.83 59.953)"><rect class="aq" width="4.996" height="1.678"/></g><g class="ap" transform="translate(35.191 59.953)"><rect class="aq" width="8.716" height="1.678"/></g><g class="ap" transform="translate(37.234 11.67)"><rect class="aq" width="12.581" height="1.678"/></g><g class="ap" transform="translate(37.234 14.478)"><rect class="aq" width="8.132" height="1.678"/></g><g class="ap" transform="translate(54.374 14.478)"><rect class="aq" width="9.372" height="1.678"/></g><g class="ap" transform="translate(40.443 57.291)"><rect class="ar" width="12.727" height="1.678"/></g><path class="u" d="M453.975,399.409V396.2H402.3v3.209h1.13v6.783H402.3v2.042h1.13v7.075H402.3v2.042h1.13v7.111H402.3V426.5h1.13v6.819H402.3v2.042h1.13v7.111H402.3v2.042h1.13v7.075H402.3v2.042h1.13v7.111H402.3v2.042h1.13v6.965H402.3V471.8h1.13v9.081h49.414V471.8h1.13v-2.042h-1.13V462.79h1.13v-2.042h-1.13v-7.111h1.13v-2.042h-1.13V444.52h1.13v-2.042h-1.13v-7.111h1.13v-2.042h-1.13V426.5h1.13v-2.042h-1.13v-7.111h1.13v-2.042h-1.13v-7.075h1.13v-2.042h-1.13v-6.783Z" transform="translate(-402.3 -391.751)"/><g class="ap" transform="translate(42.12 59.953)"><rect class="ar" width="4.996" height="1.678"/></g><g class="ap" transform="translate(47.663 14.478)"><rect class="ar" width="6.637" height="1.678"/></g><g transform="translate(7.184)"><path class="an" d="M472.544,391.9H423.13v7.111H422v2.079h1.13v7.038H422v2.079h1.13v7.111H422v2.042h1.13v6.783H422v2.042h1.13V435.3H422v2.079h1.13v7.075H422v2.042h1.13V453.6H422v2.042h1.13v6.929H422v2.079h1.13v9.08h49.414v-9.08h1.13v-2.079h-1.13v-6.929h1.13V453.6h-1.13v-7.111h1.13V444.45h-1.13v-7.075h1.13V435.3h-1.13v-7.111h1.13v-2.042h-1.13V419.36h1.13v-2.042h-1.13v-7.111h1.13v-2.079h-1.13V401.09h1.13v-2.079h-1.13Z" transform="translate(-422 -389.019)"/><rect class="an" width="51.675" height="3.246"/></g><rect class="e" width="42.631" height="81.797" transform="translate(21.917 3.136)"/><rect class="al" width="4.048" height="7.111" transform="translate(25.455 3.136)"/><rect class="al" width="4.048" height="7.111" transform="translate(33.186 3.136)"/><rect class="al" width="4.048" height="7.111" transform="translate(40.953 3.136)"/><rect class="at" width="4.048" height="7.111" transform="translate(48.685 3.136)"/><rect class="al" width="4.048" height="7.111" transform="translate(56.416 3.136)"/><rect class="al" width="4.048" height="7.111" transform="translate(56.416 12.29)"/><rect class="as" width="4.048" height="7.111" transform="translate(48.685 12.29)"/><rect class="al" width="4.048" height="7.111" transform="translate(40.953 12.29)"/><rect class="au" width="4.048" height="7.111" transform="translate(33.186 12.29)"/><rect class="al" width="4.048" height="7.111" transform="translate(25.455 12.29)"/><rect class="as" width="4.048" height="7.111" transform="translate(25.455 21.407)"/><rect class="al" width="4.048" height="7.111" transform="translate(33.186 21.407)"/><rect class="al" width="4.048" height="7.111" transform="translate(40.953 21.407)"/><rect class="al" width="4.048" height="7.111" transform="translate(48.685 21.407)"/><rect class="al" width="4.048" height="7.111" transform="translate(56.416 21.407)"/><rect class="al" width="4.048" height="7.111" transform="translate(56.416 30.56)"/><rect class="as" width="4.048" height="7.111" transform="translate(48.685 30.56)"/><rect class="as" width="4.048" height="7.111" transform="translate(40.953 30.56)"/><rect class="al" width="4.048" height="7.111" transform="translate(33.186 30.56)"/><rect class="al" width="4.048" height="7.111" transform="translate(25.455 30.56)"/><rect class="al" width="4.048" height="7.111" transform="translate(25.455 39.385)"/><rect class="al" width="4.048" height="7.111" transform="translate(33.186 39.385)"/><rect class="al" width="4.048" height="7.111" transform="translate(40.953 39.385)"/><rect class="at" width="4.048" height="7.111" transform="translate(48.685 39.385)"/><rect class="al" width="4.048" height="7.111" transform="translate(56.416 39.385)"/><rect class="al" width="4.048" height="7.111" transform="translate(56.416 48.539)"/><rect class="as" width="4.048" height="7.111" transform="translate(48.685 48.539)"/><rect class="al" width="4.048" height="7.111" transform="translate(40.953 48.539)"/><rect class="au" width="4.048" height="7.111" transform="translate(33.186 48.539)"/><rect class="al" width="4.048" height="7.111" transform="translate(25.455 48.539)"/><rect class="as" width="4.048" height="7.111" transform="translate(25.455 57.692)"/><rect class="al" width="4.048" height="7.111" transform="translate(33.186 57.692)"/><rect class="al" width="4.048" height="7.111" transform="translate(40.953 57.692)"/><rect class="al" width="4.048" height="7.111" transform="translate(48.685 57.692)"/><rect class="al" width="4.048" height="7.111" transform="translate(56.416 57.692)"/><rect class="e" width="44.892" height="2.042" transform="translate(20.787 10.247)"/><rect class="e" width="44.892" height="2.042" transform="translate(20.787 28.518)"/><rect class="e" width="44.892" height="2.042" transform="translate(20.787 19.364)"/><rect class="e" width="44.892" height="2.042" transform="translate(20.787 46.533)"/><rect class="e" width="44.892" height="2.042" transform="translate(20.787 37.38)"/><rect class="e" width="44.892" height="2.042" transform="translate(20.787 55.65)"/><rect class="av" width="42.631" height="2.042" transform="translate(21.917 3.136)"/><path class="av" d="M482.567,419.942H462.4V417.9h42.667v2.042h-22.5" transform="translate(-440.483 -405.537)"/><rect class="av" width="42.631" height="2.042" transform="translate(21.917 21.407)"/><rect class="av" width="42.631" height="2.042" transform="translate(21.917 30.633)"/><rect class="av" width="42.631" height="2.042" transform="translate(21.917 39.422)"/><rect class="av" width="42.631" height="2.042" transform="translate(21.917 48.648)"/><rect class="av" width="42.631" height="2.042" transform="translate(21.917 57.692)"/><path class="aw" d="M537.7,512.5" transform="translate(-488.323 -465.639)"/><rect class="e" width="44.892" height="3.246" transform="translate(20.787)"/></g></g><g transform="translate(227.596 187.773)"><rect class="aq" width="11.67" height="1.933"/></g><g transform="translate(219.828 187.773)"><rect class="ar" width="8.533" height="1.933"/></g><rect class="e" width="70.492" height="2.37" transform="translate(167.606 187.736)"/><g transform="translate(0 185.038)"><rect class="ax" width="328.211" height="36.176"/></g><rect class="ay" width="328.211" height="6.345" transform="translate(0 180.625)"/><g transform="translate(9.992 168.372)"><path class="ay" d="M55.59,471.838a9.8,9.8,0,0,1-.328,2.553H27.4v-.438a7.321,7.321,0,0,1,.547-2.844A7.984,7.984,0,0,1,35.386,466a8.809,8.809,0,0,1,1.714.182,10.188,10.188,0,0,1,7.221-4.413c.4-.036.8-.073,1.167-.073A10.132,10.132,0,0,1,55.59,471.838Z" transform="translate(-27.4 -461.7)"/></g><g transform="translate(80.193 168.372)"><path class="ay" d="M248.09,471.838a9.8,9.8,0,0,1-.328,2.553H219.9v-.438a7.322,7.322,0,0,1,.547-2.844A7.984,7.984,0,0,1,227.886,466a8.809,8.809,0,0,1,1.714.182,10.188,10.188,0,0,1,7.221-4.413c.4-.036.8-.073,1.167-.073A10.132,10.132,0,0,1,248.09,471.838Z" transform="translate(-219.9 -461.7)"/></g><g transform="translate(34.827 173.003)"><path class="ay" d="M95.5,480.818a6.346,6.346,0,0,0,.219,1.641h17.65V482.2a5.034,5.034,0,0,0-5.033-5.069,5.566,5.566,0,0,0-1.094.109,6.471,6.471,0,0,0-4.558-2.808,5.386,5.386,0,0,0-.766-.036A6.451,6.451,0,0,0,95.5,480.818Z" transform="translate(-95.5 -474.4)"/></g><rect class="az" width="328.211" height="4.668" transform="translate(0 216.546)"/><ellipse class="az" cx="17.687" cy="2.662" rx="17.687" ry="2.662" transform="translate(99.557 197.911)"/><path class="ba" d="M300.842,287.934a42,42,0,0,0-9.518-25.345c-2.808-15.864-15.244-27.788-30.2-27.788-16.994,0-30.779,15.462-30.779,34.535a37.632,37.632,0,0,0,.875,8.169,32.467,32.467,0,0,0-8.825,22.61c0,16.994,12.29,30.815,27.46,30.815a24.536,24.536,0,0,0,9.919-2.079,33.094,33.094,0,0,0,5.725.511,31.591,31.591,0,0,0,13.457-2.99c.365.036.729.036,1.094.036,12.946,0,23.412-11.779,23.412-26.293A28.5,28.5,0,0,0,300.842,287.934Z" transform="translate(-141.296 -149.174)"/><line class="bb" y2="55.395" transform="translate(121.657 142.735)"/><line class="bc" y1="16.812" x2="9.81" transform="translate(121.584 160.422)"/><path class="bd" d="M308.922,293.181a18.217,18.217,0,0,0,1.2-6.528,16.955,16.955,0,0,0-6.71-13.821c-.839-13.42-10.794-24.032-22.975-24.032-11.852,0-21.625,10.065-22.9,23.011A26.7,26.7,0,0,0,247,293.51c0,14.259,10.32,25.856,23.048,25.856a21.9,21.9,0,0,0,16.666-8.023c1.568,7.33,7.439,12.764,14.441,12.764,8.205,0,14.879-7.476,14.879-16.666A17.078,17.078,0,0,0,308.922,293.181Z" transform="translate(-156.924 -158.068)"/><path class="be" d="M345.973,262.748A19.125,19.125,0,0,0,331.5,249.729c-2.48-.474-3.537,3.319-1.058,3.793a15.18,15.18,0,0,1,11.743,10.284C342.983,266.212,346.739,265.191,345.973,262.748Z" transform="translate(-209.036 -158.632)"/><path class="be" d="M377.211,306.634c-.146-.656-.255-1.313-.4-1.969a1.994,1.994,0,0,0-2.407-1.386,2.025,2.025,0,0,0-1.386,2.407c.146.656.255,1.313.4,1.969a1.964,1.964,0,0,0,3.793-1.021Z" transform="translate(-236.955 -192.635)"/><path class="az" d="M153.137,572.88c0,1.386-8.606,2.48-19.219,2.48s-19.219-1.13-19.219-2.48c0-1.386,8.606-2.48,19.219-2.48S153.137,571.531,153.137,572.88Z" transform="translate(-72.871 -362.387)"/><path class="bf" d="M145.506,349.207c0-19.583-14.15-34.207-31.618-34.207-9.919,0-18.744,3.866-24.543,11.852C75.2,327.946,64,341.147,64,357.3c0,15.572,10.43,28.445,23.886,30.268a26.381,26.381,0,0,0,13.821,3.939,27.046,27.046,0,0,0,18.526-7.549C134.638,380.679,145.506,366.383,145.506,349.207Z" transform="translate(-40.661 -200.126)"/><line class="bb" y2="55.395" transform="translate(68.632 152.8)"/><line class="bc" x1="11.706" y1="20.386" transform="translate(55.942 168.627)"/><path class="bd" d="M155.943,360.2c4.121-15.864-3.027-30.159-17.14-33.842-10.247-2.662-21.771.292-28.408,8.971-9.372,1.422-17.76,9.008-20.531,19.729-3.61,13.894,2.844,24.8,15.207,28.007,6.345,1.641,16.483-.255,19.62-3.647C136.178,384.885,151.932,375.658,155.943,360.2Z" transform="translate(-56.459 -206.739)"/><path class="be" d="M214.861,337.612a14.844,14.844,0,0,0-10.138-7.695c-2.48-.511-3.5,3.246-1.058,3.793a11.08,11.08,0,0,1,7.768,5.908C212.637,341.842,216.028,339.836,214.861,337.612Z" transform="translate(-128.505 -209.573)"/><path class="be" d="M244.395,372.5a1.959,1.959,0,0,0-2.772,0,1.993,1.993,0,0,0,0,2.772l.109.219h0v.036a.463.463,0,0,1,.036.219h0c0,.073,0,.182-.036.219a.4.4,0,0,1,.036-.182h0a1.959,1.959,0,0,0,3.793.985A4.82,4.82,0,0,0,244.395,372.5Z" transform="translate(-153.152 -236.292)"/><g transform="translate(217.64 210.967)"><line class="bg" x1="2.954"/></g><path class="bd" d="M233.757,464.385a6.187,6.187,0,0,0-4.157.729,6.973,6.973,0,0,0,3.537,2.553,6.187,6.187,0,0,0,4.157-.729A6.973,6.973,0,0,0,233.757,464.385Z" transform="translate(-145.87 -294.956)"/><path class="bd" d="M224.9,466.245a7.089,7.089,0,0,0-3.355-2.844,8.661,8.661,0,0,0,.875,4.631,7.089,7.089,0,0,0,3.355,2.844A8.626,8.626,0,0,0,224.9,466.245Z" transform="translate(-140.731 -294.408)"/><path class="bd" d="M419.457,375.223a6.325,6.325,0,0,1-4.157-.839,6.8,6.8,0,0,1,3.61-2.443,6.325,6.325,0,0,1,4.157.839A7.216,7.216,0,0,1,419.457,375.223Z" transform="translate(-263.849 -236.244)"/><path class="bd" d="M418.489,362.795a6.7,6.7,0,0,1-3.428,2.735,8.533,8.533,0,0,1,.948-4.595,6.7,6.7,0,0,1,3.428-2.735A8.163,8.163,0,0,1,418.489,362.795Z" transform="translate(-263.682 -227.572)"/><g transform="translate(191.456 158.635)"><path class="bh" d="M598.4,548.9l9.518,17.067L618.056,548.9" transform="translate(-571.633 -507.363)"/><circle class="bi" cx="19.693" cy="19.693" r="19.693" transform="translate(26.731 8.898)"/><path class="bd" d="M601,473.786c0,9.555,7.731,14.624,17.286,14.624s17.286-5.069,17.286-14.624a17.286,17.286,0,0,0-34.572,0Z" transform="translate(-573.284 -448.659)"/><circle class="bj" cx="24.142" cy="24.142" r="24.142" transform="translate(3.428)"/><path class="bd" d="M556.7,456.616c0,11.889,9.628,18.2,21.516,18.2s21.516-6.309,21.516-18.2a21.516,21.516,0,0,0-43.032,0Z" transform="translate(-545.14 -435.063)"/><path class="bd" d="M678.151,500.714a13.153,13.153,0,0,0-1.75,7.913,11.543,11.543,0,0,0,8.278-12.727A13.173,13.173,0,0,0,678.151,500.714Z" transform="translate(-621.152 -473.691)"/><path class="bd" d="M679.056,521.684a13.152,13.152,0,0,0-6.856,4.3,13.407,13.407,0,0,0,7.987,1.313,13.152,13.152,0,0,0,6.856-4.3A13.321,13.321,0,0,0,679.056,521.684Z" transform="translate(-618.519 -489.957)"/><path class="bk" d="M533.606,520.508a14.465,14.465,0,0,1,5.324,6.965A12.5,12.5,0,0,1,525,518.758,14.4,14.4,0,0,1,533.606,520.508Z" transform="translate(-525 -488.161)"/><path class="bk" d="M593.757,556.891a14.36,14.36,0,0,1,8.716,1.094,12.442,12.442,0,0,1-15.973,3.829A14.281,14.281,0,0,1,593.757,556.891Z" transform="translate(-564.072 -512.254)"/><path class="be" d="M615.38,448.738a24.479,24.479,0,0,0-8.169-5.507c-2.844-1.167-6.528-2.225-9.555-1.13-2.37.839-1.349,4.631,1.058,3.793,2.334-.839,5.324.219,7.512,1.167a20.2,20.2,0,0,1,6.418,4.486C614.359,453.3,617.131,450.525,615.38,448.738Z" transform="translate(-570.306 -439.22)"/><path class="be" d="M660.013,471.179a4.063,4.063,0,0,0-3.866-.948,1.994,1.994,0,0,0-1.386,2.407,2.025,2.025,0,0,0,2.407,1.386c.036,0,.073,0,.073-.036h0c.036,0,.036.036.073.036l-.036-.036a1.964,1.964,0,0,0,2.662-.073A1.856,1.856,0,0,0,660.013,471.179Z" transform="translate(-607.389 -457.284)"/></g><line class="bl" x1="4.376" y1="4.923" transform="translate(115.64 165.309)"/><path class="bd" d="M89.439,406.441a8.164,8.164,0,0,1,2.006,4.157,6.347,6.347,0,0,1-3.939-1.641A8.164,8.164,0,0,1,85.5,404.8,6.416,6.416,0,0,1,89.439,406.441Z" transform="translate(-54.32 -257.178)"/><path class="bd" d="M86.693,418.062a6.357,6.357,0,0,1,4.048,1.276,6.588,6.588,0,0,1-3.793,2.006,6.357,6.357,0,0,1-4.048-1.276A6.659,6.659,0,0,1,86.693,418.062Z" transform="translate(-52.668 -265.59)"/><path class="bd" d="M265.339,295.641a8.164,8.164,0,0,1,2.006,4.157,6.346,6.346,0,0,1-3.939-1.641A8.164,8.164,0,0,1,261.4,294,6.347,6.347,0,0,1,265.339,295.641Z" transform="translate(-166.073 -186.785)"/><path class="bd" d="M262.593,307.362a6.357,6.357,0,0,1,4.048,1.276,6.588,6.588,0,0,1-3.793,2.006,6.357,6.357,0,0,1-4.048-1.276A6.588,6.588,0,0,1,262.593,307.362Z" transform="translate(-164.421 -195.26)"/><g transform="translate(0 221.214)"><rect class="bm" width="328.211" height="119.059"/><g transform="translate(145.634 46.983)"><path class="bn" d="M647.1,649.12h-5.944a1.861,1.861,0,0,1,0-3.72H647.1a1.861,1.861,0,0,1,0,3.72Z" transform="translate(-639.35 -645.4)"/></g><g transform="translate(234.981 74.334)"><path class="bn" d="M647.1,649.12h-5.944a1.861,1.861,0,0,1,0-3.72H647.1a1.861,1.861,0,0,1,0,3.72Z" transform="translate(-639.35 -645.4)"/></g><g transform="translate(163.795 46.983)"><path class="bn" d="M718.124,649.12H690.955a1.861,1.861,0,0,1,0-3.72h27.169c2.37,0,2.37,3.72,0,3.72Z" transform="translate(-689.15 -645.4)"/></g><g transform="translate(253.142 74.334)"><path class="bn" d="M718.124,649.12H690.955a1.861,1.861,0,0,1,0-3.72h27.169c2.37,0,2.37,3.72,0,3.72Z" transform="translate(-689.15 -645.4)"/></g><g transform="translate(57.601 82.549)"><path class="bn" d="M165.7,653.62h-5.944a1.861,1.861,0,0,1,0-3.72H165.7a1.861,1.861,0,0,1,0,3.72Z" transform="translate(-157.95 -649.9)"/></g><g transform="translate(75.725 82.549)"><path class="bn" d="M236.624,653.62H209.455a1.861,1.861,0,0,1,0-3.72h27.169a1.861,1.861,0,0,1,0,3.72Z" transform="translate(-207.65 -649.9)"/></g><g transform="translate(176.34 13.43)"><path class="bn" d="M731.3,631.52h-5.944a1.861,1.861,0,0,1,0-3.72H731.3c2.37,0,2.37,3.72,0,3.72Z" transform="translate(-723.55 -627.8)"/></g><g transform="translate(265.687 40.781)"><path class="bn" d="M731.3,631.52h-5.944a1.861,1.861,0,0,1,0-3.72H731.3c2.37,0,2.37,3.72,0,3.72Z" transform="translate(-723.55 -627.8)"/></g></g><g transform="translate(56.243 225.882)"><g class="bo"><path class="bp" d="M156,623.12h35.3c2.37,0,2.407-3.72,0-3.72H156c-2.37.036-2.37,3.72,0,3.72Z" transform="translate(-154.225 -619.4)"/></g></g><g transform="translate(257.937 192.295)"><path class="bk" d="M762.33,547.029a18.97,18.97,0,0,1-.656,5H707.337c0-.255-.036-.547-.036-.839a15.486,15.486,0,0,1,15.535-15.535,14.558,14.558,0,0,1,3.355.365,19.578,19.578,0,0,1,14.077-8.57c.766-.073,1.532-.146,2.3-.146A19.727,19.727,0,0,1,762.33,547.029Z" transform="translate(-707.3 -527.3)"/><path class="bd" d="M771.712,537.719a18.8,18.8,0,0,1-17.176,10.758,19.359,19.359,0,0,1-9.372-2.407,19.494,19.494,0,0,1-18.963-.109,15.535,15.535,0,0,1,14.514-9.956,14.555,14.555,0,0,1,3.355.365,19.578,19.578,0,0,1,14.077-8.57A17.064,17.064,0,0,1,771.712,537.719Z" transform="translate(-719.308 -527.618)"/></g><g transform="translate(287.622 168.372)"><path class="ay" d="M788.7,471.838a9.8,9.8,0,0,0,.328,2.553H816.89v-.438a7.322,7.322,0,0,0-.547-2.844A7.984,7.984,0,0,0,808.9,466a8.809,8.809,0,0,0-1.714.182,10.188,10.188,0,0,0-7.221-4.413c-.4-.036-.8-.073-1.167-.073A10.132,10.132,0,0,0,788.7,471.838Z" transform="translate(-788.7 -461.7)"/></g><g transform="translate(273.108 173.003)"><path class="ay" d="M766.769,480.818a6.348,6.348,0,0,1-.219,1.641H748.9V482.2a5.034,5.034,0,0,1,5.033-5.069,5.566,5.566,0,0,1,1.094.109,6.471,6.471,0,0,1,4.558-2.808,5.387,5.387,0,0,1,.766-.036A6.428,6.428,0,0,1,766.769,480.818Z" transform="translate(-748.9 -474.4)"/></g><g transform="translate(88.617 139.672)"><path class="be" d="M243,383Z" transform="translate(-243 -383)"/></g><path class="be" d="M819.014,537.159a11.5,11.5,0,0,0-3.136-2.48,1.97,1.97,0,1,0-2.006,3.392c.255.146.474.255.729.4a2.026,2.026,0,0,1,.292.219c.036.036.146.109.182.146a10.623,10.623,0,0,1,1.13,1.094,1.993,1.993,0,0,0,2.772,0A1.959,1.959,0,0,0,819.014,537.159Z" transform="translate(-516.476 -339.539)"/><path class="be" d="M800.055,529.083a2.166,2.166,0,0,0-1.386-.583,1.993,1.993,0,0,0-1.969,1.969v.182a1.993,1.993,0,0,0,.583,1.386,2.166,2.166,0,0,0,1.386.583,1.993,1.993,0,0,0,1.969-1.969v-.182A1.928,1.928,0,0,0,800.055,529.083Z" transform="translate(-506.161 -335.767)"/></g><g transform="translate(1302.659 591.388)"><path class="bq" d="M280.566,80.342s-.084,1.426-.336,3.356c-.587,4.7-2.014,12.668-5.2,13.423,0,0-6.628,1.426-7.886.671,0,0,.5-22.232-17.7-27.937-10.823-3.356-31.8-3.524-34.9,28.86,0,0-123.243-2.936-131.633-1.594,0,0-3.272-.587-2.6-5.621a18.407,18.407,0,0,0-.084-2.852c-.419-6.8-3.272-23.491-21.31-27.35,0,0-25.84-5.957-31.293,23.071a32.9,32.9,0,0,0-.587,4.279c-.168,1.51-.252,3.1-.336,4.782,0,0-9.9,2.265-14.011-1.007h0V89.806s-.168-.906,0-1.158c.923-1.091,4.323-4.027,1.89-4.279a54.035,54.035,0,0,1,0-15.776c.315-2.321,0-3.922,0-7.3s-2.016-3.89,0-6.2c3.2-3.67,2.631-9.969,10.108-10.582,0,0,37-7.467,47.15-12.668,18.457-9.48,49.667-29.2,95.474-26.6,19.8,1.091,52.435.671,78.862,7.8a10.6,10.6,0,0,1,1.762,3.775s18.289,19.38,19.38,20.3c.923.839,1.762,1.594,2.517,2.433a28.324,28.324,0,0,1,3.356,3.859c3.02,4.195,4.195,9.145,1.007,16.528C274.358,59.955,282.664,73.714,280.566,80.342Z" transform="translate(-11.843 -0.758)"/><g transform="translate(14.971 59.782)"><path class="br" d="M35.883,105.261l-6.292-1.175s-2.433-32.3,26.6-32.887c11.074-.168,29.7,7.215,27.1,34.9,0,0-2.433,4.7-7.551,5.453,0,0,14.346-24.833-13.339-34.4C52.662,73.8,33.45,81.015,35.883,105.261Z" transform="translate(-29.54 -71.197)"/><path class="br" d="M257.3,110.364l-4.111.168s-2.181-28.944,25.5-31.042c10.99-.839,29.364,8.39,27.182,30.287,0,0-.419-2.181-3.691-1.175,0,0,.168-15.353-16.276-21.981C276.431,82.762,257.723,86.453,257.3,110.364Z" transform="translate(-65.55 -72.524)"/><g transform="translate(3.814 3.701)"><ellipse class="bs" cx="22.316" cy="23.071" rx="22.316" ry="23.071" transform="translate(0 44.584) rotate(-87.336)"/><ellipse class="bt" cx="16.444" cy="16.695" rx="16.444" ry="16.695" transform="translate(5.825 39.496) rotate(-87.34)"/><path class="bs" d="M71.4,101.778a11.466,11.466,0,0,1-12,10.99A11.585,11.585,0,0,1,48.5,100.687a11.466,11.466,0,0,1,12-10.99A11.585,11.585,0,0,1,71.4,101.778Z" transform="translate(-36.405 -77.874)"/><path class="bt" d="M73.441,104.018l.5-4.363-8.977-.5c-.084-.168-.084-.336-.168-.5l7.047-5.2-2.769-3.44-6.712,5.957a1.834,1.834,0,0,1-.419-.252l1.426-8.893L59.011,86.4l-.587,8.809a1.975,1.975,0,0,0-.671.168l-5.537-7.131L48.859,91.1l5.873,6.376a4.447,4.447,0,0,0-.671,1.258l-8.893-.755L45,102.34h8.893c.084.168.084.252.168.419l-7.047,5.789,3.02,3.188,6.376-6.292a2.98,2.98,0,0,0,.755.336l-1.846,8.809,4.363.755,1.175-9.312a1.192,1.192,0,0,0,.5-.168l-.084.084,5.2,7.467,3.524-2.6-5.789-7.047a4.52,4.52,0,0,0,.587-1.091Z" transform="translate(-35.843 -77.346)"/><g transform="translate(18.964 19.114)"><path class="bu" d="M60.415,99.741A1.261,1.261,0,1,1,59.241,98.4,1.244,1.244,0,0,1,60.415,99.741Z" transform="translate(-56.884 -98.39)"/><path class="bu" d="M66.815,100.741A1.261,1.261,0,1,1,65.641,99.4,1.244,1.244,0,0,1,66.815,100.741Z" transform="translate(-57.914 -98.551)"/><path class="bu" d="M65.615,107.041a1.261,1.261,0,1,1-1.175-1.342A1.239,1.239,0,0,1,65.615,107.041Z" transform="translate(-57.721 -99.566)"/><path class="bu" d="M59.215,106.041a1.261,1.261,0,1,1-1.175-1.342A1.244,1.244,0,0,1,59.215,106.041Z" transform="translate(-56.69 -99.405)"/></g><g transform="translate(187.579 7.518)"><path class="bs" d="M303.754,108c-.587,12.333-11.326,21.813-24.078,21.226s-22.568-11.074-21.981-23.407S269.021,84.008,281.773,84.6,304.341,95.669,303.754,108Z" transform="translate(-257.67 -84.569)"/><ellipse class="bt" cx="16.444" cy="16.695" rx="16.444" ry="16.695" transform="translate(4.876 38.482) rotate(-87.331)"/><path class="bs" d="M293.8,109.578a11.466,11.466,0,0,1-12,10.99A11.585,11.585,0,0,1,270.9,108.487a11.465,11.465,0,1,1,22.9,1.091Z" transform="translate(-259.799 -86.648)"/><path class="bt" d="M295.841,111.818l.5-4.363-8.977-.5c-.084-.168-.084-.336-.168-.5l7.047-5.2-2.769-3.44-6.712,5.957a1.834,1.834,0,0,1-.419-.252l1.426-8.893-4.363-.419-.587,8.809a1.975,1.975,0,0,0-.671.168l-5.537-7.131L271.259,98.9l5.873,6.376a4.447,4.447,0,0,0-.671,1.258l-8.893-.755-.168,4.363h8.893c.084.168.084.252.168.419l-7.047,5.789,3.02,3.188,6.376-6.292a2.98,2.98,0,0,0,.755.336l-1.846,8.809,4.363.755,1.175-9.312a1.192,1.192,0,0,0,.5-.168l-.084.084,5.2,7.467,3.524-2.6-5.789-7.047a4.521,4.521,0,0,0,.587-1.091Z" transform="translate(-259.237 -86.12)"/><g transform="translate(17.971 18.056)"><path class="bu" d="M282.815,107.441a1.261,1.261,0,1,1-1.175-1.342A1.356,1.356,0,0,1,282.815,107.441Z" transform="translate(-279.284 -106.09)"/><path class="bu" d="M289.215,108.441a1.261,1.261,0,1,1-1.175-1.342A1.356,1.356,0,0,1,289.215,108.441Z" transform="translate(-280.314 -106.251)"/><path class="bu" d="M288.015,114.741a1.261,1.261,0,1,1-1.175-1.342A1.289,1.289,0,0,1,288.015,114.741Z" transform="translate(-280.121 -107.266)"/><path class="bu" d="M281.615,113.741a1.261,1.261,0,1,1-1.175-1.342A1.356,1.356,0,0,1,281.615,113.741Z" transform="translate(-279.09 -107.105)"/></g></g></g></g><g transform="translate(0 0)"><path class="bv" d="M270.167,39.552h0c-2.852.336-12.836-2.181-12.836-2.181C251.71,37.2,245,37.119,237.448,37.2c-42.032.336-109.065,4.027-152.607,6.628-25.169,1.51-42.451,2.685-42.451,2.685C29.8,55.493,13.679,66.148,13.679,66.148V58.236c1.342-9.9-3.138.242,12.244-8.816,0,0,5.475-6.343,13.7-8.189,11.494-2.6,26.6-6.46,32.468-9.48,18.457-9.48,49.667-29.2,95.474-26.6,19.8,1.091,52.435.671,78.862,7.8a10.6,10.6,0,0,1,1.762,3.775h0c.419.5,16.024,16.947,18.961,19.883a1.89,1.89,0,0,0,.419.419C268.489,37.958,269.328,38.714,270.167,39.552Z" transform="translate(-12.015 -0.742)"/><path class="bw" d="M187.466,56.27c-.084,1.846-4.027,3.188-8.809,2.936s-8.641-1.93-8.557-3.775,4.027-3.188,8.809-2.936C183.775,52.662,187.55,54.424,187.466,56.27Z" transform="translate(-37.205 -8.398)"/><path class="bw" d="M269.666,52.47c-.084,1.846-4.027,3.188-8.809,2.936s-8.641-1.93-8.557-3.775,4.027-3.188,8.809-2.936C265.975,48.946,269.75,50.624,269.666,52.47Z" transform="translate(-50.442 -7.786)"/><path class="bw" d="M301.957,63.271a5.587,5.587,0,1,1-5.285-5.873A5.66,5.66,0,0,1,301.957,63.271Z" transform="translate(-56.641 -9.191)"/><path class="bq" d="M97.082,33.8s-26.763,13.675-15.6,14.178l13.843.5S94.733,40.176,97.082,33.8Z" transform="translate(-22.495 -5.392)"/><path class="bt" d="M320.768,67.07c-4.7.336-19.128-13.675-19.128-13.675-5.453-7.215,17.534-2.936,17.534-2.936l.587.084C322.865,54.737,323.956,59.687,320.768,67.07Z" transform="translate(-58.253 -7.872)"/><path class="bt" d="M129.5,19.2c6.8-2.349,35.4-11.745,54.281-8.809a1.055,1.055,0,0,1,.839,1.342c-1.007,4.279-4.7,19.548-6.8,26.008a2.794,2.794,0,0,1-2.685,2.014l-48.492,2.6L123.8,34.638l3.691-13.591A3.381,3.381,0,0,1,129.5,19.2Z" transform="translate(-29.749 -1.532)"/><path class="bt" d="M129.5,19.2c6.8-2.349,35.4-11.745,54.281-8.809a1.055,1.055,0,0,1,.839,1.342c-1.007,4.279-4.7,19.548-6.8,26.008a2.794,2.794,0,0,1-2.685,2.014l-48.492,2.6L123.8,34.638l3.691-13.591A3.381,3.381,0,0,1,129.5,19.2Z" transform="translate(-29.749 -1.532)"/><path class="bt" d="M129.5,19.2c6.8-2.349,35.4-11.745,54.281-8.809a1.055,1.055,0,0,1,.839,1.342c-1.007,4.279-4.7,19.548-6.8,26.008a2.794,2.794,0,0,1-2.685,2.014l-48.492,2.6L123.8,34.638l3.691-13.591A3.381,3.381,0,0,1,129.5,19.2Z" transform="translate(-29.749 -1.532)"/><path class="bt" d="M129.5,19.2c6.8-2.349,35.4-11.745,54.281-8.809a1.055,1.055,0,0,1,.839,1.342c-1.007,4.279-4.7,19.548-6.8,26.008a2.794,2.794,0,0,1-2.685,2.014l-48.492,2.6L123.8,34.638l3.691-13.591A3.381,3.381,0,0,1,129.5,19.2Z" transform="translate(-29.749 -1.532)"/><path class="bv" d="M219.657,84.325c-2.936-.168-4.363-6.292-4.363-6.292.587-6.041-5.537-4.95-7.886-5.621-37.585-10.151-104.367-.671-118.461-.419-1.175,0-11.074,3.775-11.074,4.027-6.292-7.551-16.444-9.648-22.82-9.229C27.786,68.636,30.387,94.14,30.387,94.14a1.038,1.038,0,0,0,.252.168C36.176,65.28,61.932,71.237,61.932,71.237a26.458,26.458,0,0,1,21.31,27.35c.084-.419,12.836,2.1,14.262,1.846l68.711,1.762L203.8,103.2s6.124,1.258,9.48-7.047c.168-.419.336-.755.5-1.258a90.921,90.921,0,0,1,6.208-9.4C220.076,84.744,219.909,84.325,219.657,84.325Z" transform="translate(-14.695 -10.697)"/><path class="bx" d="M111.2,101.511s54.533-11.158,97.487-3.524Z" transform="translate(-27.72 -15.299)"/><path class="bq" d="M21.5,65.863S41.551,76.854,72.677,49L43.649,53.7C43.649,53.614,31.316,61.249,21.5,65.863Z" transform="translate(-13.275 -7.84)"/><path class="bw" d="M312.261,38.983a8.705,8.705,0,0,0-.839-.336A35.27,35.27,0,0,1,293.3,19.1C293.719,19.519,309.324,36.047,312.261,38.983Z" transform="translate(-57.045 -3.025)"/><path class="by" d="M262.3,9.07s4.027-3.188,4.7.839Z" transform="translate(-52.053 -1.217)"/><rect class="by" width="0.419" height="9.061" transform="translate(219.258 0) rotate(37.172)"/><path class="bw" d="M293.207,95.225c-.587,4.7-2.014,12.668-5.2,13.423,0,0-6.628,1.426-7.886.671,0,0,.5-22.232-17.7-27.937-10.823-3.356-31.8-3.524-34.9,28.86,0,0-123.243-2.936-131.633-1.594,0,0-3.272-.587-2.6-5.621a23.147,23.147,0,0,0-.084-3.188s111.078-10.907,130.039-2.1c0,0,10.739-26.343,37.5-20.219a29.384,29.384,0,0,1,17.534,11.662s9.229,8.222,14.514,6.124A1.708,1.708,0,0,0,293.207,95.225Z" transform="translate(-24.82 -12.285)"/><path class="bx" d="M49.749,49.107s27.937-5.537,35.4-10.907c0,0-17.87,10.487-8.725,9.9,50.925-3.44,166.7-5.873,166.7-5.621.252,6.041-195.73,9.48-195.73,9.48S50.42,51.036,49.749,49.107Z" transform="translate(-17.446 -6.101)"/><path class="bz" d="M282.887,13.791s-7.467,1.175-9.4,2.6a1.92,1.92,0,0,1-1.762.336A196.553,196.553,0,0,0,240.1,10.1C240.184,10.184,263.675,10.436,282.887,13.791Z" transform="translate(-48.478 -1.576)"/><path class="ca" d="M42.07,53.5l-.252.252c-.084.084-.168.252-.336.336-12,11.829-29.615,10.571-29.615,10.571s-1.412.223,3.874-3.972c1.51-1.258,1.027-8.7,3.544-9.451.419-.168,4.579.084,5.082,0,0,0,6.8-1.091,15.017-2.936l.084.084C39.469,48.3,48.026,50.565,42.07,53.5Z" transform="translate(-11.696 -7.727)"/><path class="bz" d="M224.892,100.992c-3.356,8.306-9.48,7.047-9.48,7.047l-37.585-1.007-68.711-1.762a13.583,13.583,0,0,1-3.524.252L101.9,102.5s98.494-10.487,122.488-1.678A.709.709,0,0,0,224.892,100.992Z" transform="translate(-26.222 -15.618)"/><path class="cb" d="M238.639,74.325c-2.769,1.342-5.621,4.279-8.054,7.383a70.451,70.451,0,0,0-6.208,9.4l-.5,1.258c-3.356,8.306-9.48,7.047-9.48,7.047L176.808,98.4,108.1,96.642a13.583,13.583,0,0,1-3.524.252c-5.957-.5-4.866-6.544-4.866-6.544C97.022,83.89,96.1,76.507,96.1,69.8A93.926,93.926,0,0,1,98.113,50c8.474-1.51,46.227-3.272,82.05-4.53C216.49,44.123,250.8,43.2,250.8,43.2,254.579,63.755,238.639,74.325,238.639,74.325Z" transform="translate(-25.288 -6.906)"/><path class="cb" d="M195.165,46.2s-6.963,42.955-3.272,52.1" transform="translate(-40.541 -7.389)"/></g><g transform="translate(72.897 6.204)"><path class="cc" d="M251.2,37.34a.308.308,0,0,1-.084.252c-19.632.168-44.633,1.007-70.221,2.181-29.2,1.342-59.147,3.02-82.3,4.446v-.084s-.5-15.6,5.118-18.122c0,0,37.921-21.477,84.316-18.373,15.185,1.007,58.643,2.517,59.986,11.242C247.933,18.883,251.289,34.068,251.2,37.34Z" transform="translate(-98.586 -7.334)"/><path class="bt" d="M210.766,13.129c-1.175,6.208-4.866,25.253-4.866,26.511l46.227-1.007s9.229-11.745,7.215-19.883C259.09,17.743,228.8,11.618,213.2,11.2A2.353,2.353,0,0,0,210.766,13.129Z" transform="translate(-115.868 -7.956)"/><path class="bt" d="M107.029,30.937c2.936-2.433,10.068-5.2,13.759-6.544.587-.168,1.175.252,1.007.839-.587,3.188-2.349,12.081-3.188,12.584,0,0-9.229,2.433-12.752.252C105.771,38.152,104.932,32.615,107.029,30.937Z" transform="translate(-99.719 -10.075)"/><path class="br" d="M120.068,34.738s3.608,6.963.084,9.9c0,0-10.068,1.258-10.151-5.537C110,39.017,110.755,32.976,120.068,34.738Z" transform="translate(-100.424 -11.696)"/><g transform="translate(90.032 3.237)"><g class="cd"><rect class="e" width="4.446" height="47.989" transform="matrix(0.746, 0.666, -0.666, 0.746, 36.686, -6.372)"/><rect class="e" width="9.984" height="47.989" transform="matrix(0.746, 0.666, -0.666, 0.746, 45.696, -3.554)"/></g></g><path class="bt" d="M129.5,19.2c6.8-2.349,35.4-11.745,54.281-8.809a1.055,1.055,0,0,1,.839,1.342c-1.007,4.279-4.7,19.548-6.8,26.008a2.794,2.794,0,0,1-2.685,2.014l-48.492,2.6L123.8,34.638l3.691-13.591A3.381,3.381,0,0,1,129.5,19.2Z" transform="translate(-102.647 -7.736)"/><g transform="translate(21.153 2.093)"><g class="ce"><rect class="e" width="4.027" height="58.308" transform="translate(42.419 -7.301) rotate(38.74)"/><rect class="e" width="15.605" height="58.308" transform="translate(52.678 -7.651) rotate(38.74)"/></g></g></g></g><g transform="translate(1280.262 608.167)"><g class="b" transform="translate(0 0)"><circle class="ck" cx="31.042" cy="31.042" r="31.042"/><circle class="ch" cx="31.042" cy="31.042" r="30.542"/></g><g class="cf" transform="translate(0 0.839)"><g transform="translate(15.196 -51.639)"><path class="bq" d="M346.732,97.655s-.1,1.754-.418,4.127c-.732,5.778-2.511,15.58-6.486,16.509,0,0-8.264,1.754-9.834.825,0,0,.628-27.343-22.073-34.359-13.5-4.127-39.648-4.334-43.519,35.494,0,0-153.676-3.611-164.137-1.96,0,0-4.08-.722-3.243-6.913a22.328,22.328,0,0,0-.1-3.508c-.523-8.358-4.08-28.89-26.572-33.637,0,0-32.221-7.326-39.02,28.374a39.943,39.943,0,0,0-.732,5.262c-.209,1.857-.314,3.818-.418,5.881,0,0-12.344,2.786-17.47-1.238h0v-3.219s-.209-1.115,0-1.424c1.151-1.341,5.39-4.953,2.356-5.262a65.556,65.556,0,0,1,0-19.4c.392-2.854,0-4.824,0-8.972s-2.514-4.784,0-7.622c3.994-4.514,3.28-12.261,12.6-13.014,0,0,46.134-9.183,58.792-15.58C109.471,26.357,148.387,2.11,205.505,5.309c24.689,1.341,65.383.825,98.336,9.6a12.967,12.967,0,0,1,2.2,4.643S328.843,43.382,330.2,44.517c1.151,1.032,2.2,1.96,3.138,2.992a34.98,34.98,0,0,1,4.185,4.746c3.766,5.159,5.231,11.247,1.255,20.326C338.991,72.582,349.347,89.5,346.732,97.655Z" transform="translate(-11.654 0.27)"/><g transform="translate(18.667 73.571)"><path class="br" d="M37.449,113.091,29.6,111.646S26.569,71.922,62.765,71.2c13.809-.206,37.033,8.873,33.79,42.923,0,0-3.034,5.778-9.415,6.707,0,0,17.889-30.541-16.633-42.3C58.371,74.4,34.415,83.272,37.449,113.091Z" transform="translate(-29.54 -71.197)"/><path class="br" d="M258.328,117.472l-5.126.206s-2.72-35.6,31.8-38.176c13.7-1.032,36.614,10.318,33.895,37.248,0,0-.523-2.683-4.6-1.445,0,0,.209-18.882-20.295-27.033C282.18,83.526,258.851,88.066,258.328,117.472Z" transform="translate(-19.226 -70.935)"/><g transform="translate(4.774 4.532)"><g transform="translate(0 0)"><path class="bs" d="M27.428,0C42.587.01,54.883,12.9,54.893,28.785s-12.27,28.76-27.428,28.75S.01,44.638,0,28.75,12.27-.01,27.428,0Z" transform="translate(0 54.833) rotate(-87.336)"/><path class="bt" d="M20.211,0C31.38.007,40.44,9.333,40.448,20.83s-9.041,20.811-20.211,20.8S.007,32.3,0,20.8,9.041-.007,20.211,0Z" transform="translate(7.259 48.581) rotate(-87.34)"/><path class="bs" d="M77.06,104.558A14.3,14.3,0,1,1,63.46,89.7,14.221,14.221,0,0,1,77.06,104.558Z" transform="translate(-33.44 -75.141)"/><path class="bt" d="M80.464,108.068l.628-5.365L69.9,102.083c-.1-.206-.1-.413-.209-.619l8.787-6.4-3.452-4.23-8.369,7.326a2.293,2.293,0,0,1-.523-.31L67.91,86.916,62.47,86.4l-.732,10.834a2.49,2.49,0,0,0-.837.206L54,88.67l-4.185,3.508,7.323,7.842a5.445,5.445,0,0,0-.837,1.548l-11.089-.929L45,106H56.089c.1.206.1.31.209.516l-8.787,7.119,3.766,3.921,7.951-7.738a3.742,3.742,0,0,0,.942.413l-2.3,10.834,5.44.929,1.465-11.453a1.5,1.5,0,0,0,.628-.206l-.1.1,6.486,9.183,4.394-3.2-7.218-8.667a5.536,5.536,0,0,0,.732-1.341Z" transform="translate(-33.601 -75.245)"/><g transform="translate(23.629 23.526)"><path class="cg" d="M61.039,100.051A1.573,1.573,0,1,1,59.574,98.4,1.538,1.538,0,0,1,61.039,100.051Z" transform="translate(-56.635 -98.39)"/><path class="cg" d="M67.439,101.051A1.573,1.573,0,1,1,65.974,99.4,1.538,1.538,0,0,1,67.439,101.051Z" transform="translate(-56.34 -98.359)"/><path class="cg" d="M66.239,107.351a1.573,1.573,0,1,1-1.465-1.651A1.531,1.531,0,0,1,66.239,107.351Z" transform="translate(-56.395 -98.158)"/><path class="cg" d="M59.839,106.351a1.573,1.573,0,1,1-1.465-1.651A1.538,1.538,0,0,1,59.839,106.351Z" transform="translate(-56.69 -98.19)"/></g></g><g transform="translate(233.879 9.266)"><path class="bs" d="M315.134,113.388c-.732,15.167-14.123,26.827-30.024,26.1s-28.141-13.62-27.409-28.787,14.123-26.827,30.024-26.1S315.866,98.221,315.134,113.388Z" transform="translate(-257.67 -84.569)"/><path class="bt" d="M20.211,0C31.38.007,40.44,9.333,40.448,20.83s-9.041,20.811-20.211,20.8S.007,32.3,0,20.8,9.041-.007,20.211,0Z" transform="translate(6.094 47.315) rotate(-87.331)"/><path class="bs" d="M299.46,112.358A14.3,14.3,0,1,1,285.86,97.5,14.221,14.221,0,0,1,299.46,112.358Z" transform="translate(-257.06 -84.159)"/><path class="bt" d="M302.864,115.868l.628-5.365-11.194-.619c-.1-.206-.1-.413-.209-.619l8.787-6.4-3.452-4.23-8.369,7.326a2.291,2.291,0,0,1-.523-.31l1.778-10.937-5.44-.516-.732,10.834a2.49,2.49,0,0,0-.837.206l-6.9-8.77-4.185,3.508,7.323,7.842a5.444,5.444,0,0,0-.837,1.548l-11.089-.929L267.4,113.8h11.089c.1.206.1.31.209.516l-8.787,7.119,3.766,3.921,7.951-7.738a3.742,3.742,0,0,0,.942.413l-2.3,10.834,5.44.929,1.465-11.453a1.5,1.5,0,0,0,.628-.206l-.1.1,6.486,9.183,4.394-3.2-7.218-8.667a5.538,5.538,0,0,0,.732-1.341Z" transform="translate(-257.221 -84.263)"/><g transform="translate(22.408 22.206)"><path class="cg" d="M283.439,107.751a1.573,1.573,0,1,1-1.465-1.651A1.676,1.676,0,0,1,283.439,107.751Z" transform="translate(-279.035 -106.09)"/><path class="cg" d="M289.839,108.751a1.573,1.573,0,1,1-1.465-1.651A1.676,1.676,0,0,1,289.839,108.751Z" transform="translate(-278.74 -106.059)"/><path class="cg" d="M288.639,115.051a1.573,1.573,0,1,1-1.465-1.651A1.593,1.593,0,0,1,288.639,115.051Z" transform="translate(-278.795 -105.858)"/><path class="cg" d="M282.239,114.051a1.573,1.573,0,1,1-1.465-1.651A1.676,1.676,0,0,1,282.239,114.051Z" transform="translate(-279.09 -105.89)"/></g></g></g></g><g transform="translate(0 0)"><path class="bv" d="M333.5,47.512h0c-3.557.413-16.006-2.683-16.006-2.683-7.009-.206-15.378-.31-24.793-.206-52.411.413-136,4.953-190.29,8.151-31.384,1.857-52.934,3.3-52.934,3.3-15.692,11.04-35.8,24.144-35.8,24.144V70.49c1.674-12.175-3.912.3,15.268-10.843,0,0,6.827-7.8,17.079-10.071,14.332-3.2,33.162-7.945,40.485-11.659C109.526,26.258,148.442,2.01,205.56,5.209c24.688,1.341,65.383.825,98.336,9.6a12.967,12.967,0,0,1,2.2,4.643h0c.523.619,19.981,20.842,23.642,24.454a2.342,2.342,0,0,0,.523.516C331.409,45.552,332.455,46.481,333.5,47.512Z" transform="translate(-11.605 0.267)"/><path class="bw" d="M191.755,57.144c-.1,2.27-5.021,3.921-10.984,3.611S170,58.382,170.1,56.112s5.021-3.921,10.984-3.611C187.152,52.708,191.859,54.874,191.755,57.144Z" transform="translate(-4.39 1.778)"/><path class="bw" d="M273.955,53.344c-.1,2.27-5.021,3.921-10.984,3.611S252.2,54.582,252.3,52.312s5.021-3.921,10.984-3.611C269.352,49.011,274.059,51.074,273.955,53.344Z" transform="translate(-0.598 1.658)"/><path class="bw" d="M304.714,64.623a6.967,6.967,0,1,1-6.591-7.223A7,7,0,0,1,304.714,64.623Z" transform="translate(1.177 1.935)"/><path class="bq" d="M101.608,33.8S68.236,50.618,82.15,51.237l17.261.619S98.678,41.642,101.608,33.8Z" transform="translate(-8.603 1.185)"/><path class="bt" d="M325.7,71.177c-5.858.413-23.852-16.818-23.852-16.818-6.8-8.873,21.864-3.611,21.864-3.611l.732.1C328.313,56.01,329.673,62.1,325.7,71.177Z" transform="translate(1.639 1.675)"/><path class="bt" d="M130.914,21.355C139.387,18.466,175.06,6.91,198.6,10.521a1.3,1.3,0,0,1,1.046,1.651c-1.255,5.262-5.858,24.041-8.474,31.986a3.477,3.477,0,0,1-3.348,2.476l-60.466,3.2L123.8,40.34l4.6-16.715A4.194,4.194,0,0,1,130.914,21.355Z" transform="translate(-6.525 0.423)"/><path class="bt" d="M130.914,21.355C139.387,18.466,175.06,6.91,198.6,10.521a1.3,1.3,0,0,1,1.046,1.651c-1.255,5.262-5.858,24.041-8.474,31.986a3.477,3.477,0,0,1-3.348,2.476l-60.466,3.2L123.8,40.34l4.6-16.715A4.194,4.194,0,0,1,130.914,21.355Z" transform="translate(-6.525 0.423)"/><path class="bt" d="M130.914,21.355C139.387,18.466,175.06,6.91,198.6,10.521a1.3,1.3,0,0,1,1.046,1.651c-1.255,5.262-5.858,24.041-8.474,31.986a3.477,3.477,0,0,1-3.348,2.476l-60.466,3.2L123.8,40.34l4.6-16.715A4.194,4.194,0,0,1,130.914,21.355Z" transform="translate(-6.525 0.423)"/><path class="bt" d="M130.914,21.355C139.387,18.466,175.06,6.91,198.6,10.521a1.3,1.3,0,0,1,1.046,1.651c-1.255,5.262-5.858,24.041-8.474,31.986a3.477,3.477,0,0,1-3.348,2.476l-60.466,3.2L123.8,40.34l4.6-16.715A4.194,4.194,0,0,1,130.914,21.355Z" transform="translate(-6.525 0.423)"/><path class="bv" d="M266.41,88.366c-3.661-.206-5.44-7.738-5.44-7.738.732-7.429-6.9-6.088-9.834-6.913C204.27,61.23,121,72.89,103.423,73.2c-1.465,0-13.809,4.643-13.809,4.953C81.768,68.866,69.11,66.286,61.16,66.8c-34,2.27-30.756,33.637-30.756,33.637a1.3,1.3,0,0,0,.314.206c6.9-35.7,39.021-28.374,39.021-28.374,18.412,3.921,27.2,19.4,26.572,33.637.1-.516,16.006,2.579,17.784,2.27l85.678,2.167,46.866,1.238s7.637,1.548,11.821-8.667c.209-.516.418-.929.628-1.548a111.678,111.678,0,0,1,7.741-11.556C266.933,88.882,266.723,88.366,266.41,88.366Z" transform="translate(-10.837 2.232)"/><path class="bx" d="M111.2,102.935s68-13.723,121.56-4.334Z" transform="translate(-7.106 3.141)"/><path class="bq" d="M21.5,69.739S46.5,83.256,85.314,49l-36.2,5.778C49.118,54.675,33.74,64.064,21.5,69.739Z" transform="translate(-11.244 1.668)"/><path class="bw" d="M316.942,43.554a10.937,10.937,0,0,0-1.046-.413C298.531,34.99,293.4,19.616,293.3,19.1,293.823,19.616,313.281,39.942,316.942,43.554Z" transform="translate(1.293 0.718)"/><path class="by" d="M262.3,9.345s5.021-3.921,5.858,1.032Z" transform="translate(-0.137 0.361)"/><path class="by" d="M.075,0l.52,0L.52,11.2,0,11.2Z" transform="translate(273.342 0) rotate(37.172)"/><path class="bw" d="M342.6,99.506c-.732,5.778-2.511,15.58-6.486,16.509,0,0-8.264,1.754-9.834.825,0,0,.628-27.343-22.073-34.359-13.5-4.127-39.648-4.334-43.519,35.494,0,0-153.676-3.611-164.137-1.96,0,0-4.08-.722-3.243-6.913a28.077,28.077,0,0,0-.1-3.921S231.707,91.767,255.35,102.6c0,0,13.39-32.4,46.762-24.866a36.732,36.732,0,0,1,21.864,14.342s11.507,10.112,18.1,7.532A2.155,2.155,0,0,0,342.6,99.506Z" transform="translate(-7.937 2.546)"/><path class="bx" d="M50.329,51.613S85.165,44.8,94.476,38.2c0,0-22.282,12.9-10.88,12.175,63.5-4.23,207.865-7.223,207.865-6.913C291.775,50.891,47.4,55.121,47.4,55.121S51.166,53.986,50.329,51.613Z" transform="translate(-10.049 1.325)"/><path class="bz" d="M293.452,14.64s-9.31,1.445-11.717,3.2a2.421,2.421,0,0,1-2.2.413A248.03,248.03,0,0,0,240.1,10.1C240.2,10.2,269.5,10.513,293.452,14.64Z" transform="translate(-1.161 0.431)"/><path class="ca" d="M49.57,54.7l-.314.31c-.1.1-.209.31-.418.413-14.96,14.548-36.928,13-36.928,13s-1.76.274,4.83-4.885c1.883-1.548,1.281-10.7,4.419-11.624.523-.206,5.71.1,6.337,0,0,0,8.474-1.341,18.726-3.611l.1.1C46.327,48.3,57,51.086,49.57,54.7Z" transform="translate(-11.696 1.646)"/><path class="bz" d="M255.262,101.84c-4.185,10.215-11.821,8.667-11.821,8.667l-46.866-1.238L110.9,107.1a17.167,17.167,0,0,1-4.394.31l-4.6-3.714s122.815-12.9,152.734-2.064A.892.892,0,0,0,255.262,101.84Z" transform="translate(-7.535 3.204)"/><path class="ch" d="M273.837,81.48c-3.452,1.651-7.009,5.262-10.043,9.08a86.519,86.519,0,0,0-7.741,11.556l-.628,1.548c-4.185,10.215-11.821,8.667-11.821,8.667l-46.866-1.238-85.678-2.167a17.168,17.168,0,0,1-4.394.31c-7.427-.619-6.068-8.048-6.068-8.048-3.348-7.945-4.5-17.025-4.5-25.279a114,114,0,0,1,2.511-24.35c10.566-1.857,57.642-4.024,102.311-5.572,45.3-1.651,88.084-2.786,88.084-2.786C293.713,68.479,273.837,81.48,273.837,81.48Z" transform="translate(-7.803 1.484)"/><path class="ch" d="M196.239,46.2s-8.683,52.828-4.08,64.074" transform="translate(-3.434 1.579)"/></g><g transform="translate(90.898 7.678)"><path class="cc" d="M288.891,44.237a.376.376,0,0,1-.1.31c-24.479.206-55.654,1.238-87.561,2.683C164.82,48.88,127.474,50.944,98.6,52.7v-.1s-.628-19.191,6.381-22.287c0,0,47.285-26.414,105.136-22.6,18.935,1.238,73.124,3.1,74.8,13.826C284.811,21.538,289,40.213,288.891,44.237Z" transform="translate(-98.586 -7.334)"/><path class="bt" d="M211.967,13.573c-1.465,7.635-6.068,31.057-6.068,32.6l57.642-1.238s11.507-14.445,9-24.454c-.314-1.238-38.079-8.77-57.537-9.286A2.926,2.926,0,0,0,211.967,13.573Z" transform="translate(-93.636 -7.212)"/><path class="bt" d="M107.378,32.449c3.661-2.992,12.554-6.4,17.156-8.048.732-.206,1.465.31,1.255,1.032-.732,3.921-2.929,14.858-3.975,15.477,0,0-11.507,2.992-15.9.31C105.808,41.323,104.762,34.513,107.378,32.449Z" transform="translate(-98.262 -6.793)"/><path class="br" d="M122.554,34.812s4.5,8.564.1,12.175c0,0-12.554,1.548-12.658-6.81C110,40.074,110.942,32.645,122.554,34.812Z" transform="translate(-98.06 -6.473)"/><g transform="translate(112.264 3.981)"><g class="ci"><path class="e" d="M.407.038,5.918,0,5.511,59.382,0,59.42Z" transform="matrix(0.746, 0.666, -0.666, 0.746, 45.467, -8.136)"/><path class="e" d="M.407.085,12.78,0l-.407,59.382L0,59.467Z" transform="matrix(0.746, 0.666, -0.666, 0.746, 56.732, -4.706)"/></g></g><path class="bt" d="M130.914,21.355C139.387,18.466,175.06,6.91,198.6,10.521a1.3,1.3,0,0,1,1.046,1.651c-1.255,5.262-5.858,24.041-8.474,31.986a3.477,3.477,0,0,1-3.348,2.476l-60.466,3.2L123.8,40.34l4.6-16.715A4.194,4.194,0,0,1,130.914,21.355Z" transform="translate(-97.423 -7.255)"/><g transform="translate(26.377 2.574)"><g class="cj"><path class="e" d="M.486.034,5.481,0,4.994,72.1,0,72.133Z" transform="translate(52.536 -9.31) rotate(38.74)"/><path class="e" d="M.486.13,19.84,0l-.486,72.1L0,72.23Z" transform="translate(65.388 -9.815) rotate(38.74)"/></g></g></g></g></g></g></g></g></svg>